<svg width="122" height="107" fill="none" xmlns="http://www.w3.org/2000/svg"><path d="m95.465 44.758-2.11 1.912-.029 22.208 2.14-24.12Zm0 0-26.058-3.336 23.949 5.248 2.11-1.912Zm-26.058-3.336-1.566 2.037 25.515 3.211-23.948-5.248Zm26.095 26.005-.037-22.669-2.139 24.12 2.176-1.451Zm0 0-2.176 1.45-.025 1.261 2.2-2.712Zm2.17-24.67-2.207 2.001.037 22.669 2.17-24.67ZM95.48 68.713l-2.18 1.424-.072 1.206 2.252-2.63Zm-.071 1.231-2.181 1.399-.12 1.149 2.3-2.547Zm-.12 1.175-2.182 1.373-.168 1.093 2.35-2.466Zm-.168 1.116-2.182 1.35-.216 1.037 2.398-2.387Zm2.552-29.48L71.05 39.288l24.415 5.47 2.208-2.002ZM95.48 68.714l.022-1.287-2.201 2.711 2.179-1.424Zm-.577 4.581-2.18 1.328-.265.979 2.445-2.307ZM71.05 39.288l-1.642 2.134 26.057 3.336-24.415-5.47Zm23.585 35.008-2.177 1.306-.314.922 2.491-2.228Zm.774-4.35.07-1.232-2.251 2.63 2.18-1.398Zm-1.091 5.291-2.174 1.287-.362.865 2.536-2.151Zm.971-4.117.12-1.175-2.302 2.548 2.182-1.373Zm-1.339 5-2.168 1.269-.411.806 2.58-2.074Zm1.17-3.884.17-1.116-2.351 2.466 2.182-1.35Zm-1.587 4.708-2.162 1.25-.46.749 2.622-1.999Zm1.37-3.649.218-1.059-2.398 2.386 2.18-1.327Zm-1.838 4.413-2.155 1.235-.51.69 2.665-1.925Zm1.57-3.412.268-1.001-2.445 2.307 2.177-1.306Zm-2.089 4.116-2.145 1.22-.56.63 2.705-1.85Zm1.772-3.175.317-.941-2.49 2.228 2.173-1.287Zm-2.341 3.819-2.136 1.207-.58.598 2.716-1.806Zm-38.158-39.63-1.23 2.113-1.44 24.477 2.67-26.59ZM93.95 76.121l.368-.883-2.536 2.15 2.168-1.267Zm3.832-10.216-.11-23.149-2.17 24.67 2.28-1.52Zm-6.396 13.762-2.124 1.194-.62.54 2.744-1.734Zm2.147-2.723.417-.823-2.58 2.074 2.163-1.25Zm-2.778 3.274-2.113 1.183-.66.482 2.773-1.665Zm2.31-2.51.468-.764-2.623 1.999 2.155-1.235Zm4.717-11.803-2.28 1.522-.022 1.287 2.302-2.809Zm-7.7 14.804-2.1 1.174-.698.422 2.798-1.596Zm2.464-2.297.519-.704-2.664 1.924 2.145-1.22Zm7.44-37.753-2.313 2.097.11 23.15 2.203-25.247Zm-2.222 26.563-2.284 1.492-.071 1.231 2.355-2.723Zm-5.787 11.834.569-.644-2.705 1.85 2.136-1.207Zm-38.158-39.63-31.82-4.073 30.59 6.186 1.23-2.113ZM97.695 68.48l-2.286 1.465-.12 1.175 2.406-2.64Zm-6.309 11.187.59-.612-2.715 1.806 2.125-1.194ZM22 35.353l-.506 2.272L52.59 41.54 22 35.353ZM97.577 69.68l-2.288 1.44-.168 1.116 2.456-2.556Zm-6.822 10.538.631-.551-2.744 1.734 2.113-1.183Zm6.653-9.397-2.287 1.415-.218 1.059 2.505-2.474Zm-7.326 9.888.673-.49-2.772 1.664 2.1-1.174Zm9.904-40.05-27.214-3.61 24.9 5.707 2.314-2.097ZM89.368 81.14l.713-.43-2.798 1.595 2.085-1.165Zm8.395-13.918.018-1.317-2.302 2.81 2.284-1.493Zm-.575 4.681-2.286 1.392-.268 1 2.554-2.392ZM72.772 37.049l-1.722 2.239 26.623 3.468-24.9-5.707ZM96.92 72.926l-2.284 1.37-.317.941 2.6-2.311Zm.776-4.446.069-1.258-2.355 2.724 2.286-1.466Zm-1.098 5.408-2.28 1.35-.367.883 2.647-2.233Zm.98-4.208.118-1.2-2.406 2.64 2.288-1.44Z" fill="#E7E7E7"/><path d="m118.814 18.553-.193-.161-.201-.149.394.31Zm.364.36-.364-.36-.394-.31.758.67Zm0 0-.178-.187-.186-.173.364.36Zm-.758-.67-.209-.135-.216-.124.425.26Zm1.08 1.062-.154-.198-.168-.195.322.393Zm-.322-.393-.758-.669-.88-.468 1.638 1.137Zm-.758-.669-.425-.259-.455-.209.88.468Zm-.425-.259-.224-.11-.231-.099.455.21Zm1.771 1.728-.266-.407-.322-.393.588.8Zm0 0-.126-.206-.14-.201.266.407Zm-2.226-1.937-.239-.086-.247-.073.486.159Zm2.593 2.797-.367-.86-.588-.8.955 1.66Zm-.156-.438-.098-.213-.113-.209.211.422Z" fill="#010101"/><path d="m96.224 74.79-2.274 1.33-.417.824 2.691-2.154Z" fill="#E7E7E7"/><path d="m117.54 17.775-.486-.16-.516-.108 1.002.268Zm2.593 2.797-.156-.438-.211-.422.367.86Zm-3.079-2.956-.254-.061-.262-.048.516.109Z" fill="#010101"/><path d="m97.408 70.82.169-1.14-2.456 2.556 2.287-1.415Z" fill="#E7E7E7"/><path d="m120.133 20.572-.07-.22-.086-.218.156.438Zm.102.454-.044-.229-.058-.225.102.454Zm.045.469-.045-.47-.102-.453.147.923Zm0 0-.016-.237-.029-.232.045.469Z" fill="#010101"/><path d="m95.8 75.632-2.267 1.312-.468.764 2.735-2.076Zm1.389-3.729.22-1.082-2.506 2.474 2.286-1.392Zm-44.804-7.474 1.434-25.003-2.67 26.59 1.236-1.587Zm42.939 11.984-2.26 1.295-.518.704 2.778-2Zm1.595-3.487.27-1.023-2.554 2.392 2.284-1.37Zm-2.123 4.206-2.25 1.28-.57.643 2.82-1.923Zm1.801-3.244.322-.963-2.601 2.313 2.28-1.35ZM52.385 64.43l-1.237 1.587-.109 1.312 1.346-2.899Zm41.831 13.36-2.24 1.266-.59.612 2.83-1.878Zm-39.11-40.578-1.287 2.215-1.434 25.003 2.721-27.218Zm41.118 37.58.373-.903-2.647 2.233 2.274-1.33Zm3.95-10.482-.189-23.65-2.203 25.246 2.392-1.596Zm-6.56 14.105-2.228 1.253-.631.551 2.86-1.804ZM52.276 65.77l-1.237 1.557-.168 1.258 1.405-2.815ZM95.8 75.632l.424-.842-2.691 2.154 2.267-1.312Zm-2.83 3.345-2.215 1.241-.673.491 2.889-1.732Zm-40.864-11.92-1.235 1.529-.228 1.203 1.463-2.732Zm43.218 9.356.476-.78-2.735 2.075 2.259-1.295Zm4.85-12.104-2.392 1.596-.018 1.317 2.41-2.913Zm-7.889 15.17-2.203 1.23-.713.431 2.916-1.662Zm-40.41-11.192-1.232 1.502-.288 1.147 1.52-2.65Zm42.921 8.845.528-.72-2.778 2 2.25-1.28Zm7.615-38.673-2.425 2.2.188 23.65 2.237-25.85Zm-2.251 27.196-2.396 1.567-.069 1.258 2.465-2.825Zm-5.944 12.134.58-.657-2.82 1.923 2.24-1.266Zm-39.11-40.578L22.53 32.966l31.289 6.46 1.287-2.215ZM51.581 69.46l-1.226 1.477-.35 1.092 1.576-2.569Zm48.513-2.519-2.399 1.539-.118 1.2 2.517-2.739Zm-6.48 11.473.602-.625-2.83 1.878 2.228-1.253ZM52.276 65.77l.109-1.342-1.346 2.899 1.237-1.557Zm39.578 39.234-2.205.62 1.207-.338.998-.282ZM22.53 32.966 22 35.353l31.819 4.073-31.289-6.46Zm28.696 37.61-1.22 1.453-.41 1.036 1.63-2.488Zm48.751-2.408-2.4 1.512-.169 1.14 2.57-2.652Zm-7.006 10.809.643-.563-2.86 1.804 2.217-1.241Zm-2.384 26.316-2.177.614 1.24-.282.937-.332ZM52.106 67.057l.17-1.286-1.405 2.815 1.235-1.53Zm-1.298 4.58-1.212 1.428-.47.98 1.682-2.409Zm49-2.302-2.4 1.486-.22 1.082 2.62-2.568Zm-7.523 10.143.686-.501-2.889 1.732 2.203-1.23Zm-2.998 26.044-2.15.609 1.273-.224.877-.385ZM51.874 68.287l.232-1.23-1.463 2.732 1.231-1.502Zm50.537-29.828-27.83-3.762 25.404 5.962 2.426-2.2ZM50.328 72.64l-1.203 1.407-.532.923 1.735-2.33Zm41.23 7.279.727-.44-2.916 1.662 2.188-1.222Zm8.602-14.263.014-1.346-2.41 2.913 2.396-1.567Zm-.572 4.787-2.4 1.461-.27 1.022 2.67-2.483ZM74.581 34.697l-1.809 2.352 27.213 3.61-25.404-5.962Zm13.371 70.994-2.12.606 1.305-.166.815-.44ZM51.581 69.46l.293-1.173-1.52 2.65 1.227-1.477Zm-1.797 4.123-1.191 1.386-.594.867 1.785-2.253Zm49.531-2.096-2.396 1.439-.322.962 2.718-2.4Zm.779-4.546.066-1.286-2.465 2.825 2.399-1.539Zm-13.51 38.861-2.091.604 1.338-.109.752-.495ZM51.225 70.577l.355-1.117-1.575 2.569 1.22-1.452Zm-2.048 3.892-1.18 1.367-.655.81 1.834-2.177Zm43.909 30.191-1.233.345-.998.282 2.23-.627Zm5.903-32.189-2.393 1.417-.373.902 2.766-2.319Zm.987-4.303.117-1.227-2.517 2.739 2.4-1.512Zm-14.796 37.685-2.06.604 1.372-.051.688-.553ZM50.808 71.636l.418-1.06-1.63 2.49 1.212-1.43Zm41.046 33.369-1.267.288-.938.332 2.205-.62Zm6.758-31.611-2.388 1.396-.424.842 2.812-2.238Zm-14.868 32.449-2.028.606 1.405.008.623-.614ZM99.81 69.335l.168-1.167-2.569 2.653 2.4-1.486Z" fill="#E7E7E7"/><path d="m121.941 71.926-1.808-51.354-.955-1.66 2.763 53.014Zm0 0-1.661-50.431-.147-.923 1.808 51.354Z" fill="#010101"/><path d="m50.328 72.638.48-1.002-1.683 2.41 1.203-1.408Zm40.26 32.655-1.301.229-.877.385 2.177-.614Zm7.594-31.039L95.8 75.632l-.476.78 2.858-2.158Zm-15.908 31.52-1.995.608 1.437.067.558-.675Zm17.314-35.332.22-1.107-2.62 2.568 2.4-1.461Zm-45.904-7.68 1.422-25.551-2.721 27.218 1.3-1.666Zm27.608 42.93-1.973.611.96.079 1.013-.69Zm16.406-30.64-2.374 1.36-.528.72 2.902-2.08Zm-47.914-1.47.544-.944-1.735 2.331 1.191-1.386Zm39.503 31.94-1.335.169-.815.44 2.15-.609Zm-8.96.057-1.95.613.942.111 1.008-.724Zm18.988-34.092.273-1.045-2.67 2.484 2.397-1.439Zm-19.933 33.947-1.929.618.924.14 1.005-.758ZM97.16 75.787l-2.364 1.345-.58.657 2.945-2.002Zm-9.208 29.904-1.369.111-.752.495 2.121-.606ZM49.178 74.469l.606-.886L48 75.836l1.178-1.367Zm29.277 30.789-1.907.622.905.172 1.002-.794ZM60.35 90.028l-1.462.996.246.53 1.216-1.526ZM98.99 72.471l.325-.984-2.718 2.401 2.393-1.417Zm-38.388 18.1-1.469.984.264.532 1.205-1.516Zm16.946 14.479-1.887.628.887.202 1-.83ZM60.873 91.117l-1.476.97.282.534 1.194-1.504Zm-7.189-28.354-1.3 1.666-.108 1.342 1.408-3.008ZM96.57 76.459l-2.354 1.33-.602.625 2.956-1.955Zm-9.987 29.343-1.402.051-.688.553 2.09-.604Zm-25.42-14.139-1.484.958.299.535 1.185-1.493Zm15.496 13.147-1.866.634.868.234.998-.868Zm-20.2-69.925-1.353 2.326-1.422 25.552 2.776-27.878Zm-7.952 40.411.67-.827-1.834 2.177 1.164-1.35ZM61.47 92.212l-1.492.944.316.537 1.176-1.481Zm37.142-18.818.378-.923-2.766 2.32 2.388-1.397ZM75.79 104.539l-1.845.641.848.264.997-.905Zm26.899-41.907-.278-24.173-2.237 25.85 2.515-1.677Zm-40.894 30.13-1.5.931.334.54 1.166-1.47Zm.343.553-1.51.917.353.54 1.157-1.457Zm12.803 10.921-1.826.649.83.295.996-.944Zm21.015-27.139-2.342 1.317-.643.563 2.985-1.88ZM62.5 93.87l-1.52.904.37.542 1.15-1.446Zm22.68 11.984-1.436-.01-.623.614 2.06-.604ZM53.576 64.135l-1.3 1.636-.17 1.286 1.47-2.922Zm20.537 39.767-1.806.657.81.326.996-.983Zm-11.233-9.478-1.529.891.388.544 1.141-1.435Zm.398.558-1.54.877.406.546 1.134-1.423Zm10.025 8.554-1.786.666.79.357.996-1.023Zm-9.61-7.995-1.55.864.423.547 1.128-1.411Zm34.49-21.287.43-.86-2.812 2.238 2.382-1.378Zm-25.67 28.884-1.767.677.77.387.998-1.064Zm-8.386-7.036-1.56.85.44.548 1.12-1.398Zm7.618 6.607-1.75.687.751.419.999-1.106Zm-7.166-6.045-1.572.836.459.57 1.113-1.406ZM95.3 77.673l-2.33 1.304-.685.501 3.015-1.805Zm-24.278 24.613-1.732.698.705.412 1.027-1.11Zm12.722 3.557-1.47-.069-.558.675 2.028-.606ZM65.05 97.248l-1.584.822.482.556 1.102-1.378Zm5.274 4.601-1.715.709.682.426 1.033-1.135Zm-4.78-4.032-1.596.809.504.541 1.092-1.35Zm4.103 3.579-1.698.721.66.441 1.038-1.162Zm-3.585-3.024-1.61.795.527.527 1.083-1.322Zm2.93 2.557-1.682.732.639.456 1.044-1.188Zm-2.39-2.016-1.623.781.55.514 1.073-1.295Zm1.759 1.534-1.667.744.616.47 1.05-1.214Zm-1.195-1.008-1.638.769.572.498 1.066-1.267Zm.586.511-1.652.756.594.485 1.058-1.24Zm-14.348-34.5-1.297 1.607-.232 1.23 1.53-2.837Z" fill="#E7E7E7"/><path d="m119.178 18.912-1.638-1.137L11.295.918l107.883 17.994Z" fill="#010101"/><path d="m97.698 75.052.484-.798-2.858 2.159 2.374-1.36Zm4.991-12.42-2.515 1.677-.014 1.346 2.529-3.023ZM94.6 78.185l-2.315 1.293-.728.44 3.043-1.733Zm-12.326 27.589-.983-.082-1.012.69 1.995-.608Z" fill="#E7E7E7"/><path d="m117.54 17.775-1.002-.268L11.295.918 117.54 17.775Z" fill="#010101"/><path d="m81.291 105.692-.964-.113-1.008.724 1.972-.611ZM53.168 66.708l-1.294 1.579-.293 1.173 1.587-2.752Zm43.992 9.08.538-.736-2.902 2.08 2.364-1.345Zm-16.833 29.791-.945-.145-1.005.758 1.95-.613Zm24.632-69.43-2.548 2.31.278 24.173 2.27-26.483Zm-2.28 27.86-2.519 1.646-.066 1.286 2.585-2.932Zm-23.297 41.425-.927-.176-1.002.794 1.929-.618ZM96.57 76.459l.59-.672-2.944 2.002 2.354-1.33ZM56.46 34.885l-33.37-4.428 32.016 6.754 1.354-2.326Zm-3.59 33.024-1.289 1.551-.355 1.117 1.644-2.668Zm7.732 22.662-.253-.543-1.216 1.527 1.47-.984Zm17.853 14.687-.907-.208-1 .83 1.907-.622ZM60.874 91.117l-.272-.546-1.205 1.516 1.477-.97Zm41.742-25.792-2.522 1.616-.117 1.227 2.639-2.843ZM61.163 91.663l-.29-.546-1.194 1.504 1.484-.958Zm16.385 13.387-.889-.24-.998.868 1.886-.628ZM61.47 92.212l-.307-.549-1.185 1.493 1.492-.944Zm34.486-15.115.614-.638-2.956 1.955 2.342-1.317ZM53.575 64.135l.11-1.372-1.41 3.008 1.3-1.636Zm40.597 40.219-2.318.651 1.233-.345 1.085-.306Zm-17.513.456-.869-.271-.997.905 1.866-.634ZM61.795 92.763l-.325-.551-1.176 1.481 1.501-.93Z" fill="#E7E7E7"/><path d="M119.178 18.912 104.959 36.15l.374 24.72 13.845-41.957Z" fill="#010101"/><path d="m52.508 69.05-1.282 1.527-.418 1.06 1.7-2.586ZM23.09 30.458l-.559 2.51 32.576 4.244-32.017-6.754Zm39.05 62.858-.344-.552-1.166 1.47 1.51-.918Zm13.651 11.224-.85-.303-.995.944 1.845-.641ZM62.5 93.869l-.362-.554-1.157 1.458 1.519-.904ZM102.5 66.58l-2.524 1.588-.168 1.167 2.692-2.755Zm-27.56 37.656-.83-.334-.996.983 1.826-.649Zm-12.062-9.812-.38-.555-1.149 1.446 1.53-.89ZM95.3 77.673l.657-.576-2.985 1.88 2.329-1.304ZM63.278 94.982l-.398-.558-1.141 1.435 1.539-.877Zm10.835 8.92-.81-.366-.996 1.023 1.806-.657Zm-10.42-8.361-.415-.56-1.134 1.424 1.55-.864Zm29.185 9.107-2.29.645 1.267-.288 1.023-.357ZM53.403 65.45l.172-1.315-1.47 2.922 1.298-1.607Zm19.899 38.086-.79-.398-.996 1.064 1.786-.666Zm-9.176-7.434-.434-.561-1.127 1.41 1.561-.85ZM52.083 70.134l-1.275 1.502-.48 1.002 1.755-2.504Zm12.495 26.53-.452-.562-1.12 1.398 1.572-.836Zm7.935 6.474-.769-.429-.999 1.106 1.768-.677Zm-7.464-5.89-.471-.584-1.113 1.406 1.584-.822Zm6.695 5.461-.722-.423-1.027 1.11 1.749-.687Zm-6.2-4.892-.495-.57-1.102 1.379 1.596-.809Zm5.478 4.469-.7-.437-1.032 1.135 1.732-.698Zm31.311-34.512-2.524 1.561-.22 1.107 2.744-2.668ZM66.061 98.372l-.518-.555-1.092 1.35 1.61-.795Zm4.262 3.477-.677-.453-1.038 1.162 1.715-.709ZM94.6 78.185l.7-.512-3.015 1.805 2.315-1.293ZM66.601 98.913l-.54-.54-1.083 1.321 1.623-.781Zm3.045 2.483-.654-.467-1.044 1.188 1.698-.721Zm-2.481-1.957-.564-.526-1.074 1.295 1.638-.77Zm1.826 1.49-.631-.482-1.05 1.214 1.681-.732Zm-1.24-.979-.587-.511-1.065 1.267 1.652-.756Zm.609.497-.61-.497-1.057 1.241 1.667-.744Zm23.187 4.434-2.26.641 1.3-.229.96-.412Z" fill="#E7E7E7"/><path d="m119.178 18.912-59.8 10.955 45.581 6.282 14.219-17.237Z" fill="#010101"/><path d="m53.168 66.708.235-1.258-1.529 2.837 1.294-1.579ZM104.96 36.15l-28.475-3.925 25.927 6.235 2.548-2.31ZM51.592 71.16l-1.264 1.48-.544.944 1.808-2.424Zm42.266 7.475.742-.449-3.043 1.733 2.3-1.284Zm8.821-14.625.01-1.377-2.529 3.023 2.519-1.646Zm-.568 4.897-2.523 1.536-.273 1.045 2.796-2.581ZM76.484 32.224l-1.903 2.473 27.83 3.762-25.927-6.235Z" fill="#E7E7E7"/><path d="m122 67.797-.055-2.156-1.665-44.146L122 67.797Z" fill="#010101"/><path d="m90.181 105.054-2.229.637 1.335-.169.894-.468Zm-37.31-37.145.297-1.2-1.587 2.751 1.29-1.551Zm-1.834 4.216-1.253 1.458-.606.886 1.859-2.344Zm50.798-2.15-2.52 1.512-.325.984 2.845-2.496Zm.781-4.65.063-1.316-2.585 2.932 2.522-1.616Zm-13.835 39.841-2.198.636 1.37-.111.828-.525ZM52.508 69.051l.362-1.142-1.644 2.668 1.282-1.526Zm-2.091 3.98-1.24 1.438-.67.827 1.91-2.265Zm45.014 30.97-1.26.353-1.084.306 2.344-.659Zm6.075-33.02-2.516 1.49-.378.923 2.894-2.412Z" fill="#E7E7E7"/><path d="m121.941 71.926.059-4.129-1.72-46.302 1.661 50.431Z" fill="#010101"/><path d="m102.501 66.58.115-1.255-2.639 2.843 2.524-1.588Zm-15.155 38.638-2.165.635 1.402-.051.763-.584ZM52.083 70.134l.425-1.083-1.7 2.585 1.275-1.501Zm42.089 34.22-1.295.294-1.023.357 2.318-.651Zm6.951-32.428-2.51 1.468-.431.86 2.941-2.328Zm-15.247 33.281-2.132.636 1.437.01.695-.646Zm16.457-37.433.168-1.194-2.692 2.755 2.524-1.561Zm-50.74 3.385.49-1.025-1.755 2.504 1.264-1.479Zm41.284 33.489-1.33.233-.96.412 2.29-.645Zm7.809-31.842-2.504 1.448-.484.798 2.988-2.246Zm-16.315 32.329-2.097.639 1.47.069.627-.708Zm17.74-36.23.222-1.131-2.745 2.668 2.523-1.536Zm-47.06-7.895 1.409-26.125-2.776 27.878 1.366-1.753Zm28.314 44.041-2.073.641.982.082 1.091-.723Z" fill="#E7E7E7"/><path d="m119.178 18.912-13.845 41.956-.005 1.41 13.85-43.366Z" fill="#010101"/><path d="m100.194 73.622-2.496 1.43-.537.735 3.033-2.165Zm-49.157-1.497.555-.966-1.808 2.424 1.253-1.458Zm40.51 32.756-1.366.173-.894.468 2.26-.641Zm-9.168.053-2.052.645.965.113 1.087-.758Zm19.456-34.959.276-1.07-2.796 2.582 2.52-1.512Z" fill="#E7E7E7"/><path d="m119.178 18.912-13.85 43.365-.059 1.347 13.909-44.712Z" fill="#010101"/><path d="m81.41 104.785-2.028.649.945.145 1.083-.794Zm18.236-30.412-2.486 1.414-.59.672 3.076-2.086Zm-9.465 30.681-1.4.112-.829.525 2.23-.637ZM50.417 73.031l.62-.906-1.86 2.344 1.24-1.438Zm30.044 31.572-2.006.655.927.176 1.079-.831ZM61.887 88.981l-1.538 1.047.253.543 1.285-1.59Z" fill="#E7E7E7"/><path d="m119.178 18.912-13.909 44.712-.113 1.285 14.022-45.997Z" fill="#010101"/><path d="m101.506 70.982.329-1.007-2.845 2.496 2.516-1.49Zm-52.774 30.617-1.208.731 1.202-.722.006-.009Zm13.415-12.062-1.545 1.034.272.546 1.273-1.58Zm17.384 14.852-1.984.661.908.208 1.076-.869ZM62.426 90.096l-1.553 1.02.29.547 1.263-1.567ZM55.05 61.01l-1.366 1.753-.109 1.372 1.475-3.125Zm43.994 14.05-2.474 1.4-.614.637 3.088-2.037ZM88.78 105.166l-1.435.052-.763.584 2.198-.636Zm-26.058-14.51-1.56 1.007.307.549 1.253-1.555Zm15.898 13.487-1.962.667.888.24 1.074-.907Z" fill="#E7E7E7"/><path d="M119.178 18.912 105.156 64.91l-.168 1.222 14.19-47.219Z" fill="#010101"/><path d="m57.881 32.44-1.421 2.445-1.41 26.125 2.831-28.57Zm-8.15 41.438.686-.847-1.91 2.265 1.224-1.419ZM63.04 91.219l-1.57.993.326.55 1.244-1.543Zm38.084-19.293.383-.944-2.894 2.412 2.511-1.468Zm-23.392 31.939-1.94.674.868.271 1.072-.945Zm27.602-42.997-.374-24.719-2.27 26.483 2.644-1.764Zm-41.96 30.916-1.578.978.343.553 1.235-1.531Zm.353.566-1.588.965.362.554 1.226-1.52Zm13.134 11.204-1.92.682.85.303 1.07-.985Zm-29.397-1.287-1.178.715 1.239-.652-.06-.063ZM98.42 75.713l-2.463 1.384-.656.576 3.119-1.96Z" fill="#E7E7E7"/><path d="m119.178 18.912-14.19 47.219-.223 1.158 14.413-48.377Z" fill="#010101"/><path d="m64.097 92.918-1.597.95.38.556 1.217-1.506Zm23.25 12.3-1.47-.011-.696.646 2.165-.635ZM54.94 62.415l-1.366 1.72-.172 1.315 1.538-3.035Zm21.07 40.795-1.9.692.83.334 1.07-1.026Zm-11.524-9.722-1.608.936.398.558 1.21-1.495Zm.409.571-1.62.923.416.559 1.203-1.482Zm10.285 8.775-1.879.702.81.366 1.069-1.068Zm-9.859-8.202-1.63.909.434.56 1.196-1.469Zm35.364-21.826.437-.88-2.941 2.328 2.504-1.448Zm-26.314 29.62-1.86.712.79.398 1.07-1.11Zm-8.604-7.219-1.642.895.452.562 1.19-1.457Z" fill="#E7E7E7"/><path d="M119.178 18.912 104.765 67.29l-.277 1.095 14.69-49.472Z" fill="#010101"/><path d="m73.583 101.986-1.839.723.769.429 1.07-1.152Zm-7.352-6.202-1.653.88.471.584 1.182-1.464ZM97.75 76.301l-2.45 1.372-.699.512 3.149-1.884Zm-24.906 25.251-1.82.734.721.423 1.1-1.157Zm13.033 3.655-1.505-.072-.627.708 2.132-.636Zm-19.16-8.824-1.667.865.494.57 1.172-1.435Zm5.41 4.72-1.803.746.7.437 1.103-1.183Zm-4.903-4.136-1.68.85.518.555 1.162-1.405Zm4.209 3.672-1.786.757.677.453 1.109-1.21Zm-25.276 2.224-1.148.702 1.277-.583-.129-.119Zm21.598-5.327-1.693.836.54.54 1.153-1.376Zm3.007 2.623-1.77.77.655.467 1.115-1.237Zm-2.453-2.068-1.707.822.564.526 1.143-1.348Zm1.805 1.574-1.753.782.632.482 1.12-1.264Zm-1.227-1.035-1.721.809.586.511 1.135-1.32Zm.602.525-1.737.795.609.497 1.128-1.292Zm-14.72-35.394-1.365 1.69-.235 1.257 1.6-2.947Zm45.426 9.86.492-.815-2.988 2.246 2.496-1.43Zm5.139-12.753-2.644 1.764-.01 1.377 2.654-3.14Zm-8.298 15.956L94.6 78.185l-.742.449 3.177-1.81Zm-12.664 28.311-1.006-.084-1.091.723 2.097-.639Zm-1.006-.084-.986-.117-1.088.758 2.074-.641Zm-38.554-1.664-1.116.69 1.313-.512-.197-.178Zm9.718-38.339-1.36 1.66-.299 1.2 1.659-2.86Zm45.117 9.325.548-.751-3.034 2.165 2.486-1.414ZM82.38 104.934l-.97-.149-1.082.794 2.052-.645Zm22.949-42.657-2.649 1.732-.063 1.316 2.712-3.048Zm-55.365 38.584-1.23.738-.007.009 1.237-.747Zm31.447 3.924-.95-.182-1.078.831 2.028-.649ZM99.044 75.06l.602-.687-3.076 2.086 2.474-1.399ZM57.88 32.44l-34.204-4.624 32.783 7.069 1.421-2.445Zm-14.454 71.398-1.083.68 1.35-.441-.267-.239Zm10.799-37.562L52.87 67.91l-.361 1.142 1.717-2.775Z" fill="#E7E7E7"/><path d="m113.5 95.654 8.441-23.728-2.763-53.014-5.678 76.742Z" fill="#010101"/><path d="m62.147 89.537-.26-.556-1.285 1.59 1.545-1.034Zm18.314 15.066-.93-.214-1.076.869 2.006-.655ZM62.426 90.096l-.279-.559-1.273 1.58 1.552-1.02Zm42.843-26.472-2.653 1.701-.115 1.255 2.768-2.956ZM62.723 90.657l-.297-.56-1.263 1.566 1.56-1.006Zm16.808 13.732-.91-.246-1.073.907 1.983-.661ZM63.04 91.219l-.316-.562-1.253 1.555 1.569-.993Zm35.38-15.506.625-.653-3.088 2.037 2.463-1.384ZM54.94 62.415l.11-1.405-1.476 3.125 1.366-1.72Zm41.669 41.254-2.438.685 1.259-.353 1.179-.332Zm-17.989.474-.89-.278-1.072.945 1.962-.667Zm-15.248-12.36-.334-.564-1.244 1.544 1.578-.98Zm-14.64 9.816-1.27.668.061.063 1.208-.731Zm-6.727 2.618-1.05.671 1.388-.37-.338-.301Zm11.851-36.772-1.349 1.606-.425 1.084 1.774-2.69Zm-30.18-39.629-.588 2.641 33.37 4.428-32.782-7.069ZM63.726 92.35l-.353-.566-1.235 1.53 1.588-.964Zm14.005 11.515-.87-.311-1.07.985 1.94-.674ZM64.097 92.918l-.371-.568-1.226 1.519 1.597-.951Z" fill="#E7E7E7"/><path d="M119.178 18.912 7.781 2.841l51.597 27.026 59.8-10.955Z" fill="#010101"/><path d="m105.156 64.909-2.655 1.671-.168 1.194 2.823-2.865ZM76.86 103.554l-.85-.344-1.07 1.026 1.92-.682ZM64.487 93.487l-.39-.57-1.218 1.507 1.608-.937ZM97.75 76.302l.67-.588-3.12 1.96 2.45-1.372ZM64.896 94.059l-.409-.572-1.21 1.495 1.618-.923Z" fill="#E7E7E7"/><path d="m59.378 29.867 17.106 2.357 28.475 3.925-45.58-6.282Z" fill="#010101"/><path d="m76.01 103.21-.829-.376-1.07 1.068 1.9-.692Zm-10.688-8.578-.427-.573-1.202 1.482 1.63-.909Zm29.964 9.337-2.41.679 1.296-.294 1.114-.385ZM.42 69.834l.01 1.546.042 1.886-.052-3.433Zm54.347-6.073.174-1.346-1.538 3.035 1.364-1.69Zm20.414 39.073-.81-.408-1.069 1.11 1.879-.702Zm-9.413-7.627-.446-.575-1.196 1.47 1.642-.895Zm-25.222 9.315-1.013.664 1.424-.298-.41-.366Zm12.877-35.968-1.34 1.58-.49 1.025 1.83-2.605Zm12.808 27.23-.463-.577-1.19 1.457 1.653-.88Zm8.14 6.642-.788-.44-1.07 1.152 1.859-.712Zm-26.908-.159-1.307.596.129.119 1.178-.715Zm19.252-5.884-.484-.599-1.182 1.464 1.666-.865Zm6.868 5.603-.74-.434-1.099 1.157 1.84-.723Zm-6.36-5.02-.508-.583-1.172 1.434 1.68-.85Zm5.62 4.586-.717-.449-1.104 1.183 1.821-.734Zm32.145-35.421-2.655 1.643-.222 1.132 2.877-2.775ZM67.754 97.536l-.531-.57-1.162 1.406 1.693-.836Zm4.372 3.567-.694-.464-1.11 1.21 1.804-.746Zm24.909-24.279.714-.523-3.149 1.884 2.435-1.36ZM68.308 98.091l-.554-.555-1.153 1.377 1.707-.822Zm3.124 2.548-.671-.48-1.115 1.237 1.786-.757Zm-2.546-2.009-.578-.54-1.144 1.349 1.722-.809Zm1.875 1.529-.648-.494-1.121 1.264 1.769-.77Zm-1.273-1.004-.602-.525-1.135 1.32 1.737-.795Zm.625.51-.625-.51-1.128 1.292 1.753-.782Zm23.812 4.542-2.378.674 1.33-.233 1.048-.441Z" fill="#E7E7E7"/><path d="M116.538 17.507 12.156.986l-.292-.039 104.674 16.56ZM113.5 95.654l5.678-76.742-14.69 49.472 9.012 27.27Z" fill="#010101"/><path d="m54.529 65.048.238-1.287-1.599 2.947 1.36-1.66Zm-15.481 39.704-.977.66 1.462-.226-.485-.434Z" fill="#E7E7E7"/><path d="M116.538 17.507 11.864.947l-.569-.029 105.243 16.589Z" fill="#010101"/><path d="m.463 71.764.01 1.502.111 1.842-.12-3.344Zm52.46-2.161-1.33 1.556-.556.966 1.885-2.522Zm-6.767 33.26-1.345.524.197.178 1.148-.702Zm50.12-25.58.759-.459-3.177 1.81 2.419-1.351Zm9.052-15.006.005-1.409-2.654 3.14 2.649-1.73Zm-.563 5.012-2.654 1.617-.276 1.07 2.93-2.687Z" fill="#E7E7E7"/><path d="m121.941 71.926.058-2.033.001-2.096-.059 4.13Z" fill="#010101"/><path d="m92.528 104.384-2.347.67 1.366-.173.981-.497Zm-55.016.524-.94.658 1.499-.154-.56-.504Zm16.714-38.632.303-1.228-1.659 2.86 1.356-1.632Zm-1.87 4.315-1.32 1.534-.62.906 1.94-2.44Z" fill="#E7E7E7"/><path d="M119.178 18.912 11.295.918 7.781 2.841l111.397 16.071Z" fill="#010101"/><path d="m.58 73.652.004 1.456.183 1.798-.188-3.254Zm44.23 29.735-1.383.451.268.239 1.116-.69Zm59.678-35.003-2.653 1.591-.329 1.007 2.982-2.598Zm.781-4.76.059-1.347-2.712 3.048 2.653-1.7Zm-14.173 40.874-2.315.668 1.4-.112.915-.556Zm-55.158.492-.9.656 1.534-.08-.634-.576Zm17.92-37.545.368-1.169-1.718 2.775 1.35-1.606Zm-2.136 4.073-1.305 1.513-.686.846 1.99-2.359Zm46.176 31.79-1.288.361-1.18.332 2.468-.693ZM.766 75.495l.001 1.411.253 1.754-.254-3.165Zm42.661 28.343-1.421.379.338.301 1.083-.68Zm60.728-34.424-2.649 1.568-.383.944 3.032-2.512Zm1.001-4.505.113-1.285-2.768 2.956 2.655-1.671Zm-15.53 39.64-2.28.669 1.435-.052.845-.617Zm-55.3.447-.86.657 1.571-.007-.711-.65Zm19.097-36.442.434-1.109-1.774 2.69 1.34-1.58ZM96.61 103.67l-1.324.3-1.114.385 2.438-.685Zm7.157-33.29-2.644 1.547-.437.88 3.081-2.426ZM1.027 77.293 1.02 78.66l.324 1.709-.318-3.077Zm40.979 26.925-1.46.305.41.366 1.05-.671Zm46.115.32-2.245.67 1.47.011.775-.681Zm16.867-38.406.168-1.222-2.823 2.865 2.655-1.643Zm-72.312 38.795-.82.66 1.61.067-.79-.727Z" fill="#E7E7E7"/><path d="m121.655 75.805.172-1.908.114-1.97-.286 3.878Z" fill="#010101"/><path d="m.463 71.764-.043-1.93.052 3.431-.009-1.5Zm52.46-2.161.5-1.049-1.83 2.605 1.33-1.556Zm42.363 34.366-1.36.238-1.05.441 2.41-.679Zm8.036-32.689-2.636 1.526-.492.816 3.128-2.342ZM86.58 104.463l-2.209.672 1.505.072.704-.744ZM1.358 79.043l-.014 1.325.394 1.662-.38-2.987Zm39.188 25.479-1.498.23.485.434 1.013-.664Zm-9.58.26-.777.665 1.668.139-.892-.804Zm73.799-37.493.223-1.158-2.877 2.775 2.654-1.617ZM56.49 59.165 57.88 32.44l-2.83 28.57 1.439-1.845Zm29.06 45.21-2.185.676 1.006.084 1.178-.76Zm17.271-32.26-2.627 1.507-.548.751 3.175-2.258ZM1.763 80.746l-.025 1.284.466 1.614-.441-2.898Zm50.592-10.155.567-.988-1.885 2.522 1.318-1.534Zm41.57 33.616-1.397.177-.981.497 2.378-.674ZM.58 73.652l-.116-1.888.121 3.344-.005-1.456Zm28.707 30.922-.734.671 1.637.202-.903-.873Z" fill="#E7E7E7"/><path d="m121.136 79.426.519-3.621.286-3.879-.805 7.5Z" fill="#010101"/><path d="m39.048 104.752-1.536.156.559.504.977-.66Zm45.49-.498-2.16.68.987.117 1.173-.797Zm19.95-35.87.277-1.095-2.93 2.686 2.653-1.591ZM83.546 104.1l-2.136.684.969.149 1.167-.833Zm-81.305-21.7-.037 1.243.536 1.566-.5-2.809Zm25.399 21.901-.693.679 1.605.264-.912-.943Zm74.624-31.418-2.618 1.49-.602.686 3.22-2.175Zm-9.736 31.5-1.432.114-.915.556 2.347-.67ZM51.722 71.518l.633-.927-1.938 2.44 1.305-1.513Zm-14.21 33.39-1.574.082.634.576.94-.658Zm45.062-.994-2.113.689.949.182 1.164-.871ZM.766 75.494.58 73.653l.188 3.254v-1.411Zm62.74 12.384-1.619 1.103.26.556 1.36-1.66Zm40.649-18.464.333-1.03-2.982 2.598 2.649-1.568Zm-54.15 31.416-1.273.769 1.23-.738.043-.031Zm13.77-12.382-1.628 1.09.279.558 1.349-1.648Zm-37.749 15.516-.652.689 1.573.328-.921-1.017ZM2.792 84.007 2.74 85.21l.63 1.517-.578-2.72Zm78.829 19.687-2.09.695.93.214 1.16-.909Z" fill="#E7E7E7"/><path d="m121.136 79.426.289-1.778.23-1.843-.519 3.621Z" fill="#010101"/><path d="m64.061 89.022-1.635 1.074.297.56 1.338-1.635ZM56.49 59.165l-1.44 1.845-.109 1.405 1.549-3.25Zm45.16 14.422-2.606 1.473-.625.653 3.231-2.126Zm-10.554 30.911-1.47.051-.845.617 2.315-.668ZM64.367 89.597l-1.644 1.06.316.562 1.328-1.622Zm16.32 13.844-2.066.702.91.246 1.157-.948ZM59.379 29.867l-1.497 2.573-1.391 26.725 2.888-29.298ZM51.02 72.384l.702-.866-1.99 2.36 1.288-1.494ZM35.938 104.99l-1.612.006.711.65.9-.656Zm-11.492-1.429-.612.7 1.54.392-.928-1.092ZM3.438 85.563l-.068 1.164.687 1.464-.619-2.628Zm61.254 4.61-1.653 1.046.334.565 1.319-1.61ZM1.026 77.293l-.26-1.797.254 3.165.006-1.368Zm102.741-6.912.388-.966-3.032 2.512 2.644-1.546Zm-23.992 32.774-2.044.711.89.278 1.154-.989Zm-14.74-12.401-1.662 1.03.353.567 1.31-1.597Zm.363.58-1.672 1.017.371.568 1.301-1.585Zm13.485 11.502-2.023.719.87.311 1.153-1.03Zm-30.178-1.322-1.242.754 1.27-.668-.028-.086Zm52.307-27.258-2.593 1.458-.67.588 3.263-2.046ZM22.9 103.094l-.572.712 1.506.455-.934-1.167Zm42.88-11.178-1.683 1.002.39.57 1.293-1.572ZM4.143 87.064l-.086 1.127.744 1.41-.658-2.537Zm85.483 17.485-1.505-.012-.775.681 2.28-.669ZM56.38 60.603l-1.439 1.812-.174 1.346 1.613-3.158Zm21.631 41.879-2 .728.85.344 1.15-1.072Zm-11.83-9.981-1.694.986.409.572 1.285-1.558Zm-31.855 12.495-1.65-.07.79.727.86-.657ZM66.6 93.087l-1.704.972.426.573 1.278-1.545Zm10.56 9.009-1.979.738.83.376 1.15-1.114Zm-55.77.465-.534.727 1.471.518-.938-1.245Z" fill="#E7E7E7"/><path d="m119.392 85.874 1.744-6.448.805-7.5-2.549 13.948Z" fill="#010101"/><path d="m67.04 93.675-1.718.957.446.575 1.272-1.531Zm36.282-22.395.445-.9-3.081 2.426 2.636-1.526ZM4.907 88.51l-.106 1.09.8 1.355-.694-2.445Zm-3.549-9.467-.332-1.751.318 3.076.014-1.325Zm74.973 22.633-1.96.75.81.408 1.15-1.158Zm-8.834-7.41-1.73.941.464.577 1.266-1.518Zm8.025 6.958-1.939.762.789.44 1.15-1.202Zm-7.548-6.367-1.743.927.484.599 1.259-1.526Zm32.355-20-2.58 1.444-.714.523 3.294-1.968Zm-25.566 25.922-1.92.773.74.434 1.18-1.207Zm-54.848 1.184-.496.743 1.437.582-.941-1.325Zm68.206 2.574-1.541-.074-.704.744 2.245-.67Zm-19.65-9.065-1.756.91.508.585 1.248-1.495ZM5.73 89.9l-.128 1.055.857 1.299-.73-2.354Zm68.297 10.417-1.9.786.716.449 1.184-1.235Zm-5.035-4.246-1.77.896.532.57 1.238-1.466Zm4.322 3.77-1.882.798.694.464 1.188-1.262Zm-25.948 2.283-1.21.739 1.307-.596-.097-.143Zm-14.69 2.802-1.71-.144.89.804.82-.66Zm36.862-8.27-1.784.88.554.555 1.23-1.435Zm3.087 2.692-1.864.811.67.48 1.194-1.29Zm-2.518-2.123-1.799.866.578.54 1.221-1.406Zm1.853 1.616-1.847.824.648.494 1.199-1.318Zm-1.259-1.062-1.815.851.602.525 1.213-1.376Zm.618.538-1.831.838.625.51 1.206-1.348ZM56.205 61.981l-1.438 1.78-.238 1.287 1.676-3.067ZM18.475 101.3l-.458.761 1.402.645-.943-1.406ZM6.61 91.232l-.15 1.022.914 1.243-.764-2.265Zm96.211-19.117.501-.835-3.128 2.342 2.627-1.507ZM1.763 80.746l-.405-1.703.38 2.987.025-1.284Zm15.31 19.827-.422.779 1.366.709-.943-1.488Zm82.528-25.182-2.566 1.433-.758.459L99.6 75.39ZM7.548 92.508l-.175.989.97 1.186-.795-2.175Zm79.03 11.955-1.03-.088-1.178.76 2.209-.672ZM15.71 99.78l-.387.801 1.33.771-.943-1.572Zm-7.164-6.055-.201.958 1.026 1.129-.825-2.087Zm22.42 11.057-1.679-.208.903.873.776-.665Zm-16.583-5.859-.353.823 1.293.835-.94-1.658ZM9.6 94.883l-.229.929 1.083 1.071-.854-2Z" fill="#E7E7E7"/><path d="m120.383 82.785.407-1.646.346-1.713-.753 3.359Z" fill="#010101"/><path d="m13.102 98.003-.32.848 1.247.895-.927-1.743Zm-2.392-2.02-.257.9 1.137 1.013-.88-1.913Zm1.168 1.04-.288.873 1.192.955-.904-1.828Zm73.671 7.352-1.01-.121-1.174.797 2.184-.676Zm-39.562-1.715-1.176.727 1.345-.524-.17-.203Zm9.976-39.36-1.434 1.748-.303 1.228 1.737-2.977ZM2.241 82.4l-.478-1.655.44 2.898.038-1.243Zm100.023-9.516.557-.77-3.175 2.258 2.618-1.489Zm-17.726 31.369-.992-.153-1.167.833 2.16-.68Zm-55.252.32-1.646-.272.912.943.734-.671Zm21.98-4.501-1.261.757-.042.031 1.302-.788Zm32.28 4.028-.972-.187-1.164.871 2.136-.684ZM2.792 84.007 2.24 82.4l.5 2.81.05-1.204Zm98.858-10.42.614-.703-3.22 2.176 2.606-1.473Zm-42.272-43.72-35.08-4.835L57.88 32.44l1.497-2.573Zm-14.81 73.255-1.14.716 1.383-.451-.242-.265Zm-16.928 1.18-1.614-.338.92 1.017.694-.679Zm28.014-39.745-1.428 1.72-.369 1.168 1.797-2.888Zm8.12 23.891-.267-.57-1.36 1.66 1.628-1.09Z" fill="#E7E7E7"/><path d="m119.392 85.874.991-3.09.753-3.358-1.744 6.448Z" fill="#010101"/><path d="m82.574 103.914-.953-.22-1.16.909 2.113-.689ZM64.06 89.022l-.286-.574-1.35 1.648 1.636-1.075Zm-60.623-3.46-.646-1.555.578 2.72.068-1.164Zm60.929 4.035-.306-.575-1.338 1.635 1.644-1.06Zm17.254 14.097-.933-.253-1.157.948 2.09-.695Zm-55.595.27-1.58-.403.928 1.092.652-.689Zm38.666-13.79-.325-.578-1.328 1.623 1.653-1.045Zm36.32-15.92.638-.667-3.231 2.126 2.593-1.458ZM56.38 60.604l.11-1.438-1.549 3.25 1.439-1.812Zm42.798 42.344-2.568.722 1.288-.361 1.28-.361Zm-18.49.494-.913-.287-1.154.989 2.067-.702ZM65.036 90.752l-.344-.578-1.319 1.61 1.663-1.032ZM50.005 100.83l-1.3.683.027.086 1.273-.769Zm-6.894 2.679-1.105.708 1.421-.379-.316-.329Zm12.167-37.755-1.42 1.691-.435 1.11 1.855-2.801ZM4.143 87.064l-.705-1.501.619 2.628.086-1.127Zm20.154-62.032-.62 2.784L57.88 32.44l-33.584-7.408Zm41.101 66.301-.362-.58-1.31 1.597 1.672-1.017Zm-40.952 12.228-1.546-.467.934 1.167.612-.7Zm55.329-.407-.892-.319-1.152 1.03 2.044-.711ZM65.78 91.916l-.382-.583-1.3 1.585 1.682-1.002Zm13.103 10.919-.872-.353-1.15 1.072 2.022-.719ZM66.18 92.501l-.4-.585-1.294 1.572 1.694-.987ZM4.907 88.51l-.764-1.446.658 2.536.106-1.09Z" fill="#E7E7E7"/><path d="m119.392 85.874.526-1.51.465-1.58-.991 3.09Z" fill="#010101"/><path d="m100.329 74.856.683-.601-3.263 2.046 2.58-1.445ZM66.601 93.087l-.42-.586-1.285 1.558 1.704-.972ZM22.9 103.094l-1.51-.533.938 1.245.572-.712Zm55.111-.612-.85-.386-1.15 1.114 2-.728ZM67.04 93.676l-.44-.589-1.278 1.545 1.718-.957Zm30.784 9.578-2.538.715 1.324-.3 1.214-.415ZM.409 68.204l.01 1.63.044 1.93-.054-3.56Zm55.796-6.223.175-1.378-1.613 3.158 1.438-1.78Zm20.955 40.115-.83-.42-1.149 1.158 1.98-.738Zm-9.663-7.83-.457-.59-1.272 1.531 1.73-.941Zm-25.883 9.555-1.068.701 1.46-.305-.392-.396ZM5.73 89.9l-.823-1.39.695 2.445.128-1.055Zm49.105-23.01-1.412 1.664-.5 1.049 1.912-2.714Zm13.139 27.967-.477-.591-1.266 1.518 1.743-.927Zm8.357 6.819-.81-.452-1.15 1.202 1.96-.75Zm-27.626-.163-1.34.611.098.143 1.242-.754Zm-27.316 1.048-1.474-.598.94 1.325.534-.727Zm47.082-7.09-.497-.614-1.259 1.526 1.756-.911Zm7.05 5.753-.758-.445-1.18 1.207 1.939-.762Zm-6.529-5.153-.521-.6-1.248 1.496 1.77-.896Zm5.77 4.708-.735-.462-1.184 1.235 1.92-.773Zm-5.224-4.123-.546-.585-1.238 1.465 1.784-.88Zm4.489 3.661-.713-.476-1.188 1.262 1.9-.786ZM99.6 75.391l.729-.535-3.294 1.968 2.566-1.433ZM6.61 91.232 5.73 89.9l.73 2.354.15-1.022Zm63.497 5.993-.57-.57-1.229 1.436 1.8-.866Zm3.207 2.616-.689-.493-1.193 1.291 1.882-.798Zm-53.4 2.122-1.438-.663.943 1.406.496-.743Zm50.787-4.184-.594-.554-1.22 1.405 1.814-.851Zm1.924 1.57-.665-.508-1.2 1.318 1.865-.81Zm-1.306-1.032-.618-.538-1.213 1.376 1.83-.838Zm.641.524-.641-.524-1.206 1.348 1.847-.824Z" fill="#E7E7E7"/><path d="m59.378 29.867-1.371 27.352 18.477-24.995-17.106-2.357ZM113.5 95.654l5.892-9.78 2.549-13.948-8.441 23.728Z" fill="#010101"/><path d="m7.549 92.508-.939-1.276.764 2.265.175-.99Zm88.882 10.989-2.506.71 1.36-.238 1.146-.472ZM18.476 101.3l-1.402-.727.943 1.488.459-.761Zm37.487-38 .242-1.319-1.676 3.067 1.434-1.749Zm-15.886 40.757-1.03.695 1.5-.23-.47-.465ZM8.545 93.725l-.996-1.217.795 2.175.201-.958ZM.454 70.182l.01 1.582.115 1.888-.125-3.47Zm16.62 30.391-1.365-.793.942 1.572.423-.779Zm37.25-32.61-1.402 1.64-.567.988 1.969-2.628Zm-6.958 34.161-1.38.536.17.203 1.21-.739ZM98.825 75.86l.775-.469-3.323 1.892 2.548-1.423ZM15.709 99.78l-1.327-.857.94 1.658.387-.8ZM9.6 94.884l-1.054-1.159.825 2.087.23-.928Zm4.783 4.039-1.28-.92.927 1.743.353-.823Zm-3.672-2.94-1.11-1.1.853 2 .257-.9Zm2.392 2.02-1.224-.98.904 1.828.32-.848Zm-1.224-.98-1.168-1.04.88 1.913.288-.873ZM95 103.677l-2.473.707 1.397-.177 1.076-.53Zm-56.5.539-.99.692 1.537-.156-.547-.536Zm17.153-39.66.309-1.257-1.737 2.977 1.428-1.72Zm-1.91 4.418-1.389 1.617-.633.927 2.022-2.544ZM.573 72.117l.006 1.535.187 1.843-.193-3.378Zm45.414 30.543-1.418.462.242.265 1.176-.727Z" fill="#E7E7E7"/><path d="m118.191 88.696.614-1.38.587-1.442-1.201 2.822Zm-4.691 6.958-9.012-27.27-.333 1.03 9.345 26.24Z" fill="#010101"/><path d="m93.534 103.793-2.438.705 1.432-.114 1.006-.591Zm-56.647.505-.95.692 1.575-.082-.625-.61Zm18.391-38.544.376-1.197-1.797 2.888 1.421-1.691Z" fill="#E7E7E7"/><path d="m113.5 95.654-9.345-26.24-.388.966 9.733 25.274Z" fill="#010101"/><path d="m53.096 69.923-1.374 1.595-.702.866 2.076-2.46Zm47.4 32.655-1.318.369-1.28.361 2.598-.73ZM.766 74.006v1.489l.26 1.797-.26-3.285Zm43.803 29.116-1.458.387.316.329 1.142-.716Zm47.46.723-2.403.704 1.47-.051.933-.653Z" fill="#E7E7E7"/><path d="m113.5 95.654-9.733-25.274-.445.9L113.5 95.654Z" fill="#010101"/><path d="m35.233 104.303-.907.693 1.612-.006-.705-.687Z" fill="#E7E7E7"/><path d="m116.82 91.27 1.371-2.574 1.201-2.822-2.572 5.395Z" fill="#010101"/><path d="m54.835 66.89.443-1.136-1.855 2.8 1.412-1.665Zm44.343 36.057-1.354.307-1.214.415 2.568-.722Z" fill="#E7E7E7"/><path d="M113.5 95.654 103.322 71.28l-.501.835L113.5 95.654Z" fill="#010101"/><path d="m1.032 75.85-.006 1.442.332 1.75-.326-3.192Z" fill="#E7E7E7"/><path d="m57.897 58.692 17.941-1.162.646-25.306-18.587 26.468Z" fill="#010101"/><path d="m43.11 103.509-1.496.312.392.396 1.105-.708Z" fill="#E7E7E7"/><path d="m11.864.947-.287-.022-.282-.007.569.03Z" fill="#010101"/><path d="m90.487 103.831-2.366.706 1.505.012.86-.718Zm-56.947.399-.864.696 1.65.07-.787-.766Z" fill="#E7E7E7"/><path d="m11.295.918-.277.01-.271.025.548-.035ZM113.5 95.654l-10.679-23.538-.557.769L113.5 95.654ZM11.295.918l-.548.035-.527.1 1.075-.135Z" fill="#010101"/><path d="m.454 70.182-.045-1.978.054 3.56-.01-1.582Z" fill="#E7E7E7"/><path d="m10.747.953-.266.042-.26.057.526-.099Z" fill="#010101"/><path d="m54.324 67.963.511-1.074-1.913 2.714 1.402-1.64Z" fill="#E7E7E7"/><path d="m116.82 91.27.71-1.256.661-1.318-1.371 2.573Z" fill="#010101"/><path d="m97.824 103.254-1.393.243-1.145.472 2.538-.715Zm-8.917.499-2.327.71 1.541.074.786-.784ZM1.373 77.645l-.015 1.398.405 1.703-.39-3.1Z" fill="#E7E7E7"/><path d="m11.295.918-1.075.134-.988.393 2.063-.527Z" fill="#010101"/><path d="m41.614 103.821-1.537.236.47.465 1.067-.701Zm-9.83.261-.819.7 1.711.144-.892-.844Z" fill="#E7E7E7"/><path d="m113.5 95.654-11.236-22.77-.614.703 11.85 22.067ZM10.22 1.052l-.255.074-.25.09.505-.164Z" fill="#010101"/><path d="m58.007 57.219 1.371-27.352-2.888 29.298 1.517-1.946Z" fill="#E7E7E7"/><path d="m10.22 1.052-.505.165-.483.228.988-.393Z" fill="#010101"/><path d="m87.851 103.663-2.302.712 1.03.088 1.272-.8Z" fill="#E7E7E7"/><path d="m9.715 1.217-.244.106-.239.122.483-.228ZM113.5 95.654l-11.85-22.067-.638.668L113.5 95.654Z" fill="#010101"/><path d="m1.788 79.393-.025 1.353.478 1.655-.453-3.008Zm51.956-10.419.58-1.011-1.969 2.628 1.389-1.617Zm42.687 34.523-1.43.18-1.076.53 2.506-.71ZM.573 72.117l-.12-1.935.126 3.47-.006-1.535Zm29.487 31.75-.774.707 1.68.208-.906-.915Z" fill="#E7E7E7"/><path d="m11.295.918-2.063.527-1.451 1.396L11.295.918ZM7.781 2.841l16.516 22.19 35.081 4.836L7.781 2.84Z" fill="#010101"/><path d="m40.077 104.057-1.576.159.547.536 1.029-.695Z" fill="#E7E7E7"/><path d="m113.5 95.654 3.32-4.385 2.572-5.395-5.892 9.78Z" fill="#010101"/><path d="m86.815 103.538-2.277.716 1.011.121 1.266-.837Z" fill="#E7E7E7"/><path d="m9.232 1.445-.234.14-.223.15.457-.29ZM113.5 95.654l-12.488-21.4-.683.602L113.5 95.654ZM9.232 1.445l-.457.29-.397.332.854-.622Z" fill="#010101"/><path d="m85.797 103.38-2.25.721.991.153 1.26-.874Z" fill="#E7E7E7"/><path d="m8.775 1.736-.207.16-.19.17.397-.33Z" fill="#010101"/><path d="m2.28 81.09-.04 1.311.552 1.606-.512-2.917Zm26.09 22.496-.73.716 1.646.272-.916-.988Zm66.63.091-1.466.116-1.006.591 2.473-.707Z" fill="#E7E7E7"/><path d="m9.232 1.445-.854.622-.597.774 1.451-1.396Z" fill="#010101"/><path d="m53.096 69.923.648-.949-2.022 2.544 1.374-1.595Z" fill="#E7E7E7"/><path d="m113.5 95.654-13.171-20.798-.728.535L113.5 95.654Z" fill="#010101"/><path d="m38.501 104.216-1.614.082.625.61.99-.692Zm46.3-1.029-2.227.727.972.187 1.255-.914ZM.765 74.007l-.192-1.89.193 3.378v-1.489Z" fill="#E7E7E7"/><path d="m8.378 2.067-.174.18-.157.188.33-.368Z" fill="#010101"/><path d="m65.214 86.714-1.707 1.164.268.57 1.44-1.734Zm-13.868 13.304-1.341.812 1.26-.757.081-.055Z" fill="#E7E7E7"/><path d="m8.378 2.067-.331.368-.266.406.597-.774Z" fill="#010101"/><path d="m65.49 87.3-1.715 1.148.286.574L65.49 87.3Zm-38.777 15.938-.687.726 1.614.338-.927-1.064Zm-23.867-20.5-.054 1.269.646 1.556-.592-2.825Z" fill="#E7E7E7"/><path d="M113.5 95.654 99.6 75.391l-.775.469L113.5 95.654Z" fill="#010101"/><path d="m83.824 102.961-2.203.733.953.22 1.25-.953Z" fill="#E7E7E7"/><path d="m115.257 93.59.806-1.129.757-1.192-1.563 2.321ZM8.047 2.435l-.142.198-.124.208.266-.406Zm49.96 54.784-.11 1.473 18.587-26.468L58.007 57.22Z" fill="#010101"/><path d="m65.785 87.888-1.724 1.133.306.576 1.418-1.709Zm-7.778-30.67-1.517 1.947-.11 1.438 1.627-3.384Zm35.527 46.575-1.505.052-.933.653 2.438-.705ZM66.1 88.479l-1.733 1.118.325.577 1.408-1.695ZM82.866 102.7l-2.178.741.933.253 1.245-.994ZM52.378 70.81l.718-.887-2.076 2.46 1.358-1.574Zm-15.491 33.488-1.654.005.705.687.949-.692Z" fill="#E7E7E7"/><path d="M113.5 95.654 98.825 75.86l-.82.401L113.5 95.654Z" fill="#010101"/><path d="m25.09 102.824-.644.737 1.58.403-.935-1.14Z" fill="#E7E7E7"/><path d="m7.78 2.84-.107.218-.092.226.2-.443Z" fill="#010101"/><path d="m3.51 84.335-.072 1.228.705 1.501-.633-2.73Zm62.925 4.736-1.743 1.103.344.578 1.399-1.681ZM1.032 75.85l-.267-1.843.261 3.285.006-1.442Zm80.899 26.555-2.156.749.913.287 1.243-1.036Z" fill="#E7E7E7"/><path d="m7.78 2.84-.199.444-.133.48.333-.923Z" fill="#010101"/><path d="m66.789 89.665-1.753 1.087.362.581 1.39-1.668Zm.373.596-1.764 1.072.382.583 1.382-1.654Z" fill="#E7E7E7"/><path d="m7.581 3.284-.075.235-.058.245.133-.48Z" fill="#010101"/><path d="m81.015 102.076-2.132.759.892.319 1.24-1.078Z" fill="#E7E7E7"/><path d="M113.5 95.654 98.004 76.261l-.867.334L113.5 95.654Z" fill="#010101"/><path d="m50.014 100.719-1.31.794 1.3-.683.01-.111Zm-26.51 1.624-.604.751 1.546.467-.942-1.218Zm44.05-11.483-1.774 1.056.4.585 1.374-1.641Zm-63.32-4.984-.09 1.188.763 1.446-.673-2.635Zm87.795 17.969-1.542-.014-.86.718 2.402-.704ZM57.897 58.692l-1.517 1.91-.175 1.38 1.692-3.29Zm22.223 43.022-2.109.768.872.353 1.237-1.121ZM67.967 91.46 66.18 92.5l.42.587 1.366-1.627Z" fill="#E7E7E7"/><path d="m113.5 95.654 1.757-2.064 1.563-2.32-3.32 4.384Z" fill="#010101"/><path d="m35.233 104.303-1.694-.073.787.766.907-.693Zm33.166-12.24L66.6 93.086l.44.588 1.359-1.613Zm10.849 9.254-2.088.779.851.386 1.237-1.165Z" fill="#E7E7E7"/><path d="M113.5 95.654 97.137 76.595l-.913.267L113.5 95.654Z" fill="#010101"/><path d="m21.953 101.795-.564.766 1.511.533-.947-1.299Zm46.897-9.129-1.81 1.01.457.59 1.353-1.6ZM5.02 87.36l-.113 1.15.823 1.39-.71-2.54Zm-3.647-9.715-.34-1.795.325 3.193.015-1.398Zm77.023 23.241-2.065.79.83.42 1.235-1.21Zm-9.075-7.614-1.824.994.477.591 1.347-1.585Zm8.244 7.149-2.043.803.809.452 1.234-1.255Zm-7.754-6.541-1.837.977.497.615 1.34-1.592Zm6.975 6.083-2.023.816.759.445 1.264-1.261Zm-56.348 1.217-.523.783 1.474.598-.951-1.381Z" fill="#E7E7E7"/><path d="M113.5 95.654 96.224 76.862l-.96.198L113.5 95.654Z" fill="#010101"/><path d="m90.487 103.831-1.58-.078-.786.784 2.366-.706Zm-20.165-9.32-1.851.96.521.6 1.33-1.56ZM5.864 88.786 5.73 89.9l.88 1.332-.746-2.446ZM76.03 99.49l-2.003.828.736.462 1.267-1.29Zm-5.172-4.363-1.866.945.546.585 1.32-1.53ZM75.297 99l-1.984.842.713.476 1.271-1.318Zm-26.658 2.345-1.274.78 1.339-.611-.065-.169Zm-15.1 2.886-1.756-.148.892.844.863-.696Zm37.878-8.503-1.88.928.57.57 1.31-1.498Zm3.173 2.766-1.966.855.69.493 1.276-1.348Zm-2.587-2.182-1.897.914.594.554 1.303-1.468Zm1.903 1.66-1.947.87.665.507 1.282-1.377Zm-1.293-1.09-1.913.898.618.538 1.295-1.437Zm.634.553-1.93.883.642.524 1.288-1.407ZM57.72 60.104l-1.515 1.877-.242 1.318 1.757-3.195Zm-38.76 40.394-.484.802 1.439.663-.956-1.465ZM6.768 90.155l-.159 1.077.939 1.276-.78-2.353Z" fill="#E7E7E7"/><path d="M113.5 95.654 95.265 77.06l-1.006.13L113.5 95.653Z" fill="#010101"/><path d="m1.788 79.393-.415-1.748.39 3.101.025-1.353Z" fill="#E7E7E7"/><path d="m113.5 95.654.903-1 .854-1.064-1.757 2.064Z" fill="#010101"/><path d="m17.52 99.75-.446.823 1.402.727-.957-1.55Zm-9.787-8.285-.184 1.043.996 1.217-.812-2.26Zm81.174 12.288-1.056-.09-1.271.8 2.327-.71Zm-72.79-4.817-.408.844 1.365.793-.957-1.637Z" fill="#E7E7E7"/><path d="M113.5 95.654 94.259 77.189l-1.052.062L113.5 95.654Z" fill="#010101"/><path d="m8.757 92.715-.212 1.01L9.6 94.884l-.842-2.17Zm23.027 11.367-1.724-.215.905.915.819-.7Zm-17.03-6.027-.372.868 1.327.857-.954-1.725Zm-4.914-4.15-.24.979 1.11 1.1-.87-2.08Z" fill="#E7E7E7"/><path d="m57.897 58.692 17.933.288.008-1.45-17.941 1.162Z" fill="#010101"/><path d="m13.44 97.11-.338.893 1.28.92-.942-1.813Zm-2.458-2.076-.272.95 1.168 1.04-.896-1.99Zm1.2 1.069-.304.92 1.224.98-.92-1.9Zm75.67 7.56-1.037-.125-1.266.837 2.302-.712Zm-40.625-1.77-1.24.767 1.379-.536-.139-.231Z" fill="#E7E7E7"/><path d="M113.5 95.654 93.207 77.251l-1.099-.008L113.5 95.654Z" fill="#010101"/><path d="m57.475 61.455-1.512 1.844-.309 1.258 1.82-3.102ZM2.28 81.09l-.492-1.697.453 3.008.039-1.31Zm84.535 22.448-1.018-.158-1.259.874 2.277-.716Zm-56.755.329-1.69-.281.916.988.774-.707Z" fill="#E7E7E7"/><path d="M113.5 95.654 92.108 77.243l-1.144-.077L113.5 95.654Zm0 0L90.964 77.166l-1.124-.14 23.66 18.628Z" fill="#010101"/><path d="m52.638 99.243-1.292.775-.08.055 1.372-.83Zm33.16 4.137-.997-.193-1.255.914 2.251-.721ZM2.845 82.738 2.28 81.09l.512 2.917.054-1.27Zm42.927 19.629-1.204.755 1.418-.462-.215-.293Zm-17.403 1.219-1.657-.348.927 1.064.73-.716Zm28.791-40.843-1.507 1.814-.376 1.197 1.883-3.011ZM65.49 87.3l-.276-.586-1.44 1.734L65.49 87.3Z" fill="#E7E7E7"/><path d="M113.5 95.654 89.84 77.026l-1.091-.202 24.751 18.83Z" fill="#010101"/><path d="m84.8 103.187-.976-.226-1.25.953 2.227-.727ZM65.786 87.888l-.295-.588-1.429 1.722 1.724-1.134Z" fill="#E7E7E7"/><path d="m113.5 95.654-24.751-18.83-1.058-.264L113.5 95.654Z" fill="#010101"/><path d="m3.51 84.335-.664-1.597.592 2.825.072-1.228Zm62.59 4.144-.315-.59-1.418 1.708 1.733-1.118Zm17.724 14.482-.958-.261-1.245.994 2.203-.733Z" fill="#E7E7E7"/><path d="m111.546 97.456 1.001-.868.953-.934-1.954 1.802Z" fill="#010101"/><path d="m26.713 103.238-1.622-.414.935 1.14.687-.726Z" fill="#E7E7E7"/><path d="M113.5 95.654 87.69 76.56l-1.022-.326 26.832 19.42Z" fill="#010101"/><path d="m66.435 89.07-.335-.591-1.408 1.695 1.743-1.103Zm-8.538-30.378.11-1.473-1.627 3.384 1.517-1.91Z" fill="#E7E7E7"/><path d="m113.5 95.654-26.832-19.42-.99-.388L113.5 95.654Z" fill="#010101"/><path d="m101.889 102.185-2.71.762 1.317-.369 1.393-.393Zm-19.023.515-.935-.295-1.243 1.036 2.178-.741ZM66.79 89.665l-.354-.594-1.4 1.681 1.754-1.087Zm-15.443 10.353-1.332.701-.01.111 1.342-.812Zm-7.07 2.745-1.165.746 1.458-.387-.292-.359Z" fill="#E7E7E7"/><path d="M113.5 95.654 85.679 75.846l-.955-.451L113.5 95.654Z" fill="#010101"/><path d="m56.778 63.969-1.5 1.785-.443 1.135 1.943-2.92ZM4.234 85.876l-.724-1.541.633 2.729.091-1.188Zm62.928 4.385-.373-.596-1.39 1.668 1.763-1.072Z" fill="#E7E7E7"/><path d="m84.724 75.395-.919-.513L113.5 95.654l-28.776-20.26Z" fill="#010101"/><path d="m25.09 102.824-1.586-.481.942 1.218.645-.737Zm56.84-.419-.915-.329-1.24 1.078 2.156-.749Z" fill="#E7E7E7"/><path d="m83.805 74.882-.883-.574L113.5 95.654 83.805 74.882Z" fill="#010101"/><path d="m67.554 90.86-.392-.599-1.382 1.655 1.774-1.056Zm13.461 11.216-.895-.362-1.237 1.121 2.132-.759ZM67.967 91.46l-.413-.6-1.373 1.64 1.786-1.04ZM5.02 87.36l-.786-1.484.673 2.634.113-1.15Zm63.379 4.702-.432-.602-1.367 1.627 1.799-1.025Zm-44.895 10.281-1.551-.548.947 1.299.604-.751Zm56.616-.629-.872-.397-1.237 1.165 2.11-.768Z" fill="#E7E7E7"/><path d="m109.395 98.992 2.151-1.536 1.954-1.802-4.105 3.338Z" fill="#010101"/><path d="m68.85 92.666-.451-.604-1.36 1.614 1.81-1.01ZM100.5 102.5l-2.677.755 1.354-.307 1.323-.448ZM.398 66.484l.011 1.72.045 1.978-.056-3.698Zm57.322-6.38.177-1.412-1.692 3.29 1.515-1.878Zm21.528 41.213-.852-.431-1.236 1.21 2.088-.779Zm-9.927-8.045-.471-.606-1.353 1.6 1.824-.994Zm-26.58 9.81-1.127.739 1.497-.312-.37-.427ZM5.864 88.786 5.02 87.36l.71 2.54.134-1.114Zm50.461-23.654-1.49 1.757-.511 1.074 2.001-2.83ZM69.811 93.88l-.49-.608-1.347 1.585 1.837-.977Zm8.585 7.006-.83-.465-1.235 1.255 2.065-.79Zm-28.382-.167-1.374.625.065.169 1.309-.794Zm-28.061 1.076-1.515-.615.951 1.381.564-.766Zm48.368-7.284-.51-.631-1.34 1.592 1.85-.961Zm7.244 5.91-.78-.458-1.263 1.261 2.043-.803Zm-6.707-5.295-.537-.615-1.329 1.56 1.865-.945Zm5.928 4.837-.756-.474-1.267 1.29 2.023-.816Zm-5.368-4.236-.56-.6-1.32 1.529 1.88-.93Zm4.612 3.762-.732-.49-1.271 1.318 2.003-.828ZM6.769 90.155l-.905-1.369.746 2.446.159-1.077Zm65.235 6.156-.586-.584-1.31 1.498 1.896-.914ZM75.298 99l-.707-.506-1.277 1.348 1.984-.842Zm-54.86 2.181-1.479-.682.956 1.465.523-.783Zm52.176-4.3-.61-.569L70.7 97.78l1.913-.899Zm1.977 1.613-.684-.522-1.282 1.377 1.966-.855Zm-1.343-1.06-.634-.553-1.295 1.437 1.93-.883Zm.66.538-.66-.537-1.288 1.407 1.947-.87ZM7.732 91.465l-.964-1.31.78 2.353.184-1.043Z" fill="#E7E7E7"/><path d="m75.83 58.98-17.933-.288-.177 1.412 18.11-1.124Z" fill="#010101"/><path d="m99.076 102.748-2.645.749 1.393-.243 1.252-.506Zm-80.117-2.25-1.44-.748.957 1.55.483-.802Zm38.516-39.044.245-1.35-1.757 3.195 1.512-1.844Z" fill="#E7E7E7"/><path d="m109.395 98.992 1.1-.734 1.051-.802-2.151 1.536Z" fill="#010101"/><path d="m41.164 103.322-1.087.735 1.537-.236-.45-.499ZM8.757 92.715l-1.024-1.25.812 2.26.212-1.01ZM.444 68.513l.01 1.67.119 1.934-.129-3.604ZM17.52 99.75l-1.402-.814.957 1.637.445-.823Zm38.284-33.518-1.48 1.73-.58 1.012 2.06-2.742Zm-7.163 35.112-1.413.549.139.231 1.274-.78Zm-32.523-2.408-1.362-.881.954 1.725.408-.844ZM9.84 93.904l-1.083-1.19.842 2.169.241-.98Zm4.915 4.15-1.316-.945.943 1.813.373-.868Zm-3.773-3.02-1.142-1.13.87 2.078.272-.949Zm2.458 2.075-1.258-1.007.92 1.9.338-.893Zm-1.258-1.007-1.2-1.069.896 1.99.304-.921Z" fill="#E7E7E7"/><path d="m75.83 58.98-18.11 1.124-.245 1.35L75.83 58.98Z" fill="#010101"/><path d="m97.61 102.931-2.61.746 1.43-.18 1.18-.566Zm-58.064.554-1.045.731 1.576-.159-.53-.572Zm17.615-40.742.314-1.288-1.82 3.102 1.506-1.814Z" fill="#E7E7E7"/><path d="m104.547 101.365 4.848-2.373 4.105-3.338-8.953 5.711Z" fill="#010101"/><path d="m55.21 67.268-1.466 1.706-.648.95 2.114-2.656ZM.566 70.498l.007 1.62.192 1.889-.199-3.51Z" fill="#E7E7E7"/><path d="m75.83 58.98-18.355 2.475-.314 1.288 18.67-3.763Z" fill="#010101"/><path d="m47.227 101.893-1.454.474.214.293 1.24-.767Z" fill="#E7E7E7"/><path d="m75.883 60.379-.053-1.4L49.216 72.76l26.667-12.381Z" fill="#010101"/><path d="m96.108 103.049-2.574.744 1.467-.116 1.107-.628Zm-58.219.519-1.002.73 1.614-.082-.612-.648Z" fill="#E7E7E7"/><path d="m75.83 58.98-18.669 3.763-.383 1.226 19.052-4.99Z" fill="#010101"/><path d="m56.778 63.969.383-1.226-1.883 3.01 1.5-1.784Zm-2.23 4.271-1.452 1.683-.718.886 2.17-2.569Z" fill="#E7E7E7"/><path d="m107.051 100.29 1.194-.631 1.15-.667-2.344 1.298ZM75.996 61.726l-.113-1.347-27.711 12.899 27.824-11.552Z" fill="#010101"/><path d="m103.237 101.807-1.348.378-1.393.393 2.741-.771ZM.764 72.436l.001 1.57.267 1.844-.268-3.414Zm45.008 29.931-1.495.396.292.359 1.203-.755Zm48.793.734-2.536.744 1.505-.052 1.031-.692Z" fill="#E7E7E7"/><path d="m75.83 58.98-19.052 4.989-.453 1.163L75.83 58.98Z" fill="#010101"/><path d="m36.19 103.572-.957.731 1.654-.005-.697-.726Z" fill="#E7E7E7"/><path d="m76.17 63.02-.174-1.294-27.824 11.552L76.169 63.02Z" fill="#010101"/><path d="m56.325 65.132.453-1.163-1.943 2.92 1.49-1.757Zm45.564 37.053-1.388.314-1.323.448 2.711-.762Z" fill="#E7E7E7"/><path d="m104.547 101.365 2.504-1.075 2.344-1.298-4.848 2.373Z" fill="#010101"/><path d="m1.039 74.327-.007 1.523.341 1.795-.334-3.318Z" fill="#E7E7E7"/><path d="m75.83 58.98-19.505 6.152-.522 1.1L75.83 58.98Z" fill="#010101"/><path d="m44.277 102.763-1.536.319.37.427 1.166-.746Zm48.707.323-2.497.745 1.542.014.955-.759Z" fill="#E7E7E7"/><path d="m76.403 64.262-.234-1.241-29.079 10.7 29.313-9.459Z" fill="#010101"/><path d="m34.452 103.496-.913.734 1.694.073-.781-.807ZM.444 68.513l-.046-2.03.056 3.7-.01-1.67Z" fill="#E7E7E7"/><path d="m75.83 58.98-20.027 7.252-.593 1.036 20.62-8.288Z" fill="#010101"/><path d="m55.803 66.232.522-1.1-2.002 2.83 1.48-1.73Zm44.698 36.267-1.425.249-1.252.506 2.677-.755Zm-9.136.506-2.458.748 1.58.078.878-.826ZM1.389 76.17l-.016 1.475.415 1.748-.4-3.223Z" fill="#E7E7E7"/><path d="m76.698 65.45-.295-1.188-30.432 9.828 30.727-8.64Z" fill="#010101"/><path d="m42.74 103.082-1.576.24.45.499 1.127-.739Z" fill="#E7E7E7"/><path d="m104.547 101.365 1.272-.506 1.232-.569-2.504 1.075Z" fill="#010101"/><path d="m32.649 103.342-.865.74 1.755.148-.89-.888Z" fill="#E7E7E7"/><path d="m77.054 66.581-.356-1.132L45.97 74.09l31.083-7.509ZM75.83 58.98l-20.62 8.288-.663.972 21.283-9.26Z" fill="#010101"/><path d="m90.282 102.911-2.43.752 1.055.09 1.375-.842Z" fill="#E7E7E7"/><path d="m92.984 103.086 11.563-1.721 8.953-5.711-20.516 7.432Z" fill="#010101"/><path d="m1.816 77.963-.028 1.43.492 1.697-.464-3.127ZM55.21 67.268l.593-1.036-2.06 2.742 1.467-1.706Zm43.866 35.48-1.465.183-1.18.566 2.645-.749ZM.566 70.498l-.122-1.985.129 3.604-.007-1.62Zm30.312 32.622-.818.747 1.724.215-.906-.962Zm10.286.202-1.618.163.531.572 1.087-.735Z" fill="#E7E7E7"/><path d="m77.472 67.657-.418-1.076-32.239 7.803 32.657-6.727Z" fill="#010101"/><path d="m89.22 102.782-2.405.756 1.036.125 1.368-.881Z" fill="#E7E7E7"/><path d="m75.83 58.98-21.283 9.26-.734.907L75.83 58.98Zm2.12 9.697-.478-1.02-32.657 6.727 33.135-5.707Z" fill="#010101"/><path d="m88.176 102.618-2.379.762 1.018.158 1.361-.92ZM2.321 79.706 2.28 81.09l.566 1.648-.525-3.032Zm26.821 23.124-.772.756 1.69.281-.918-1.037Zm68.469.101-1.503.118-1.107.628 2.61-.746Z" fill="#E7E7E7"/><path d="m82.922 74.308-40.53.436 71.108 20.91-30.578-21.346ZM75.83 58.98 53.813 69.147l-.806.843L75.83 58.98Z" fill="#010101"/><path d="m54.547 68.24.663-.972-2.114 2.655 1.451-1.683Z" fill="#E7E7E7"/><path d="m78.49 69.64-.54-.963-34.327 5.925L78.49 69.64ZM7.78 2.84l-.332.924L.964 53.753 7.781 2.84Z" fill="#010101"/><path d="m39.546 103.485-1.657.083.612.648 1.045-.731Zm47.606-1.065-2.351.767.996.193 1.355-.96ZM.764 72.436l-.198-1.939.2 3.51-.002-1.571Zm66.253 13.05-1.803 1.228.276.586 1.527-1.814Z" fill="#E7E7E7"/><path d="m79.09 70.547-.6-.906-34.867 4.96 35.466-4.054Zm22.799 31.638 1.348-.378 1.31-.442-2.658.82Z" fill="#010101"/><path d="m52.763 99.16-1.417.858 1.292-.775.125-.082Z" fill="#E7E7E7"/><path d="m7.448 3.764-.042.255L.964 53.753 7.448 3.764Z" fill="#010101"/><path d="M67.301 86.088 65.49 87.3l.295.588 1.516-1.8ZM27.44 102.47l-.726.767 1.657.348-.93-1.115ZM2.903 81.398l-.057 1.34.664 1.597-.607-2.937Zm83.247 20.788-2.326.775.977.226 1.349-1.001Z" fill="#E7E7E7"/><path d="M75.83 58.98 53.007 69.99l-.878.776L75.83 58.98Zm3.921 12.414-.662-.847-36.696 4.197 37.358-3.35Z" fill="#010101"/><path d="m67.606 86.692-1.82 1.196.314.59 1.507-1.786Z" fill="#E7E7E7"/><path d="m80.489 72.215-.738-.82-37.358 3.349 38.096-2.53Z" fill="#010101"/><path d="m96.108 103.049-1.543.052-1.031.692 2.574-.744Z" fill="#E7E7E7"/><path d="m81.263 72.974-.774-.76-38.096 2.53 38.87-1.77Zm1.659 1.334-.848-.636-39.681 1.072 40.529-.436Zm-.848-.636-.81-.698-38.871 1.77 39.681-1.072Z" fill="#010101"/><path d="m67.93 87.298-1.83 1.18.335.593 1.496-1.773Zm17.238 14.62-2.302.782.958.261 1.344-1.043Zm-31.355-32.77.734-.908-2.169 2.57 1.435-1.663Zm-15.924 34.42-1.699.004.697.726 1.002-.73Zm-12.116-1.523-.682.779 1.622.414-.94-1.193ZM3.586 83.038l-.076 1.297.724 1.54-.648-2.837Zm64.69 4.868-1.841 1.165.354.594 1.486-1.759ZM1.038 74.327l-.275-1.891.268 3.414.007-1.523Zm83.168 27.287-2.276.791.935.295 1.341-1.086ZM68.64 88.517l-1.851 1.148.373.596 1.478-1.744Z" fill="#E7E7E7"/><path d="M75.83 58.98 52.13 70.766l-.934.738L75.83 58.98Zm23.246 43.768 2.813-.563 2.658-.82-5.471 1.383Z" fill="#010101"/><path d="m69.025 89.13-1.863 1.132.392.598 1.47-1.73Zm14.242 12.146-2.252.8.916.329 1.337-1.129Zm-31.87-1.397-1.383.84 1.332-.701.05-.139Zm-27.255 1.67-.638.794 1.587.481-.95-1.275Zm45.287-11.805-1.875 1.116.413.6 1.462-1.716ZM4.331 84.62l-.097 1.255.786 1.485-.689-2.74Zm90.234 18.481-1.58-.015-.956.759 2.536-.744Z" fill="#E7E7E7"/><path d="M7.78 2.84.965 53.754l23.333-28.721L7.781 2.84Z" fill="#010101"/><path d="m82.349 100.902-2.229.812.895.362 1.334-1.174ZM69.853 90.361l-1.886 1.1.432.601 1.454-1.701ZM36.19 103.572l-1.738-.076.781.807.957-.731Z" fill="#E7E7E7"/><path d="M75.83 58.98 51.195 71.504l-.97.665 25.605-13.19Z" fill="#010101"/><path d="M70.297 90.98 68.4 92.062l.45.604 1.448-1.686Zm11.155 9.514-2.204.823.872.397 1.332-1.22Zm-58.905.491-.594.81 1.55.548-.956-1.358ZM70.762 91.6l-1.912 1.066.47.606 1.442-1.672ZM5.138 86.145 5.02 87.36l.844 1.426-.726-2.641Zm-3.75-9.975-.35-1.843.335 3.318.016-1.475Zm79.189 23.88-2.181.836.852.431 1.329-1.267Zm-9.33-7.827-1.926 1.05.49.607 1.435-1.657Z" fill="#E7E7E7"/><path d="m99.076 102.748 1.425-.249 1.388-.314-2.813.563Z" fill="#010101"/><path d="m79.724 99.572-2.159.849.83.465 1.33-1.314Zm-7.973-6.724-1.94 1.032.51.63 1.43-1.662Zm7.172 6.253-2.137.862.78.458 1.357-1.32Zm-57.933 1.251-.552.828 1.515.615-.963-1.443Zm71.994 2.734-1.62-.081-.877.826 2.497-.745Zm-20.707-9.59-1.956 1.015.537.615 1.42-1.63Zm-66.27-5.885-.143 1.175.905 1.369-.762-2.544Zm72.14 11.003-2.117.875.756.474 1.36-1.35Z" fill="#E7E7E7"/><path d="M75.83 58.98 50.224 72.169l-1.008.591L75.83 58.98Z" fill="#010101"/><path d="m72.829 94.129-1.971.997.56.6 1.41-1.597Zm4.566 3.981-2.097.89.732.489 1.364-1.379Zm-27.407 2.41-1.348.824 1.374-.625-.026-.199Zm-15.536 2.976-1.803-.154.89.888.913-.734Zm38.953-8.75-1.987.98.586.585 1.401-1.565Zm3.262 2.844-2.076.903.707.506 1.37-1.41Zm-2.66-2.243-2.003.964.61.57 1.394-1.534Zm1.958 1.706-2.058.918.684.522 1.374-1.44Zm-1.33-1.121-2.021.948.634.554 1.387-1.502Zm.652.569-2.039.933.66.537 1.38-1.47Zm-55.816 3.15-.512.847 1.479.682-.967-1.53ZM6.937 89.017l-.168 1.138.964 1.31-.796-2.448Zm-5.12-11.054-.428-1.793.4 3.223.027-1.43ZM17.99 98.881l-.47.87 1.44.747-.97-1.617Z" fill="#E7E7E7"/><path d="m92.984 103.086 6.092-.338 5.471-1.383-11.563 1.721Zm-15.59-4.976 15.59 4.976 20.516-7.432-36.106 2.456Z" fill="#010101"/><path d="m7.929 90.362-.196 1.103 1.024 1.25-.828-2.353Zm83.436 12.643-1.083-.094-1.375.842 2.458-.748Zm-74.816-4.962-.432.892 1.402.815-.97-1.707Zm-7.567-6.396-.225 1.068 1.083 1.19-.858-2.258Zm23.667 11.695-1.771-.222.906.962.865-.74Z" fill="#E7E7E7"/><path d="M75.883 60.379 49.216 72.76l-1.044.518 27.711-12.899Z" fill="#010101"/><path d="m15.148 97.137-.393.918 1.362.88-.969-1.798Zm-5.053-4.266-.255 1.034 1.142 1.13-.887-2.164Zm3.701 3.294-.356.945 1.315.945-.959-1.89Zm-2.527-2.133-.287 1.002 1.2 1.069-.913-2.071Zm1.234 1.098-.321.973 1.258 1.007-.937-1.98Zm77.78 7.781-1.064-.129-1.368.881 2.431-.752Zm-41.746-1.828-1.31.81 1.413-.549-.103-.261ZM2.322 79.706l-.506-1.743.464 3.127.042-1.384Z" fill="#E7E7E7"/><path d="M67.017 85.486 77.394 98.11l36.106-2.456-46.483-10.168Zm29.09 17.563 1.504-.118 1.465-.183-2.968.301Z" fill="#010101"/><path d="m89.22 102.782-1.044-.164-1.361.92 2.404-.756Zm-58.342.338-1.736-.29.918 1.037.818-.747Z" fill="#E7E7E7"/><path d="M76.17 63.02 48.171 73.279l-1.082.443 29.08-10.7Z" fill="#010101"/><path d="m54.087 98.366-1.324.795-.125.082 1.45-.877Zm34.09 4.252-1.025-.198-1.355.96 2.38-.762ZM2.902 81.398l-.582-1.692.525 3.032.057-1.34Zm44.141 20.17-1.271.799 1.454-.474-.183-.325Zm-17.902 1.262-1.703-.359.931 1.115.772-.756Zm38.16-16.742-.285-.602L65.49 87.3l1.811-1.212Z" fill="#E7E7E7"/><path d="m92.984 103.086 3.124-.037 2.968-.301-6.092.338Z" fill="#010101"/><path d="m87.152 102.42-1.002-.234-1.35 1.001 2.352-.767ZM67.606 86.692l-.305-.604-1.516 1.8 1.822-1.196Zm-64.02-3.654-.683-1.64.607 2.937.076-1.297Zm64.345 4.26-.325-.606-1.506 1.787 1.83-1.181Zm18.219 14.888-.982-.268-1.344 1.043 2.326-.775Z" fill="#E7E7E7"/><path d="m76.403 64.262-29.313 9.46-1.12.368 30.433-9.828Z" fill="#010101"/><path d="m27.44 102.471-1.667-.426.94 1.193.726-.767Zm40.835-14.565-.344-.608-1.496 1.773 1.84-1.165Zm16.893 14.012-.96-.304-1.342 1.086 2.302-.782ZM68.64 88.517l-.365-.61-1.486 1.758 1.85-1.148ZM52.763 99.161l-1.366.718-.05.139 1.416-.857Zm-7.254 2.813-1.232.789 1.495-.396-.263-.393ZM4.331 84.62l-.745-1.582.648 2.838.097-1.256Z" fill="#E7E7E7"/><path d="m92.984 103.086 1.581.015 1.543-.052-3.124.037Z" fill="#010101"/><path d="m69.025 89.13-.385-.613-1.478 1.745 1.862-1.132Zm-43.252 12.915-1.631-.496.949 1.275.682-.779Zm58.434-.431-.94-.338-1.336 1.129 2.276-.791ZM69.43 89.744l-.404-.614-1.47 1.73 1.874-1.116Zm13.838 11.532-.918-.374-1.334 1.174 2.252-.8ZM69.853 90.361l-.424-.617-1.462 1.716 1.886-1.099Z" fill="#E7E7E7"/><path d="M77.054 66.581 45.971 74.09l-1.156.294 32.24-7.803Z" fill="#010101"/><path d="M5.138 86.145 4.33 84.62l.689 2.74.118-1.215Zm65.16 4.835-.445-.619-1.454 1.701 1.898-1.082Z" fill="#E7E7E7"/><path d="m34.747 74.04 32.27 11.446L113.5 95.654 34.747 74.041Z" fill="#010101"/><path d="m24.142 101.549-1.595-.564.957 1.358.638-.794Zm58.207-.647-.897-.408-1.332 1.22 2.229-.812ZM70.762 91.6l-.465-.62-1.447 1.686 1.912-1.066ZM.387 64.667l.011 1.817.046 2.03-.057-3.847Zm81.065 35.827-.875-.444-1.33 1.267 2.205-.823Zm-10.206-8.27-.484-.624-1.441 1.672 1.925-1.049ZM43.932 102.3l-1.191.782 1.536-.319-.345-.463ZM6.007 87.61l-.87-1.465.727 2.641.143-1.175Zm65.744 5.238-.505-.625-1.435 1.657 1.94-1.032Zm8.826 7.202-.853-.478-1.328 1.314 2.18-.836Zm-29.18-.17-1.41.64.027.199 1.383-.84Zm-28.85 1.105-1.557-.633.963 1.443.594-.81Zm49.73-7.489-.526-.648-1.43 1.663 1.956-1.015Zm7.447 6.076-.8-.47-1.359 1.319 2.16-.849ZM72.83 94.13l-.552-.633-1.42 1.63 1.972-.997Z" fill="#E7E7E7"/><path d="m77.95 68.677-33.135 5.707-1.192.218 34.327-5.925Z" fill="#010101"/><path d="m78.923 99.101-.776-.487-1.361 1.349 2.137-.862Zm-5.518-4.355-.576-.617-1.41 1.598 1.986-.981Zm4.742 3.868-.753-.504-1.364 1.379 2.117-.875Zm-71.21-9.597-.93-1.406.762 2.544.168-1.138Zm67.07 6.33-.602-.601-1.401 1.565 2.004-.964Zm3.387 2.763-.727-.52L75.298 99l2.096-.89Zm-56.404 2.242-1.52-.701.968 1.529.552-.828Zm53.645-4.42-.627-.585-1.394 1.533 2.02-.948Zm2.032 1.658-.702-.537-1.374 1.44 2.076-.903Zm-1.38-1.09-.652-.568-1.387 1.502 2.04-.933Zm.678.553-.678-.552-1.38 1.47 2.058-.918Z" fill="#E7E7E7"/><path d="m90.282 102.911 1.083.094 1.62.081-2.703-.175Zm-47.89-28.167-1.265.066L113.5 95.654l-71.107-20.91Z" fill="#010101"/><path d="m7.929 90.362-.992-1.345.796 2.448.196-1.103Zm11.542 9.289-1.48-.77.968 1.617.512-.847Zm22.841 2.895-1.148.776 1.577-.24-.429-.536Z" fill="#E7E7E7"/><path d="m79.09 70.547-35.467 4.055-1.23.142 36.696-4.197Z" fill="#010101"/><path d="m8.982 91.647-1.053-1.285.828 2.353.225-1.068ZM.435 66.75l.01 1.764.121 1.984-.131-3.748ZM17.99 98.881l-1.44-.838.97 1.707.47-.869Z" fill="#E7E7E7"/><path d="m88.176 102.618 2.106.293 2.702.175-4.808-.468Z" fill="#010101"/><path d="m49.988 100.52-1.45.563.102.261 1.348-.824Z" fill="#E7E7E7"/><path d="m41.127 74.81-1.303-.011L113.5 95.654 41.127 74.81Z" fill="#010101"/><path d="m16.55 98.043-1.402-.906.97 1.799.431-.893Zm-6.455-5.172-1.113-1.224.858 2.258.255-1.034Zm5.053 4.266-1.352-.972.959 1.89.393-.918Zm-3.879-3.105-1.174-1.161.887 2.163.287-1.002Zm2.527 2.133-1.293-1.035.937 1.98.356-.945Zm-1.293-1.035-1.234-1.098.913 2.07.32-.972Z" fill="#E7E7E7"/><path d="m39.824 74.799-1.34-.088L113.5 95.654 39.824 74.799Zm48.352 27.819 1.043.164 1.063.129-2.106-.293Z" fill="#010101"/><path d="m40.651 102.712-1.105.773 1.618-.163-.513-.61Z" fill="#E7E7E7"/><path d="m84.207 101.614 3.97 1.004 4.807.468-8.777-1.472ZM38.484 74.711l-1.28-.155L113.5 95.654 38.484 74.711Z" fill="#010101"/><path d="m.56 68.786.006 1.712.198 1.938-.204-3.65Zm47.977 32.297-1.493.485.183.325 1.31-.81Z" fill="#E7E7E7"/><path d="m37.204 74.556-1.245-.224L113.5 95.654 37.204 74.556Zm48.946 27.63 1.002.234 1.024.198-2.026-.432ZM35.959 74.332l-1.212-.291L113.5 95.654 35.959 74.332Z" fill="#010101"/><path d="m38.948 102.796-1.059.772 1.657-.083-.598-.689Z" fill="#E7E7E7"/><path d="m77.394 98.11 6.813 3.504 8.777 1.472-15.59-4.976ZM67.017 85.486l.284.602 1.339 2.429-1.623-3.031Zm.284.602.305.604.325.606-.63-1.21Zm16.906 15.526 1.943.572 2.026.432-3.969-1.004ZM67.301 86.088l.63 1.21.709 1.219-1.339-2.43ZM.964 53.753l20.489-.612 2.844-28.11L.964 53.754Z" fill="#010101"/><path d="M.764 70.775v1.66l.275 1.892-.275-3.552Zm46.28 30.793-1.535.406.264.393 1.271-.799Z" fill="#E7E7E7"/><path d="m84.207 101.614.961.304.982.268-1.943-.572ZM67.931 87.298l.344.608.365.611-.71-1.219Zm-2.185.413.666-1.1.605-1.125-1.27 2.225Zm1.27-2.225 1.624 3.031 8.754 9.593-10.377-12.624Z" fill="#010101"/><path d="m37.203 102.799-1.013.773 1.699-.004-.686-.769Z" fill="#E7E7E7"/><path d="m68.64 88.517.385.613.404.614-.79-1.227Zm0 0 .789 1.227.868 1.236-1.657-2.463Zm13.709 12.385.918.374.94.338-1.858-.712Zm-12.92-11.158.424.617.444.619-.868-1.236Zm11.148 10.306 1.772.852 1.858.712-3.63-1.564ZM68.64 88.517l1.657 2.463 1.98 2.516-3.637-4.979Z" fill="#010101"/><path d="m1.045 72.717-.006 1.61.35 1.843-.344-3.453Zm44.464 29.257-1.577.326.345.463 1.232-.789Z" fill="#E7E7E7"/><path d="m80.577 100.05.875.444.897.408-1.772-.852Zm-10.28-9.07.465.62.484.623-.949-1.243Zm7.097 7.13 3.183 1.94 3.63 1.564-6.813-3.504Zm-8.754-9.593 3.637 4.979 5.117 4.614-8.754-9.593Zm1.657 2.463.95 1.243 1.03 1.273-1.98-2.516Z" fill="#010101"/><path d="m35.416 102.719-.964.777 1.738.076-.774-.853Z" fill="#E7E7E7"/><path d="m64.229 89.844 1.517-2.132 1.27-2.226-2.787 4.358Zm7.017 2.38.505.624.526.648-1.03-1.273Zm7.677 6.877.801.471.853.478-1.654-.949Zm-1.529-.991 1.53.991 1.653.949-3.183-1.94Zm-5.117-4.614.552.633.576.617-1.128-1.25Z" fill="#010101"/><path d="m.435 66.749-.048-2.082.057 3.846-.009-1.764Z" fill="#E7E7E7"/><path d="m77.394 98.11.753.504.776.487-1.529-.991Zm-5.117-4.614 1.128 1.25 1.23 1.186-2.358-2.436Zm0 0 2.358 2.436 2.76 2.178-5.118-4.614Zm1.128 1.25.603.6.627.586-1.23-1.186Zm2.56 2.307.702.537.727.52-1.43-1.057Zm-1.33-1.121 1.33 1.121 1.43 1.057-2.76-2.178Zm0 0 .652.569.678.552-1.33-1.121Z" fill="#010101"/><path d="m1.406 74.61-.017 1.56.427 1.793-.41-3.353Zm42.526 27.69-1.62.246.429.536 1.19-.782Zm-10.37.259-.913.783 1.803.154-.89-.937Z" fill="#E7E7E7"/><path d="m64.229 89.844.79-1.054.727-1.079-1.517 2.133Z" fill="#010101"/><path d="m1.846 76.452-.03 1.511.505 1.743-.475-3.254ZM.56 68.786l-.125-2.037.131 3.749-.006-1.712Zm31.183 33.544-.865.79 1.77.222-.905-1.012Zm10.57.216-1.662.166.513.61 1.148-.776Z" fill="#E7E7E7"/><path d="m60.44 93.83 3.789-3.986 2.788-4.358-6.576 8.345Z" fill="#010101"/><path d="m2.365 78.243-.044 1.463.582 1.692-.538-3.155Zm27.593 23.787-.816.8 1.736.29-.92-1.09Zm10.694.682-1.704.084.598.689 1.105-.773ZM.764 70.775l-.204-1.99.204 3.65v-1.66Zm53.498 27.48-1.499.906 1.324-.795.175-.112Zm-26.054 3.406-.769.81 1.703.359-.934-1.169ZM2.964 79.981l-.061 1.417.683 1.64-.622-3.057Z" fill="#E7E7E7"/><path d="m62.462 91.884.915-1.008.852-1.032-1.767 2.04Z" fill="#010101"/><path d="m38.948 102.796-1.745.003.686.769 1.06-.772Zm-12.454-1.576-.721.825 1.666.426-.945-1.251ZM3.666 81.666l-.08 1.372.744 1.582-.664-2.954Zm-2.622-8.949-.281-1.942.275 3.552.006-1.61Zm51.814 26.274-1.462.888 1.366-.718.096-.17Zm-28.043 1.719-.674.839 1.63.496-.956-1.335ZM4.433 83.293l-.102 1.327.807 1.525-.705-2.852Zm32.77 19.506-1.787-.08.774.853 1.013-.773Z" fill="#E7E7E7"/><path d="m60.44 93.83 2.022-1.946 1.767-2.04-3.788 3.987ZM34.748 74.04l-1.177-.36 33.447 11.806-32.27-11.445Z" fill="#010101"/><path d="m23.176 100.129-.63.856 1.596.564-.966-1.42ZM5.263 84.859l-.125 1.286.87 1.466-.745-2.751ZM1.406 74.61l-.361-1.892.344 3.453.017-1.56Zm20.168 24.868-.584.875 1.557.633-.973-1.508ZM6.157 86.367l-.15 1.244.93 1.406-.78-2.65Zm45.256 13.282-1.425.871 1.409-.64.016-.231Zm-15.997 3.07-1.853-.16.889.937.964-.777Zm-15.405-3.964-.54.896 1.52.701-.98-1.597ZM7.114 87.813l-.177 1.204.992 1.346-.815-2.55Z" fill="#E7E7E7"/><path d="m.964 53.753 20.37.94.119-1.552-20.489.612ZM60.441 93.83l1.042-.962.979-.985-2.021 1.947Z" fill="#010101"/><path d="m1.846 76.452-.44-1.842.41 3.353.03-1.511Zm16.643 21.51-.499.92 1.48.769-.981-1.689ZM8.135 89.197l-.206 1.165 1.053 1.285-.847-2.45Zm8.871 7.902-.457.944 1.441.838-.984-1.782Zm-7.787-6.58-.237 1.128 1.113 1.224-.876-2.353Zm24.344 12.04-1.82-.229.906 1.012.914-.783Zm-17.999-6.392-.416.97 1.401.906-.985-1.876Zm-5.2-4.39-.269 1.094 1.174 1.16-.904-2.255Z" fill="#E7E7E7"/><path d="m21.296 56.196.038-1.503-20.37-.94 20.332 2.443Z" fill="#010101"/><path d="m14.173 95.167-.377.998 1.352.972-.975-1.97Zm-2.6-2.196-.304 1.06 1.234 1.1-.93-2.16Zm1.27 1.13-.34 1.03 1.293 1.034-.954-2.064Zm37.08 6.126-1.386.856 1.45-.563-.064-.293ZM2.365 78.243l-.519-1.791.475 3.254.044-1.463Zm29.379 24.087-1.786-.3.92 1.09.866-.79Z" fill="#E7E7E7"/><path d="m21.34 57.65-.044-1.454L.964 53.753l20.376 3.896Zm28.583 42.577 10.518-6.396 6.576-8.345-17.093 14.741Z" fill="#010101"/><path d="m55.62 97.439-1.358.815-.175.112 1.533-.927ZM2.964 79.981l-.599-1.738.538 3.155.061-1.417Zm45.426 20.743-1.346.844 1.493-.485-.147-.359Zm-18.432 1.306-1.75-.369.934 1.169.816-.8Z" fill="#E7E7E7"/><path d="m58.162 95.682 1.172-.914 1.107-.937-2.28 1.851Z" fill="#010101"/><path d="m3.667 81.666-.703-1.685.622 3.057.08-1.372Zm24.54 19.995-1.713-.441.945 1.251.769-.81Zm26.055-3.407-1.403.737-.096.17 1.499-.907Zm-7.45 2.885-1.303.835 1.535-.406-.231-.429ZM4.434 83.293l-.766-1.627.664 2.954.102-1.328Zm22.06 17.927-1.677-.51.957 1.335.72-.825Z" fill="#E7E7E7"/><path d="m55.62 97.439 2.542-1.757 2.279-1.851-4.82 3.608Z" fill="#010101"/><path d="m5.263 84.86-.83-1.567.705 2.852.125-1.285Zm19.553 15.85-1.64-.581.966 1.42.674-.839ZM.375 62.743l.012 1.924.048 2.082-.06-4.006Zm44.817 38.73-1.26.827 1.577-.326-.317-.501ZM6.157 86.367l-.894-1.507.744 2.75.15-1.243ZM52.86 98.99l-1.446.658-.016.23 1.462-.888Zm-29.683 1.138-1.602-.652.973 1.508.629-.856ZM7.114 87.813l-.957-1.446.78 2.65.177-1.204Zm14.46 11.664-1.563-.722.98 1.597.583-.875Z" fill="#E7E7E7"/><path d="m55.62 97.439 1.304-.866 1.238-.89-2.542 1.756Z" fill="#010101"/><path d="m8.135 89.197-1.02-1.384.814 2.55.206-1.166Zm11.876 9.558-1.522-.793.982 1.689.54-.896Zm23.517 2.97-1.216.821 1.62-.246-.404-.575ZM9.218 90.518l-1.083-1.321.847 2.45.237-1.129ZM.425 64.882l.011 1.867.125 2.037-.136-3.904Zm18.065 33.08-1.483-.863.984 1.782.499-.919Zm32.924 1.687-1.49.578.065.293 1.425-.871Zm-34.407-2.55-1.442-.932.985 1.876.457-.944Zm-6.641-5.323-1.146-1.258.876 2.353.27-1.095Zm5.2 4.39-1.392-1 .975 1.971.416-.97Zm-3.992-3.195-1.208-1.195.904 2.256.304-1.061Zm2.6 2.196-1.33-1.066.953 2.064.377-.998Zm-1.33-1.066-1.27-1.13.93 2.16.34-1.03Z" fill="#E7E7E7"/><path d="m49.923 100.227 5.697-2.788 4.82-3.608-10.517 6.396Z" fill="#010101"/><path d="m41.82 101.894-1.169.818 1.661-.166-.491-.652ZM.554 66.974l.007 1.812.204 1.99-.21-3.802Z" fill="#E7E7E7"/><path d="M21.34 57.65.964 53.752l-.589 8.99L21.34 57.65Z" fill="#010101"/><path d="m49.923 100.227-1.533.497.147.359 1.386-.856Z" fill="#E7E7E7"/><path d="M33.57 73.68 22.194 98.55l44.823-13.064L33.57 73.68Z" fill="#010101"/><path d="m40.07 101.979-1.122.817 1.703-.084-.581-.733Z" fill="#E7E7E7"/><path d="m52.86 98.991 1.402-.737 1.358-.815-2.76 1.552Z" fill="#010101"/><path d="M.763 69.018v1.757l.282 1.942-.282-3.7Zm47.627 31.706-1.577.415.231.429 1.346-.844Z" fill="#E7E7E7"/><path d="m21.467 59.052-.127-1.403.854 40.9-.727-39.497Z" fill="#010101"/><path d="m38.275 101.98-1.072.819 1.745-.003-.673-.816Z" fill="#E7E7E7"/><path d="m21.675 60.402-.208-1.35.727 39.497-.519-38.147Zm28.248 39.825 2.936-1.236 2.761-1.552-5.697 2.788Z" fill="#010101"/><path d="m1.052 71.013-.007 1.704.36 1.893-.353-3.597Zm45.76 30.126-1.62.334.317.501 1.304-.835Z" fill="#E7E7E7"/><path d="m21.967 61.7-.292-1.298.519 38.147-.227-36.85ZM.964 53.752.7 56.063l-.186 2.27.45-4.58Z" fill="#010101"/><path d="m36.437 101.897-1.02.822 1.786.08-.766-.902Z" fill="#E7E7E7"/><path d="m22.342 62.944-.375-1.245.227 36.85.148-35.606Z" fill="#010101"/><path d="m.424 64.882-.049-2.139.06 4.006-.011-1.867Z" fill="#E7E7E7"/><path d="m22.194 98.55 27.73 1.677 17.093-14.741-44.823 13.063Zm.606-34.417-.458-1.19-.148 35.606.606-34.416Z" fill="#010101"/><path d="m1.424 72.958-.018 1.652.44 1.842-.422-3.494Zm43.768 28.515-1.664.252.404.575 1.26-.827Z" fill="#E7E7E7"/><path d="m49.923 100.227 1.49-.578 1.446-.658-2.936 1.236Z" fill="#010101"/><path d="m34.532 101.731-.97.828 1.854.16-.884-.988Z" fill="#E7E7E7"/><path d="m23.341 65.268-.541-1.135-.606 34.416 1.147-33.281Zm10.23 8.412-1.142-.429-10.235 25.298L33.57 73.68Zm-9.605-7.334-.625-1.078-1.147 33.281 1.772-32.203Zm8.463 6.905-1.106-.498-9.13 25.796L32.43 73.251ZM.964 53.753l-.45 4.58-.139 4.41.59-8.99Zm23.71 13.615-.708-1.022-1.772 32.203 2.48-31.18Zm6.649 5.385-1.07-.566-8.06 26.362 9.13-25.796Zm-5.86-4.42-.79-.965-2.48 31.181 3.27-30.215Z" fill="#010101"/><path d="m1.877 74.851-.031 1.601.52 1.79-.489-3.39Z" fill="#E7E7E7"/><path d="m30.253 72.187-1.033-.635-7.026 26.997 8.06-26.362Z" fill="#010101"/><path d="m.553 66.974-.13-2.092.137 3.904-.007-1.813Z" fill="#E7E7E7"/><path d="m26.346 69.24-.883-.906-3.27 30.215 4.152-29.31Z" fill="#010101"/><path d="m32.66 101.493-.916.837 1.819.229-.904-1.066Z" fill="#E7E7E7"/><path d="m29.22 71.552-.996-.703-6.03 27.7 7.026-26.997Zm-1.954-1.474-.92-.838-4.152 29.31 5.072-28.472Zm.958.771-.958-.77-5.072 28.47 6.03-27.7Z" fill="#010101"/><path d="m43.528 101.725-1.707.169.491.652 1.216-.821ZM2.411 76.692l-.046 1.55.599 1.739-.553-3.289Zm28.411 24.492-.864.846 1.786.3-.922-1.146Z" fill="#E7E7E7"/><path d="M21.34 57.65.375 62.742 3.028 78.48 21.34 57.65Z" fill="#010101"/><path d="m41.82 101.894-1.75.085.581.733 1.17-.818ZM.764 69.018l-.21-2.044.21 3.801v-1.757Z" fill="#E7E7E7"/><path d="M.514 58.333.405 60.56l-.03 2.183.139-4.41Zm46.299 42.806 1.577-.415 1.533-.497-3.11.912Z" fill="#010101"/><path d="m29.022 100.802-.814.859 1.75.369-.936-1.228ZM3.028 78.479l-.064 1.502.703 1.685-.639-3.187Zm37.042 23.5-1.795.001.673.816 1.122-.817Zm-12.813-1.632-.764.873 1.715.441-.95-1.314ZM3.752 80.213l-.085 1.453.766 1.627-.681-3.08Zm-2.7-9.2-.29-1.995.283 3.7.007-1.705Z" fill="#E7E7E7"/><path d="m43.528 101.725 3.285-.586 3.11-.912-6.395 1.498Z" fill="#010101"/><path d="m25.53 99.82-.714.89 1.678.51-.963-1.4ZM4.542 81.886l-.108 1.407.83 1.567-.722-2.974Zm33.734 20.094-1.838-.083.766.902 1.072-.819Zm-14.432-2.759-.667.908 1.64.581-.973-1.489ZM5.397 83.498l-.134 1.362.894 1.507-.76-2.869Zm-3.973-10.54-.372-1.945.354 3.597.018-1.652Z" fill="#E7E7E7"/><path d="m43.528 101.725 1.664-.252 1.62-.334-3.284.586Z" fill="#010101"/><path d="m22.194 98.55-.62.927 1.602.652-.982-1.58ZM6.317 85.048l-.16 1.318.957 1.446-.797-2.764Zm30.12 16.848-1.905-.166.884.988 1.021-.822Z" fill="#E7E7E7"/><path d="m.375 62.743.049 2.139.13 2.091-.179-4.23Z" fill="#010101"/><path d="m20.585 97.805-.574.95 1.563.722-.989-1.672ZM7.303 86.537l-.189 1.276 1.021 1.384-.832-2.66ZM1.877 74.85l-.453-1.893.422 3.494.031-1.6Zm17.14 22.137-.528.974 1.522.793-.994-1.767ZM8.354 87.961l-.219 1.236 1.084 1.321-.865-2.557Z" fill="#E7E7E7"/><path d="m36.437 101.897 7.091-.172 6.395-1.498-13.486 1.67ZM21.34 57.649 3.028 78.48l19.166 20.07-.854-40.9Z" fill="#010101"/><path d="m17.49 96.1-.484 1 1.483.862-.999-1.863Zm-8.02-6.778-.251 1.196 1.146 1.258-.895-2.454Zm25.062 12.409-1.873-.238.904 1.066.969-.828Zm-18.527-6.593-.44 1.029 1.441.932-1-1.96Zm-5.354-4.521-.286 1.16 1.208 1.194-.923-2.354Zm3.922 3.491-.4 1.059 1.391 1-.991-2.059Zm-2.678-2.261-.322 1.124 1.27 1.13-.948-2.254Zm1.307 1.164-.36 1.09 1.331 1.066-.97-2.156ZM2.412 76.692l-.535-1.84.488 3.39.046-1.55Z" fill="#E7E7E7"/><path d="m.375 62.743.178 4.23.5 4.04-.678-8.27Z" fill="#010101"/><path d="m32.66 101.493-1.838-.309.922 1.146.915-.837Z" fill="#E7E7E7"/><path d="m40.07 101.979 1.75-.085 1.708-.169-3.458.254Z" fill="#010101"/><path d="m3.028 78.48-.617-1.788.553 3.289.064-1.502Zm27.794 22.704-1.8-.382.936 1.228.864-.846Z" fill="#E7E7E7"/><path d="m.553 66.974.21 2.044.29 1.995-.5-4.04Zm35.884 34.923 3.633.082 3.458-.254-7.09.172Z" fill="#010101"/><path d="m3.752 80.213-.724-1.734.639 3.187.085-1.453Zm25.27 20.589-1.765-.455.95 1.314.815-.859Z" fill="#E7E7E7"/><path d="m.375 62.743.677 8.27 1.976 7.466L.375 62.743Z" fill="#010101"/><path d="m4.541 81.886-.789-1.673.681 3.08.108-1.407Zm22.716 18.461-1.726-.526.963 1.399.763-.873Z" fill="#E7E7E7"/><path d="m22.194 98.55 14.243 3.347 13.486-1.67-27.73-1.678Zm14.243 3.347 1.838.083 1.795-.001-3.633-.082Z" fill="#010101"/><path d="m5.397 83.498-.856-1.612.722 2.974.134-1.362ZM25.53 99.82l-1.688-.599.973 1.489.715-.89ZM6.317 85.05l-.92-1.55.76 2.868.16-1.318ZM23.843 99.22l-1.65-.672.983 1.58.667-.908Z" fill="#E7E7E7"/><path d="m1.052 71.013.372 1.945.453 1.893-.825-3.838Z" fill="#010101"/><path d="m7.303 86.537-.986-1.488.797 2.764.19-1.276Zm14.89 12.012-1.608-.744.99 1.672.619-.928ZM8.355 87.961l-1.05-1.424.831 2.66.22-1.236Zm12.231 9.844-1.568-.817.994 1.767.574-.95Z" fill="#E7E7E7"/><path d="m32.66 101.493 1.872.238 1.905.166-3.778-.404ZM1.051 71.013l.825 3.838 1.151 3.628-1.976-7.466Z" fill="#010101"/><path d="m9.47 89.322-1.116-1.36.865 2.556.251-1.197Zm9.547 7.666-1.527-.889.999 1.863.528-.974Zm-1.527-.889-1.485-.96 1.001 1.96.484-1Zm-6.84-5.482-1.18-1.296.895 2.455.285-1.159Zm5.355 4.521-1.432-1.03.991 2.059.441-1.029Zm-4.11-3.291-1.245-1.23.923 2.354.322-1.124Zm2.678 2.261-1.37-1.097.97 2.156.4-1.059Zm-1.37-1.097-1.308-1.164.947 2.254.36-1.09Z" fill="#E7E7E7"/><path d="m29.022 100.802 3.637.691 3.778.404-7.415-1.095ZM1.877 74.852l.534 1.84.617 1.787-1.151-3.628Zm27.145 25.95 1.8.382 1.837.309-3.637-.691Zm-6.828-2.253 6.828 2.253 7.415 1.095-14.243-3.348ZM3.028 78.48l.724 1.734.79 1.673-1.514-3.407ZM25.53 99.82l1.726.527 1.765.455-3.491-.982ZM3.028 78.48l1.513 3.406 1.776 3.163-3.289-6.57Zm19.166 20.07 3.337 1.27 3.49.982-6.827-2.253ZM4.54 81.885l.856 1.612.92 1.55-1.776-3.162Zm-1.513-3.407 3.289 6.57 4.333 5.568-7.622-12.138Zm0 0 7.622 12.138 11.544 7.932L3.028 78.48Zm19.166 20.07 1.649.672 1.688.6-3.337-1.272ZM6.317 85.05l.986 1.488 1.051 1.424-2.037-2.912Zm12.7 11.939 1.568.817 1.609.744-3.177-1.561Zm-12.7-11.94 2.037 2.913 2.296 2.656-4.333-5.568Zm9.688 10.09 3.012 1.85 3.177 1.561-6.189-3.41Zm-5.354-4.521 5.354 4.521 6.189 3.411-11.543-7.932Zm-2.297-2.656 1.116 1.36 1.18 1.296-2.296-2.656Zm7.651 7.177 1.485.961 1.527.889-3.012-1.85Zm-5.354-4.521 2.551 2.394 2.803 2.127-5.354-4.521Zm0 0 1.244 1.23 1.307 1.164-2.552-2.394Zm2.551 2.394 1.37 1.097 1.433 1.03-2.803-2.127Z" fill="#010101"/></svg>