<svg width="142" height="14" fill="none" xmlns="http://www.w3.org/2000/svg"><g id="CRYPTOBEAR" fill="#fff"><path d="M3.794 13.054v-1.792H2.002V9.469H.21V4.092h1.792V2.3h1.792V.508h7.17V2.3h1.792v1.792H9.17V2.3H5.587v1.792H3.794V9.47h1.793v1.793H9.17V9.469h3.585v1.793h-1.793v1.792H3.795ZM14.548 13.054V.508h10.754V2.3h1.792v5.377H23.51v1.792h1.792v1.793h1.792v1.792h-5.377v-1.792h-1.792V9.469h-1.792v3.585h-3.585Zm3.585-5.377h3.584V5.885h1.793V2.3h-5.377v5.377ZM34.263 13.054V7.677h-1.792V5.885H30.68V.508h3.584v5.377h3.585V.508h3.584v5.377H39.64v1.792h-1.792v5.377h-3.585ZM43.225 13.054V.508h10.754V2.3h1.792v5.377h-1.792v1.792h-7.17v3.585h-3.584Zm3.584-5.377h5.377V2.3H46.81v5.377ZM62.94 13.054V2.3h-3.584V.508h10.753V2.3h-3.584v10.754H62.94ZM73.694 13.054v-1.792h-1.792V2.3h1.792V.508h8.961V2.3h1.793v8.962h-1.793v1.792h-8.961Zm1.792-1.792h5.377V2.3h-5.377v8.962ZM86.24 13.054V.508h10.754V2.3h1.792v3.585h-1.792v1.792h1.792v3.585h-1.792v1.792H86.24Zm3.585-7.17H95.2V2.3h-5.376v3.585Zm0 5.378H95.2V7.677h-5.376v3.585ZM100.578 13.054V.508h12.546V2.3h-8.961v3.585h7.169v1.792h-7.169v3.585h8.961v1.792h-12.546ZM114.917 13.054V4.092h1.792V2.3h1.792V.508h5.377V2.3h1.792v1.792h1.793v8.962h-3.585V9.469h-5.377v3.585h-3.584Zm3.584-5.377h5.377V4.092h-1.792V2.3h-1.792v1.792h-1.793v3.585ZM129.255 13.054V.508h10.754V2.3h1.792v5.377h-3.584v1.792h1.792v1.793h1.792v1.792h-5.377v-1.792h-1.792V9.469h-1.792v3.585h-3.585Zm3.585-5.377h3.584V5.885h1.793V2.3h-5.377v5.377Z"/></g></svg>