<svg width="121" height="143" fill="none" xmlns="http://www.w3.org/2000/svg"><path d="m33.406 91.052 2.766-1.785 8.558-22.834-11.324 24.619Zm0 0L76.829 116.3 36.172 89.267l-2.766 1.785Zm-2.887 1.862 2.887-1.862 8.615-23.256L30.52 92.914Zm11.502-25.118-8.615 23.256L44.73 66.433l-2.709 1.363Zm32.667 61.7 1.983-2.683.11-.172-2.093 2.855Zm.112-.174 1.981-2.681.1-.184-2.081 2.865Zm2.03-13.022 1.975-2.446-42.633-24.587L76.83 116.3Zm-1.93 12.834 1.981-2.677 3.812-7.683-5.792 10.36Zm-.1.188-.112.174 2.093-2.855-1.981 2.681Zm.1-.188-.1.188 2.081-2.865-1.98 2.677Zm-44.38-36.22 44.242 25.945-41.356-27.807-2.887 1.862Z" fill="#E7E7E7"/><path d="m.617 103.052.109.218.117.209-.226-.427Zm.226.427.127.2.135.192-.262-.392Zm-.226-.427.226.427.262.392-.488-.819Zm-.19-.457.09.23.1.227-.19-.457Zm.678 1.276.143.183.153.174-.296-.357Zm-.488-.819.488.819.627.679-1.115-1.498Zm-.328-.91.139.453.189.457-.328-.91Zm.816 1.729.296.357.331.322-.627-.679Zm-.816-1.729.063.225.076.228-.139-.453Zm1.112 2.086.161.165.17.157-.331-.322Zm-1.23-2.969.118.883.328.91-.446-1.793Zm.032.437.037.222.049.224-.086-.446Zm1.53 2.854.178.148.188.14-.367-.288ZM.17 101.259l.032.437.086.446-.118-.883Zm0 0 .01.218.022.219-.032-.437Zm.02-.428-.016.213-.004.215.02-.428Zm.074-.421-.073.421-.021.428.094-.849Zm0 0-.043.209-.03.212.073-.421Z" fill="#010101"/><path d="m78.763 121.325 1.93-2.551.1-.218-2.03 2.769Zm.101-.221 1.928-2.548.084-.219-2.012 2.767Zm.085-.223 1.927-2.544.067-.22-1.994 2.764Zm.068-.224 1.926-2.54.05-.221-1.976 2.761Zm-.254.668-3.862 7.809 5.792-10.36-1.93 2.551Zm.305-.893 1.926-2.536.034-.222-1.96 2.758Zm.035-.226 1.925-2.532.018-.224-1.944 2.756Zm-2.03-3.757 1.971-2.45-.239-.145-1.732 2.595Zm2.048 3.529 1.925-2.528.002-.224-1.927 2.752Zm-1.817-3.372 1.967-2.454-.227-.153-1.74 2.607Zm1.818 3.143 1.926-2.523-.014-.226-1.912 2.749Zm-51.617-24.89 3.014-1.945 8.67-23.693L27.505 94.86Zm50.017 21.912 1.962-2.459-.213-.16-1.75 2.619Zm1.584 2.748L81.034 117l-.031-.227-1.897 2.746Zm-1.38-2.576 1.958-2.463-.2-.168-1.758 2.631Zm1.349 2.345 1.928-2.515-.047-.227-1.882 2.742Zm-1.158-2.166 1.954-2.467-.187-.175-1.767 2.642Zm1.109 1.933 1.93-2.509-.064-.229-1.866 2.738Zm-.932-1.746 1.95-2.471-.173-.183-1.777 2.654Zm.867 1.513 1.93-2.505-.08-.23-1.85 2.735Zm-.702-1.318 1.947-2.476-.161-.19-1.786 2.666Zm.62 1.083 1.933-2.5-.095-.226-1.838 2.726Zm-.47-.881 1.944-2.481-.147-.197-1.797 2.678Zm.372.65 1.936-2.495-.108-.22-1.828 2.715Zm-.234-.441 1.94-2.486-.134-.204-1.806 2.69Zm.124.217 1.938-2.491-.121-.212-1.817 2.703Zm-39.482-48.91-8.67 23.692 11.502-25.118-2.832 1.425ZM72.616 132.3l2.072-2.804.112-.174-2.184 2.978Zm.113-.177 2.07-2.801.102-.188-2.172 2.989Zm2.033-13.264 2.067-2.559-43.423-25.248 41.356 27.807Zm4.102 2.245-.1.221 2.028-2.769-1.928 2.548Zm.085-.223-.085.223 2.012-2.767-1.927 2.544Zm.068-.224-.068.224 1.994-2.764-1.926 2.54Zm.05-.225-.05.225 1.977-2.761-1.926 2.536Zm.036-.226-.035.226 1.96-2.758-1.925 2.532Zm-2.274-3.906.244.149 1.732-2.595-1.976 2.446Zm2.292 3.678-.018.228 1.943-2.756-1.925 2.528Zm0-.229v.229l1.927-2.752-1.926 2.523Zm-2.048-3.3.231.157 1.74-2.607-1.97 2.45Zm2.034 3.07.015.23L81.034 117l-1.928 2.519Zm-1.803-2.913.218.165 1.749-2.619-1.967 2.454Zm1.77 2.682.032.231 1.897-2.746-1.928 2.515Zm-1.552-2.517.204.172 1.758-2.631-1.962 2.459Zm1.504 2.284.049.233 1.88-2.742-1.93 2.509Zm-1.3-2.112.19.179 1.768-2.642-1.958 2.463Zm-4.895 14.989 2.07-2.798 3.862-7.809-5.932 10.607Zm6.13-13.11.065.233 1.866-2.738-1.931 2.505Zm-1.044-1.7.177.187 1.777-2.654-1.954 2.467Zm.962 1.465.081.235 1.852-2.735-1.933 2.5Zm-.785-1.278.165.195 1.786-2.666-1.95 2.471Zm.687 1.047.097.231 1.839-2.726-1.936 2.495Zm-.522-.852.15.202 1.797-2.678-1.947 2.476Zm.412.628.11.224 1.828-2.715-1.938 2.491Zm-.262-.426.138.209 1.806-2.69-1.944 2.481Zm.138.209.124.217 1.817-2.703-1.941 2.486Zm-5.818 14.208-.113.177 2.184-2.978-2.071 2.801Zm.102-.191-.102.191 2.172-2.989-2.07 2.798ZM27.505 94.859l45.094 26.68-42.08-28.625-3.014 1.945Zm49.24 29.135 2.018-2.669.101-.221-2.118 2.89Zm.103-.225 2.016-2.665.085-.223-2.101 2.888Zm.085-.227 2.016-2.661.068-.224-2.084 2.885Z" fill="#E7E7E7"/><path d="m.617 103.052 1.115 1.498 59.789 37.597L.617 103.052Zm1.115 1.498.367.288 58.904 37.015-59.27-37.303Z" fill="#010101"/><path d="m77.002 123.314 2.015-2.657.05-.225-2.065 2.882Z" fill="#E7E7E7"/><path d="m2.1 104.838.196.13 58.707 36.885L2.1 104.838Z" fill="#010101"/><path d="m76.746 123.994-3.915 7.938 5.932-10.607-2.017 2.669Zm.308-.909 2.014-2.653.035-.226-2.05 2.879Zm.035-.231 2.014-2.648.018-.228-2.032 2.876Zm-2.077-3.841 2.061-2.564-.244-.149-1.817 2.713Zm2.094 3.609 2.015-2.644v-.229l-2.015 2.873Zm-1.859-3.448 2.057-2.568-.23-.157-1.827 2.725Zm1.86 3.215 2.015-2.64-.016-.23-1.999 2.87ZM24.354 96.892l3.15-2.033 8.722-24.147-11.872 26.18Zm51.115 22.451 2.053-2.572-.218-.165-1.835 2.737Zm1.622 2.811 2.016-2.635-.032-.231-1.984 2.866Zm-1.413-2.634 2.048-2.577-.204-.172-1.844 2.749Zm1.38 2.398 2.016-2.63-.048-.233-1.968 2.863Zm-1.185-2.214 2.044-2.582-.191-.179-1.853 2.761Zm1.135 1.977 2.018-2.626-.066-.233-1.952 2.859Zm-.954-1.786 2.04-2.586-.177-.187-1.863 2.773Zm.886 1.548 2.02-2.621-.081-.235-1.939 2.856Zm-.718-1.348 2.037-2.591-.165-.195-1.872 2.786Zm.634 1.108 2.023-2.616-.098-.231-1.925 2.847Zm-.48-.902 2.033-2.595-.15-.202-1.883 2.797Zm.38.665 2.025-2.61-.11-.224-1.914 2.834Zm-.24-.45 2.03-2.601-.137-.209-1.892 2.81Zm.128.221 2.027-2.605-.124-.217-1.903 2.822ZM36.226 70.712 27.505 94.86 39.189 69.22l-2.963 1.491Zm34.222 64.521 2.168-2.933.113-.177-2.281 3.11Zm.115-.18 2.166-2.93.102-.191-2.268 3.121Zm2.036-13.514 2.163-2.68L30.52 92.914 72.6 121.54Zm4.249 2.23-.102.225 2.118-2.89-2.016 2.665Zm.085-.227-.085.227 2.1-2.888-2.015 2.661Zm.069-.228-.069.228 2.084-2.885-2.015 2.657Zm.052-.229-.052.229 2.066-2.882-2.014 2.653Zm.035-.231-.035.231 2.049-2.879-2.014 2.648Zm-2.327-3.995.25.154 1.817-2.713-2.067 2.559Zm2.344 3.763-.017.232 2.032-2.876-2.015 2.644Zm.001-.233v.233l2.015-2.873-2.015 2.64Zm-2.095-3.376.235.161 1.826-2.725-2.061 2.564Zm2.079 3.141.016.235 2-2.87-2.016 2.635Zm-1.844-2.98.222.169 1.835-2.737-2.057 2.568Zm1.81 2.744.034.236 1.984-2.866-2.017 2.63Zm-1.588-2.575.209.177 1.844-2.749-2.053 2.572Zm1.539 2.338.05.237 1.968-2.863-2.018 2.626Zm-1.33-2.161.195.184 1.853-2.761-2.048 2.577Zm-5.011 15.34 2.164-2.928 3.915-7.938-6.08 10.866Zm6.273-13.417.068.238 1.953-2.859-2.02 2.621Zm-1.067-1.739.181.191 1.863-2.773-2.044 2.582Zm.983 1.499.085.24 1.938-2.856-2.023 2.616Zm-.802-1.308.168.2 1.872-2.786-2.04 2.586Zm.703 1.071.1.237 1.924-2.847-2.024 2.61Zm-.535-.871.154.206 1.883-2.797-2.037 2.591Zm.422.642.113.229 1.914-2.834-2.027 2.605Zm-.268-.436.14.215 1.893-2.81-2.033 2.595Zm.14.215.128.221 1.903-2.822-2.03 2.601Zm-5.953 14.537-.115.18 2.28-3.11-2.165 2.93ZM47.609 52.715l2.662-1.065 9.623-25.674-12.285 26.739Zm23.057 82.145-.103.193 2.268-3.121-2.165 2.928ZM24.355 96.892l45.976 27.456-42.825-29.49-3.15 2.034Z" fill="#E7E7E7"/><path d="m.617 103.052 64.593 39.075-44.153-43.108-20.44 4.033Z" fill="#010101"/><path d="m74.633 126.789 2.113-2.795.102-.225-2.215 3.02Zm.104-.229 2.11-2.791.086-.227-2.196 3.018ZM47.609 52.715l43.482 22.501-40.82-23.566-2.662 1.065Zm27.214 73.614 2.11-2.787.069-.228-2.179 3.015Zm.07-.232 2.109-2.783.052-.229-2.161 3.012Zm-.26.692-3.966 8.071 6.079-10.866-2.113 2.795Zm.312-.926 2.109-2.778.035-.231-2.144 3.009Z" fill="#E7E7E7"/><path d="m.617 103.052 20.44-4.033 8.808-25.106L.616 103.052Z" fill="#010101"/><path d="m74.98 125.628 2.109-2.774.017-.232-2.127 3.006Zm-2.127-3.931 2.159-2.684-.25-.154-1.91 2.838Zm2.144 3.694 2.11-2.769v-.233l-2.11 3.002Zm-1.904-3.528 2.154-2.689-.235-.161-1.919 2.85Zm1.904 3.29 2.11-2.764-.016-.235-2.094 2.999Zm-53.94-26.134 3.297-2.127 8.767-24.617-12.064 26.744Zm52.263 23.017 2.15-2.693-.223-.169-1.927 2.862Zm1.66 2.878 2.111-2.76-.033-.236-2.078 2.996Zm-1.447-2.696 2.145-2.698-.209-.177-1.936 2.875Zm1.412 2.455 2.113-2.755-.05-.237-2.063 2.992Zm-1.213-2.266 2.14-2.703-.194-.184-1.946 2.887Zm1.162 2.023 2.114-2.749-.067-.238-2.047 2.987Zm-.977-1.827 2.137-2.708-.181-.191-1.956 2.899Zm.908 1.584 2.115-2.744-.084-.24-2.031 2.984Zm-.736-1.38 2.133-2.712-.168-.2-1.965 2.912Zm.65 1.135 2.117-2.739-.1-.237-2.018 2.976Zm-.493-.923 2.13-2.718-.154-.206-1.975 2.924Zm.39.681 2.12-2.734-.112-.229-2.008 2.963Zm-.246-.462 2.127-2.722-.14-.215-1.987 2.937Zm.13.227 2.124-2.728-.127-.221-1.997 2.949Zm-41.4-51.19-8.766 24.617 11.872-26.18-3.105 1.563Zm35.057 66.03 2.27-3.072.116-.18-2.386 3.252Zm.116-.183 2.27-3.069.103-.193-2.373 3.262Zm2.037-13.774 2.269-2.809-45.094-26.68 42.825 29.489Z" fill="#E7E7E7"/><path d="m1.732 104.55 59.271 37.303.518.294L1.732 104.55Z" fill="#010101"/><path d="m74.737 126.56-.104.229 2.215-3.02-2.111 2.791Zm.086-.231-.086.231 2.196-3.018-2.11 2.787Zm.07-.232-.07.232 2.179-3.015-2.11 2.783Z" fill="#E7E7E7"/><path d="m.617 103.052 60.904 39.095 3.689-.02L.617 103.052Z" fill="#010101"/><path d="m74.945 125.863-.052.234 2.16-3.012-2.108 2.778Zm13.538-35.79 1.811-1.97.155-.192-1.966 2.162Zm-13.504 35.555-.034.235 2.144-3.009-2.11 2.774Zm-2.38-4.089.254.158 1.91-2.838-2.164 2.68ZM88.64 89.876l1.81-1.966.144-.207-1.954 2.173Zm-13.643 35.515-.018.237 2.127-3.006-2.11 2.769Zm0-.238v.238l2.11-3.002-2.11 2.764Zm-2.144-3.456.24.166 1.919-2.85-2.16 2.684Zm15.934-32.032 1.807-1.962.134-.223-1.94 2.185ZM74.98 124.914l.017.239 2.094-2.999-2.111 2.76Zm-1.887-3.051.227.173 1.927-2.862-2.154 2.689Zm1.852 2.81.035.241 2.078-2.996-2.113 2.755Zm-1.625-2.637.213.182 1.936-2.875-2.15 2.693Zm1.574 2.394.051.243 2.063-2.992-2.114 2.749Zm14.03-34.992 1.804-1.958.124-.238-1.928 2.196Zm-15.391 32.78.199.189 1.946-2.887-2.145 2.698Zm-5.134 15.708 2.267-3.066 3.967-8.071-6.234 11.137Zm6.426-13.739.069.243 2.046-2.987-2.115 2.744Zm-1.093-1.78.185.196 1.956-2.899-2.141 2.703Zm1.006 1.535.087.245 2.031-2.984-2.118 2.739Zm-.82-1.339.17.204 1.966-2.912-2.137 2.708Zm.718 1.097.102.242 2.019-2.976-2.12 2.734Zm-.547-.893.157.212 1.976-2.924-2.133 2.712Zm.431.658.116.235 2.008-2.963-2.124 2.728Zm-.273-.446.143.219 1.986-2.937-2.13 2.718Zm.143.219.13.227 1.997-2.949-2.127 2.722Zm16.701-48.022 1.788-1.66L50.271 51.65l40.82 23.566Zm-22.797 62.906-.117.183 2.386-3.252-2.27 3.069ZM44.821 53.83l2.787-1.115 9.72-26.237L44.822 53.83Zm23.577 84.096-.106.196 2.373-3.262-2.267 3.066ZM57.329 26.478l-9.72 26.237 12.285-26.739-2.565.502Zm-36.272 72.54 46.892 28.277-43.595-30.403-3.297 2.127Z" fill="#E7E7E7"/><path d="M30.451 2.55.171 101.259l.446 1.793L30.45 2.55Z" fill="#010101"/><path d="m89.05 89.195 1.802-1.953 4.094-8.442-5.896 10.395Zm-.41.681-.157.197 1.966-2.162-1.809 1.965Z" fill="#E7E7E7"/><path d="M30.451 2.55.265 100.41l-.094.849 30.28-98.71Zm-.226.625L.322 100.203l-.057.207 29.96-97.235Z" fill="#010101"/><path d="m88.787 89.665-.147.211 1.954-2.173-1.807 1.962Zm.137-.227-.137.227 1.941-2.185-1.804 1.958Zm.126-.243-.126.243 1.928-2.196-1.802 1.953Zm-16.631 40.523 2.214-2.929.104-.229-2.318 3.158Zm.105-.234 2.213-2.924.086-.231-2.3 3.155ZM44.822 53.83l44.392 23.128-41.605-24.243-2.787 1.115Zm27.79 75.42 2.211-2.921.07-.232-2.282 3.153Zm.07-.237 2.21-2.916.053-.234-2.264 3.15Zm-.263.705-4.02 8.208 6.234-11.137-2.214 2.929Zm.315-.943 2.21-2.912.035-.235-2.245 3.147Zm.034-.24 2.211-2.907.018-.237-2.229 3.144Zm-2.178-4.025 2.263-2.813-.254-.158-2.01 2.971Zm2.195 3.784 2.212-2.903v-.238l-2.212 3.141Zm-1.95-3.613 2.258-2.818-.24-.166-2.018 2.984Zm1.95 3.37 2.212-2.898-.017-.239-2.195 3.137Zm-1.718-3.191 2.253-2.824-.227-.173-2.026 2.997Zm1.7 2.946 2.213-2.892-.035-.241-2.178 3.133Zm-1.483-2.76 2.249-2.828-.213-.182-2.036 3.01Zm1.447 2.514 2.214-2.887-.051-.243-2.163 3.13Zm-1.243-2.32 2.244-2.833-.2-.189-2.044 3.022Zm1.19 2.072 2.216-2.882-.07-.243-2.146 3.125Zm-1-1.87 2.24-2.839-.186-.196-2.055 3.035Zm.929 1.621 2.218-2.876-.087-.245-2.131 3.121Zm-.754-1.412 2.236-2.844-.172-.204-2.064 3.048Zm.665 1.162 2.22-2.871-.102-.242-2.118 3.113Zm-.504-.945 2.233-2.849-.158-.212-2.075 3.061Zm.4.697 2.222-2.865-.116-.235-2.107 3.1Zm-.253-.472 2.23-2.855-.145-.219-2.085 3.074Zm.133.232 2.226-2.86-.13-.227-2.096 3.087Zm-42.43-52.412-8.807 25.106 12.064-26.745-3.257 1.639Zm35.933 67.612 2.38-3.22.116-.183-2.496 3.403Zm.118-.185 2.378-3.218.106-.196-2.484 3.414ZM93.21 80.583l1.735-1.783.114-.253-1.849 2.036ZM67.95 127.295l2.381-2.947-45.976-27.456 43.595 30.403Zm25.378-46.97 1.733-1.778.094-.251-1.827 2.029Zm.096-.256 1.731-1.773.076-.25-1.807 2.023Zm.077-.255 1.73-1.767.057-.247-1.787 2.014Zm.058-.252 1.73-1.762.037-.245-1.767 2.007Zm-.347 1.021-4.161 8.612L94.946 78.8l-1.735 1.783Zm-1.852-5.22L93.14 73.7l-.262-.144-1.52 1.807Zm2.237 3.949 1.73-1.757.018-.243-1.748 2ZM47.13.519l2.83.108-.229-.021-2.6-.087ZM91.612 75.52l1.777-1.668-.248-.153-1.53 1.821Zm2.003 3.544 1.73-1.752v-.24l-1.73 1.992Zm0-.246 1.73-1.747-.02-.238-1.71 1.985Zm-1.765-3.131 1.772-1.672-.233-.163-1.54 1.835ZM47.364.559l2.826.107-.23-.039-2.596-.068Zm46.23 78.015 1.732-1.741-.039-.236-1.692 1.977Zm-1.52-2.71 1.766-1.678-.218-.172-1.549 1.85Zm-19.55 53.62-.105.234 2.318-3.158-2.213 2.924Zm21.032-51.152 1.731-1.735-.057-.235-1.674 1.97Zm-1.274-2.283 1.762-1.681-.204-.182-1.558 1.863ZM47.599.617l2.821.107-.23-.058-2.591-.049Zm45.898 77.475 1.733-1.73-.076-.232-1.657 1.962Zm-1.022-1.847 1.758-1.687-.189-.19-1.569 1.877Zm.944 1.61 1.735-1.725-.095-.23-1.64 1.955Zm-.765-1.405 1.754-1.692-.175-.2-1.58 1.892Zm.667 1.17 1.738-1.72-.1-.247-1.638 1.967Zm-20.71 51.63-.087.234 2.3-3.155-2.213 2.921Zm20.206-52.585 1.75-1.697-.16-.21-1.59 1.907Zm.4.702 1.741-1.714-.115-.237-1.625 1.95ZM47.835.695l2.817.104-.231-.075-2.586-.03Zm45.132 76.194 1.746-1.702-.145-.219-1.601 1.921Zm.133.234 1.744-1.707-.13-.229-1.614 1.936ZM48.071.791l2.812.102L50.65.8l-2.58-.008Zm24.61 128.222-.07.237 2.282-3.153-2.212 2.916Zm.053-.238-.053.238 2.264-3.15-2.211 2.912Zm13.85-36.637 1.899-2.066.157-.196-2.057 2.262Z" fill="#E7E7E7"/><path d="m61.003 141.853.26.155.258.139-.518-.294Z" fill="#010101"/><path d="m72.768 128.535-.034.24 2.245-3.147-2.21 2.907Zm-2.438-4.187.26.162 2.009-2.971-2.269 2.809Zm16.414-32.41 1.896-2.062.147-.211-2.043 2.273Zm-13.959 36.356-.017.241 2.229-3.144-2.212 2.903Zm0-.243v.243l2.212-3.141-2.212 2.898Zm-2.195-3.541.245.171 2.018-2.984-2.263 2.813Z" fill="#E7E7E7"/><path d="m61.52 142.147.257.122.254.105-.51-.227Z" fill="#010101"/><path d="m86.894 91.722 1.893-2.057.137-.227-2.03 2.284Zm-14.127 36.084.018.245 2.195-3.137-2.213 2.892Zm-1.932-3.125.232.179 2.026-2.997-2.258 2.818Zm1.896 2.879.036.246 2.178-3.133-2.214 2.887Z" fill="#E7E7E7"/><path d="m61.52 142.147.51.227.502.16-1.011-.387Z" fill="#010101"/><path d="m71.067 124.86.217.186 2.036-3.01-2.253 2.824Zm1.61 2.452.054.248 2.163-3.13-2.216 2.882Zm14.355-35.821 1.892-2.053.126-.243-2.018 2.296Zm-15.748 33.555.204.194 2.045-3.022-2.249 2.828Zm-5.263 16.094 2.378-3.214 4.02-8.208-6.397 11.422Zm6.586-14.077.07.249 2.148-3.125-2.218 2.876Zm-1.12-1.823.19.202 2.055-3.035-2.244 2.833Z" fill="#E7E7E7"/><path d="m62.03 142.374.252.089.25.071-.501-.16Z" fill="#010101"/><path d="m72.518 126.813.089.25 2.131-3.121-2.22 2.871Zm-.84-1.371.175.209 2.064-3.048-2.24 2.839Zm.735 1.123.105.248 2.118-3.113-2.223 2.865Zm-.56-.914.161.217 2.075-3.061-2.236 2.844Zm.441.674.12.24 2.106-3.1-2.226 2.86Zm-.28-.457.147.225 2.085-3.074-2.232 2.849Zm.147.225.133.232 2.096-3.087-2.229 2.855Z" fill="#E7E7E7"/><path d="m61.52 142.147 1.012.387.98.118-1.991-.505Zm1.012.387.248.055.246.038-.494-.093Z" fill="#010101"/><path d="m89.214 76.958 1.877-1.742L47.61 52.715l41.605 24.243Zm-23.3 64.382-.117.185 2.496-3.403-2.378 3.218Z" fill="#E7E7E7"/><path d="m62.532 142.534.494.093.486.025-.98-.118Z" fill="#010101"/><path d="m41.9 54.998 2.922-1.168 9.816-26.826L41.9 54.998Zm24.122 86.142-.107.2 2.484-3.414-2.377 3.214Z" fill="#E7E7E7"/><path d="m63.026 142.627.244.021.242.004-.486-.025Z" fill="#010101"/><path d="m93.327 80.325-.116.258 1.849-2.036-1.733 1.778Z" fill="#E7E7E7"/><path d="m65.21 142.127 5.198-11.537-49.35-31.571 44.152 43.108Z" fill="#010101"/><path d="M54.638 27.004 44.822 53.83l12.507-27.352-2.691.526Zm38.785 53.065-.096.256 1.827-2.03-1.73 1.774Z" fill="#E7E7E7"/><path d="m61.52 142.147 1.992.505 1.698-.525-3.69.02Z" fill="#010101"/><path d="m93.5 79.814-.077.255 1.807-2.022-1.73 1.767Z" fill="#E7E7E7"/><path d="m63.512 142.652.24-.013.238-.03-.478.043Z" fill="#010101"/><path d="m93.558 79.562-.058.252 1.787-2.014-1.73 1.762Z" fill="#E7E7E7"/><path d="m63.512 142.652.478-.043.452-.105-.93.148Z" fill="#010101"/><path d="m93.596 79.312-.038.25 1.767-2.007-1.729 1.757Zm-2.505-4.096.268.147 1.52-1.807-1.788 1.66ZM46.895.497l.234.022 2.602.087-2.836-.109Zm46.72 78.567-.019.248 1.748-2-1.729 1.752Z" fill="#E7E7E7"/><path d="m63.99 142.609.232-.046.22-.059-.452.105Z" fill="#010101"/><path d="m91.359 75.363.253.157 1.53-1.82-1.783 1.663Zm2.256 3.455v.246l1.73-1.993-1.73 1.747Zm-2.003-3.298.238.167 1.539-1.835-1.777 1.668ZM47.129.52l.235.04 2.596.068-2.83-.108Zm46.466 78.055.02.244 1.71-1.985-1.73 1.74Z" fill="#E7E7E7"/><path d="m63.512 142.652.93-.148.768-.377-1.698.525Z" fill="#010101"/><path d="m91.85 75.687.223.176 1.549-1.849-1.772 1.673Zm1.706 2.645.039.242 1.692-1.977-1.731 1.735ZM47.364.559l.235.058 2.59.05-2.825-.108Zm44.71 75.304.208.186 1.558-1.863-1.767 1.677Zm1.423 2.23.059.239 1.674-1.97-1.733 1.73Zm-1.215-2.044.193.196 1.569-1.877-1.762 1.681Zm1.137 1.806.078.237 1.657-1.962-1.735 1.725Zm-.098-.235.098.235 1.64-1.954-1.738 1.719Zm-.846-1.375.179.205 1.58-1.892-1.759 1.687Z" fill="#E7E7E7"/><path d="m64.442 142.504.209-.073.197-.087-.406.16Z" fill="#010101"/><path d="m47.599.617.235.078 2.586.029-2.822-.107Zm45.619 76.75.103.253 1.637-1.967-1.74 1.714Zm-.564-.917.163.215 1.59-1.907-1.753 1.692Zm.445.673.119.244 1.625-1.951-1.744 1.707Zm-.282-.458.149.224 1.601-1.92-1.75 1.696Zm.149.224.133.234 1.613-1.936-1.746 1.702ZM47.834.695l.237.096L50.65.8 47.834.695Z" fill="#E7E7E7"/><path d="m64.442 142.504.406-.16.362-.217-.768.377Z" fill="#010101"/><path d="m87.16 91.243 1.89-2.048 4.161-8.612-6.05 10.66Z" fill="#E7E7E7"/><path d="m64.848 142.344.186-.102.176-.115-.362.217Z" fill="#010101"/><path d="m86.744 91.938-.16.2 2.056-2.262-1.896 2.062Zm.15-.216-.15.216 2.043-2.273-1.894 2.057Z" fill="#E7E7E7"/><path d="m65.21 142.127.164-.129.152-.144-.316.273Z" fill="#010101"/><path d="m87.032 91.49-.138.232 2.03-2.284-1.892 2.053Z" fill="#E7E7E7"/><path d="m65.21 142.127.316-.273.27-.329-.586.602Z" fill="#010101"/><path d="m87.16 91.243-.128.248 2.018-2.296-1.89 2.049Z" fill="#E7E7E7"/><path d="m65.526 141.854.141-.157.13-.172-.27.329Zm.27-.329.119-.185.106-.2-.224.385Zm2.418-14.062-.265-.168-46.892-28.276 47.157 28.444Zm.488.36-.487-.36-47.158-28.444 47.645 28.804Zm.804.813-.804-.813-47.645-28.804 48.45 29.617Zm.901 1.954-.9-1.954-48.45-29.617 49.35 31.571Z" fill="#010101"/><path d="m70.095 132.791 2.324-3.073.105-.234-2.43 3.307Zm.106-.237 2.323-3.07.087-.234-2.41 3.304Zm-28.3-77.556 45.34 23.791-42.42-24.96-2.92 1.169Zm28.389 77.316 2.321-3.064.07-.237-2.391 3.301Zm.07-.241 2.321-3.06.053-.238-2.374 3.298Zm-.265.718-4.073 8.349 6.397-11.422-2.324 3.073Zm.318-.96 2.32-3.056.035-.24-2.355 3.296Z" fill="#E7E7E7"/><path d="M29.864 73.913 45.709 28.75.617 103.052l29.247-29.14Z" fill="#010101"/><path d="m70.448 131.586 2.32-3.051.017-.241-2.337 3.292Z" fill="#E7E7E7"/><path d="m65.21 142.127.587-.602 4.404-8.971-4.991 9.573Z" fill="#010101"/><path d="m68.215 127.463 2.375-2.953-.26-.162-2.115 3.115Zm2.25 3.877 2.32-3.046v-.243l-2.32 3.289Zm-2-3.701 2.37-2.958-.245-.171-2.124 3.129Zm2 3.453 2.32-3.041-.018-.245-2.303 3.286Zm-1.763-3.269 2.365-2.963-.232-.179-2.133 3.142Zm1.743 3.019 2.322-3.036-.036-.246-2.286 3.282Zm-1.52-2.828 2.36-2.968-.218-.186-2.142 3.154Zm1.483 2.576 2.323-3.03-.053-.248-2.27 3.278Z" fill="#E7E7E7"/><path d="m65.797 141.525.225-.385 4.179-8.586-4.404 8.971Z" fill="#010101"/><path d="m69.133 128.214 2.355-2.974-.204-.194-2.15 3.168Zm1.22 2.123 2.325-3.025-.071-.249-2.254 3.274Zm-1.026-1.916 2.35-2.979-.19-.202-2.16 3.181Zm.952 1.661 2.328-3.019-.089-.25-2.239 3.269Zm-.773-1.446 2.347-2.985-.175-.209-2.172 3.194Zm.682 1.19 2.33-3.013-.105-.248-2.225 3.261Zm-.516-.967 2.342-2.991-.161-.217-2.181 3.208Zm.409.714 2.332-3.008-.119-.24-2.213 3.248Zm-.259-.484 2.34-2.996-.148-.225-2.192 3.221Zm.137.238 2.335-3.002-.133-.232-2.202 3.234ZM91.39 82.455l1.82-1.872.116-.258-1.936 2.13Zm.117-.264 1.819-1.866.096-.256-1.915 2.122Zm.098-.261 1.817-1.861.077-.255-1.894 2.116Zm.078-.26 1.816-1.856.058-.252-1.874 2.108Zm.059-.258 1.815-1.85.038-.25-1.853 2.1Zm-.352 1.043-4.23 8.788 6.05-10.66-1.82 1.872Zm-1.903-5.345 1.87-1.747-.267-.147-1.603 1.894Zm2.293 4.046 1.815-1.844.02-.248-1.835 2.092ZM44.158.405l2.971.114-.234-.022-2.737-.092ZM89.747 77.27l1.865-1.75-.253-.158-1.612 1.908Zm2.053 3.631 1.815-1.838v-.246L91.8 80.902Zm0-.251 1.815-1.833-.02-.244-1.796 2.077Zm-1.81-3.209 1.86-1.755-.238-.167-1.622 1.922ZM44.397.446l2.967.113-.235-.04-2.732-.073ZM91.778 80.4l1.817-1.827-.04-.242-1.777 2.07Zm-1.56-2.778 1.855-1.76-.223-.176-1.631 1.936Zm-20.017 54.931-.106.237 2.429-3.307-2.323 3.07Zm21.537-52.4 1.818-1.822-.06-.24-1.758 2.062Zm-1.306-2.34 1.85-1.765-.209-.186-1.641 1.951ZM44.637.506l2.962.111-.235-.058-2.727-.053Zm47.04 79.402 1.82-1.816-.078-.237-1.742 2.053Zm-1.047-1.893 1.845-1.77-.193-.196-1.652 1.966Zm.967 1.65 1.822-1.81-.098-.235-1.724 2.045Zm-.784-1.44 1.84-1.775-.178-.205-1.662 1.98Zm.684 1.2 1.824-1.805-.103-.253-1.721 2.057ZM70.29 132.314l-.089.24 2.41-3.304-2.322 3.064Zm20.69-53.868 1.837-1.781-.163-.215-1.674 1.996Zm.41.72 1.828-1.8-.119-.243-1.708 2.042ZM44.878.585l2.957.109-.236-.078-2.72-.032Zm46.255 78.09 1.834-1.787-.149-.224-1.685 2.011Zm.137.24 1.83-1.793-.133-.234-1.697 2.027ZM45.12.684 48.07.79l-.237-.096L45.12.684ZM70.36 132.073l-.07.241 2.391-3.301-2.32 3.06Zm.053-.242-.053.242 2.374-3.298-2.321 3.056ZM84.59 94.306l1.993-2.168.16-.2-2.153 2.368Z" fill="#E7E7E7"/><path d="m66.022 141.14 4.073-8.349.106-.237-4.18 8.586Z" fill="#010101"/><path d="m70.448 131.586-.035.245 2.355-3.296-2.32 3.051Z" fill="#E7E7E7"/><path d="m65.21 142.127 4.991-9.573.207-1.964-5.198 11.537Z" fill="#010101"/><path d="m67.95 127.295.264.168 2.116-3.115-2.38 2.947Zm16.802-33.193 1.992-2.164.15-.216-2.142 2.38ZM70.465 131.34l-.017.246 2.338-3.292-2.32 3.046Zm0-.248v.248l2.32-3.289-2.32 3.041Zm-2.25-3.629.25.176 2.125-3.129-2.376 2.953Zm16.69-33.58 1.989-2.16.138-.232-2.127 2.391Zm-14.46 36.959.02.25 2.302-3.286-2.322 3.036Zm-1.98-3.203.237.184 2.133-3.142-2.37 2.958Zm1.942 2.951.038.252 2.286-3.282-2.323 3.03Zm-1.705-2.767.223.191 2.142-3.154-2.365 2.963Zm1.65 2.514.055.253 2.27-3.278-2.324 3.025Zm14.694-36.69 1.986-2.156.129-.248-2.115 2.403Zm-16.121 34.367.208.2 2.151-3.168-2.36 2.968Zm1.354 2.068.074.255 2.254-3.274-2.328 3.019Zm-1.146-1.868.194.207 2.16-3.181-2.354 2.974Zm1.055 1.612.091.256 2.239-3.269-2.33 3.013Zm-.861-1.405.18.215 2.17-3.194-2.35 2.979Zm.754 1.152.107.253 2.225-3.261-2.332 3.008Zm-.575-.937.166.223 2.18-3.208-2.346 2.985Zm.453.691.122.246 2.213-3.248-2.335 3.002Zm-.287-.468.15.23 2.192-3.221-2.342 2.991Zm.15.23.137.238 2.202-3.234-2.339 2.996Zm17.419-50.3 1.973-1.83-44.392-23.13L87.24 78.79ZM38.837 56.224l3.064-1.226 9.91-27.441-12.974 28.667ZM91.508 82.19l-.117.264 1.936-2.13-1.819 1.866ZM51.812 27.557 41.9 54.998l12.737-27.994-2.826.553ZM91.606 81.93l-.098.261 1.915-2.122-1.817 1.86Zm.078-.26-.078.26 1.894-2.116-1.816 1.856Zm.059-.258-.059.258 1.874-2.108-1.815 1.85Zm.038-.256-.038.256 1.853-2.1-1.815 1.844Zm-2.567-4.198.274.152 1.603-1.894-1.877 1.742ZM43.92.383l.238.022 2.737.092L43.92.383Zm47.88 80.52-.019.253 1.834-2.092-1.815 1.838Zm-2.312-3.793.259.161 1.612-1.908-1.871 1.747Zm2.311 3.54.001.252 1.815-2.084-1.816 1.833Zm-2.052-3.379.243.171 1.622-1.922-1.865 1.751ZM44.158.405l.24.04 2.731.074-2.97-.114ZM91.778 80.4l.021.25 1.796-2.077-1.817 1.827Zm-1.788-2.959.229.181 1.63-1.936-1.859 1.755Zm1.748 2.712.04.247 1.778-2.07-1.818 1.823ZM44.398.446l.239.06 2.727.053-2.967-.113Zm45.82 77.177.214.191 1.641-1.95-1.854 1.76Zm1.46 2.285.06.246 1.759-2.062-1.82 1.816Zm-1.246-2.094.198.201 1.652-1.966-1.85 1.765Zm1.165 1.851.08.243 1.742-2.053-1.822 1.81Zm-.1-.24.1.24 1.724-2.045-1.824 1.804Zm-.867-1.41.183.21 1.662-1.98-1.845 1.77ZM44.637.505l.24.08 2.721.032-2.961-.111Zm46.754 78.66.106.26 1.72-2.058-1.826 1.798Zm-.578-.94.167.221 1.674-1.996-1.841 1.776Z" fill="#E7E7E7"/><path d="m70.201 132.554.089-.24.07-.241-.159.481Z" fill="#010101"/><path d="m91.27 78.916.12.25 1.71-2.043-1.83 1.793Zm-.29-.47.152.23 1.685-2.011-1.837 1.781Zm.152.23.137.24 1.697-2.027-1.834 1.787ZM44.877.586l.242.098 2.715.01-2.957-.109Z" fill="#E7E7E7"/><path d="m70.201 132.554.16-.481.087-.487-.247.968Z" fill="#010101"/><path d="m85.176 93.394 1.985-2.15 4.23-8.79-6.215 10.94Z" fill="#E7E7E7"/><path d="m70.36 132.073.053-.242.035-.245-.088.487Zm-.159.481.247-.968-.04-.996-.207 1.964Z" fill="#010101"/><path d="m84.752 94.102-.162.204 2.154-2.368-1.992 2.164Z" fill="#E7E7E7"/><path d="m70.448 131.586.017-.246v-.248l-.017.494Z" fill="#010101"/><path d="m84.905 93.882-.153.22 2.142-2.38-1.99 2.16Z" fill="#E7E7E7"/><path d="m70.448 131.586.016-.494-.056-.502.04.996Zm-1.746-3.763-.236-.184-.251-.176.487.36Zm1.762 3.269-.019-.25-.037-.252.056.502Z" fill="#010101"/><path d="m85.046 93.646-.141.236 2.127-2.391-1.986 2.155Z" fill="#E7E7E7"/><path d="m69.133 128.214-.208-.2-.223-.191.431.391Zm1.275 2.376-.055-.253-.074-.255.129.508Zm-.902-1.954-.373-.422-.43-.391.803.813Zm.901 1.954-.128-.508-.198-.509.326 1.017Zm0 0-.326-1.017-.575-.937.901 1.954Zm-.9-1.954-.18-.215-.194-.207.373.422Z" fill="#010101"/><path d="m85.176 93.394-.13.252 2.115-2.403-1.985 2.151Z" fill="#E7E7E7"/><path d="m70.28 130.082-.092-.256-.107-.253.198.509Zm-.2-.509-.258-.484-.316-.453.575.937Zm-.258-.484-.15-.23-.166-.223.316.453Zm.259.484-.122-.246-.137-.238.259.484Z" fill="#010101"/><path d="m48.07.791 68.347 30.478L50.883.893 48.07.791Zm-9.233 55.433 46.328 24.492-43.264-25.718-3.064 1.226Zm50.64 28.198 1.914-1.967.117-.264-2.031 2.23Zm.12-.27 1.911-1.96.098-.262-2.01 2.222Zm.099-.267 1.91-1.956.078-.26-1.988 2.216Zm.08-.266 1.908-1.95.059-.257-1.968 2.207Zm.058-.263 1.909-1.944.038-.256-1.947 2.2Zm-.357 1.066-4.301 8.972 6.215-10.94-1.914 1.968Zm-1.956-5.477 1.967-1.835-.274-.152-1.693 1.987Zm2.352 4.15 1.908-1.939.02-.254-1.928 2.192ZM41.035.284l3.123.12-.238-.022-2.885-.098Z" fill="#E7E7E7"/><path d="m30.451 2.55-.226.625L.265 100.41 30.451 2.55Z" fill="#010101"/><path d="m87.786 79.111 1.96-1.84-.258-.161-1.702 2.001Zm2.106 3.724 1.908-1.933v-.251l-1.908 2.184Zm-.002-.258 1.91-1.926-.022-.25-1.888 2.176Zm-1.855-3.29 1.955-1.845-.243-.17-1.712 2.015ZM41.279.327l3.118.119-.239-.041-2.88-.078Zm48.59 81.995 1.91-1.92-.041-.248-1.87 2.168Zm-1.6-2.849 1.95-1.85-.229-.18-1.721 2.03Zm1.558 2.595 1.91-1.914-.06-.246-1.85 2.16Zm-1.34-2.398 1.945-1.856-.213-.19-1.732 2.046ZM41.523.389l3.114.117-.24-.06-2.874-.057Zm48.241 81.428 1.913-1.909-.08-.243-1.833 2.152Zm-1.074-1.941 1.94-1.86-.198-.202-1.742 2.062Zm.992 1.692 1.915-1.903-.1-.24-1.815 2.143Zm-.805-1.476 1.936-1.866-.183-.21-1.753 2.076Zm.702 1.23 1.918-1.898-.106-.259-1.812 2.156Zm-.53-1.004 1.931-1.872-.167-.22-1.764 2.092Zm.42.738 1.922-1.89-.122-.25-1.8 2.14ZM41.77.47l3.108.115-.24-.08L41.769.47Zm47.436 80.084 1.927-1.878-.152-.23-1.775 2.108Zm.14.246 1.924-1.884-.137-.24-1.787 2.124ZM42.015.57l3.104.113-.242-.099-2.862-.014Zm40.478 96.014 2.097-2.28.162-.203-2.259 2.483Z" fill="#E7E7E7"/><path d="M45.708 28.75 33.782 0 .617 103.052l45.09-74.302Z" fill="#010101"/><path d="m82.66 96.377 2.092-2.275.153-.22-2.246 2.495Z" fill="#E7E7E7"/><path d="m33.782 0-3.33 2.55L.616 103.052 33.782 0Z" fill="#010101"/><path d="m82.815 96.153 2.09-2.27.141-.237-2.231 2.507Zm.143-.24 2.088-2.267.13-.252-2.218 2.518Zm2.207-15.197 2.076-1.927L41.9 54.998l43.264 25.718ZM35.618 57.51l3.219-1.287 10.002-28.086-13.22 29.373Zm53.979 26.642-.12.269 2.031-2.23-1.911 1.96ZM48.839 28.138 38.837 56.224 51.81 27.557l-2.972.581Zm40.857 55.747-.1.267 2.01-2.222-1.91 1.955Zm.08-.266-.08.266 1.988-2.215-1.909 1.95Z" fill="#E7E7E7"/><path d="m29.864 73.913 50.243 25.264-44.489-41.666-5.754 16.402Z" fill="#010101"/><path d="m89.834 83.356-.059.264 1.968-2.208-1.909 1.944Zm.04-.262-.04.262 1.947-2.2-1.908 1.938ZM87.24 78.79l.28.156 1.693-1.987-1.973 1.831ZM40.792.263l.243.022 2.885.098-3.128-.12Zm49.1 82.572-.019.26 1.927-2.193-1.908 1.933Zm-2.37-3.89.264.166 1.702-2.001-1.967 1.835Zm2.368 3.632.002.258 1.907-2.184-1.909 1.926Zm-2.104-3.466.249.176 1.712-2.016-1.961 1.84ZM41.036.285l.243.042 2.88.078-3.124-.12Zm48.833 82.037.021.255 1.888-2.176-1.91 1.92Zm-1.834-3.035.234.186 1.721-2.03-1.955 1.844Zm1.792 2.781.042.254 1.869-2.168-1.911 1.914ZM41.279.327l.244.062 2.874.057L41.28.327Zm46.99 79.147.218.196 1.732-2.047-1.95 1.85Zm1.495 2.343.063.251 1.85-2.16-1.913 1.91Zm-1.277-2.147.203.206 1.742-2.062-1.945 1.856Zm1.195 1.898.082.25 1.833-2.153-1.915 1.903Zm-.103-.247.103.247 1.815-2.144-1.918 1.897Zm-.89-1.445.188.216 1.753-2.077-1.94 1.86ZM41.524.389l.246.081 2.868.036-3.114-.117ZM89.47 81.056l.109.265 1.812-2.156-1.921 1.89Zm-.593-.964.172.226 1.764-2.092-1.936 1.866Zm.468.708.125.256 1.8-2.14-1.925 1.884Zm-.296-.482.156.236 1.775-2.108-1.931 1.872Zm.156.236.14.246 1.787-2.124-1.927 1.878ZM41.769.47l.246.101 2.862.014L41.77.47ZM83.09 95.655l2.085-2.261 4.301-8.972-6.386 11.233Zm-.432.722-.166.208 2.26-2.483-2.094 2.275Zm.156-.224-.156.224 2.246-2.495-2.09 2.271Zm.143-.24-.143.24 2.231-2.507-2.088 2.266Z" fill="#E7E7E7"/><path d="m29.864 73.913 5.754-16.402 10.09-28.76-15.843 45.162Z" fill="#010101"/><path d="m83.09 95.655-.132.257 2.218-2.518-2.085 2.26Zm33.327-64.386 1.3-.678L50.883.893l65.534 30.376Z" fill="#E7E7E7"/><path d="m29.864 73.913 45.402 25.434.287.154-45.688-25.588Zm0 0L75.553 99.5l.565.255-46.253-25.843Z" fill="#010101"/><path d="m112.231 49.654 1.373-1.125.197-.185-1.57 1.31Zm.201-.19 1.369-1.12.185-.2-1.554 1.32Zm.189-.204 1.365-1.115.173-.214-1.538 1.33ZM45.119.684l69.927 31.3L48.071.79 45.119.684Zm67.679 48.358 1.361-1.111.16-.228-1.521 1.339Zm.164-.233 1.357-1.106.148-.242-1.505 1.348Z" fill="#E7E7E7"/><path d="m29.864 73.913 46.254 25.843 3.989-.579-50.242-25.264Z" fill="#010101"/><path d="m113.113 48.561 1.354-1.1.137-.256-1.491 1.356Zm-77.495 8.95 47.36 25.235-44.141-26.522-3.219 1.287Zm51.846 28.98 2.013-2.07.12-.269-2.133 2.34Zm.122-.275 2.01-2.063.1-.268-2.11 2.331Zm.1-.273 2.01-2.058.08-.266-2.09 2.324Zm24.746-36.479-.201.19 1.57-1.31-1.369 1.12ZM87.767 85.671l2.008-2.052.06-.263-2.068 2.315Zm24.854-36.41-.189.203 1.554-1.32-1.365 1.116ZM87.827 85.4l2.007-2.045.04-.262-2.047 2.308ZM113.252 48.3l1.352-1.094 5.239-10.625-6.591 11.719ZM87.464 86.491l-4.373 9.164 6.386-11.233-2.013 2.07Zm25.334-37.45-.177.22 1.538-1.33-1.361 1.11ZM85.452 80.878l2.07-1.932-.281-.156-1.79 2.088Zm2.414 4.257 2.007-2.04.019-.26-2.026 2.3ZM37.75.159l3.286.126-.243-.022L37.75.159Zm47.974 80.889 2.063-1.937-.265-.166-1.798 2.103Zm2.162 3.82 2.007-2.033-.002-.258-2.005 2.291Zm25.077-36.06-.164.234 1.521-1.339-1.357 1.106Zm-25.08 35.797 2.008-2.028-.021-.255-1.987 2.282Zm-1.904-3.376 2.057-1.942-.25-.176-1.807 2.118ZM37.998.202l3.28.125-.243-.042-3.037-.083Zm49.862 84.14 2.009-2.02-.042-.254-1.967 2.275Zm-1.642-2.922 2.05-1.947-.233-.186-1.817 2.133Zm26.895-32.859-.151.248 1.505-1.347-1.354 1.099ZM87.816 84.083l2.01-2.015-.062-.25-1.948 2.265Zm-1.375-2.46 2.046-1.953-.218-.197-1.828 2.15ZM38.247.264l3.276.124-.244-.062-3.032-.062Zm49.505 83.56 2.012-2.008-.082-.249-1.93 2.258Zm-1.103-1.991 2.04-1.958-.202-.206-1.838 2.164Zm1.018 1.737 2.015-2.003-.103-.247-1.912 2.25Zm-.826-1.515 2.036-1.964-.187-.216-1.85 2.18Zm.72 1.261 2.018-1.996-.11-.265-1.908 2.261Zm-.544-1.029 2.032-1.97-.172-.226-1.86 2.196Zm.432.757 2.02-1.99-.124-.255-1.896 2.245ZM38.499.35l3.27.121-.246-.081-3.025-.04ZM87.176 82.53l2.028-1.976-.156-.236-1.872 2.212Zm.144.253 2.024-1.983-.14-.246-1.884 2.229Zm25.931-34.484-.139.262 1.491-1.356-1.352 1.094ZM38.75.452l3.265.12L41.77.47l-3.02-.018Zm41.537 98.53 2.206-2.397.166-.208-2.372 2.606Zm.17-.21 2.202-2.395.156-.224-2.358 2.618Zm.158-.23 2.2-2.389.143-.24-2.343 2.63Zm.146-.245 2.197-2.385.133-.257-2.33 2.642Zm2.217-15.551 2.187-2.03-46.328-24.492 44.14 26.522Zm4.608 3.47-.122.275 2.133-2.338-2.011 2.063ZM45.708 28.751l-10.09 28.76 13.22-29.373-3.13.612Zm41.979 57.192-.101.273 2.11-2.331-2.01 2.058Zm.08-.272-.08.272 2.088-2.323-2.008 2.051Zm.06-.27-.06.27 2.067-2.315-2.007 2.046Zm.04-.267-.04.268 2.046-2.308-2.007 2.04Zm-2.702-4.418.287.16 1.789-2.087-2.076 1.927ZM37.501.136l.248.023 3.043.104-3.29-.127Zm50.384 84.732-.019.266 2.026-2.3-2.007 2.034Zm-2.433-3.991.27.17 1.8-2.102-2.07 1.932Zm2.43 3.728.003.263 2.005-2.29-2.008 2.026Zm-2.16-3.557.256.18 1.808-2.117-2.063 1.937ZM37.75.159l.249.043 3.037.083L37.75.159Zm50.11 84.184.023.261 1.987-2.282-2.01 2.02Zm-1.88-3.114.239.191 1.817-2.133-2.057 1.942Zm1.837 2.854.044.26 1.967-2.275-2.01 2.015ZM37.998.203l.25.062 3.03.062-3.28-.125Zm48.22 81.217.223.202 1.828-2.148-2.051 1.946Zm1.534 2.406.064.257 1.948-2.266-2.012 2.009Zm-1.31-2.204.207.212 1.838-2.164-2.046 1.952Zm1.225 1.949.085.255 1.93-2.258-2.015 2.003Zm-.106-.254.106.254 1.912-2.25-2.018 1.996Zm-.912-1.483.192.222 1.849-2.18-2.041 1.958ZM38.248.265l.25.084 3.025.04-3.276-.124Z" fill="#E7E7E7"/><path d="m75.553 99.5.284.137.281.119-.565-.255Z" fill="#010101"/><path d="m87.449 83.045.112.272 1.909-2.261-2.021 1.99Zm-.608-.989.176.232 1.86-2.196-2.036 1.964Zm.48.727.128.262 1.896-2.245-2.024 1.983Zm-.304-.495.16.242 1.872-2.212-2.032 1.97Zm.16.242.144.253 1.884-2.229-2.028 1.976ZM38.498.35l.252.103 3.019.018-3.27-.121Z" fill="#E7E7E7"/><path d="m76.118 99.756.279.102.275.085-.554-.187Z" fill="#010101"/><path d="m80.896 98.034 2.195-2.38 4.373-9.163-6.568 11.543Z" fill="#E7E7E7"/><path d="m76.118 99.756.554.188.543.119-1.097-.307Z" fill="#010101"/><path d="m80.457 98.771-.17.212 2.372-2.606-2.202 2.394Z" fill="#E7E7E7"/><path d="m76.672 99.944.273.068.27.051-.543-.12Z" fill="#010101"/><path d="m80.615 98.543-.158.228 2.358-2.618-2.2 2.39Z" fill="#E7E7E7"/><path d="m76.118 99.756 1.097.307 1.051.034-2.148-.341Z" fill="#010101"/><path d="m80.76 98.297-.145.246 2.343-2.63-2.197 2.384Z" fill="#E7E7E7"/><path d="m77.215 100.063.266.034.265.017-.531-.051Z" fill="#010101"/><path d="m80.896 98.034-.135.263 2.33-2.642-2.195 2.379Z" fill="#E7E7E7"/><path d="m77.215 100.063.53.051.521-.017-1.051-.034Z" fill="#010101"/><path d="m118.602 37.414 1.241-.834.138-.3-1.379 1.134Zm-3.556-5.43 1.371-.715L48.071.79l66.975 31.192Z" fill="#E7E7E7"/><path d="M77.746 100.114h.262l.258-.017-.52.017Z" fill="#010101"/><path d="m118.743 37.106 1.238-.827.117-.299-1.355 1.126Zm.121-.306 1.234-.82.098-.297-1.332 1.117Z" fill="#E7E7E7"/><path d="m76.118 99.756 2.148.341 1.84-.92-3.988.579Zm3.989-.579 5.524-13.234L35.618 57.51l44.489 41.666Zm-1.84.92.255-.034.26-.076-.516.11Z" fill="#010101"/><path d="m118.963 36.495 1.233-.812.077-.295-1.31 1.107Zm-.361.919-5.35 10.885 6.591-11.72-1.241.835Zm.439-1.222 1.232-.804.056-.294-1.288 1.098Z" fill="#E7E7E7"/><path d="m78.266 100.097.517-.11.486-.202-1.003.312Z" fill="#010101"/><path d="m119.098 35.89 1.231-.796.035-.292-1.266 1.089Zm-2.378-4.476 1.293-.682-.296-.14-.997.822Zm-5.935 19.424 1.446-1.184.201-.19-1.647 1.374Z" fill="#E7E7E7"/><path d="m78.783 99.987.248-.092.238-.11-.486.202Z" fill="#010101"/><path d="m119.134 35.591 1.23-.79.014-.29-1.244 1.08Zm-2.129-4.02 1.286-.685-.278-.154-1.008.84Zm2.143 3.722 1.23-.782-.006-.288-1.224 1.07Zm-1.874-3.551 1.279-.69-.262-.166-1.017.856Zm-6.283 18.902 1.441-1.18.189-.204-1.63 1.384Zm8.151-15.647 1.23-.774-.026-.287-1.204 1.061Z" fill="#E7E7E7"/><path d="m78.266 100.097 1.003-.312.838-.608-1.84.92Z" fill="#010101"/><path d="m117.524 31.924 1.273-.695-.244-.178-1.029.873Zm1.59 2.779 1.232-.767-.048-.285-1.184 1.052Zm-1.356-2.584 1.267-.7-.228-.19-1.039.89Zm1.307 2.291 1.233-.76-.068-.282-1.165 1.042Zm-7.881 16.025 1.437-1.175.177-.218-1.614 1.393Zm6.79-18.108 1.262-.706-.211-.202-1.051.908Zm1.021 1.793 1.235-.752-.089-.282-1.146 1.034Z" fill="#E7E7E7"/><path d="m79.27 99.785.226-.126.215-.144-.442.27Z" fill="#010101"/><path d="m118.174 32.547 1.256-.712-.194-.214-1.062.926Zm.73 1.284 1.237-.745-.108-.274-1.129 1.02Zm-.549-1.052 1.252-.718-.177-.226-1.075.944Zm.438.77 1.24-.737-.125-.262-1.115 1Zm-.275-.526 1.248-.724-.159-.238-1.089.962Zm.146.257 1.244-.73-.142-.25-1.102.98Zm-7.299 16.931 1.433-1.17.164-.232-1.597 1.402ZM42.015.571 113.6 32.738 45.119.684 42.015.57Z" fill="#E7E7E7"/><path d="m79.27 99.785.441-.27.396-.338-.838.608Z" fill="#010101"/><path d="m111.532 49.973 1.43-1.164.151-.248-1.581 1.412Z" fill="#E7E7E7"/><path d="m79.711 99.515.203-.16.193-.178-.396.338Z" fill="#010101"/><path d="m111.687 49.72 1.426-1.159.139-.262-1.565 1.42Z" fill="#E7E7E7"/><path d="m80.107 99.177.18-.194.17-.212-.35.406Zm0 0 .35-.406.304-.474-.654.88Zm.35-.406.158-.228.146-.246-.304.474Z" fill="#010101"/><path d="m118.743 37.106-.141.308 1.379-1.135-1.238.827Z" fill="#E7E7E7"/><path d="m83.271 82.912-.293-.166-47.36-25.235 47.653 25.4Z" fill="#010101"/><path d="m118.864 36.8-.121.306 1.355-1.126-1.234.82Z" fill="#E7E7E7"/><path d="m83.81 83.275-.539-.363-47.653-25.4L83.81 83.274Z" fill="#010101"/><path d="m118.963 36.495-.099.305 1.332-1.117-1.233.812Z" fill="#E7E7E7"/><path d="m84.695 84.126-.885-.851L35.618 57.51l49.077 26.615Zm.936 1.817-.936-1.817L35.618 57.51l50.013 28.432Z" fill="#010101"/><path d="m119.041 36.192-.078.303 1.31-1.107-1.232.804Zm-33.698 52.48 2.121-2.18.122-.276-2.243 2.456Zm33.755-52.781-.057.301 1.288-1.098-1.231.797Zm-33.631 52.5 2.119-2.175.1-.273-2.22 2.447Zm30.95-57.122.303.145.997-.823-1.3.678Zm2.717 4.322-.036.3 1.266-1.09-1.23.79Zm-33.565 52.52 2.118-2.168.08-.272-2.198 2.44Zm33.579-52.818-.014.298 1.244-1.08-1.23.782Zm-2.428-3.88.285.159 1.008-.84-1.293.682Zm-5.729 19.231-.206.194 1.647-1.374-1.441 1.18Zm8.151-15.647.006.296 1.224-1.07-1.23.774Zm-2.137-3.425.269.17 1.017-.856-1.286.686ZM85.651 87.833l2.116-2.162.06-.27-2.176 2.432Zm33.463-53.13.028.294 1.204-1.061-1.232.767Zm-1.84-2.961.25.182 1.029-.873-1.279.69Zm-6.09 18.693-.193.209 1.63-1.384-1.437 1.175Zm7.881-16.025.049.293 1.184-1.052-1.233.76Zm-1.541-2.486.234.195 1.039-.89-1.273.695ZM85.711 87.557l2.116-2.155.04-.268-2.156 2.423Zm26.118-38.106 1.423-1.152 5.35-10.885-6.773 12.037Zm7.166-15.331.07.29 1.165-1.042-1.235.752Zm-1.237-2 .216.207 1.051-.908-1.267.7Zm1.146 1.711.091.289 1.146-1.034-1.237.745Zm-33.561 54.84-4.447 9.363 6.568-11.543-2.121 2.18Zm32.631-56.344.2.22 1.062-.926-1.262.706Zm-6.609 17.884-.181.224 1.614-1.393-1.433 1.17Zm-28.094 32.7 2.18-2.034-.286-.161-1.894 2.196Zm2.48 4.372 2.115-2.15.019-.265-2.134 2.415Zm33.042-53.733.111.281 1.129-1.019-1.24.738Zm-.619-1.003.181.232 1.075-.944-1.256.712Zm.49.733.129.27 1.115-1-1.244.73Zm-.309-.501.163.244 1.089-.962-1.252.718Zm.163.244.146.257 1.102-.98-1.248.723ZM34.286.026 37.75.16l-.248-.023-3.215-.11ZM83.55 83.088l2.174-2.04-.271-.171-1.903 2.211Zm2.22 3.923 2.116-2.143-.003-.263-2.113 2.406Zm25.763-37.038-.167.238 1.597-1.402-1.43 1.164ZM85.766 86.74l2.116-2.136-.022-.262-2.094 2.398Zm-1.956-3.466 2.168-2.046-.255-.181-1.913 2.227ZM34.54.07l3.458.131-.249-.043L34.54.071Zm51.202 86.402 2.118-2.13-.044-.26-2.074 2.39Zm-1.686-3 2.162-2.053-.24-.191-1.922 2.243Zm27.631-33.754-.155.254 1.581-1.412-1.426 1.158Zm-25.99 36.488 2.12-2.124-.065-.257-2.055 2.38Zm-1.412-2.527 2.156-2.058-.223-.202-1.933 2.26ZM34.795.135l3.453.13-.25-.063-3.203-.067Zm50.836 85.808 2.12-2.117-.084-.255-2.036 2.372Zm-1.133-2.046 2.151-2.063-.208-.212-1.943 2.275Zm1.045 1.784 2.124-2.11-.106-.254-2.018 2.364Zm-.848-1.555 2.146-2.07-.192-.222-1.954 2.292Zm.74 1.295 2.126-2.104-.112-.272-2.015 2.376Zm-.56-1.057 2.142-2.076-.176-.232-1.966 2.308Z" fill="#E7E7E7"/><path d="m80.107 99.177.654-.88 4.808-10.186-5.462 11.066Z" fill="#010101"/><path d="m85.32 85.141 2.129-2.096-.128-.262-2.002 2.358ZM35.051.221l3.446.128-.25-.084L35.05.221ZM85.04 84.613l2.137-2.083-.16-.242-1.977 2.325Zm.148.26 2.133-2.09-.144-.253-1.99 2.342Zm26.641-35.422-.142.268 1.565-1.42-1.423 1.152ZM35.309.327l3.44.125L38.5.35l-3.19-.022Z" fill="#E7E7E7"/><path d="m80.76 98.297.136-.263 4.447-9.362-4.582 9.625Z" fill="#010101"/><path d="m85.467 88.39-.124.282 2.243-2.456-2.12 2.174Z" fill="#E7E7E7"/><path d="m30.451 2.55-.119.304-.107.32.226-.624Z" fill="#010101"/><path d="m85.57 88.11-.103.28 2.22-2.447-2.118 2.168Zm.08-.277-.08.278 2.197-2.44-2.116 2.162Zm.061-.276-.06.276 2.176-2.431-2.116 2.155Z" fill="#E7E7E7"/><path d="m30.725 1.99-.143.272-.13.288.273-.56Z" fill="#010101"/><path d="m85.75 87.283-.039.274 2.155-2.423-2.115 2.15Zm-2.772-4.537.293.166 1.894-2.196-2.187 2.03Z" fill="#E7E7E7"/><path d="m80.76 98.297 4.583-9.625.226-.561-4.808 10.186Zm-49.714-96.8-.321.494-.274.559.595-1.053Z" fill="#010101"/><path d="m34.033.003.253.023 3.215.11-3.468-.133ZM85.77 87.01l-.018.272 2.134-2.415-2.116 2.143Zm-2.498-4.1.278.177 1.903-2.211-2.18 2.035Zm2.495 3.83.003.27 2.113-2.406-2.116 2.136Z" fill="#E7E7E7"/><path d="m80.107 99.177 5.462-11.066.062-2.168-5.524 13.234Z" fill="#010101"/><path d="m83.549 83.088.261.187 1.913-2.227-2.174 2.04ZM34.286.026l.254.045 3.21.088-3.464-.133Z" fill="#E7E7E7"/><path d="m31.046 1.497-.166.239-.155.255.32-.494Z" fill="#010101"/><path d="m85.742 86.473.024.268 2.094-2.398-2.118 2.13Zm-1.932-3.198.246.197 1.922-2.243-2.168 2.046Zm1.887 2.932.045.266 2.074-2.39-2.119 2.124ZM34.54.07l.255.064 3.203.067L34.54.071Zm49.516 83.401.229.208 1.933-2.26-2.162 2.052Zm1.575 2.47.066.265 2.055-2.381-2.121 2.117Zm-1.346-2.262.213.217 1.943-2.275-2.156 2.058Zm1.258 2 .088.263 2.036-2.372-2.124 2.11Z" fill="#E7E7E7"/><path d="m31.83.709-.784.788-.595 1.053 1.38-1.841Z" fill="#010101"/><path d="m85.434 85.421.11.26 2.017-2.364-2.127 2.104Zm-.936-1.524.197.229 1.954-2.292-2.151 2.063ZM34.795.135l.256.086 3.197.044-3.453-.13ZM85.32 85.141l.115.28 2.015-2.376-2.13 2.096Zm-.624-1.015.18.238 1.966-2.308-2.146 2.07Zm.493.746.131.27 2.002-2.36-2.133 2.09Zm-.313-.508.165.25 1.977-2.326-2.142 2.076Zm.165.25.148.258 1.989-2.342-2.137 2.083ZM35.05.22l.258.106 3.19.022L35.05.22Z" fill="#E7E7E7"/><path d="m31.414 1.07-.19.205-.178.222.368-.427Zm.417-.361-.417.36-.368.428.785-.788Zm0 0-.214.172-.203.189.417-.361ZM33.78 0l-1.95.709-1.38 1.84L33.781 0Zm-1.486.415-.238.138-.226.156.464-.294Z" fill="#010101"/><path d="m117.295 38.294 1.307-.88.141-.308-1.448 1.188Z" fill="#E7E7E7"/><path d="m32.786.194-.49.22-.465.295.955-.515Z" fill="#010101"/><path d="m113.599 32.738 1.447-.755L45.119.683l68.48 32.055Zm3.84 5.24 1.304-.872.121-.306-1.425 1.178Z" fill="#E7E7E7"/><path d="m32.786.194-.246.1-.245.12.49-.22Z" fill="#010101"/><path d="m117.561 37.664 1.303-.864.099-.305-1.402 1.17Z" fill="#E7E7E7"/><path d="m33.782 0-.996.194-.955.515L33.78 0Z" fill="#010101"/><path d="m117.663 37.351 1.3-.856.078-.303-1.378 1.16Z" fill="#E7E7E7"/><path d="m33.282.056-.249.059-.247.08.496-.139Z" fill="#010101"/><path d="m117.295 38.294-5.466 11.157 6.773-12.037-1.307.88Z" fill="#E7E7E7"/><path d="m85.343 88.672.124-.282.102-.28-.226.562Z" fill="#010101"/><path d="m117.742 37.04 1.299-.848.057-.301-1.356 1.15Z" fill="#E7E7E7"/><path d="m33.782 0-.5.056-.496.138.996-.194Z" fill="#010101"/><path d="m117.8 36.731 1.298-.84.036-.3-1.334 1.14Zm-2.443-4.599 1.363-.718-.303-.145-1.06.864Zm-6.097 19.955 1.525-1.25.206-.193-1.731 1.443Zm8.577-15.663 1.297-.833.014-.298-1.311 1.13Z" fill="#E7E7E7"/><path d="m33.782 0-.25.018-.25.038.5-.056Z" fill="#010101"/><path d="m115.649 32.295 1.356-.724-.285-.157-1.071.88Z" fill="#E7E7E7"/><path d="m85.57 88.11.08-.277.061-.276-.142.554Z" fill="#010101"/><path d="m117.852 36.118 1.296-.825-.006-.296-1.29 1.121Zm-1.927-3.648 1.349-.728-.269-.17-1.08.898Zm-6.454 19.418 1.52-1.244.193-.209-1.713 1.453Zm8.373-16.074 1.298-.817-.028-.294-1.27 1.111Z" fill="#E7E7E7"/><path d="m85.57 88.11.141-.553.058-.546-.2 1.1Z" fill="#010101"/><path d="m116.182 32.657 1.342-.733-.25-.182-1.092.915Zm1.633 2.855 1.299-.81-.049-.292-1.25 1.102Zm-1.393-2.654 1.336-.739-.234-.195-1.102.934Zm1.342 2.354 1.301-.802-.07-.29-1.231 1.092Z" fill="#E7E7E7"/><path d="m85.711 87.557.04-.274.018-.272-.058.546ZM34.286.027l-.253-.024L33.782 0l.504.026Z" fill="#010101"/><path d="m109.668 51.674 1.516-1.239.181-.224-1.697 1.463Zm6.976-18.603 1.33-.744-.216-.208-1.114.952Z" fill="#E7E7E7"/><path d="m85.57 88.11.2-1.099-.14-1.068-.06 2.168Z" fill="#010101"/><path d="m117.692 34.913 1.303-.793-.091-.289-1.212 1.082Zm-.844-1.616 1.326-.75-.2-.22-1.126.97Zm.75 1.32 1.306-.786-.111-.281-1.195 1.067Zm-.564-1.081 1.321-.757-.181-.233-1.14.99Zm.45.792 1.309-.778-.129-.27-1.18 1.048Zm-.282-.54 1.316-.765-.163-.244-1.153 1.008Zm.15.263 1.312-.77-.146-.258-1.166 1.028Z" fill="#E7E7E7"/><path d="m34.795.135-.509-.109L33.782 0l1.013.135Zm49.015 83.14-.261-.187-.278-.176.54.363Z" fill="#010101"/><path d="m109.853 51.445 1.512-1.234.167-.238-1.679 1.472Z" fill="#E7E7E7"/><path d="m85.77 87.011-.004-.27-.024-.268.027.538Z" fill="#010101"/><path d="m38.75.452 73.316 33.084L42.016.57 38.75.452Z" fill="#E7E7E7"/><path d="m85.77 87.011-.028-.538-.111-.53.138 1.068ZM34.794.135 34.54.071l-.254-.045.51.11Zm49.49 83.545-.23-.208-.245-.197.475.405Zm1.457 2.793-.045-.266-.066-.264.111.53Z" fill="#010101"/><path d="m110.024 51.2 1.508-1.227.155-.254-1.663 1.482Z" fill="#E7E7E7"/><path d="m84.695 84.126-.41-.446-.475-.405.885.85Zm.936 1.817-.088-.262-.109-.26.197.522Zm-.936-1.817-.197-.229-.213-.217.41.446Zm.936 1.817-.197-.522-.115-.28.312.802Zm0 0-.312-.802-.624-1.015.936 1.817Zm-.312-.802-.28-.528-.344-.487.624 1.015Zm-.28-.528-.164-.249-.18-.238.345.487Zm.28.528-.131-.269-.148-.259.28.528Z" fill="#010101"/><path d="m110.182 50.941 1.505-1.222.142-.268-1.647 1.49Z" fill="#E7E7E7"/><path d="M35.309.327 35.05.221l-.256-.086.514.192Z" fill="#010101"/><path d="m117.439 37.978-.144.316 1.448-1.188-1.304.872Zm.122-.314-.122.314 1.425-1.178-1.303.864Zm.102-.313-.102.313 1.402-1.169-1.3.856Zm.079-.31-.079.31 1.378-1.159-1.299.849Zm.058-.31-.058.31 1.356-1.15-1.298.84Zm-2.754-4.748.311.15 1.06-.864-1.371.714Zm2.791 4.44-.037.308 1.334-1.14-1.297.833Zm.015-.305-.015.306 1.311-1.13-1.296.824Zm-2.495-3.986.292.163 1.071-.881-1.363.718Zm-5.886 19.756-.211.199 1.731-1.443-1.52 1.244Zm8.373-16.074.008.304 1.29-1.12-1.298.816Zm-2.195-3.52.276.176 1.08-.898-1.356.723Zm2.166 3.218.029.302 1.27-1.111-1.299.809Zm-1.89-3.042.257.187 1.092-.915-1.349.728Zm-6.257 19.204-.197.214 1.713-1.453-1.516 1.24Zm8.096-16.462.051.3 1.25-1.102-1.301.802Zm-1.582-2.555.24.2 1.102-.933-1.342.733Zm-5.855 18.009 1.502-1.215 5.466-11.157-6.968 12.372Zm7.365-15.753.072.299 1.231-1.092-1.303.793Zm-1.27-2.055.222.213 1.114-.952-1.336.739Zm1.176 1.759.094.296 1.212-1.082-1.306.786Zm-.954-1.546.204.226 1.126-.97-1.33.744Zm-6.791 18.374-.185.23 1.697-1.464-1.512 1.234Zm7.631-17.117.114.289 1.195-1.067-1.309.778Zm-.636-1.03.186.238 1.14-.99-1.326.751Zm.504.753.132.277 1.18-1.048-1.312.771Zm-.318-.515.168.251 1.153-1.008-1.321.757Zm.168.251.15.264 1.166-1.028-1.316.764Zm-7.178 17.414-.171.244 1.679-1.472-1.508 1.228Zm.158-.26-.158.26 1.663-1.482-1.505 1.222Zm.145-.275-.145.275 1.647-1.49-1.502 1.215Z" fill="#E7E7E7"/><path d="m45.708 28.75 61.355 24.557L33.782 0l11.926 28.75Z" fill="#010101"/><path d="m115.913 39.223 1.382-.93.144-.315-1.526 1.245Zm-3.847-5.687 1.533-.798L42.015.57l70.051 32.965Zm3.995 5.363 1.378-.92.122-.315-1.5 1.235Zm.125-.322 1.375-.913.102-.313-1.477 1.226Zm.104-.321 1.373-.905.079-.31-1.452 1.215Zm-.377.967-5.586 11.443 6.968-12.372-1.382.929Zm.458-1.286 1.371-.896.058-.31-1.429 1.206Zm.059-.318 1.37-.888.037-.307-1.407 1.195Zm-2.513-4.728 1.44-.758-.311-.15-1.129.908Zm-6.268 20.515 1.611-1.32.211-.198-1.822 1.518Zm8.818-16.103 1.37-.88.015-.305-1.385 1.185Zm-2.25-4.245 1.432-.763-.292-.163-1.14.926Zm2.264 3.931 1.371-.87-.008-.305-1.363 1.175Zm-1.981-3.75 1.425-.77-.276-.174-1.149.944Zm-6.635 19.963 1.606-1.314.197-.214-1.803 1.528Zm8.608-16.525 1.371-.863-.029-.302-1.342 1.165Zm-1.709-3.245 1.418-.775-.257-.187-1.161.962Zm1.679 2.934 1.372-.854-.051-.3-1.321 1.154Zm-1.433-2.728 1.412-.78-.24-.2-1.172.98Zm1.381 2.42 1.373-.846-.072-.299-1.301 1.145Zm-8.324 16.925 1.601-1.309.185-.229-1.786 1.538Zm7.171-19.125 1.406-.787-.222-.213-1.184 1Zm1.078 1.893 1.376-.838-.094-.296-1.282 1.134Zm-.868-1.661 1.4-.793-.204-.226-1.196 1.019Zm.771 1.357 1.379-.83-.114-.29-1.265 1.12Zm-.58-1.112 1.395-.8-.186-.238-1.209 1.038Zm.463.815 1.382-.822-.132-.277-1.25 1.099Zm-.29-.556 1.39-.807-.168-.251-1.222 1.058Zm.154.271 1.386-.814-.15-.264-1.236 1.078Zm-7.71 17.883 1.597-1.303.171-.244-1.768 1.547ZM35.309.328l75.135 34.053L38.75.452 35.309.327Zm73.122 52.17 1.593-1.297.158-.26-1.751 1.557Zm.162-.267 1.589-1.29.145-.275-1.734 1.566Zm7.468-13.332-.148.324 1.526-1.245-1.378.921Zm.125-.322-.125.322 1.5-1.235-1.375.913Zm.104-.321-.104.32 1.477-1.225-1.373.905Zm.081-.32-.081.32 1.452-1.215-1.371.896Zm.059-.317-.059.318 1.429-1.206-1.37.888Zm-2.831-4.881.318.153 1.129-.908-1.447.755Zm2.868 4.565-.037.316 1.407-1.195-1.37.88Zm.014-.314-.014.314 1.385-1.185-1.371.871Zm-2.564-4.098.3.167 1.14-.925-1.44.758Zm-6.052 20.311-.216.204 1.822-1.518-1.606 1.314Z" fill="#E7E7E7"/><path d="M110.781 34.545 34.795.135 33.782 0l76.999 34.545Z" fill="#010101"/><path d="m116.473 36.677.008.312 1.363-1.175-1.371.863Zm-2.256-3.619.283.18 1.149-.943-1.432.763Zm2.226 3.309.03.31 1.342-1.165-1.372.855Zm-1.943-3.128.264.193 1.161-.962-1.425.769Zm-6.433 19.744-.202.22 1.803-1.529-1.601 1.31Zm8.324-16.925.052.309 1.321-1.155-1.373.846Zm-1.627-2.626.246.206 1.172-.98-1.418.774Z" fill="#E7E7E7"/><path d="M110.781 34.545 35.309.327l-.514-.192 75.986 34.41Z" fill="#010101"/><path d="m108.741 51.95 1.586-1.284 5.586-11.443-7.172 12.726Zm7.575-16.199.075.307 1.301-1.145-1.376.838Zm-1.306-2.113.228.22 1.184-1-1.412.78Zm1.209 1.809.097.304 1.282-1.134-1.379.83Zm-.981-1.59.21.233 1.196-1.019-1.406.787Zm-6.982 18.891-.189.235 1.786-1.538-1.597 1.303Zm7.846-17.598.117.297 1.265-1.12-1.382.823Zm-.654-1.06.191.245 1.209-1.038-1.4.793Zm.518.775.136.285 1.25-1.099-1.386.814Zm-.327-.53.173.259 1.222-1.058-1.395.8Zm.173.259.154.271 1.236-1.078-1.39.807Zm-7.381 17.904-.175.25 1.768-1.547-1.593 1.297Zm.162-.267-.162.267 1.751-1.557-1.589 1.29Zm.148-.282-.148.282 1.734-1.565-1.586 1.283Z" fill="#E7E7E7"/><path d="M45.708 28.75 100.5 55.371l2.578.578-57.37-27.198Zm0 0 57.37 27.2 3.985-2.643L45.708 28.75Z" fill="#010101"/><path d="m114.452 40.206 1.461-.983.148-.324-1.609 1.307Zm-4.008-5.825 1.622-.845L38.75.452l71.694 33.93Zm4.159 5.492 1.458-.974.125-.322-1.583 1.296Zm.129-.331 1.454-.965.104-.321-1.558 1.286Zm.105-.33 1.453-.956.081-.32-1.534 1.276Zm-.385.994-5.711 11.743 7.172-12.726-1.461.983Zm.468-1.322 1.451-.947.059-.318-1.51 1.265Zm.06-.326 1.45-.939.037-.316-1.487 1.255Zm-2.586-4.864 1.523-.803-.318-.153-1.205.956Zm-6.448 21.107 1.703-1.395.216-.204-1.919 1.599Zm9.072-16.568 1.449-.93.014-.314-1.463 1.244Zm-2.315-4.367 1.514-.808-.3-.167-1.214.975Zm2.329 4.045 1.449-.922-.008-.312-1.441 1.234Zm-2.039-3.859 1.507-.813-.283-.18-1.224.993Zm-6.826 20.54 1.698-1.39.202-.219-1.9 1.61Zm8.857-17.002 1.449-.913-.03-.31-1.419 1.223Zm-1.759-3.339 1.499-.82-.264-.192-1.235 1.012Zm1.727 3.02 1.451-.904-.052-.309-1.399 1.212Zm-1.475-2.808 1.493-.825-.246-.206-1.247 1.031Zm1.421 2.49 1.453-.895-.075-.307-1.378 1.202Zm-8.564 17.415 1.693-1.385.189-.235-1.882 1.62Zm7.378-19.679 1.486-.831-.228-.22-1.258 1.051Zm1.109 1.949 1.455-.887-.097-.304-1.358 1.191Zm-.894-1.71 1.481-.838-.21-.233-1.271 1.072Zm.794 1.397 1.458-.878-.117-.297-1.341 1.175Zm-.598-1.144 1.476-.846-.191-.245-1.285 1.091Zm.477.838 1.462-.87-.136-.284-1.326 1.154Zm-.299-.572 1.471-.853-.173-.259-1.298 1.112Zm.159.28 1.466-.862-.154-.271-1.312 1.132Zm-7.933 18.4 1.689-1.379.175-.25-1.864 1.63Zm.179-.257 1.685-1.372.162-.267-1.847 1.64Zm.165-.273 1.682-1.366.148-.282-1.83 1.648Zm7.692-13.724-.151.333 1.609-1.307-1.458.974Z" fill="#E7E7E7"/><path d="m107.063 53.307 5.721-16.956L33.782 0l73.281 53.307Z" fill="#010101"/><path d="m114.732 39.542-.129.33 1.583-1.295-1.454.965Zm.105-.33-.105.33 1.558-1.286-1.453.956Zm.083-.328-.083.328 1.534-1.276-1.451.948Z" fill="#E7E7E7"/><path d="m100.5 55.371.327.15.326.126-.653-.276Z" fill="#010101"/><path d="m114.98 38.558-.06.326 1.51-1.265-1.45.939Zm-2.914-5.022.328.158 1.205-.956-1.533.798Zm2.952 4.697-.038.325 1.487-1.255-1.449.93Z" fill="#E7E7E7"/><path d="m100.5 55.371.653.276.648.188-1.301-.464Z" fill="#010101"/><path d="m115.032 37.91-.014.323 1.463-1.244-1.449.922Zm-2.638-4.216.309.172 1.214-.975-1.523.803Zm-6.227 20.898-.221.209 1.919-1.599-1.698 1.39Z" fill="#E7E7E7"/><path d="m101.153 55.647.325.105.323.083-.648-.188Z" fill="#010101"/><path d="m115.024 37.59.008.32 1.441-1.233-1.449.913Zm-2.321-3.724.29.186 1.224-.994-1.514.808Zm2.289 3.404.032.32 1.419-1.224-1.451.904Zm-1.999-3.218.272.199 1.235-1.012-1.507.813Zm-6.619 20.316-.207.224 1.9-1.609-1.693 1.385Z" fill="#E7E7E7"/><path d="m100.5 55.371 1.301.464 1.277.114-2.578-.578Z" fill="#010101"/><path d="m114.938 36.953.054.317 1.399-1.212-1.453.895Zm-1.673-2.702.252.212 1.247-1.031-1.499.819Zm-6.202 19.056 1.678-1.358 5.711-11.743-7.389 13.101Zm7.798-16.669.077.315 1.378-1.202-1.455.887Zm-1.344-2.175.235.226 1.258-1.05-1.493.824Z" fill="#E7E7E7"/><path d="m101.801 55.835.321.062.32.04-.641-.102Z" fill="#010101"/><path d="m114.761 36.325.1.313 1.358-1.191-1.458.878Zm-1.009-1.636.215.24 1.271-1.072-1.486.832Zm-7.185 19.438-.193.24 1.882-1.619-1.689 1.38Zm8.073-18.108.121.306 1.341-1.175-1.462.869Zm-.673-1.09.196.252 1.285-1.091-1.481.839Zm.533.797.14.293 1.326-1.154-1.466.861Zm-.337-.545.178.266 1.298-1.112-1.476.846Zm.178.266.159.28 1.312-1.133-1.471.853Z" fill="#E7E7E7"/><path d="m101.801 55.835.641.101.636.014-1.277-.115Z" fill="#010101"/><path d="m106.746 53.87-.179.257 1.864-1.63-1.685 1.373Z" fill="#E7E7E7"/><path d="m102.442 55.936.318.018.318-.005-.636-.013Z" fill="#010101"/><path d="m106.911 53.597-.165.273 1.847-1.639-1.682 1.366Zm.152-.29-.152.29 1.83-1.648-1.678 1.358Z" fill="#E7E7E7"/><path d="m103.078 55.95.315-.027.314-.048-.629.075Zm0 0 .629-.075.624-.163-1.253.237Zm.629-.075.312-.07.312-.093-.624.163Zm-.629.075 1.253-.238 1.132-.543-2.385.78Zm1.253-.238.303-.112.29-.128-.593.24Zm8.453-19.36-2.003-1.807L33.781 0l79.003 36.351Zm-2.003-1.807-.337-.164L35.308.327l75.473 34.218Zm-6.45 21.167.593-.24.539-.303-1.132.543Zm.593-.24.276-.143.263-.16-.539.303Zm-1.846.477 2.385-.78 1.6-1.862-3.985 2.642Zm2.385-.78.249-.176.234-.192-.483.368Zm0 0 .483-.368.428-.433-.911.8Zm.483-.368.221-.209.207-.224-.428.433Zm-.483.368.911-.801.689-1.06-1.6 1.86Zm.911-.801.193-.24.179-.258-.372.498Zm0 0 .372-.498.317-.563-.689 1.06Zm.372-.498.165-.273.152-.29-.317.563Z" fill="#010101"/><path d="m112.906 41.247 1.546-1.041.151-.333-1.697 1.374Zm.154-.342 1.543-1.032.129-.331-1.672 1.363Zm.131-.34 1.541-1.023.105-.33-1.646 1.352Zm.108-.34 1.538-1.013.083-.328-1.621 1.341Zm-.393 1.022-5.843 12.06 7.389-13.101-1.546 1.04Zm.478-1.359 1.536-1.004.06-.326-1.596 1.33Zm.061-.335 1.535-.995.038-.325-1.573 1.32Zm-2.664-5.008 1.613-.85-.328-.16-1.285 1.01Zm2.702 4.674 1.535-.986.014-.322-1.549 1.308Zm-2.385-4.497 1.605-.856-.309-.172-1.296 1.028Zm2.399 4.165 1.535-.976-.008-.321-1.527 1.297Zm-2.1-3.973 1.596-.862-.29-.186-1.306 1.048Zm2.091 3.643 1.536-.967-.032-.32-1.504 1.287Zm-1.812-3.438 1.589-.868-.272-.199-1.317 1.067Zm1.779 3.11 1.537-.959-.054-.317-1.483 1.275Zm-1.519-2.891 1.581-.875-.252-.212-1.329 1.087Zm1.463 2.564 1.539-.949-.077-.315-1.462 1.264Zm-1.222-2.331 1.575-.882-.235-.226-1.34 1.108Zm1.143 2.006 1.541-.939-.1-.313-1.441 1.252Zm-.921-1.76 1.568-.888-.215-.24-1.353 1.128Zm.817 1.438 1.545-.93-.121-.306-1.424 1.236Zm-.615-1.178 1.562-.896-.196-.252-1.366 1.148Zm.491.863 1.548-.921-.14-.293-1.408 1.214Zm-.308-.589 1.557-.904-.178-.266-1.379 1.17Zm.163.288 1.553-.913-.159-.279-1.394 1.192Zm.113 4.266-.154.342 1.697-1.374-1.543 1.032Zm.131-.34-.131.34 1.672-1.363-1.541 1.022Zm.108-.34-.108.34 1.646-1.353-1.538 1.013Zm.085-.337-.085.337 1.621-1.34-1.536 1.003Z" fill="#E7E7E7"/><path d="m107.063 53.307 5.843-12.06.154-.342-5.997 12.402Z" fill="#010101"/><path d="m113.445 39.553-.061.335 1.596-1.33-1.535.995Zm-3.001-5.172.337.164 1.285-1.01-1.622.846Z" fill="#E7E7E7"/><path d="m107.063 53.307 5.997-12.402.239-.68-6.236 13.082Z" fill="#010101"/><path d="m113.483 39.219-.038.334 1.573-1.32-1.535.986Zm.014-.332-.014.332 1.549-1.308-1.535.976Zm-2.716-4.342.317.177 1.296-1.028-1.613.85Zm2.707 4.012.009.33 1.527-1.297-1.536.967Zm-2.39-3.835.299.192 1.306-1.048-1.605.856Z" fill="#E7E7E7"/><path d="m107.063 53.307 6.236-13.082.198-1.338-6.434 14.42Z" fill="#010101"/><path d="m113.455 38.228.033.329 1.504-1.287-1.537.958Zm-2.058-3.314.279.205 1.317-1.067-1.596.862Zm2.002 2.988.056.326 1.483-1.275-1.539.949Zm-1.723-2.783.26.219 1.329-1.087-1.589.868Zm1.644 2.458.079.325 1.462-1.264-1.541.94Zm-1.384-2.239.241.233 1.34-1.108-1.581.875Zm1.28 1.917.104.322 1.441-1.252-1.545.93Zm-1.039-1.684.222.246 1.353-1.128-1.575.882Zm.915 1.37.124.314 1.424-1.236-1.548.921Zm-.693-1.124.202.26 1.366-1.148-1.568.888Zm.548.822.145.301 1.408-1.214-1.553.913Zm-.346-.562.183.274 1.379-1.17-1.562.897Zm.183.274.163.288 1.394-1.192-1.557.904Z" fill="#E7E7E7"/><path d="m107.063 53.307 6.434-14.42-.713-2.536-5.721 16.956Zm5.997-12.402.131-.34.108-.34-.239.68Zm.239-.68.085-.337.061-.335-.146.672Zm0 0 .146-.672.052-.666-.198 1.338Zm.146-.672.038-.334.014-.332-.052.666Zm-2.048-4.64-.299-.19-.317-.178.616.369Zm2.1 3.974-.009-.33-.033-.329.042.659Zm-1.561-3.549-.539-.424-.616-.37 1.155.794Zm1.561 3.549-.042-.659-.135-.65.177 1.309Zm-.713-2.536-.848-1.013-1.155-.793 2.003 1.806Zm-.848-1.013-.26-.219-.279-.205.539.424Zm1.561 3.549-.177-1.31-.536-1.226.713 2.536Zm-.042-.659-.056-.326-.079-.325.135.651Zm-1.056-2.41-.222-.247-.241-.233.463.48Zm.921 1.76-.104-.323-.124-.315.228.637Zm-.536-1.227-.385-.534-.463-.479.848 1.013Zm.536 1.226-.228-.637-.308-.589.536 1.226Zm-.536-1.226-.183-.273-.202-.26.385.533Zm.308.59-.145-.302-.163-.288.308.59Z" fill="#010101"/></svg>