<svg width="151" height="159" fill="none" xmlns="http://www.w3.org/2000/svg"><path d="m17.988 87.202-.024-.023-.044-.042.067.065Z" fill="#010101"/><path d="m22.16 74.686 2.999-1.44-.333.1-2.666 1.34Zm.345-.042 2.994-1.44-.34.043-2.654 1.397Zm.353.015 2.989-1.44-.348-.015-2.641 1.455Zm.36.074L26.2 73.29l-.354-.071-2.63 1.514Zm.367.133 2.977-1.447-.361-.129-2.616 1.576Zm.375.19 2.97-1.45-.368-.187-2.602 1.638Zm.381.25 2.963-1.457-.374-.243-2.589 1.7Zm-2.52-.519.338-.1 2.667-1.34-3.005 1.44Zm.338-.1.346-.043 2.654-1.397-3 1.44Zm.346-.043.353.015 2.641-1.455-2.994 1.44Zm.353.015.36.074 2.629-1.514-2.99 1.44Zm.36.074.367.133 2.616-1.576-2.983 1.443Zm.367.133.375.19 2.602-1.637-2.977 1.447Zm.375.19.381.25 2.588-1.7-2.97 1.45Zm-4.93 1.133 3.13-1.503-.338.101-2.793 1.401Zm.35-.043 3.125-1.502-.345.042-2.78 1.46Zm.358.017 3.12-1.504-.353-.015-2.767 1.519Zm.367.076 3.113-1.506-.36-.074-2.753 1.58Zm.373.136 3.107-1.51-.367-.132-2.74 1.642Zm.382.196 3.1-1.514-.375-.191-2.725 1.705Zm.388.256 3.093-1.52-.381-.25-2.712 1.77Zm3.093-1.52 55.987 38.108-53.024-39.566-2.963 1.457Zm-5.655.983.343-.102 2.793-1.4-3.136 1.502Zm.343-.102.35-.042 2.78-1.46-3.13 1.502Zm.35-.042.36.017 2.766-1.52-3.125 1.503Zm.36.017.366.076 2.753-1.58-3.12 1.504Zm.366.076.373.136 2.74-1.642-3.113 1.506Zm.373.136.382.196 2.725-1.705-3.107 1.51Zm.382.196.388.256 2.712-1.77-3.1 1.514Zm59.468 36.844 1.873-2.362-54.897-37.204 53.024 39.566ZM15.759 77.758l3.27-1.57-.343.102-2.927 1.468Zm.356-.042 3.265-1.57-.35.043-2.915 1.527Zm.365.018 3.258-1.571-.358-.017-2.9 1.588Zm.372.079 3.253-1.574-.367-.076-2.886 1.65Zm.38.14 3.246-1.578-.373-.136-2.872 1.714Zm.389.2 3.239-1.582-.382-.195-2.857 1.778Zm.396.262 3.231-1.588-.388-.256-2.843 1.844Zm3.231-1.588 57.121 39.059-54.028-40.58-3.093 1.52Zm-5.837 1.034.348-.103 2.927-1.468-3.275 1.57Zm.348-.103.356-.042 2.914-1.527-3.27 1.569Zm.356-.042.365.018 2.9-1.588-3.265 1.57Zm.365.018.372.079 2.886-1.65-3.258 1.57Zm.372.079.38.14 2.873-1.714-3.253 1.574Zm.38.14.389.2 2.857-1.778-3.245 1.578Zm.389.2.396.262 2.843-1.844-3.239 1.583Zm60.748 37.733 1.959-2.471L24.34 75.306l54.028 40.58ZM12.34 79.399l3.42-1.641-.348.103-3.071 1.538Zm.362-.042 3.414-1.641-.356.042-3.058 1.599Z" fill="#E7E7E7"/><path d="m.806 95.731.137.168.147.163-.284-.33Zm-.243-.346.116.175.127.171-.243-.346Zm0 0 .243.346.284.33-.527-.676Zm.527.677.158.16.019.017-.177-.177Zm0 0 .177.177.042.041-.219-.218Zm0 0 .219.218.075.072-.294-.29Zm-.729-1.04.096.184.106.18-.202-.363Zm.73 1.04.293.29.027.027-.32-.317Zm0 0 .32.317.03.029-.35-.346Zm0 0 .35.346.03.03-.38-.376ZM.2 94.644l.362.741.527.677-.89-1.418Zm0 0 .16.379.202.362-.362-.741Zm1.337 1.858.036.034.048.02-.084-.054Zm-.034-.033.034.033.182.102-.216-.135Zm-.032-.031.032.03.265.164-.297-.195Zm.066.064.084.053.048.023-.132-.076ZM.201 94.644l.075.191.085.188-.16-.38Zm1.337 1.858.132.076.05.025-.182-.101Zm-.034-.033.216.135.05.028-.266-.163Zm-.032-.031.297.194.05.03-.347-.225Z" fill="#010101"/><path d="m13.071 79.376 3.409-1.642-.365-.018-3.044 1.66Zm94.627 56.393 1.293-2.901.09-.252-1.383 3.153Z" fill="#E7E7E7"/><path d="m.081 94.249.055.2.065.195-.12-.395Zm-.066-.423.066.423.12.395-.186-.818Zm.01-.804L.2 94.644l.89 1.418-1.066-3.04Zm-.01.804.022.22.044.203-.066-.423Z" fill="#010101"/><path d="m107.789 135.513 1.292-2.897.066-.253-1.358 3.15ZM13.45 79.458l3.402-1.645-.372-.08-3.03 1.725Z" fill="#E7E7E7"/><path d="m.025 93.022-.01.804.186.818-.176-1.622Z" fill="#010101"/><path d="m107.857 135.256 1.29-2.893.043-.256-1.333 3.149Z" fill="#E7E7E7"/><path d="m0 93.41.002.204.013.212L0 93.41Z" fill="#010101"/><path d="m13.838 79.602 3.395-1.65-.38-.14-3.015 1.79Zm94.061 55.393 1.291-2.888.018-.257-1.309 3.145Z" fill="#E7E7E7"/><path d="M.025 93.022 0 93.41l.015.416.01-.804Z" fill="#010101"/><path d="m14.234 79.808 3.387-1.654-.388-.201-3 1.855Z" fill="#E7E7E7"/><path d="m.025 93.022-.017.19L0 93.41l.025-.388Z" fill="#010101"/><path d="m107.917 134.733 1.291-2.883-.005-.26-1.286 3.143Zm-93.28-54.656 3.38-1.662-.396-.261-2.983 1.923Zm93.275 54.391 1.291-2.878-.021-.259-1.27 3.137Z" fill="#E7E7E7"/><path d="m.09 92.664-.037.175-.028.183.065-.358Z" fill="#010101"/><path d="m107.891 134.204 1.291-2.873-.027-.256-1.264 3.129Zm-.029-.261 1.293-2.868-.035-.252-1.258 3.12Z" fill="#E7E7E7"/><path d="m.196 92.334-.106.33-.065.358.17-.688Z" fill="#010101"/><path d="m107.826 133.686 1.294-2.863-.043-.249-1.251 3.112Z" fill="#E7E7E7"/><path d="m.196 92.334-.057.161-.049.169.106-.33Z" fill="#010101"/><path d="m107.782 133.432 1.295-2.858-.049-.246-1.246 3.104Zm-.051-.25 1.297-2.854-.057-.242-1.24 3.096Zm-.058-.248 1.298-2.848-.063-.239-1.235 3.087Z" fill="#E7E7E7"/><path d="m.342 92.033-.078.147-.068.154.146-.3Z" fill="#010101"/><path d="m107.607 132.691 1.301-2.844-.072-.235-1.229 3.079Zm-89.59-54.276 58.301 40.058-55.07-41.646-3.23 1.588Zm89.517 54.036 1.302-2.839-.078-.232-1.224 3.071Zm-.08-.237 1.304-2.834-.086-.229-1.218 3.063Zm-.088-.233 1.306-2.83-.093-.225-1.213 3.055Zm-.095-.23 1.308-2.825-.1-.221-1.208 3.046ZM11.986 79.502l.354-.103 3.071-1.538-3.425 1.641Zm.354-.103.361-.042 3.058-1.6-3.42 1.642Zm.361-.042.37.02 3.044-1.661-3.413 1.64Zm95.088 56.156-.091.256 1.383-3.153-1.292 2.897ZM13.071 79.376l.38.082 3.029-1.724-3.409 1.642Zm94.786 55.88-.068.257 1.358-3.15-1.29 2.893ZM13.45 79.458l.388.144 3.014-1.79-3.402 1.646Zm94.449 55.537-.042.261 1.333-3.149-1.291 2.888Zm-94.06-55.393.395.206 2.999-1.855-3.395 1.65Zm94.078 55.131-.018.262 1.309-3.145-1.291 2.883Zm-.005-.265.005.265 1.286-3.143-1.291 2.878Zm-93.678-54.66.404.269 2.983-1.923-3.387 1.654Zm92.934 51.717 1.311-2.82-27.16-46.333 25.849 49.153Zm.723 2.679.021.264 1.27-3.137-1.291 2.873Zm-.029-.261.029.261 1.264-3.129-1.293 2.868Zm-.036-.257.036.257 1.258-3.12-1.294 2.863Zm-.044-.254.044.254 1.251-3.112-1.295 2.858Zm-.051-.25.051.25 1.246-3.104-1.297 2.854Zm-.058-.248.058.248 1.24-3.096-1.298 2.848Zm-.066-.243.066.243 1.235-3.087-1.301 2.844Zm-.073-.24.073.24 1.229-3.079-1.302 2.839Zm-.08-.237.08.237 1.224-3.071-1.304 2.834Zm-.088-.233.088.233 1.218-3.063-1.306 2.83Zm-.095-.23.095.23 1.213-3.055-1.308 2.825Zm-.103-.226.103.226 1.208-3.046-1.311 2.82Z" fill="#E7E7E7"/><path d="m6.749 82.684-6.553 9.65-.171.688 6.724-10.338Z" fill="#010101"/><path d="m76.318 118.473 2.051-2.587-57.12-39.06 55.07 41.647Z" fill="#E7E7E7"/><path d="m6.749 82.684-6.407 9.35-.146.3 6.553-9.65Zm0 0L.43 91.894l-.088.14 6.407-9.35Zm2.755-1.588L.024 93.022l1.066 3.04 8.414-14.966Z" fill="#010101"/><path d="m8.76 81.116 3.58-1.717-.354.103-3.226 1.614Zm.368-.042 3.573-1.717-.361.042-3.212 1.675Zm70.225 3.082 27.815 47.369-25.85-49.153-1.965 1.784ZM62.031 59.748l2.366-1.231-.259.124-2.107 1.107ZM9.504 81.096l3.567-1.72-.37-.02-3.197 1.74Zm96.84 57.71 1.354-3.037.091-.256-1.445 3.293ZM62.297 59.649l2.362-1.23-.262.098-2.1 1.132Zm44.14 78.897 1.352-3.033.068-.257-1.42 3.29ZM9.89 81.181l3.56-1.723-.379-.082-3.18 1.805Zm52.677-21.603 2.357-1.229-.266.07-2.091 1.159Zm43.938 78.706 1.352-3.028.042-.261-1.394 3.289Z" fill="#E7E7E7"/><path d="M9.504 81.096 6.75 82.684.025 93.022l9.48-11.926Z" fill="#010101"/><path d="m10.284 81.329 3.554-1.727-.388-.144-3.165 1.871Zm96.264 56.69 1.351-3.024.018-.262-1.369 3.286ZM62.84 59.534l2.352-1.228-.268.043-2.084 1.185ZM10.688 81.541l3.546-1.733-.396-.206-3.15 1.939Zm95.879 56.21 1.35-3.018-.005-.265-1.345 3.283Zm-43.45-78.232 2.346-1.229-.271.016-2.075 1.213Z" fill="#E7E7E7"/><path d="m2.133 96.91.054.05 84.718 60.031L2.133 96.909Z" fill="#010101"/><path d="m11.1 81.816 3.538-1.74-.404-.268-3.134 2.008Zm95.46 55.666 1.352-3.014-.021-.264-1.331 3.278ZM63.397 59.531l2.34-1.23-.274-.011-2.066 1.24Zm43.141 77.681 1.353-3.008-.029-.261-1.324 3.269Zm-.03-.266 1.354-3.003-.036-.257-1.318 3.26ZM63.656 59.543l2.336-1.23-.254-.012-2.082 1.242Zm42.814 77.141 1.356-2.998-.044-.254-1.312 3.252Z" fill="#E7E7E7"/><path d="m1.87 96.697.052.037 87.526 61.214L1.87 96.697Zm.052.037.052.04 87.474 61.174L1.922 96.734Zm.052.04.053.042 87.42 61.132L1.975 96.773Zm.053.042.053.045 87.368 61.087L2.027 96.816Zm.053.045.053.048 87.315 61.039L2.08 96.861Z" fill="#010101"/><path d="m63.91 59.563 2.33-1.231-.248-.02-2.083 1.251Zm42.515 76.862 1.357-2.993-.051-.25-1.306 3.243Zm-.052-.256 1.358-2.987-.058-.248-1.3 3.235ZM64.156 59.591l2.327-1.232-.243-.027-2.084 1.26Zm42.157 76.326 1.36-2.983-.066-.243-1.294 3.226Zm-41.916-76.29 2.322-1.233-.236-.035-2.086 1.269Zm41.848 76.041 1.362-2.977-.073-.24-1.289 3.217ZM14.638 80.077l59.53 41.107-56.15-42.769-3.38 1.662Zm91.532 55.346 1.364-2.972-.08-.237-1.284 3.209Zm-41.538-75.75 2.316-1.236-.23-.043-2.086 1.278Zm41.456 75.508 1.366-2.967-.088-.233-1.278 3.2Zm-.09-.238 1.368-2.962-.095-.23-1.273 3.192ZM64.86 59.725l2.312-1.237-.224-.05-2.088 1.287Zm41.04 74.983 1.371-2.957-.103-.226-1.268 3.183ZM65.082 59.785l2.308-1.238-.218-.059-2.09 1.297Zm.216.069 2.303-1.24-.211-.067-2.093 1.307Zm.209.077 2.3-1.243-.206-.074-2.094 1.317Zm.203.084 2.295-1.244-.199-.083-2.096 1.327Zm.197.093 2.29-1.247-.192-.09-2.098 1.337ZM8.402 81.221l.358-.105 3.226-1.614-3.584 1.719Zm57.695-21.012 2.287-1.25-.186-.098-2.101 1.348ZM8.76 81.116l.368-.042L12.34 79.4l-3.58 1.717Zm53.008-21.241.263-.127 2.107-1.107-2.37 1.234Zm-52.64 21.2.376.02 3.197-1.738-3.573 1.717ZM62.03 59.747l.266-.099 2.1-1.132-2.366 1.231Zm44.406 78.798-.093.26 1.445-3.293-1.352 3.033ZM9.504 81.096l.386.085 3.181-1.805-3.567 1.72Zm97.001 57.188-.068.262 1.42-3.29-1.352 3.028ZM62.297 59.649l.27-.071 2.092-1.159-2.362 1.23Z" fill="#E7E7E7"/><path d="M71.913 124.029 1.09 96.062l.382.376 70.44 27.591Zm0 0L1.472 96.438l.348.225 70.093 27.366Z" fill="#010101"/><path d="m9.89 81.18.394.149 3.166-1.87-3.56 1.722Z" fill="#E7E7E7"/><path d="M71.913 124.029 1.82 96.663l.05.034 70.043 27.332Z" fill="#010101"/><path d="m106.548 138.019-.043.265 1.394-3.289-1.351 3.024ZM62.567 59.578l.273-.044 2.084-1.185-2.357 1.229Z" fill="#E7E7E7"/><path d="m7.382 81.912-.321.355-.312.417.633-.772Z" fill="#010101"/><path d="m10.284 81.329.404.212 3.15-1.939-3.553 1.727Zm96.283 56.422-.019.268 1.369-3.286-1.35 3.018ZM62.84 59.534l.277-.015 2.075-1.213-2.352 1.228Zm43.72 77.948.007.269 1.345-3.283-1.352 3.014ZM10.688 81.541l.412.275 3.134-2.008-3.546 1.733Zm95.107 52.936 1.373-2.952-27.815-47.37 26.442 50.322Zm.743 2.735.022.27 1.331-3.278-1.353 3.008ZM63.117 59.519l.28.012 2.066-1.241-2.346 1.229Z" fill="#E7E7E7"/><path d="m8.052 81.389-.67.523-.633.772 1.303-1.295Z" fill="#010101"/><path d="m106.508 136.946.03.266 1.324-3.269-1.354 3.003ZM63.397 59.531l.26.012 2.08-1.242-2.34 1.23Zm43.073 77.153.038.262 1.318-3.26-1.356 2.998ZM63.656 59.543l.254.02 2.082-1.25-2.336 1.23Zm42.769 76.882.045.259 1.312-3.252-1.357 2.993Zm-.052-.256.052.256 1.306-3.243-1.358 2.987ZM63.909 59.563l.247.028 2.084-1.259-2.33 1.231Zm42.404 76.354.06.252 1.3-3.235-1.36 2.983Z" fill="#E7E7E7"/><path d="m8.052 81.389-.34.23-.33.293.67-.523Z" fill="#010101"/><path d="m106.245 135.668.068.249 1.294-3.226-1.362 2.977ZM64.156 59.591l.241.037 2.086-1.269-2.327 1.232Zm42.014 75.832.075.245 1.289-3.217-1.364 2.972ZM64.397 59.628l.235.044 2.087-1.278-2.322 1.234Zm41.691 75.553.082.242 1.284-3.209-1.366 2.967Z" fill="#E7E7E7"/><path d="m9.504 81.096-1.452.293-1.303 1.295 2.755-1.588Z" fill="#010101"/><path d="m105.998 134.943.09.238 1.278-3.2-1.368 2.962Zm-41.366-75.27.228.052 2.088-1.288-2.316 1.235Zm41.268 75.035.098.235 1.273-3.192-1.371 2.957Zm-.105-.231.105.231 1.268-3.183-1.373 2.952ZM64.86 59.725l.222.06 2.09-1.297-2.312 1.237Zm.222.06.216.069 2.092-1.307-2.308 1.238Zm9.086 61.399 2.15-2.711-58.3-40.058 56.15 42.769Zm-8.87-61.33.209.077 2.094-1.317-2.303 1.24Z" fill="#E7E7E7"/><path d="m8.76 81.116-.358.105-.35.168.708-.273Z" fill="#010101"/><path d="m65.507 59.93.203.085 2.096-1.327-2.3 1.242Zm.203.085.197.093 2.098-1.337-2.295 1.244Zm.197.093.19.101 2.1-1.348-2.29 1.247Z" fill="#E7E7E7"/><path d="m9.504 81.096-.744.02-.708.273 1.452-.293Zm0 0-.376-.022-.368.042.744-.02Zm.78.233-.394-.148-.386-.085.78.233Zm.816.487-.816-.487-.78-.233 1.596.72Zm0 0-.412-.275-.404-.212.816.487Zm60.813 42.213L9.504 81.096 1.09 96.062l70.823 27.967Z" fill="#010101"/><path d="m77.295 86.025 28.5 48.452-26.442-50.321-2.058 1.869ZM59.55 61.038l2.48-1.29-.264.127-2.216 1.163Zm45.375 80.951 1.418-3.183.093-.26-1.511 3.443ZM59.823 60.938l2.474-1.289-.266.099-2.208 1.19Zm45.197 80.786 1.417-3.178.068-.262-1.485 3.44ZM60.098 60.866l2.469-1.288-.27.071-2.2 1.216Zm44.991 80.591 1.416-3.173.043-.265-1.459 3.438Zm.044-.27 1.415-3.168.019-.268-1.434 3.436ZM60.376 60.822l2.464-1.288-.273.044-2.19 1.244Zm44.775 80.093 1.416-3.164-.007-.269-1.409 3.433ZM60.659 60.806l2.458-1.287-.277.015-2.182 1.272Zm44.485 79.833 1.416-3.157-.022-.27-1.394 3.427Z" fill="#E7E7E7"/><path d="m2.187 96.96 83.774 59.466.314.201L2.187 96.96Z" fill="#010101"/><path d="m60.944 60.82 2.453-1.29-.28-.011-2.173 1.3Zm44.177 79.545 1.417-3.153-.03-.266-1.387 3.419Z" fill="#E7E7E7"/><path d="m2.187 96.96 84.088 59.667.63.364-84.718-60.03Z" fill="#010101"/><path d="m105.089 140.093 1.419-3.147-.038-.262-1.381 3.409Zm-43.88-79.26 2.447-1.29-.26-.012-2.188 1.301Zm43.842 78.992 1.419-3.141-.045-.259-1.374 3.4ZM61.467 60.853l2.443-1.29-.254-.02-2.19 1.31Zm43.537 78.708 1.421-3.136-.052-.256-1.369 3.392Zm-.054-.261 1.423-3.131-.06-.252-1.363 3.383ZM61.719 60.883l2.437-1.292-.247-.028-2.19 1.32Zm43.169 78.16 1.425-3.126-.068-.249-1.357 3.375Z" fill="#E7E7E7"/><path d="m2.133 96.91 84.772 60.081 2.543.957L2.133 96.909Z" fill="#010101"/><path d="m61.964 60.92 2.433-1.292-.24-.037-2.193 1.33Zm42.855 77.868 1.426-3.12-.075-.245-1.351 3.365ZM11.1 81.816l60.813 42.213-57.275-43.952-3.538 1.739Zm93.641 56.722 1.429-3.115-.082-.242-1.347 3.357ZM62.203 60.966l2.429-1.294-.235-.044-2.194 1.339Zm42.454 77.325 1.431-3.11-.09-.238-1.341 3.348Zm-.093-.243 1.434-3.105-.098-.235-1.336 3.34ZM62.436 61.021l2.424-1.296-.228-.053-2.196 1.349Zm42.028 76.787 1.436-3.1-.105-.231-1.331 3.331ZM62.663 61.083l2.419-1.298-.222-.06-2.197 1.358Zm.22.07 2.414-1.3-.215-.068-2.199 1.369Zm.214.08 2.41-1.302-.21-.077-2.2 1.379Zm.207.087 2.406-1.305-.203-.084-2.203 1.389Zm2.793-1.11 44.607 21.865-42.32-23.115-2.287 1.25Zm-2.592 1.205 2.402-1.307-.197-.093-2.205 1.4Zm.194.104 2.398-1.31-.19-.1-2.208 1.41Zm-4.416-.352.268-.129 2.216-1.163-2.484 1.292Zm.268-.129.272-.1 2.208-1.19-2.48 1.29Zm45.469 80.686-.094.265 1.511-3.443-1.417 3.178Zm.069-.267-.069.267 1.485-3.44-1.416 3.173Zm-45.266-80.52.275-.072 2.2-1.216-2.475 1.289Zm45.31 80.25-.044.27 1.459-3.438-1.415 3.168ZM60.098 60.865l.278-.043 2.191-1.244-2.47 1.287Zm45.053 80.05-.018.272 1.434-3.436-1.416 3.164ZM60.376 60.822l.282-.016 2.182-1.272-2.464 1.288Zm44.768 79.817.007.276 1.409-3.433-1.416 3.157Zm-.788-3.068 1.439-3.094-28.5-48.452 27.061 51.546Zm.765 2.794.023.274 1.394-3.427-1.417 3.153ZM60.659 60.806l.285.013 2.173-1.3-2.459 1.287Zm44.43 79.287.032.272 1.387-3.419-1.419 3.147Z" fill="#E7E7E7"/><path d="M71.913 124.029 1.87 96.697l87.577 61.251-17.535-33.919Z" fill="#010101"/><path d="m60.944 60.82.264.012 2.189-1.301-2.453 1.288Zm44.107 79.005.038.268 1.381-3.409-1.419 3.141ZM61.208 60.832l.259.021 2.19-1.31-2.448 1.29Zm43.796 78.729.047.264 1.374-3.4-1.421 3.136Z" fill="#E7E7E7"/><path d="M71.913 124.029 11.1 81.816l-1.596-.72 62.409 42.933Z" fill="#010101"/><path d="m104.95 139.3.054.261 1.369-3.392-1.423 3.131ZM61.467 60.853l.252.03 2.19-1.32-2.442 1.29Zm43.421 78.19.062.257 1.363-3.383-1.425 3.126Zm-.069-.255.069.255 1.357-3.375-1.426 3.12Zm-43.1-77.905.245.038 2.192-1.33-2.437 1.292Zm43.022 77.655.078.25 1.351-3.365-1.429 3.115ZM61.964 60.921l.24.046 2.193-1.34-2.433 1.294Zm42.693 77.37.084.247 1.347-3.357-1.431 3.11Zm-.093-.243.093.243 1.341-3.348-1.434 3.105Zm-42.36-77.082.232.055 2.196-1.349-2.429 1.295Zm42.26 76.842.1.24 1.336-3.34-1.436 3.1Zm-.108-.237.108.237 1.331-3.331-1.439 3.094Zm6.348-55.496 1.319-1.83-43.64-21.285 42.321 23.115ZM62.436 61.02l.227.062 2.197-1.358-2.424 1.296Zm.227.062.22.07 2.199-1.368-2.42 1.298Zm9.25 62.946 2.255-2.845-59.53-41.107 57.275 43.952Zm-9.03-62.875.214.078 2.2-1.378-2.414 1.3Zm.214.078.207.088 2.203-1.39-2.41 1.303Zm.207.088.201.095 2.205-1.4-2.406 1.305Zm.201.095.194.104 2.208-1.41-2.402 1.306Zm11.63 26.57 29.221 49.586-27.061-51.546-2.16 1.96ZM56.95 62.392l2.601-1.354-.268.13-2.333 1.224Zm46.487 82.936 1.489-3.339.094-.265-1.583 3.604ZM57.227 62.29l2.596-1.352-.272.1-2.325 1.252Zm46.306 82.768 1.487-3.334.069-.267-1.556 3.601ZM57.507 62.216l2.59-1.35-.274.072-2.316 1.278Zm46.096 82.57 1.486-3.329.044-.27-1.53 3.599Zm.044-.275 1.486-3.324.018-.272-1.504 3.596ZM57.791 62.172l2.585-1.35-.278.043-2.307 1.307Zm45.875 82.061 1.485-3.318-.007-.276-1.478 3.594ZM58.078 62.157l2.58-1.35-.282.015-2.298 1.335Z" fill="#E7E7E7"/><path d="m86.275 156.627.314.188.316.176-.63-.364Z" fill="#010101"/><path d="m103.658 143.952 1.486-3.313-.023-.274-1.463 3.587ZM58.37 62.171l2.574-1.352-.286-.013-2.288 1.365Zm45.264 81.501 1.487-3.307-.032-.272-1.455 3.579Z" fill="#E7E7E7"/><path d="m86.905 156.991.315.164.316.151-.631-.315Z" fill="#010101"/><path d="m103.601 143.395 1.488-3.302-.038-.268-1.45 3.57Zm-44.96-81.21 2.568-1.353-.265-.013-2.304 1.366Z" fill="#E7E7E7"/><path d="m86.905 156.991.631.315.635.264-1.266-.579Z" fill="#010101"/><path d="m103.561 143.122 1.49-3.297-.047-.264-1.443 3.561ZM58.904 62.207l2.563-1.354-.258-.02-2.305 1.374Zm44.609 80.645 1.491-3.291-.054-.261-1.437 3.552Z" fill="#E7E7E7"/><path d="m87.536 157.306.317.138.318.126-.635-.264Z" fill="#010101"/><path d="m103.457 142.585 1.493-3.285-.062-.257-1.431 3.542ZM59.161 62.238l2.558-1.355-.252-.03-2.306 1.385Zm44.233 80.084 1.494-3.279-.069-.255-1.425 3.534Z" fill="#E7E7E7"/><path d="m86.905 156.991 1.266.579 1.277.378-2.543-.957Z" fill="#010101"/><path d="m59.411 62.277 2.553-1.356-.245-.038-2.308 1.394Zm43.911 79.786 1.497-3.275-.078-.25-1.419 3.525Z" fill="#E7E7E7"/><path d="m88.17 157.57.32.113.318.101-.637-.214Z" fill="#010101"/><path d="m103.243 141.807 1.498-3.269-.084-.247-1.414 3.516ZM59.656 62.325l2.547-1.358-.239-.046-2.308 1.404Zm43.5 79.229 1.501-3.263-.093-.243-1.408 3.506Zm-.095-.249 1.503-3.257-.1-.24-1.403 3.497Z" fill="#E7E7E7"/><path d="m88.17 157.57.638.214.64.164-1.277-.378Z" fill="#010101"/><path d="m59.894 62.38 2.542-1.36-.233-.053-2.31 1.414Zm43.064 78.68 1.506-3.252-.108-.237-1.398 3.489ZM60.125 62.445l2.538-1.362-.227-.062-2.311 1.424Z" fill="#E7E7E7"/><path d="m88.808 157.784.32.088.32.076-.64-.164Z" fill="#010101"/><path d="m60.35 62.518 2.533-1.364-.22-.071-2.313 1.435Zm.218.08 2.529-1.365-.214-.08-2.315 1.446Zm.212.09 2.524-1.368-.207-.087-2.317 1.456Zm2.92-1.17 45.62 22.48-43.223-23.789-2.398 1.31Zm-2.715 1.268 2.52-1.371-.2-.095-2.32 1.466Z" fill="#E7E7E7"/><path d="m89.448 157.948.32.063.316.013-.636-.076Z" fill="#010101"/><path d="m61.184 62.893 2.515-1.374-.194-.104-2.32 1.478Z" fill="#E7E7E7"/><path d="m89.448 157.948.636.076.617-.036-1.253-.04Zm.636.076.31-.008.307-.028-.617.036Z" fill="#010101"/><path d="m56.678 62.523.272-.131 2.333-1.225-2.605 1.356Z" fill="#E7E7E7"/><path d="m89.448 157.948 1.253.04 1.18-.318-2.433.278Z" fill="#010101"/><path d="m56.95 62.392.276-.102 2.325-1.252-2.601 1.354Zm46.583 82.666-.096.27 1.583-3.604-1.487 3.334Z" fill="#E7E7E7"/><path d="m90.701 157.988.302-.049.298-.069-.6.118Z" fill="#010101"/><path d="m103.603 144.786-.07.272 1.556-3.601-1.486 3.329ZM57.226 62.29l.28-.074 2.317-1.278-2.597 1.352Z" fill="#E7E7E7"/><path d="m90.701 157.988.6-.118.58-.2-1.18.318Z" fill="#010101"/><path d="m103.647 144.511-.044.275 1.53-3.599-1.486 3.324Zm-46.14-82.295.284-.044 2.307-1.306-2.591 1.35Zm46.159 82.017-.019.278 1.504-3.596-1.485 3.318Z" fill="#E7E7E7"/><path d="m91.3 157.87.294-.09.287-.11-.58.2Z" fill="#010101"/><path d="m57.79 62.172.288-.015 2.298-1.335-2.585 1.35Zm45.868 81.78.008.281 1.478-3.594-1.486 3.313Zm-.811-3.134 1.509-3.247-29.22-49.586 27.711 52.833Zm.787 2.854.024.28 1.463-3.587-1.487 3.307ZM58.078 62.157l.292.014 2.288-1.365-2.58 1.351Zm45.523 81.238.033.277 1.455-3.579-1.488 3.302Zm-45.23-81.224.27.014 2.303-1.366-2.574 1.352Zm45.19 80.951.04.273 1.45-3.57-1.49 3.297Z" fill="#E7E7E7"/><path d="m91.881 157.67.284-.131.28-.152-.564.283Z" fill="#010101"/><path d="m58.64 62.185.264.022 2.304-1.375-2.568 1.353Zm44.873 80.667.048.27 1.443-3.561-1.491 3.291Zm-.056-.267.056.267 1.437-3.552-1.493 3.285ZM58.904 62.207l.257.031 2.306-1.385-2.563 1.354Zm44.49 80.115.063.263 1.431-3.542-1.494 3.279Z" fill="#E7E7E7"/><path d="m91.881 157.67.563-.283.545-.365-1.108.648Z" fill="#010101"/><path d="m103.322 142.063.072.259 1.425-3.534-1.497 3.275ZM59.161 62.238l.25.04 2.308-1.395-2.558 1.355Zm44.082 79.569.079.256 1.419-3.525-1.498 3.269Zm-43.831-79.53.244.048 2.308-1.404-2.553 1.356Zm43.744 79.277.087.253 1.414-3.516-1.501 3.263Z" fill="#E7E7E7"/><path d="m92.444 157.387.275-.172.27-.193-.545.365Z" fill="#010101"/><path d="m103.061 141.305.095.249 1.408-3.506-1.503 3.257Zm-43.405-78.98.238.056 2.31-1.414-2.548 1.358Zm43.302 78.735.103.245 1.403-3.497-1.506 3.252Zm-.111-.242.111.242 1.398-3.489-1.509 3.247Zm6.473-56.82 1.384-1.923-44.607-21.866 43.223 23.789ZM59.894 62.38l.23.064 2.312-1.424-2.542 1.36Zm.23.064.226.073 2.313-1.435-2.538 1.362Zm.226.073.218.08 2.315-1.444-2.533 1.364Zm.218.08.212.09 2.317-1.456-2.529 1.367Zm.212.09.205.098 2.32-1.466-2.525 1.368Zm.205.098.2.107 2.32-1.478-2.52 1.371Z" fill="#E7E7E7"/><path d="m89.448 157.948 2.433-.278 8.859-7.258-11.292 7.536Zm2.433-.278 1.108-.648 7.751-6.61-8.859 7.258Zm1.108-.648.265-.214 7.206-6.145-7.471 6.359Z" fill="#010101"/><path d="m72.868 90.044 29.979 50.774-27.712-52.833-2.267 2.059Zm-18.65-26.23 2.732-1.422-.272.131-2.46 1.29Zm47.657 85.02 1.562-3.506.096-.27-1.658 3.776ZM54.5 63.71l2.726-1.42-.276.102-2.45 1.318Zm47.473 84.85 1.56-3.502.07-.272-1.63 3.774ZM54.786 63.635l2.72-1.419-.28.074-2.44 1.345Zm47.258 84.648 1.559-3.497.044-.275-1.603 3.772Zm.044-.281 1.559-3.491.019-.278-1.578 3.769ZM55.076 63.591l2.715-1.419-.284.044-2.431 1.375Zm47.03 84.128 1.56-3.486-.008-.281-1.552 3.767ZM55.369 63.576l2.71-1.419-.288.015-2.422 1.404Zm46.729 83.857 1.56-3.481-.024-.28-1.536 3.761ZM55.667 63.591l2.703-1.42-.292-.014-2.411 1.434Zm46.405 83.555 1.562-3.474-.033-.277-1.529 3.751Zm-.034-.282 1.563-3.469-.04-.273-1.523 3.742ZM55.942 63.606l2.698-1.421-.27-.014-2.428 1.435Zm46.054 82.978 1.565-3.462-.048-.27-1.517 3.732ZM56.211 63.63l2.693-1.423-.264-.022-2.429 1.444Zm45.736 82.678 1.566-3.456-.056-.267-1.51 3.723Z" fill="#E7E7E7"/><path d="m89.448 157.948 11.292-7.536 1.304-2.129-12.596 9.665Z" fill="#010101"/><path d="m101.889 146.036 1.568-3.451-.063-.263-1.505 3.714ZM56.474 63.661l2.687-1.423-.257-.03-2.43 1.453Zm45.349 82.106 1.571-3.445-.072-.259-1.499 3.704ZM56.73 63.702l2.681-1.425-.25-.039-2.431 1.464Z" fill="#E7E7E7"/><path d="m92.989 157.022 7.471-6.359.28-.251-7.751 6.61Z" fill="#010101"/><path d="m101.749 145.502 1.573-3.439-.079-.256-1.494 3.695Zm-.082-.262 1.576-3.433-.087-.253-1.489 3.686ZM56.979 63.751l2.677-1.426-.245-.048-2.432 1.474Zm44.599 81.231 1.578-3.428-.095-.249-1.483 3.677Zm-.098-.254 1.581-3.423-.103-.245-1.478 3.668ZM57.222 63.809l2.672-1.428-.238-.056-2.434 1.484Zm44.152 80.668 1.584-3.417-.111-.242-1.473 3.659ZM57.458 63.876l2.667-1.431-.231-.064-2.436 1.495Z" fill="#E7E7E7"/><path d="m44.318 80.043.115.215 27.48 43.771-27.595-43.986Z" fill="#010101"/><path d="m57.688 63.95 2.662-1.432-.225-.073-2.437 1.506Z" fill="#E7E7E7"/><path d="m44.101 79.593.217.45 27.595 43.986L44.1 79.593Z" fill="#010101"/><path d="m57.911 64.034 2.657-1.435-.218-.081-2.439 1.516Z" fill="#E7E7E7"/><path d="m43.73 78.614.371.979 27.812 44.436-28.184-45.415Z" fill="#010101"/><path d="m58.128 64.126 2.652-1.438-.212-.09-2.44 1.528Z" fill="#E7E7E7"/><path d="m71.913 124.029 17.535 33.919-18.964-65.74 1.429 31.821Z" fill="#010101"/><path d="m61.184 62.893 46.679 23.127-44.164-24.501-2.515 1.374Zm-2.846 1.334 2.647-1.44-.205-.099-2.442 1.54Zm.203.11 2.643-1.444-.199-.107-2.444 1.55Z" fill="#E7E7E7"/><path d="m43.298 76.263.431 2.35 28.184 45.416-28.615-47.766Z" fill="#010101"/><path d="m53.94 63.947.279-.134 2.459-1.29-2.737 1.424Zm.279-.134.281-.103 2.45-1.318-2.731 1.421Zm47.754 84.747-.098.274 1.658-3.776-1.56 3.502Zm.071-.277-.071.277 1.63-3.774-1.559 3.497ZM54.5 63.71l.286-.075 2.44-1.345-2.726 1.42Zm47.588 84.292-.044.281 1.603-3.772-1.559 3.491Z" fill="#E7E7E7"/><path d="m44.101 79.593.106.228.11.222-.216-.45Z" fill="#010101"/><path d="m54.786 63.635.29-.044 2.43-1.375-2.72 1.42Z" fill="#E7E7E7"/><path d="m43.905 79.116.096.242.1.235-.196-.477Z" fill="#010101"/><path d="m102.106 147.719-.018.283 1.578-3.769-1.56 3.486Z" fill="#E7E7E7"/><path d="m43.73 78.614.175.502.196.477-.372-.98Z" fill="#010101"/><path d="m55.076 63.59.293-.014 2.422-1.404-2.715 1.419Z" fill="#E7E7E7"/><path d="m43.73 78.614.085.254.09.248-.176-.502Z" fill="#010101"/><path d="m102.098 147.433.008.286 1.552-3.767-1.56 3.481Zm-.837-3.204 1.586-3.411-29.979-50.774 28.393 54.185Z" fill="#E7E7E7"/><path d="m43.574 78.085.075.267.08.262-.155-.53Z" fill="#010101"/><path d="m102.072 147.146.026.287 1.536-3.761-1.562 3.474Zm-46.703-83.57.298.015 2.411-1.434-2.709 1.419Z" fill="#E7E7E7"/><path d="m43.438 77.529.136.556.155.529-.29-1.085Z" fill="#010101"/><path d="m102.038 146.864.034.282 1.529-3.751-1.563 3.469ZM55.667 63.591l.275.015 2.428-1.435-2.703 1.42Z" fill="#E7E7E7"/><path d="m43.438 77.529.066.281.07.275-.136-.556Z" fill="#010101"/><path d="m101.996 146.584.042.28 1.523-3.742-1.565 3.462ZM55.942 63.606l.27.023 2.428-1.444-2.698 1.421Z" fill="#E7E7E7"/><path d="m43.298 76.263.14 1.266.291 1.085-.431-2.351Z" fill="#010101"/><path d="m101.947 146.308.049.276 1.517-3.732-1.566 3.456Z" fill="#E7E7E7"/><path d="m43.327 76.912.05.329.061.288-.111-.617Z" fill="#010101"/><path d="m101.889 146.036.058.272 1.51-3.723-1.568 3.451ZM56.211 63.63l.263.031 2.43-1.454-2.693 1.422Z" fill="#E7E7E7"/><path d="m43.298 76.263.029.65.111.616-.14-1.266Z" fill="#010101"/><path d="m101.823 145.767.066.269 1.505-3.714-1.571 3.445Zm-.074-.265.074.265 1.499-3.704-1.573 3.439Zm-45.275-81.84.256.04 2.431-1.464-2.687 1.423Z" fill="#E7E7E7"/><path d="m43.298 76.263.002.323.027.326-.03-.65Z" fill="#010101"/><path d="m101.667 145.24.082.262 1.494-3.695-1.576 3.433Z" fill="#E7E7E7"/><path d="m89.448 157.948 12.596-9.665-31.56-56.074 18.964 65.739Z" fill="#010101"/><path d="m56.73 63.702.249.05 2.432-1.475-2.681 1.425Zm44.848 81.28.089.258 1.489-3.686-1.578 3.428Z" fill="#E7E7E7"/><path d="m100.74 150.412.255-.255.228-.258-.483.513Z" fill="#010101"/><path d="m101.48 144.728.098.254 1.483-3.677-1.581 3.423ZM56.979 63.751l.243.058 2.434-1.484-2.677 1.426Zm44.395 80.726.106.251 1.478-3.668-1.584 3.417Zm-.113-.248.113.248 1.473-3.659-1.586 3.411Zm6.602-58.209 1.457-2.022-45.62-22.48 44.163 24.502Z" fill="#E7E7E7"/><path d="m43.366 75.624-.046.318-.022.32.068-.638Z" fill="#010101"/><path d="m57.222 63.81.236.066 2.436-1.495-2.672 1.428Z" fill="#E7E7E7"/><path d="m100.74 150.412.483-.513.379-.526-.862 1.039Z" fill="#010101"/><path d="m57.458 63.876.23.075 2.437-1.506-2.667 1.43Z" fill="#E7E7E7"/><path d="m43.532 74.996-.166.628-.068.639.234-1.267Z" fill="#010101"/><path d="m57.688 63.95.223.084 2.439-1.516-2.662 1.433Zm.223.084.217.092 2.44-1.527-2.657 1.435Z" fill="#E7E7E7"/><path d="m101.223 149.899.202-.261.177-.265-.379.526ZM79.433 2.305l.022.02.024.02-.046-.04Zm.046.04.052.047.029.025-.081-.072Zm0 0 .08.072.031.027-.111-.099ZM43.532 74.996l-.095.313-.071.315.166-.628Z" fill="#010101"/><path d="m58.128 64.126.21.101 2.442-1.539-2.652 1.438Zm.21.101.203.11 2.444-1.55-2.647 1.44Z" fill="#E7E7E7"/><path d="m100.74 150.412.862-1.039.442-1.09-1.304 2.129ZM44.159 73.77l-.627 1.226-.234 1.267.86-2.493Zm-.363.608-.144.308-.12.31.264-.618Zm57.806 74.995.149-.268.124-.271-.273.539Zm0 0 .273-.539.169-.551-.442 1.09ZM44.159 73.77l-.363.608-.264.618.627-1.226Zm57.716 75.064.098-.274.071-.277-.169.551ZM44.159 73.77l-.194.303-.169.305.363-.608Zm6.903-8.326-7.764 10.819 28.615 47.766-20.85-58.585Zm50.982 82.839.044-.281.018-.283-.062.564Zm0 0 .062-.564-.034-.573-.028 1.137Zm.062-.564-.008-.286-.026-.287.034.573Zm-.062.564.028-1.137-.183-1.11.155 2.247Z" fill="#010101"/><path d="m149.527 98.38.402-2.313.053-.317-.455 2.63Z" fill="#E7E7E7"/><path d="m102.072 147.146-.034-.282-.042-.28.076.562Z" fill="#010101"/><path d="m149.582 98.055.4-2.305.029-.321-.429 2.626Z" fill="#E7E7E7"/><path d="m102.072 147.146-.076-.562-.107-.548.183 1.11Z" fill="#010101"/><path d="m149.611 97.727.4-2.298-.015-.34-.385 2.638Z" fill="#E7E7E7"/><path d="m101.996 146.584-.049-.276-.058-.272.107.548Z" fill="#010101"/><path d="m149.596 97.379.4-2.29-.034-.336-.366 2.626Z" fill="#E7E7E7"/><path d="m101.889 146.036-.066-.269-.074-.265.14.534Z" fill="#010101"/><path d="m149.561 97.035.401-2.282-.054-.332-.347 2.614Z" fill="#E7E7E7"/><path d="m101.889 146.036-.14-.534-.171-.52.311 1.054Z" fill="#010101"/><path d="m149.505 96.695.403-2.274-.074-.328-.329 2.602Z" fill="#E7E7E7"/><path d="m101.749 145.502-.082-.262-.089-.258.171.52Z" fill="#010101"/><path d="m149.429 96.36.405-2.267-.093-.323-.312 2.59Z" fill="#E7E7E7"/><path d="m101.578 144.982-.098-.254-.106-.251.204.505Z" fill="#010101"/><path d="m75.563 1.385 2.256.112-.216-.026-2.04-.086Zm73.771 94.644.407-2.26-.112-.318-.295 2.578Zm-.115-.327.41-2.251-.132-.315-.278 2.566ZM75.781 1.429l2.251.111-.213-.043-2.038-.068Zm73.302 93.95.414-2.243-.151-.31-.263 2.553Zm-.155-.318.418-2.236-.171-.306-.247 2.542ZM75.996 1.491l2.246.109-.21-.06-2.036-.05Zm72.757 93.257.422-2.229-.19-.301-.232 2.53Zm-.196-.31.428-2.22-.21-.297-.218 2.518Zm-.215-.304.433-2.213-.23-.293-.203 2.506ZM76.207 1.569l2.242.107-.207-.076-2.035-.031Zm.209.095 2.236.105-.203-.093-2.034-.012Zm71.691 92.17.438-2.206L80.335 3.34l67.772 90.495ZM76.62 1.776l2.232.102-.2-.11-2.032.008Zm.202.129 2.227.099-.197-.126-2.03.027Zm.198.146 2.223.095-.194-.142-2.029.047Zm.195.163 2.218.091-.19-.159-2.028.068Zm.022.02 2.218.09-.022-.019-2.196-.071Zm.025.02 2.217.091-.024-.02-2.193-.07Zm.026.024 2.216.09-.025-.023-2.191-.067Zm.027.025 2.216.089-.027-.024-2.189-.065Zm.03.026 2.215.088-.029-.025-2.186-.063Zm.031.028 2.214.087-.03-.027-2.184-.06Zm.033.029 2.213.087-.032-.029-2.18-.058Zm.035.03 2.212.087-.034-.03-2.178-.056Zm.037.033 2.211.086-.035-.032-2.176-.054Zm.038.035 2.21.084-.037-.033-2.173-.051Zm.04.035 2.21.084-.04-.035-2.17-.049Zm.582.755 2.194.065-.045-.078-2.15.013Zm-.54-.717 2.21.082-.042-.036-2.167-.046Zm.493.638 2.196.066-.045-.074-2.151.008Zm-.45-.598 2.208.081-.042-.039-2.165-.042Zm.403.522 2.198.068-.045-.07-2.153.002Zm-.359-.479 2.207.08-.043-.042-2.164-.038Zm.313.406 2.199.07-.045-.067-2.154-.003Zm-.269-.359 2.205.08-.042-.046-2.163-.034Zm.224.29 2.2.072-.045-.063-2.155-.009Zm-.18-.239 2.204.078-.043-.05-2.16-.028Zm.134.174 2.201.074-.044-.06-2.157-.014Zm-.09-.12 2.204.077-.044-.053-2.16-.024Zm.045.058 2.202.076-.043-.057-2.159-.019Z" fill="#E7E7E7"/><path d="M51.062 65.444 44.16 73.77l-.861 2.493 7.764-10.819Zm-1.608 1.447-5.077 6.579-.218.3 5.295-6.879Z" fill="#010101"/><path d="m70.484 92.209 30.777 52.02-28.393-54.185-2.384 2.165Zm-19.139-26.9 2.874-1.495-.278.133-2.596 1.361Zm.287-.106L54.5 63.71l-.281.103-2.587 1.39Z" fill="#E7E7E7"/><path d="m102.044 148.283-.155-2.247-31.405-53.828 31.56 56.075Z" fill="#010101"/><path d="m51.924 65.127 2.862-1.492-.286.075-2.576 1.417Zm.296-.044 2.856-1.492-.29.044-2.566 1.448Z" fill="#E7E7E7"/><path d="m101.889 146.036-.311-1.054-31.094-52.773 31.405 53.827Zm-.311-1.054-.204-.505-30.89-52.269 31.094 52.774Z" fill="#010101"/><path d="m52.52 65.068 2.85-1.492-.294.015-2.557 1.477Z" fill="#E7E7E7"/><path d="m101.374 144.477-.113-.248-30.777-52.02 30.89 52.268Z" fill="#010101"/><path d="m149.582 98.055-.055.324.455-2.63-.4 2.306Zm-96.759-32.97 2.844-1.494-.298-.015-2.546 1.509Zm96.788 32.642-.029.328.429-2.626-.4 2.298ZM53.104 65.1l2.838-1.494-.275-.015-2.563 1.51Zm96.492 32.279.015.348.385-2.638-.4 2.29Z" fill="#E7E7E7"/><path d="M70.484 92.209 55.761 65.856l16.152 58.173-1.429-31.82Z" fill="#010101"/><path d="m53.379 65.125 2.832-1.495-.269-.024-2.563 1.52Zm96.182 31.91.035.344.366-2.626-.401 2.282ZM53.647 65.159l2.827-1.498-.263-.032-2.564 1.53Zm95.858 31.536.056.34.347-2.614-.403 2.274ZM53.909 65.201l2.82-1.499-.255-.04-2.565 1.54Z" fill="#E7E7E7"/><path d="m55.76 65.856-4.698-.412 20.85 58.585-16.151-58.173Z" fill="#010101"/><path d="m149.429 96.36.076.335.329-2.602-.405 2.267Zm-.095-.331.095.33.312-2.59-.407 2.26ZM75.342 1.358l.221.027 2.04.086-2.261-.113ZM54.164 65.252l2.815-1.5-.25-.05-2.565 1.55Zm95.055 30.45.115.327.295-2.578-.41 2.25ZM75.563 1.385l.218.044 2.038.068-2.256-.112ZM54.412 65.312l2.81-1.503-.243-.058-2.567 1.56Zm94.671 30.067.136.323.278-2.566-.414 2.243Zm-.155-.318.155.318.263-2.554-.418 2.236ZM75.781 1.43l.215.061 2.036.05-2.251-.11Zm72.972 93.319.175.313.247-2.542-.422 2.229Zm-94.1-29.367 2.805-1.505-.236-.067-2.568 1.572Zm93.904 29.058.196.309.232-2.53-.428 2.22Zm-.215-.305.215.305.218-2.518-.433 2.213Zm-.235-.3.235.3.203-2.506-.438 2.206ZM75.996 1.49l.211.079 2.035.03-2.246-.109ZM54.889 65.459l2.8-1.507-.23-.075-2.57 1.582Zm21.318-63.89.209.096 2.033.012-2.242-.107Z" fill="#E7E7E7"/><path d="m49.973 66.29-.52.601-5.294 6.88 5.814-7.482Z" fill="#010101"/><path d="m76.415 1.664.205.112 2.032-.007-2.237-.105Zm-21.298 63.88 2.794-1.51-.223-.083-2.571 1.593ZM76.62 1.776l.202.129 2.03-.027-2.232-.102Zm1.52 1.498 69.967 90.56L80.335 3.339l-2.194-.065ZM55.339 65.64l2.79-1.513-.217-.092-2.573 1.605ZM76.822 1.905l.198.146 2.03-.047-2.228-.1Zm.198.146.195.163 2.028-.068-2.223-.095ZM58.54 64.337 106.33 88.15 61.184 62.893l-2.643 1.444ZM77.216 2.214l.022.02 2.196.071-2.218-.091Zm.022.02.025.02 2.193.07-2.218-.09Zm.025.02.026.024 2.19.067-2.216-.09Zm-21.71 63.489 2.786-1.516-.21-.1-2.575 1.616ZM77.289 2.278l.027.025 2.189.065-2.216-.09Zm.027.025.03.026 2.186.063-2.216-.09Zm.03.026.031.028 2.184.06-2.215-.088Zm.031.028.033.029 2.181.058-2.214-.087Zm.033.029.035.03 2.178.057-2.213-.087Zm.035.03.037.033 2.175.054-2.212-.086Zm.037.033.038.035 2.173.05-2.211-.085Zm.038.035.04.035 2.17.05-2.21-.085Zm.575.71.047.08 2.149-.013-2.196-.066Zm-.534-.675.042.038 2.167.046-2.21-.084Zm.487.6.047.076 2.15-.008-2.197-.068Zm-.445-.562.043.04 2.165.042-2.208-.082Zm.4.49.045.072 2.153-.003L78 3.046Zm-.357-.45.043.043 2.164.038-2.207-.081Zm.31.38.046.07 2.154.002-2.2-.072Zm-.267-.337.044.047 2.163.034-2.207-.08Zm.222.272.046.065 2.155.009-2.2-.074Zm-.178-.225.044.051 2.161.029-2.205-.08Zm.133.163.045.062 2.157.014-2.202-.076Zm-.089-.112.044.054 2.16.024-2.204-.078Zm.044.054.045.058 2.159.02-2.204-.078ZM55.76 65.856l2.78-1.52-.202-.109-2.577 1.629Z" fill="#E7E7E7"/><path d="m51.062 65.444-1.089.845-5.814 7.481 6.903-8.326Z" fill="#010101"/><path d="m51.062 65.444.283-.136 2.596-1.361-2.879 1.497Zm.283-.136.287-.105 2.587-1.39-2.874 1.495Zm.287-.105.292-.076L54.5 63.71l-2.868 1.493Zm.292-.076.296-.044 2.566-1.448-2.862 1.492Zm.296-.044.3-.015 2.556-1.477-2.856 1.492Zm.3-.015.303.017 2.546-1.509-2.85 1.492Zm.303.017.281.016 2.563-1.51-2.844 1.494Zm.281.016.275.024 2.563-1.519-2.838 1.494Zm.275.024.268.034 2.564-1.53-2.832 1.496Z" fill="#E7E7E7"/><path d="m49.973 66.29-.262.285-.257.316.519-.602Z" fill="#010101"/><path d="m53.647 65.159.262.042 2.565-1.54-2.827 1.498Zm.262.042.255.051 2.566-1.55-2.821 1.5Zm.255.051.248.06 2.567-1.56-2.815 1.5Zm52.165 22.898 1.534-2.13-46.679-23.127L106.33 88.15ZM54.412 65.312l.242.069 2.568-1.572-2.81 1.503Z" fill="#E7E7E7"/><path d="m50.509 65.807-.27.226-.266.256.536-.482Z" fill="#010101"/><path d="m54.654 65.38.235.078 2.57-1.582-2.805 1.505Zm.235.078.228.086 2.571-1.593-2.8 1.507Zm.228.086.221.095 2.573-1.605-2.794 1.51Z" fill="#E7E7E7"/><path d="m51.062 65.444-.553.363-.536.482 1.09-.845Z" fill="#010101"/><path d="m55.338 65.64.215.103 2.575-1.617-2.79 1.513Zm.215.103.208.113 2.577-1.629-2.785 1.516Z" fill="#E7E7E7"/><path d="m51.062 65.444-.279.166-.274.197.553-.363Zm.57-.241-.287.105-.283.136.57-.241Zm.588-.12-.588.12-.57.241 1.158-.361Zm0 0-.296.044-.292.076.588-.12Zm1.159.042-1.16-.042-1.157.361 2.317-.319Zm-.556-.04-.304-.017-.3.015.604.002Z" fill="#010101"/><path d="m149.104 100.813.423-2.434.055-.324-.478 2.758Z" fill="#E7E7E7"/><path d="m53.379 65.125-.556-.04-.603-.002 1.159.042Z" fill="#010101"/><path d="m149.16 100.482.422-2.427.029-.328-.451 2.755Z" fill="#E7E7E7"/><path d="m55.338 65.64-1.96-.515-2.316.32 4.276.194Zm-1.96-.515-.274-.025-.28-.015.555.04Z" fill="#010101"/><path d="m149.19 100.146.421-2.419-.015-.348-.406 2.767Zm-.016-.356.422-2.411-.035-.344-.387 2.755Z" fill="#E7E7E7"/><path d="m53.909 65.201-.262-.042-.268-.034.53.076Zm1.852.655-.423-.217-4.276-.195 4.699.412Z" fill="#010101"/><path d="m149.138 99.438.423-2.403-.056-.34-.367 2.743Z" fill="#E7E7E7"/><path d="m54.412 65.312-.503-.11-.53-.077 1.033.187Z" fill="#010101"/><path d="m149.08 99.09.425-2.395-.076-.335-.349 2.73Zm-.077-.344.426-2.386-.095-.331-.331 2.717Z" fill="#E7E7E7"/><path d="m54.412 65.312-.248-.06-.255-.05.503.11Z" fill="#010101"/><path d="m73.189 1.267 2.374.118-.221-.027-2.153-.09Zm75.717 97.14.428-2.378-.115-.327-.313 2.705Z" fill="#E7E7E7"/><path d="m55.338 65.64-.926-.328-1.033-.187 1.96.514Z" fill="#010101"/><path d="m148.787 98.072.432-2.37-.136-.323-.296 2.693ZM73.412 1.312l2.369.117-.218-.044-2.151-.072Zm75.236 96.43.435-2.363-.155-.318-.28 2.68Zm-.159-.327.439-2.354-.175-.313-.264 2.667Z" fill="#E7E7E7"/><path d="m54.889 65.458-.235-.077-.242-.07.477.147Z" fill="#010101"/><path d="m73.631 1.375 2.365.115-.215-.06-2.15-.055Zm74.677 95.719.445-2.346-.196-.31-.249 2.656Zm-.2-.317.449-2.338-.215-.305-.234 2.643Zm-.221-.313.455-2.33-.235-.3-.22 2.63ZM73.847 1.455l2.36.114-.211-.079-2.148-.035Z" fill="#E7E7E7"/><path d="m55.338 65.64-.45-.182-.476-.146.926.327Z" fill="#010101"/><path d="m74.061 1.553 2.354.11-.208-.094-2.146-.016Zm73.585 94.603.461-2.322-69.966-90.56 69.505 92.882Z" fill="#E7E7E7"/><path d="m55.338 65.64-.221-.096-.228-.086.45.181Z" fill="#010101"/><path d="m74.271 1.668 2.35.108-.206-.112-2.144.004Zm.207.132 2.344.105-.202-.13-2.142.025Zm.203.15 2.34.1-.199-.145-2.141.045Z" fill="#E7E7E7"/><path d="m55.76 65.856-.207-.113-.215-.104.423.217Z" fill="#010101"/><path d="m74.88 2.118 2.335.096-.195-.163-2.14.067Zm.023.02 2.334.096-.022-.02-2.312-.076Zm.025.022 2.334.095-.025-.021-2.309-.074Zm.027.024 2.333.094-.026-.023-2.307-.071Zm.028.025 2.332.094-.027-.025-2.305-.07Zm.03.027 2.332.093-.03-.026-2.302-.067Zm.032.028 2.331.093-.031-.028-2.3-.065Zm.034.03 2.33.092-.033-.03-2.297-.062Zm.036.032 2.33.09-.036-.03-2.294-.06Zm.038.034 2.328.09-.037-.033-2.291-.057Zm.04.035 2.326.089-.038-.035-2.289-.054Zm.04.036 2.327.088-.04-.035-2.286-.053Zm.597.775 2.31.068-.046-.08-2.264.012Zm-.553-.736 2.325.087-.042-.038-2.283-.05Zm.505.654 2.312.07-.047-.075-2.265.005Zm-.461-.613 2.324.086-.043-.04-2.281-.046Zm.413.535 2.313.073-.046-.073h-2.267Zm-.369-.49 2.323.084-.043-.043-2.28-.042Zm.322.416L78 3.046l-.045-.069-2.27-.005Zm-.277-.368 2.322.083-.044-.047-2.278-.036Zm.23.297 2.316.076-.046-.065-2.27-.01Zm-.184-.245 2.32.082-.044-.05-2.276-.032Zm.137.178 2.317.078-.045-.062-2.272-.016Zm-.092-.122 2.32.08-.045-.054-2.275-.026Zm.046.06 2.318.078-.044-.058-2.274-.02Zm73.613 97.71-.056.331.478-2.758-.422 2.427Zm.03-.336-.03.336.451-2.755-.421 2.419Zm-.016-.356.016.356.406-2.767-.422 2.41Zm-.036-.352.036.352.387-2.755-.423 2.403Zm-.058-.348.058.348.367-2.743-.425 2.395Zm-.077-.344.077.344.349-2.73-.426 2.386Zm-.097-.339.097.34.331-2.718-.428 2.378ZM72.962 1.24l.227.027 2.153.091-2.38-.118Zm75.825 96.832.119.335.313-2.705-.432 2.37ZM73.189 1.267l.223.046 2.151.072-2.374-.118Zm75.459 96.475.139.33.296-2.693-.435 2.362Zm-.159-.327.159.326.28-2.68-.439 2.354ZM73.412 1.313l.22.062 2.149.054-2.37-.116Zm74.896 95.78.181.322.264-2.667-.445 2.346Zm-.2-.316.2.317.249-2.655-.449 2.338Zm-.221-.313.221.313.234-2.643-.455 2.33Zm-.241-.308.241.308.22-2.63-.461 2.322ZM73.631 1.376l.217.08 2.148.034-2.365-.115Zm.217.08.213.097 2.146.016-2.36-.114Zm.213.097.21.115 2.144-.004-2.354-.111Zm.21.115.207.132 2.142-.024-2.349-.108Zm1.559 1.538 71.816 92.95L78.141 3.274l-2.311-.068ZM74.478 1.8l.203.15 2.141-.045-2.344-.105Zm.203.15.2.168 2.14-.067-2.34-.1ZM55.76 65.856l48.951 24.54-46.171-26.06-2.78 1.52ZM74.88 2.118l.022.02 2.312.076-2.335-.096Zm.022.02.025.022 2.31.074-2.335-.096Zm.025.022.027.024 2.307.07-2.334-.094Zm.027.024.028.025 2.305.069-2.333-.094Zm.028.025.03.027 2.302.067-2.332-.094Zm.03.027.032.028 2.3.065-2.332-.093Zm.032.028.034.03 2.297.063-2.33-.093Zm.034.03.036.032 2.294.06-2.33-.092Zm.036.032.038.034 2.291.057-2.329-.09Zm.038.034.04.035 2.288.054-2.328-.09Zm.04.035.04.036 2.286.053-2.327-.09Zm.589.73.048.081 2.264-.011-2.312-.07Zm-.548-.694.043.039 2.283.05-2.326-.089Zm.5.615.048.078 2.265-.005-2.313-.073Zm-.457-.576.044.04 2.28.047-2.324-.087Zm.41.502.047.074h2.267l-2.314-.074Zm-.366-.461.044.044 2.28.042-2.324-.086Zm.319.39.047.07 2.269.006-2.316-.076Zm-.275-.346.045.049 2.278.036-2.323-.085Zm.228.28.047.066 2.27.011-2.317-.078Zm-.183-.231.046.052 2.276.031-2.322-.083Zm.137.167.046.063 2.272.016-2.318-.079Zm-.091-.115.045.056 2.275.026-2.32-.082Zm.045.056.046.06 2.273.02-2.319-.08Zm29.211 87.684 1.617-2.246-47.788-23.813 46.171 26.06Z" fill="#E7E7E7"/><path d="m70.484 92.209 64.103 29.008-78.826-55.361 14.723 26.353Z" fill="#010101"/><path d="m148.659 103.378.445-2.565.056-.331-.501 2.896Zm.057-.339.444-2.557.03-.336-.474 2.893Zm.031-.343.443-2.55-.016-.356-.427 2.906Zm-.017-.365.444-2.541-.036-.352-.408 2.893Zm-.038-.361.446-2.532-.058-.348-.388 2.88Zm-.058-.356.446-2.524-.077-.344-.369 2.868Zm-.08-.352.449-2.516-.097-.339-.352 2.855ZM70.684 1.143l2.505.124-.227-.027-2.277-.097Zm77.769 99.771.453-2.507-.119-.335-.334 2.842Zm-.122-.343.456-2.499-.139-.33-.317 2.829ZM70.913 1.19l2.499.123-.223-.046-2.276-.077Zm77.276 99.042.459-2.49-.159-.327-.3 2.817Zm-.164-.335.464-2.482-.181-.321-.283 2.803ZM71.138 1.254l2.493.121-.22-.062-2.273-.059Zm76.702 98.313.468-2.473-.2-.317-.268 2.79Zm-.206-.326.474-2.464-.221-.313-.253 2.777Zm-.227-.32.48-2.457-.241-.308-.239 2.764ZM71.36 1.335l2.488.12-.217-.08-2.27-.04Zm.219.1 2.482.117-.213-.098-2.27-.019Zm75.58 97.168.487-2.448L75.83 3.206l71.329 95.398ZM71.794 1.554l2.477.114-.21-.115-2.267.002Zm.212.137 2.472.11-.207-.133-2.265.023Zm.208.153 2.467.106-.203-.15-2.264.044Zm.205.172 2.461.102-.2-.168-2.261.066Zm.023.021 2.461.1-.023-.02-2.438-.08Zm.026.023 2.46.1-.025-.022-2.435-.078Zm.027.024 2.46.1-.027-.024-2.433-.076Zm.03.026 2.458.099-.028-.025-2.43-.074Zm.03.028 2.458.098-.03-.027-2.428-.071Zm.033.029 2.458.097-.033-.028-2.425-.07Zm.035.03 2.456.097-.033-.03-2.423-.066Zm.037.033 2.455.096-.036-.032-2.42-.064Zm.038.035 2.455.095-.038-.034-2.417-.061Zm.04.036 2.454.094-.04-.035-2.413-.06Zm.043.037 2.453.093-.042-.036-2.41-.057Zm.613.796 2.436.072-.048-.082-2.388.01Zm-.569-.756 2.452.092-.043-.039-2.409-.053Zm.52.672 2.437.074-.048-.078-2.39.004Zm-.474-.63 2.45.09-.044-.04-2.406-.05Zm.424.55 2.44.076-.048-.074-2.392-.002Zm-.379-.504 2.45.09-.045-.045-2.404-.045Zm.33.428 2.44.078-.046-.07-2.393-.008Zm-.283-.379 2.447.089-.045-.049-2.402-.04Zm.236.306 2.44.08-.046-.067-2.395-.013Zm-.19-.252 2.447.087-.046-.052-2.4-.035Zm.142.183 2.442.082-.046-.063-2.396-.019Zm-.095-.126 2.445.086-.046-.056-2.4-.03Zm.047.061 2.444.084-.046-.06-2.398-.024Z" fill="#E7E7E7"/><path d="m70.484 92.209 57.687 28.62.278.132-57.965-28.752Zm0 0 57.965 28.752.578.235-58.543-28.987Z" fill="#010101"/><path d="m148.716 103.039-.057.339.501-2.896-.444 2.557Zm.031-.343-.031.343.474-2.893-.443 2.55Zm-.017-.365.017.365.427-2.906-.444 2.541Zm-.038-.361.038.361.408-2.893-.446 2.532Zm-.058-.356.058.356.388-2.88-.446 2.524Zm-.08-.352.08.352.369-2.868-.449 2.516Zm-.101-.348.101.348.352-2.855-.453 2.507Zm-78-99.8.232.03 2.277.096-2.509-.125Zm77.878 99.457.122.343.334-2.842-.456 2.499Z" fill="#E7E7E7"/><path d="m70.484 92.209 58.543 28.987 5.56.021-64.103-29.008Z" fill="#010101"/><path d="m70.685 1.143.228.047 2.276.077-2.504-.124Zm77.504 99.089.142.339.317-2.83-.459 2.491Zm-.164-.335.164.335.3-2.817-.464 2.482ZM70.913 1.19l.225.064 2.274.059-2.499-.123Zm76.927 98.377.185.33.283-2.803-.468 2.473Zm-.206-.326.206.326.268-2.79-.474 2.464Zm-.227-.32.227.32.253-2.777-.48 2.456Zm-.248-.317.248.316.239-2.764-.487 2.448Zm-76.02-97.35.221.082 2.271.04-2.493-.122Zm.221.082.219.1 2.269.02-2.488-.12Zm.219.1.215.119 2.267-.002-2.482-.117Zm.215.119.212.136 2.265-.023-2.477-.113Zm1.6 1.58 73.765 95.469-71.33-95.398-2.435-.072ZM72.006 1.69l.208.153 2.264-.044-2.472-.11Zm.208.153.205.172 2.262-.066-2.467-.106Zm.205.172.023.021 2.438.08-2.461-.1Zm.023.021.026.023 2.435.078-2.46-.1Zm.026.023.027.024 2.433.076-2.46-.1Zm.027.024.03.026 2.43.074-2.46-.1Zm.03.026.03.028 2.428.07-2.459-.098Zm.03.028.033.029 2.425.069-2.458-.098Zm.033.029.035.03 2.422.067-2.457-.097Zm.035.03.037.033 2.42.064-2.457-.096Zm.037.033.038.035 2.417.061-2.455-.096Zm.038.035.04.036 2.415.059-2.455-.095Zm.04.036.043.037 2.411.057L72.74 2.3Zm.606.75.05.083 2.388-.01-2.438-.074Zm-.563-.713.044.04 2.409.053-2.453-.093Zm.514.632.05.08 2.39-.004-2.44-.076Zm-.47-.592.046.042 2.406.05-2.452-.092Zm.422.516.048.076 2.392.002-2.44-.078Zm-.376-.474.046.046 2.404.045-2.45-.091Zm.328.401.048.073 2.393.007-2.442-.08Zm-.282-.355.046.05 2.402.04-2.448-.09Zm.234.286.047.07 2.395.012-2.442-.082Zm-.188-.237.046.054 2.401.035-2.447-.089Zm.14.172.048.065 2.396.02-2.444-.085Zm-.094-.118.047.057 2.4.03-2.447-.087Zm.047.057.047.061 2.398.025-2.445-.086Z" fill="#E7E7E7"/><path d="m134.587 121.217-29.875-30.82-48.951-24.541 78.826 55.361Z" fill="#010101"/><path d="m148.188 106.086.471-2.708.057-.339-.528 3.047Zm.059-.347.469-2.7.031-.343-.5 3.043Zm.031-.352.469-2.691-.017-.365-.452 3.056Z" fill="#E7E7E7"/><path d="m128.449 120.961.286.122.292.113-.578-.235Zm-76.582-98.68.364.488 52.481 67.627-52.845-68.115Zm-.522-1.01.522 1.01 52.845 68.115-53.367-69.125Z" fill="#010101"/><path d="m148.26 105.014.47-2.683-.038-.361-.432 3.044Z" fill="#E7E7E7"/><path d="m51.345 21.27.227.511.295.5-.522-1.01Zm77.682 99.926.3.103.307.094-.607-.197Z" fill="#010101"/><path d="m148.222 104.644.47-2.674-.058-.356-.412 3.03Zm-.06-.365.472-2.665-.08-.352-.392 3.017Z" fill="#E7E7E7"/><path d="m129.027 121.196.607.197.636.159-1.243-.356ZM51.097 20.215l.09.534.158.522-.248-1.056Zm.029-1.105.22 2.16 53.366 69.126L51.125 19.11Z" fill="#010101"/><path d="m148.079 103.917.475-2.655-.101-.348-.374 3.003Z" fill="#E7E7E7"/><path d="m129.634 121.393.315.084.321.075-.636-.159Z" fill="#010101"/><path d="m68.041 1.012 2.644.131-.232-.028-2.412-.103Zm79.934 102.549.478-2.647-.122-.343-.356 2.99Zm-.125-.353.481-2.637-.142-.339-.339 2.976ZM68.275 1.06l2.638.13-.228-.047-2.41-.083Z" fill="#E7E7E7"/><path d="m51.126 19.11-.029 1.105.248 1.056-.22-2.161Z" fill="#010101"/><path d="m147.704 102.86.485-2.628-.164-.335-.321 2.963Z" fill="#E7E7E7"/><path d="m129.027 121.196 1.243.356 1.363.203-2.606-.559Z" fill="#010101"/><path d="m147.535 102.517.49-2.62-.185-.33-.305 2.95ZM68.506 1.126l2.632.128-.225-.064-2.407-.064Zm78.839 101.052.495-2.611-.206-.326-.289 2.937Zm-.212-.335.501-2.602-.227-.32-.274 2.922Zm-.233-.329.507-2.594-.248-.316-.259 2.91Z" fill="#E7E7E7"/><path d="m130.27 121.552.33.065.337.055-.667-.12Z" fill="#010101"/><path d="m68.734 1.21 2.626.126-.222-.082-2.404-.044Z" fill="#E7E7E7"/><path d="m51.126 19.11-.048.558.02.547.028-1.105Z" fill="#010101"/><path d="m68.957 1.313 2.622.123-.219-.1-2.403-.023Zm77.688 99.875.514-2.584-73.765-95.47 73.251 98.054Z" fill="#E7E7E7"/><path d="m130.27 121.552.667.12.696.083-1.363-.203Z" fill="#010101"/><path d="m69.178 1.435 2.616.12-.215-.119-2.401-.001Zm.217.14 2.61.116-.211-.136-2.399.02Zm.214.158 2.605.111-.208-.153-2.397.042Zm.21.176 2.6.107-.205-.172-2.395.065Z" fill="#E7E7E7"/><path d="m130.937 121.672.344.046.352.037-.696-.083Z" fill="#010101"/><path d="m69.844 1.93 2.598.107-.023-.02-2.575-.086Zm.026.024 2.598.106-.026-.023-2.572-.083Zm.028.025 2.597.105-.027-.024-2.57-.081Zm.03.027 2.596.104-.029-.026-2.568-.078Zm.031.028 2.596.104-.03-.028-2.566-.076Zm.034.03 2.595.103-.033-.03-2.562-.073Zm.036.032 2.594.102-.035-.031-2.56-.071Zm.038.033 2.593.101-.037-.032-2.556-.069Zm.04.036 2.591.1-.038-.035-2.554-.065Zm.04.037 2.592.099-.04-.036-2.551-.063Zm.044.038 2.59.098-.042-.037-2.548-.06Zm.63.819 2.573.075-.05-.084-2.523.009Zm-.584-.778 2.588.097-.044-.04-2.544-.057Zm.533.691 2.574.078-.049-.08-2.525.002Zm-.487-.648 2.588.096-.046-.042-2.542-.054Zm.437.566 2.575.08-.048-.076-2.527-.004Zm-.39-.519 2.587.095-.046-.046-2.54-.049Zm.34.44 2.577.083-.049-.073-2.528-.01Zm-.292-.389 2.585.093-.046-.05-2.54-.043Zm.242.315 2.578.084-.047-.069-2.531-.015Zm-.195-.26 2.584.092-.046-.054-2.538-.038Zm.146.189 2.58.086-.048-.065-2.532-.021Zm-.098-.13 2.583.09-.047-.057-2.536-.033Zm.049.063 2.581.088-.047-.06-2.534-.028Z" fill="#E7E7E7"/><path d="m51.43 17.955-.187.584-.117.571.305-1.155Zm80.203 103.8.359.026.383-.008-.742-.018Zm-2.606-.559 2.606.559 2.954-.538-5.56-.021Zm2.606.559.742.018.754-.089-1.496.071ZM52.014 16.749l-.584 1.206-.304 1.155.888-2.361Zm80.361 105.024.379-.033.375-.056-.754.089ZM52.015 16.749l-.328.61-.256.596.583-1.206Zm79.618 105.006 1.496-.071 1.458-.467-2.954.538Zm1.496-.071.37-.081.367-.104-.737.185Zm0 0 .737-.185.721-.282-1.458.467Z" fill="#010101"/><path d="m148.247 105.739-.059.347.528-3.047-.469 2.7Z" fill="#E7E7E7"/><path d="m133.866 121.499.363-.129.358-.153-.721.282Z" fill="#010101"/><path d="m148.278 105.387-.031.352.5-3.043-.469 2.691Zm-.018-.373.018.373.452-3.056-.47 2.683Zm-.038-.37.038.37.432-3.044-.47 2.674Zm-.06-.365.06.365.412-3.03-.472 2.665Z" fill="#E7E7E7"/><path d="m134.587 121.217.354-.176.35-.201-.704.377Z" fill="#010101"/><path d="m148.079 103.917.083.362.392-3.017-.475 2.655Zm-.104-.356.104.356.374-3.003-.478 2.647ZM67.805.983l.236.029 2.412.103-2.648-.132Zm80.045 102.225.125.353.356-2.99-.481 2.637Z" fill="#E7E7E7"/><path d="m134.587 121.217.704-.377.688-.476-1.392.853Z" fill="#010101"/><path d="m68.041 1.012.234.048 2.41.083-2.644-.131Zm79.663 101.848.146.348.339-2.976-.485 2.628Zm-.169-.343.169.343.321-2.963-.49 2.62ZM68.275 1.06l.231.066 2.407.064-2.638-.13Zm79.07 101.118.19.339.305-2.95-.495 2.611Zm-.212-.335.212.335.289-2.937-.501 2.602Zm-.233-.329.233.329.274-2.923-.507 2.594Zm-.255-.326.255.326.259-2.91-.514 2.584ZM68.506 1.126l.228.084 2.404.044-2.632-.128Zm.228.084.223.103 2.403.023-2.626-.126Z" fill="#E7E7E7"/><path d="m135.291 120.84.347-.226.341-.25-.688.476Z" fill="#010101"/><path d="m68.957 1.313.22.122 2.402.001-2.622-.123Zm.22.122.218.14 2.399-.02-2.616-.12Zm1.644 1.624 75.824 98.129L73.394 3.134 70.82 3.06Zm-1.426-1.485.214.159 2.397-.042-2.61-.117Zm.214.159.21.176 2.395-.065-2.605-.111Zm.21.176.025.022 2.575.085-2.6-.107Zm.025.022.026.023 2.572.083-2.598-.106Zm.026.023.028.025 2.57.08-2.598-.105Zm.028.025.03.027 2.567.078-2.597-.105Zm.03.027.031.028 2.565.076-2.597-.104Zm.031.028.034.03 2.562.074-2.596-.104Zm.034.03.036.032 2.56.07-2.596-.102Zm.036.032.038.033 2.556.069-2.594-.102Zm.038.033.04.036 2.553.065-2.593-.1Zm.04.036.04.037 2.551.063-2.592-.1Zm.04.037.044.038 2.548.06-2.591-.098Zm.623.77.05.087 2.524-.009-2.574-.078Zm-.579-.732.046.04 2.544.058-2.59-.098Zm.529.65.05.082 2.525-.002-2.575-.08Zm-.483-.61.046.044 2.542.054-2.588-.097Zm.433.531.05.079 2.527.004-2.577-.083Zm-.387-.487.047.047 2.54.049-2.587-.096Zm.337.413.05.074 2.528.01-2.578-.084Zm-.29-.366.048.051 2.538.044-2.586-.095Zm.24.295.05.07 2.53.016-2.58-.086Zm-.192-.244.047.055 2.538.038-2.585-.093Zm.144.177.049.067 2.532.021-2.581-.088Zm-.097-.122.048.06 2.536.032-2.584-.092Zm.048.06.049.062 2.534.027-2.583-.09Z" fill="#E7E7E7"/><path d="M62.157 1.975 51.126 19.11l53.586 71.286L62.157 1.975Zm0 0L52.014 16.749l-.889 2.361L62.157 1.975Zm-.313.4-9.433 13.75-.397.624 9.83-14.374Zm72.743 118.842L68.101 2.978l36.611 87.418 29.875 30.821Zm0 0 1.392-.853 10.219-8.756-11.611 9.609Zm1.392-.853.339-.274 9.229-7.87-9.568 8.144Z" fill="#010101"/><path d="m147.691 108.949.497-2.863.059-.347-.556 3.21Zm.06-.356.496-2.854.031-.352-.527 3.206Zm.032-.36.495-2.846-.018-.373-.477 3.219Zm-.018-.383.495-2.836-.038-.37-.457 3.206Zm-.04-.379.497-2.827-.06-.365-.437 3.192Zm-.063-.375.5-2.817-.083-.362-.417 3.179Zm-.084-.371.501-2.808-.104-.356-.397 3.164ZM65.248.873l2.793.139-.236-.03-2.557-.109ZM147.47 106.36l.504-2.798-.125-.353-.379 3.151Zm-.129-.362.508-2.789-.146-.348-.362 3.137ZM65.487.922l2.788.138-.234-.048-2.554-.09Zm81.704 104.718.513-2.78-.169-.343-.344 3.123Zm-.173-.353.517-2.77-.19-.339-.327 3.109ZM65.724.99l2.782.136-.23-.066-2.552-.07Zm81.098 103.949.523-2.761-.212-.335-.311 3.096Zm-.218-.344.529-2.752-.233-.329-.296 3.081Zm-.24-.339.536-2.742-.255-.326-.281 3.068Z" fill="#E7E7E7"/><path d="m135.979 120.364 9.568-8.144.651-.612-10.219 8.756Z" fill="#010101"/><path d="m65.957 1.077 2.777.133-.228-.084-2.549-.049Z" fill="#E7E7E7"/><path d="m62.157 1.975-.313.4-9.83 14.374L62.157 1.975Z" fill="#010101"/><path d="m66.187 1.183 2.77.13-.223-.103-2.547-.027Z" fill="#E7E7E7"/><path d="m65.724.99-3.567.985 42.555 88.421L65.724.99Z" fill="#010101"/><path d="m146.101 103.921.544-2.733-75.824-98.13 75.28 100.863ZM66.412 1.308l2.766.127-.22-.122-2.546-.005Zm.223.144 2.76.122-.217-.14-2.543.018Zm.22.162 2.754.119-.214-.159-2.54.04Zm.216.182 2.748.113-.21-.176-2.538.063Zm.025.022 2.748.113-.025-.022-2.723-.09Zm.027.024 2.747.112-.026-.023-2.721-.089Zm.028.026 2.747.11-.028-.024-2.719-.086Zm.031.027 2.745.11-.03-.026-2.715-.084Zm.033.03 2.744.109-.032-.028-2.712-.082Zm.035.03 2.743.109-.034-.03-2.71-.079Zm.036.033 2.743.108-.036-.032-2.707-.076Zm.04.035 2.74.106-.037-.033-2.704-.073Zm.04.036 2.74.106-.04-.036-2.7-.07Zm.043.038 2.739.105-.042-.037-2.697-.068Zm.044.04 2.738.103-.043-.038-2.695-.065Zm.648.841 2.72.08-.05-.086-2.67.006Zm-.601-.8 2.737.103-.046-.04-2.691-.063Zm.549.712 2.721.082-.05-.082h-2.671Zm-.501-.667 2.735.101-.046-.043-2.69-.058Zm.449.582 2.723.085-.05-.079-2.673-.006Zm-.401-.534 2.734.1-.047-.047-2.687-.053Zm.35.453 2.724.087-.05-.074-2.675-.013Zm-.301-.4 2.733.098-.048-.05-2.685-.048Zm.25.323 2.725.09-.05-.071-2.676-.019Zm-.201-.266 2.731.096-.047-.055-2.684-.042Zm.15.193 2.727.092-.05-.067-2.678-.025Zm-.1-.133 2.73.095-.049-.059-2.682-.036Zm.05.065 2.728.093-.049-.063-2.68-.03Z" fill="#E7E7E7"/><path d="m134.587 121.217 11.611-9.609 1.493-2.659-13.104 12.268ZM67.287 1.988 65.723.99l38.988 89.406L67.286 1.988Zm.814.99-.815-.99 37.426 88.408L68.101 2.978Zm66.486 118.239 13.104-12.268-79.59-105.97 66.486 118.238Z" fill="#010101"/><path d="m147.751 108.593-.06.356.556-3.21-.496 2.854Zm.032-.36-.032.36.527-3.206-.495 2.846Zm-.018-.383.018.383.477-3.219-.495 2.836Zm-.04-.379.04.379.457-3.206-.497 2.827Zm-.063-.375.063.375.437-3.192-.5 2.817Zm-.084-.371.084.371.417-3.179-.501 2.808Zm-.107-.366.107.366.397-3.164-.504 2.798ZM65.004.843l.244.03 2.557.11-2.801-.14Z" fill="#E7E7E7"/><path d="m145.547 112.22.34-.303.311-.309-.651.612Z" fill="#010101"/><path d="m147.342 105.997.129.362.379-3.151-.508 2.789ZM65.248.873l.24.05 2.553.089-2.793-.139ZM147.19 105.64l.151.357.362-3.137-.513 2.78Zm-.173-.353.173.353.344-3.123-.517 2.77ZM65.488.922l.236.068 2.551.07-2.788-.138Zm81.334 104.017.196.348.327-3.109-.523 2.761Zm-.218-.344.218.344.311-3.096-.529 2.752Zm-.24-.339.24.339.296-3.081-.536 2.742Zm-.263-.335.263.335.281-3.068-.544 2.733ZM65.724.991l.233.086 2.55.049L65.723.99Zm.233.086.23.106 2.547.027-2.777-.133Zm.23.106.225.125 2.545.005-2.77-.13Zm.225.125.223.144 2.543-.017-2.766-.127Zm1.689 1.67 78 100.943L70.821 3.059l-2.72-.08Zm-1.466-1.526.22.162 2.54-.04-2.76-.122Z" fill="#E7E7E7"/><path d="m146.198 111.608.285-.314.256-.32-.541.634Z" fill="#010101"/><path d="m66.855 1.614.216.182 2.538-.063-2.754-.119Zm.216.182.025.022 2.723.091-2.748-.113Zm.025.022.027.024 2.72.089-2.747-.113Zm.027.024.028.026 2.719.086-2.747-.112Zm.028.026.031.027 2.716.084-2.747-.111Zm.031.027.033.03 2.712.08-2.745-.11Zm.033.03.035.03 2.71.079-2.745-.11Zm.035.03.036.033 2.707.076-2.743-.109Zm.036.033.04.035 2.703.073-2.743-.108Zm.04.035.04.036 2.7.07-2.74-.106Zm.04.036.043.038 2.697.068-2.74-.106Zm.043.038.044.04 2.695.065-2.74-.105Zm.64.793.052.088 2.67-.006-2.722-.082Zm-.596-.753.047.041 2.691.062-2.738-.103Zm.544.668.052.085h2.67l-2.722-.085Zm-.497-.627.048.045 2.689.058-2.737-.103Zm.445.546.052.08 2.673.007-2.725-.087Zm-.397-.501.048.048 2.687.053-2.735-.101Zm.346.424.051.077 2.675.013-2.726-.09Zm-.298-.376.049.053 2.685.047-2.734-.1Zm.247.303.051.073 2.677.019-2.728-.092Zm-.198-.25.049.057 2.684.041-2.733-.098Zm.148.182.05.068 2.679.025-2.729-.093Zm-.1-.125.05.06 2.682.036-2.731-.096Zm.05.06.05.065 2.68.03-2.73-.095Z" fill="#E7E7E7"/><path d="m146.198 111.608.541-.634.43-.654-.971 1.288ZM62.158 1.975l-.161.193-.153.207.313-.4Zm84.581 108.999.229-.324.201-.33-.43.654ZM62.506 1.634l-.178.163-.17.178.348-.342Zm83.692 109.974.971-1.288.522-1.371-1.493 2.659ZM62.89 1.352l-.384.281-.349.342.733-.623Zm84.279 108.968.172-.335.145-.34-.317.675ZM62.89 1.352l-.196.133-.188.148.384-.281Zm.875-.384-.875.384-.733.623L63.765.968Zm83.404 109.352.317-.675.205-.696-.522 1.371ZM63.309 1.13l-.214.103-.205.119.42-.222Zm84.177 108.515.117-.346.088-.35-.205.696ZM63.765.968l-.456.162-.419.222.875-.384Zm0 0-.232.073-.224.089.456-.162Zm1.959.022-1.96-.022-1.607 1.007L65.724.99ZM147.69 108.95l.06-.356.032-.36-.092.716Zm0 0 .092-.716-.058-.762-.034 1.478ZM64.256.866l-.25.044-.241.058.49-.102Zm.502-.034-.502.034-.491.102.993-.136Zm83.025 107.401-.018-.383-.04-.379.058.762Zm-.092.716.034-1.478-.383-1.474.349 2.952ZM64.758.832l-.25.008-.252.026.502-.034Zm.966.158-.966-.158-.993.136 1.959.022Zm82.001 106.481-.063-.375-.084-.371.147.746Zm0 0-.147-.746-.236-.728.383 1.474ZM65.248.873l-.244-.03-.246-.011.49.041ZM147.69 108.95l-.349-2.952L68.101 2.978l79.59 105.971Zm-.113-2.224-.107-.366-.129-.362.236.728ZM65.724.99l-.476-.117-.49-.041.966.158Zm81.618 105.007-.151-.357-.173-.353.324.71ZM65.724.99l-.237-.068-.24-.049.477.117Zm81.618 105.007-.324-.71-.414-.692.738 1.402Zm-.324-.71-.196-.348-.218-.344.414.692Zm-.414-.692-.24-.339-.263-.335.503.674ZM66.187 1.183l-.23-.106-.233-.087.463.193Zm81.155 104.814-.738-1.402L68.101 2.978l79.241 103.019ZM66.635 1.452l-.448-.269-.463-.193.911.462Zm79.969 103.143-.503-.674-78-100.943 78.503 101.617ZM67.123 1.842l-.488-.39-.911-.462 1.399.852Zm-.488-.39-.223-.144-.225-.125.448.269Zm.615.503-.127-.113-1.4-.852 1.527.965Zm.036.033-.036-.033L65.724.99l1.562.998Zm-.215-.192-.216-.182-.22-.162.436.344Zm.052.046-.052-.046-.436-.344.488.39Zm.06.053-.032-.027-.028-.026.06.053Zm.365.328-.223-.2-.039-.035.262.235Zm0 0-.182-.164-.04-.036.222.2Zm.553.755-.553-.755-.262-.235.815.99Zm-.553-.755-.14-.126-.042-.038.182.164Zm0 0-.095-.086-.044-.04.139.126Zm.553.755-.052-.088-.104-.166.156.254Zm-.553-.755-.048-.045-.047-.041.095.086Zm.553.755-.156-.254-.397-.501.553.755Zm-.052-.088-.052-.085-.052-.081.104.166Zm-.404-.566-.049-.053-.048-.048.097.1Zm.3.4-.202-.283-.195-.218.397.501Zm0 0-.05-.077-.052-.073.102.15Zm-.202-.283-.098-.117-.097-.101.195.218Zm.202.283-.102-.15-.1-.133.202.283Zm-.202-.283-.05-.06-.048-.057.098.117Zm.1.133-.05-.068-.05-.065.1.133Z" fill="#010101"/></svg>