<svg width="142" height="14" viewBox="0 0 142 14" fill="none" xmlns="http://www.w3.org/2000/svg">
<g id="CRYPTOBEAR">
<path d="M3.79431 13.0539V11.2616H2.00201V9.46929H0.209717V4.0924H2.00201V2.30011H3.79431V0.507812H10.9635V2.30011H12.7558V4.0924H9.1712V2.30011H5.58661V4.0924H3.79431V9.46929H5.58661V11.2616H9.1712V9.46929H12.7558V11.2616H10.9635V13.0539H3.79431Z" fill="white"/>
<path d="M14.5481 13.0539V0.507812H25.3019V2.30011H27.0942V7.677H23.5096V9.46929H25.3019V11.2616H27.0942V13.0539H21.7173V11.2616H19.925V9.46929H18.1327V13.0539H14.5481ZM18.1327 7.677H21.7173V5.8847H23.5096V2.30011H18.1327V7.677Z" fill="white"/>
<path d="M34.2634 13.0539V7.677H32.4711V5.8847H30.6788V0.507812H34.2634V5.8847H37.8479V0.507812H41.4325V5.8847H39.6402V7.677H37.8479V13.0539H34.2634Z" fill="white"/>
<path d="M43.2248 13.0539V0.507812H53.9786V2.30011H55.7709V7.677H53.9786V9.46929H46.8094V13.0539H43.2248ZM46.8094 7.677H52.1863V2.30011H46.8094V7.677Z" fill="white"/>
<path d="M62.9401 13.0539V2.30011H59.3555V0.507812H70.1093V2.30011H66.5247V13.0539H62.9401Z" fill="white"/>
<path d="M73.6939 13.0539V11.2616H71.9016V2.30011H73.6939V0.507812H82.6554V2.30011H84.4477V11.2616H82.6554V13.0539H73.6939ZM75.4862 11.2616H80.8631V2.30011H75.4862V11.2616Z" fill="white"/>
<path d="M86.24 13.0539V0.507812H96.9937V2.30011H98.786V5.8847H96.9937V7.677H98.786V11.2616H96.9937V13.0539H86.24ZM89.8245 5.8847H95.2014V2.30011H89.8245V5.8847ZM89.8245 11.2616H95.2014V7.677H89.8245V11.2616Z" fill="white"/>
<path d="M100.578 13.0539V0.507812H113.124V2.30011H104.163V5.8847H111.332V7.677H104.163V11.2616H113.124V13.0539H100.578Z" fill="white"/>
<path d="M114.917 13.0539V4.0924H116.709V2.30011H118.501V0.507812H123.878V2.30011H125.67V4.0924H127.463V13.0539H123.878V9.46929H118.501V13.0539H114.917ZM118.501 7.677H123.878V4.0924H122.086V2.30011H120.294V4.0924H118.501V7.677Z" fill="white"/>
<path d="M129.255 13.0539V0.507812H140.009V2.30011H141.801V7.677H138.217V9.46929H140.009V11.2616H141.801V13.0539H136.424V11.2616H134.632V9.46929H132.84V13.0539H129.255ZM132.84 7.677H136.424V5.8847H138.217V2.30011H132.84V7.677Z" fill="white"/>
</g>
</svg>
