<svg width="121" height="143" viewBox="0 0 121 143" fill="none" xmlns="http://www.w3.org/2000/svg">
<path d="M33.4056 91.052L36.1722 89.2671L44.73 66.4335L33.4056 91.052ZM33.4056 91.052L76.8292 116.3L36.1722 89.2671L33.4056 91.052ZM30.5191 92.9142L33.4056 91.052L42.0211 67.7964L30.5191 92.9142ZM42.0211 67.7964L33.4056 91.052L44.73 66.4335L42.0211 67.7964ZM74.6881 129.496L76.6712 126.813L76.7813 126.641L74.6881 129.496ZM74.7997 129.322L76.7813 126.641L76.8811 126.457L74.7997 129.322ZM76.8292 116.3L78.805 113.854L36.1722 89.2671L76.8292 116.3ZM74.9008 129.134L76.8811 126.457L80.6926 118.774L74.9008 129.134ZM74.7997 129.322L74.6881 129.496L76.7813 126.641L74.7997 129.322ZM74.9008 129.134L74.7997 129.322L76.8811 126.457L74.9008 129.134ZM30.5191 92.9142L74.7624 118.859L33.4056 91.052L30.5191 92.9142Z" fill="#E7E7E7"/>
<path d="M0.616944 103.052L0.725805 103.27L0.843374 103.479L0.616944 103.052ZM0.843374 103.479L0.969668 103.679L1.10469 103.871L0.843374 103.479ZM0.616944 103.052L0.843374 103.479L1.10469 103.871L0.616944 103.052ZM0.427608 102.595L0.516788 102.825L0.616944 103.052L0.427608 102.595ZM1.10469 103.871L1.24848 104.054L1.40102 104.228L1.10469 103.871ZM0.616944 103.052L1.10469 103.871L1.73248 104.55L0.616944 103.052ZM0.289007 102.142L0.427608 102.595L0.616944 103.052L0.289007 102.142ZM1.10469 103.871L1.40102 104.228L1.73248 104.55L1.10469 103.871ZM0.289007 102.142L0.35168 102.367L0.427608 102.595L0.289007 102.142ZM1.40102 104.228L1.56235 104.393L1.73248 104.55L1.40102 104.228ZM0.170898 101.259L0.289007 102.142L0.616944 103.052L0.170898 101.259ZM0.203423 101.696L0.239586 101.918L0.289007 102.142L0.203423 101.696ZM1.73248 104.55L1.91144 104.698L2.09924 104.838L1.73248 104.55ZM0.170898 101.259L0.203423 101.696L0.289007 102.142L0.170898 101.259ZM0.170898 101.259L0.180525 101.477L0.203423 101.696L0.170898 101.259ZM0.191505 100.831L0.174554 101.044L0.170898 101.259L0.191505 100.831ZM0.265349 100.41L0.191505 100.831L0.170898 101.259L0.265349 100.41ZM0.265349 100.41L0.221764 100.619L0.191505 100.831L0.265349 100.41Z" fill="#010101"/>
<path d="M78.7635 121.325L80.6926 118.774L80.7924 118.556L78.7635 121.325ZM78.8644 121.104L80.7924 118.556L80.8757 118.337L78.8644 121.104ZM78.9488 120.881L80.8757 118.337L80.9428 118.117L78.9488 120.881ZM79.0166 120.657L80.9428 118.117L80.9936 117.896L79.0166 120.657ZM78.7635 121.325L74.9008 129.134L80.6926 118.774L78.7635 121.325ZM79.0679 120.432L80.9936 117.896L81.0281 117.674L79.0679 120.432ZM79.1025 120.206L81.0281 117.674L81.0463 117.45L79.1025 120.206ZM77.0734 116.449L79.0444 113.999L78.805 113.854L77.0734 116.449ZM79.1205 119.978L81.0463 117.45L81.0481 117.226L79.1205 119.978ZM77.3041 116.606L79.2706 114.152L79.0444 113.999L77.3041 116.606ZM79.1218 119.749L81.0481 117.226L81.0336 117L79.1218 119.749ZM27.5049 94.8588L30.5191 92.9142L39.1893 69.2212L27.5049 94.8588ZM77.5217 116.771L79.4838 114.312L79.2706 114.152L77.5217 116.771ZM79.1065 119.519L81.0336 117L81.0027 116.773L79.1065 119.519ZM77.7259 116.943L79.684 114.48L79.4838 114.312L77.7259 116.943ZM79.0745 119.288L81.0027 116.773L80.9555 116.546L79.0745 119.288ZM77.9168 117.122L79.871 114.655L79.684 114.48L77.9168 117.122ZM79.0259 119.055L80.9555 116.546L80.8918 116.317L79.0259 119.055ZM78.0944 117.309L80.0449 114.838L79.871 114.655L78.0944 117.309ZM78.9605 118.822L80.8918 116.317L80.8118 116.087L78.9605 118.822ZM78.2586 117.504L80.2057 115.028L80.0449 114.838L78.2586 117.504ZM78.8785 118.587L80.8118 116.087L80.717 115.861L78.8785 118.587ZM78.4094 117.706L80.3533 115.225L80.2057 115.028L78.4094 117.706ZM78.7814 118.356L80.717 115.861L80.609 115.641L78.7814 118.356ZM78.5468 117.915L80.4877 115.429L80.3533 115.225L78.5468 117.915ZM78.6708 118.132L80.609 115.641L80.4877 115.429L78.6708 118.132ZM39.1893 69.2212L30.5191 92.9142L42.0211 67.7964L39.1893 69.2212ZM72.6157 132.3L74.6881 129.496L74.7997 129.322L72.6157 132.3ZM72.7289 132.123L74.7997 129.322L74.9008 129.134L72.7289 132.123ZM74.7624 118.859L76.8292 116.3L33.4056 91.052L74.7624 118.859ZM78.8644 121.104L78.7635 121.325L80.7924 118.556L78.8644 121.104ZM78.9488 120.881L78.8644 121.104L80.8757 118.337L78.9488 120.881ZM79.0166 120.657L78.9488 120.881L80.9428 118.117L79.0166 120.657ZM79.0679 120.432L79.0166 120.657L80.9936 117.896L79.0679 120.432ZM79.1025 120.206L79.0679 120.432L81.0281 117.674L79.1025 120.206ZM76.8292 116.3L77.0734 116.449L78.805 113.854L76.8292 116.3ZM79.1205 119.978L79.1025 120.206L81.0463 117.45L79.1205 119.978ZM79.1218 119.749L79.1205 119.978L81.0481 117.226L79.1218 119.749ZM77.0734 116.449L77.3041 116.606L79.0444 113.999L77.0734 116.449ZM79.1065 119.519L79.1218 119.749L81.0336 117L79.1065 119.519ZM77.3041 116.606L77.5217 116.771L79.2706 114.152L77.3041 116.606ZM79.0745 119.288L79.1065 119.519L81.0027 116.773L79.0745 119.288ZM77.5217 116.771L77.7259 116.943L79.4838 114.312L77.5217 116.771ZM79.0259 119.055L79.0745 119.288L80.9555 116.546L79.0259 119.055ZM77.7259 116.943L77.9168 117.122L79.684 114.48L77.7259 116.943ZM72.8314 131.932L74.9008 129.134L78.7635 121.325L72.8314 131.932ZM78.9605 118.822L79.0259 119.055L80.8918 116.317L78.9605 118.822ZM77.9168 117.122L78.0944 117.309L79.871 114.655L77.9168 117.122ZM78.8785 118.587L78.9605 118.822L80.8118 116.087L78.8785 118.587ZM78.0944 117.309L78.2586 117.504L80.0449 114.838L78.0944 117.309ZM78.7814 118.356L78.8785 118.587L80.717 115.861L78.7814 118.356ZM78.2586 117.504L78.4094 117.706L80.2057 115.028L78.2586 117.504ZM78.6708 118.132L78.7814 118.356L80.609 115.641L78.6708 118.132ZM78.4094 117.706L78.5468 117.915L80.3533 115.225L78.4094 117.706ZM78.5468 117.915L78.6708 118.132L80.4877 115.429L78.5468 117.915ZM72.7289 132.123L72.6157 132.3L74.7997 129.322L72.7289 132.123ZM72.8314 131.932L72.7289 132.123L74.9008 129.134L72.8314 131.932ZM27.5049 94.8588L72.5986 121.539L30.5191 92.9142L27.5049 94.8588ZM76.7457 123.994L78.7635 121.325L78.8644 121.104L76.7457 123.994ZM76.8479 123.769L78.8644 121.104L78.9488 120.881L76.8479 123.769ZM76.9333 123.542L78.9488 120.881L79.0166 120.657L76.9333 123.542Z" fill="#E7E7E7"/>
<path d="M0.616944 103.052L1.73248 104.55L61.5209 142.147L0.616944 103.052ZM1.73248 104.55L2.09924 104.838L61.0032 141.853L1.73248 104.55Z" fill="#010101"/>
<path d="M77.0016 123.314L79.0166 120.657L79.0679 120.432L77.0016 123.314Z" fill="#E7E7E7"/>
<path d="M2.09924 104.838L2.29581 104.968L61.0032 141.853L2.09924 104.838Z" fill="#010101"/>
<path d="M76.7457 123.994L72.8314 131.932L78.7635 121.325L76.7457 123.994ZM77.0539 123.085L79.0679 120.432L79.1025 120.206L77.0539 123.085ZM77.0886 122.854L79.1025 120.206L79.1205 119.978L77.0886 122.854ZM75.0119 119.013L77.0734 116.449L76.8292 116.3L75.0119 119.013ZM77.1064 122.622L79.1205 119.978L79.1218 119.749L77.1064 122.622ZM75.2474 119.174L77.3041 116.606L77.0734 116.449L75.2474 119.174ZM77.1072 122.389L79.1218 119.749L79.1065 119.519L77.1072 122.389ZM24.3544 96.8917L27.5049 94.8588L36.2259 70.7124L24.3544 96.8917ZM75.4695 119.343L77.5217 116.771L77.3041 116.606L75.4695 119.343ZM77.091 122.154L79.1065 119.519L79.0745 119.288L77.091 122.154ZM75.678 119.52L77.7259 116.943L77.5217 116.771L75.678 119.52ZM77.0578 121.918L79.0745 119.288L79.0259 119.055L77.0578 121.918ZM75.8729 119.704L77.9168 117.122L77.7259 116.943L75.8729 119.704ZM77.0077 121.681L79.0259 119.055L78.9605 118.822L77.0077 121.681ZM76.0543 119.895L78.0944 117.309L77.9168 117.122L76.0543 119.895ZM76.9405 121.443L78.9605 118.822L78.8785 118.587L76.9405 121.443ZM76.2221 120.095L78.2586 117.504L78.0944 117.309L76.2221 120.095ZM76.8564 121.203L78.8785 118.587L78.7814 118.356L76.8564 121.203ZM76.3763 120.301L78.4094 117.706L78.2586 117.504L76.3763 120.301ZM76.7569 120.966L78.7814 118.356L78.6708 118.132L76.7569 120.966ZM76.5168 120.516L78.5468 117.915L78.4094 117.706L76.5168 120.516ZM76.6437 120.737L78.6708 118.132L78.5468 117.915L76.6437 120.737ZM36.2259 70.7124L27.5049 94.8588L39.1893 69.2212L36.2259 70.7124ZM70.4479 135.233L72.6157 132.3L72.7289 132.123L70.4479 135.233ZM70.5627 135.053L72.7289 132.123L72.8314 131.932L70.5627 135.053ZM72.5986 121.539L74.7624 118.859L30.5191 92.9142L72.5986 121.539ZM76.8479 123.769L76.7457 123.994L78.8644 121.104L76.8479 123.769ZM76.9333 123.542L76.8479 123.769L78.9488 120.881L76.9333 123.542ZM77.0016 123.314L76.9333 123.542L79.0166 120.657L77.0016 123.314ZM77.0539 123.085L77.0016 123.314L79.0679 120.432L77.0539 123.085ZM77.0886 122.854L77.0539 123.085L79.1025 120.206L77.0886 122.854ZM74.7624 118.859L75.0119 119.013L76.8292 116.3L74.7624 118.859ZM77.1064 122.622L77.0886 122.854L79.1205 119.978L77.1064 122.622ZM77.1072 122.389L77.1064 122.622L79.1218 119.749L77.1072 122.389ZM75.0119 119.013L75.2474 119.174L77.0734 116.449L75.0119 119.013ZM77.091 122.154L77.1072 122.389L79.1065 119.519L77.091 122.154ZM75.2474 119.174L75.4695 119.343L77.3041 116.606L75.2474 119.174ZM77.0578 121.918L77.091 122.154L79.0745 119.288L77.0578 121.918ZM75.4695 119.343L75.678 119.52L77.5217 116.771L75.4695 119.343ZM77.0077 121.681L77.0578 121.918L79.0259 119.055L77.0077 121.681ZM75.678 119.52L75.8729 119.704L77.7259 116.943L75.678 119.52ZM70.6665 134.86L72.8314 131.932L76.7457 123.994L70.6665 134.86ZM76.9405 121.443L77.0077 121.681L78.9605 118.822L76.9405 121.443ZM75.8729 119.704L76.0543 119.895L77.9168 117.122L75.8729 119.704ZM76.8564 121.203L76.9405 121.443L78.8785 118.587L76.8564 121.203ZM76.0543 119.895L76.2221 120.095L78.0944 117.309L76.0543 119.895ZM76.7569 120.966L76.8564 121.203L78.7814 118.356L76.7569 120.966ZM76.2221 120.095L76.3763 120.301L78.2586 117.504L76.2221 120.095ZM76.6437 120.737L76.7569 120.966L78.6708 118.132L76.6437 120.737ZM76.3763 120.301L76.5168 120.516L78.4094 117.706L76.3763 120.301ZM76.5168 120.516L76.6437 120.737L78.5468 117.915L76.5168 120.516ZM70.5627 135.053L70.4479 135.233L72.7289 132.123L70.5627 135.053ZM47.609 52.7147L50.2713 51.6497L59.8935 25.976L47.609 52.7147ZM70.6665 134.86L70.5627 135.053L72.8314 131.932L70.6665 134.86ZM24.3544 96.8917L70.3304 124.348L27.5049 94.8588L24.3544 96.8917Z" fill="#E7E7E7"/>
<path d="M0.616944 103.052L65.21 142.127L21.0571 99.0186L0.616944 103.052Z" fill="#010101"/>
<path d="M74.6333 126.789L76.7457 123.994L76.8479 123.769L74.6333 126.789ZM74.7369 126.56L76.8479 123.769L76.9333 123.542L74.7369 126.56ZM47.609 52.7147L91.0913 75.216L50.2713 51.6497L47.609 52.7147ZM74.8234 126.329L76.9333 123.542L77.0016 123.314L74.8234 126.329ZM74.8926 126.097L77.0016 123.314L77.0539 123.085L74.8926 126.097ZM74.6333 126.789L70.6665 134.86L76.7457 123.994L74.6333 126.789ZM74.9447 125.863L77.0539 123.085L77.0886 122.854L74.9447 125.863Z" fill="#E7E7E7"/>
<path d="M0.616944 103.052L21.0571 99.0186L29.8645 73.9129L0.616944 103.052Z" fill="#010101"/>
<path d="M74.9792 125.628L77.0886 122.854L77.1064 122.622L74.9792 125.628ZM72.8527 121.697L75.0119 119.013L74.7624 118.859L72.8527 121.697ZM74.9967 125.391L77.1064 122.622L77.1072 122.389L74.9967 125.391ZM73.0931 121.863L75.2474 119.174L75.0119 119.013L73.0931 121.863ZM74.9969 125.153L77.1072 122.389L77.091 122.154L74.9969 125.153ZM21.0571 99.0186L24.3544 96.8917L33.1208 72.2745L21.0571 99.0186ZM73.3198 122.036L75.4695 119.343L75.2474 119.174L73.3198 122.036ZM74.9798 124.914L77.091 122.154L77.0578 121.918L74.9798 124.914ZM73.5328 122.218L75.678 119.52L75.4695 119.343L73.5328 122.218ZM74.9454 124.673L77.0578 121.918L77.0077 121.681L74.9454 124.673ZM73.732 122.407L75.8729 119.704L75.678 119.52L73.732 122.407ZM74.8936 124.43L77.0077 121.681L76.9405 121.443L74.8936 124.43ZM73.9174 122.603L76.0543 119.895L75.8729 119.704L73.9174 122.603ZM74.8246 124.187L76.9405 121.443L76.8564 121.203L74.8246 124.187ZM74.0889 122.807L76.2221 120.095L76.0543 119.895L74.0889 122.807ZM74.7382 123.942L76.8564 121.203L76.7569 120.966L74.7382 123.942ZM74.2465 123.019L76.3763 120.301L76.2221 120.095L74.2465 123.019ZM74.6361 123.7L76.7569 120.966L76.6437 120.737L74.6361 123.7ZM74.3903 123.238L76.5168 120.516L76.3763 120.301L74.3903 123.238ZM74.5202 123.465L76.6437 120.737L76.5168 120.516L74.5202 123.465ZM33.1208 72.2745L24.3544 96.8917L36.2259 70.7124L33.1208 72.2745ZM68.177 138.305L70.4479 135.233L70.5627 135.053L68.177 138.305ZM68.2935 138.122L70.5627 135.053L70.6665 134.86L68.2935 138.122ZM70.3304 124.348L72.5986 121.539L27.5049 94.8588L70.3304 124.348Z" fill="#E7E7E7"/>
<path d="M1.73248 104.55L61.0032 141.853L61.5209 142.147L1.73248 104.55Z" fill="#010101"/>
<path d="M74.7369 126.56L74.6333 126.789L76.8479 123.769L74.7369 126.56ZM74.8234 126.329L74.7369 126.56L76.9333 123.542L74.8234 126.329ZM74.8926 126.097L74.8234 126.329L77.0016 123.314L74.8926 126.097Z" fill="#E7E7E7"/>
<path d="M0.616944 103.052L61.5209 142.147L65.21 142.127L0.616944 103.052Z" fill="#010101"/>
<path d="M74.9447 125.863L74.8926 126.097L77.0539 123.085L74.9447 125.863ZM88.4829 90.0725L90.2943 88.1031L90.4491 87.9105L88.4829 90.0725ZM74.9792 125.628L74.9447 125.863L77.0886 122.854L74.9792 125.628ZM72.5986 121.539L72.8527 121.697L74.7624 118.859L72.5986 121.539ZM88.6404 89.8764L90.4491 87.9105L90.5937 87.7028L88.6404 89.8764ZM74.9967 125.391L74.9792 125.628L77.1064 122.622L74.9967 125.391ZM74.9969 125.153L74.9967 125.391L77.1072 122.389L74.9969 125.153ZM72.8527 121.697L73.0931 121.863L75.0119 119.013L72.8527 121.697ZM88.7874 89.6649L90.5937 87.7028L90.728 87.4801L88.7874 89.6649ZM74.9798 124.914L74.9969 125.153L77.091 122.154L74.9798 124.914ZM73.0931 121.863L73.3198 122.036L75.2474 119.174L73.0931 121.863ZM74.9454 124.673L74.9798 124.914L77.0578 121.918L74.9454 124.673ZM73.3198 122.036L73.5328 122.218L75.4695 119.343L73.3198 122.036ZM74.8936 124.43L74.9454 124.673L77.0077 121.681L74.8936 124.43ZM88.9241 89.4379L90.728 87.4801L90.8521 87.2423L88.9241 89.4379ZM73.5328 122.218L73.732 122.407L75.678 119.52L73.5328 122.218ZM68.3987 137.926L70.6665 134.86L74.6333 126.789L68.3987 137.926ZM74.8246 124.187L74.8936 124.43L76.9405 121.443L74.8246 124.187ZM73.732 122.407L73.9174 122.603L75.8729 119.704L73.732 122.407ZM74.7382 123.942L74.8246 124.187L76.8564 121.203L74.7382 123.942ZM73.9174 122.603L74.0889 122.807L76.0543 119.895L73.9174 122.603ZM74.6361 123.7L74.7382 123.942L76.7569 120.966L74.6361 123.7ZM74.0889 122.807L74.2465 123.019L76.2221 120.095L74.0889 122.807ZM74.5202 123.465L74.6361 123.7L76.6437 120.737L74.5202 123.465ZM74.2465 123.019L74.3903 123.238L76.3763 120.301L74.2465 123.019ZM74.3903 123.238L74.5202 123.465L76.5168 120.516L74.3903 123.238ZM91.0913 75.216L92.8792 73.5563L50.2713 51.6497L91.0913 75.216ZM68.2935 138.122L68.177 138.305L70.5627 135.053L68.2935 138.122ZM44.8216 53.8297L47.609 52.7147L57.3288 26.4776L44.8216 53.8297ZM68.3987 137.926L68.2935 138.122L70.6665 134.86L68.3987 137.926ZM57.3288 26.4776L47.609 52.7147L59.8935 25.976L57.3288 26.4776ZM21.0571 99.0186L67.9494 127.295L24.3544 96.8917L21.0571 99.0186Z" fill="#E7E7E7"/>
<path d="M30.4514 2.54989L0.170898 101.259L0.616944 103.052L30.4514 2.54989Z" fill="#010101"/>
<path d="M89.05 89.1953L90.8521 87.2423L94.9456 78.7998L89.05 89.1953ZM88.6404 89.8764L88.4829 90.0725L90.4491 87.9105L88.6404 89.8764Z" fill="#E7E7E7"/>
<path d="M30.4514 2.54989L0.265349 100.41L0.170898 101.259L30.4514 2.54989ZM30.2251 3.17484L0.322279 100.203L0.265349 100.41L30.2251 3.17484Z" fill="#010101"/>
<path d="M88.7874 89.6649L88.6404 89.8764L90.5937 87.7028L88.7874 89.6649ZM88.9241 89.4379L88.7874 89.6649L90.728 87.4801L88.9241 89.4379ZM89.05 89.1953L88.9241 89.4379L90.8521 87.2423L89.05 89.1953ZM72.4186 129.718L74.6333 126.789L74.7369 126.56L72.4186 129.718ZM72.5236 129.484L74.7369 126.56L74.8234 126.329L72.5236 129.484ZM44.8216 53.8297L89.2139 76.9582L47.609 52.7147L44.8216 53.8297ZM72.6111 129.25L74.8234 126.329L74.8926 126.097L72.6111 129.25ZM72.6811 129.013L74.8926 126.097L74.9447 125.863L72.6811 129.013ZM72.4186 129.718L68.3987 137.926L74.6333 126.789L72.4186 129.718ZM72.7335 128.775L74.9447 125.863L74.9792 125.628L72.7335 128.775ZM72.7683 128.535L74.9792 125.628L74.9967 125.391L72.7683 128.535ZM70.5896 124.51L72.8527 121.697L72.5986 121.539L70.5896 124.51ZM72.7855 128.294L74.9967 125.391L74.9969 125.153L72.7855 128.294ZM70.8351 124.681L73.0931 121.863L72.8527 121.697L70.8351 124.681ZM72.7851 128.051L74.9969 125.153L74.9798 124.914L72.7851 128.051ZM71.0667 124.86L73.3198 122.036L73.0931 121.863L71.0667 124.86ZM72.767 127.806L74.9798 124.914L74.9454 124.673L72.767 127.806ZM71.2843 125.046L73.5328 122.218L73.3198 122.036L71.2843 125.046ZM72.7312 127.56L74.9454 124.673L74.8936 124.43L72.7312 127.56ZM71.4879 125.24L73.732 122.407L73.5328 122.218L71.4879 125.24ZM72.6778 127.312L74.8936 124.43L74.8246 124.187L72.6778 127.312ZM71.6775 125.442L73.9174 122.603L73.732 122.407L71.6775 125.442ZM72.6067 127.063L74.8246 124.187L74.7382 123.942L72.6067 127.063ZM71.8529 125.651L74.0889 122.807L73.9174 122.603L71.8529 125.651ZM72.518 126.813L74.7382 123.942L74.6361 123.7L72.518 126.813ZM72.0142 125.868L74.2465 123.019L74.0889 122.807L72.0142 125.868ZM72.4133 126.565L74.6361 123.7L74.5202 123.465L72.4133 126.565ZM72.1614 126.093L74.3903 123.238L74.2465 123.019L72.1614 126.093ZM72.2944 126.325L74.5202 123.465L74.3903 123.238L72.2944 126.325ZM29.8645 73.9129L21.0571 99.0186L33.1208 72.2745L29.8645 73.9129ZM65.7967 141.525L68.177 138.305L68.2935 138.122L65.7967 141.525ZM65.9148 141.34L68.2935 138.122L68.3987 137.926L65.9148 141.34ZM93.2111 80.5831L94.9456 78.7998L95.0595 78.5469L93.2111 80.5831ZM67.9494 127.295L70.3304 124.348L24.3544 96.8917L67.9494 127.295ZM93.3267 80.325L95.0595 78.5469L95.1544 78.2959L93.3267 80.325ZM93.4231 80.0687L95.1544 78.2959L95.2303 78.0469L93.4231 80.0687ZM93.5001 79.8144L95.2303 78.0469L95.2873 77.7999L93.5001 79.8144ZM93.5578 79.5621L95.2873 77.7999L95.3254 77.555L93.5578 79.5621ZM93.2111 80.5831L89.05 89.1953L94.9456 78.7998L93.2111 80.5831ZM91.3588 75.3632L93.1413 73.6995L92.8792 73.5563L91.3588 75.3632ZM93.5962 79.3119L95.3254 77.555L95.3444 77.3121L93.5962 79.3119ZM47.1292 0.518512L49.9597 0.626958L49.7305 0.605976L47.1292 0.518512ZM91.6118 75.5202L93.3888 73.8522L93.1413 73.6995L91.6118 75.5202ZM93.6151 79.0637L95.3444 77.3121L95.3445 77.0714L93.6151 79.0637ZM93.6147 78.8176L95.3445 77.0714L95.3255 76.8329L93.6147 78.8176ZM91.8499 75.6868L93.6218 74.0145L93.3888 73.8522L91.8499 75.6868ZM47.3635 0.558619L50.1896 0.666153L49.9597 0.626958L47.3635 0.558619ZM93.5949 78.5737L95.3255 76.8329L95.2874 76.5965L93.5949 78.5737ZM92.0732 75.8631L93.8402 74.1862L93.6218 74.0145L92.0732 75.8631ZM72.5236 129.484L72.4186 129.718L74.7369 126.56L72.5236 129.484ZM93.5556 78.3319L95.2874 76.5965L95.2304 76.3623L93.5556 78.3319ZM92.2817 76.0491L94.044 74.3675L93.8402 74.1862L92.2817 76.0491ZM47.5985 0.617402L50.42 0.723582L50.1896 0.666153L47.5985 0.617402ZM93.4969 78.0923L95.2304 76.3623L95.1543 76.1304L93.4969 78.0923ZM92.4752 76.2447L94.2331 74.5583L94.044 74.3675L92.4752 76.2447ZM93.4187 77.855L95.1543 76.1304L95.0591 75.9007L93.4187 77.855ZM92.6537 76.45L94.4076 74.7585L94.2331 74.5583L92.6537 76.45ZM93.3211 77.6198L95.0591 75.9007L94.9583 75.6535L93.3211 77.6198ZM72.6111 129.25L72.5236 129.484L74.8234 126.329L72.6111 129.25ZM92.8172 76.6648L94.5674 74.9681L94.4076 74.7585L92.8172 76.6648ZM93.2177 77.3668L94.9583 75.6535L94.8428 75.4157L93.2177 77.3668ZM47.8342 0.694881L50.6511 0.799266L50.42 0.723582L47.8342 0.694881ZM92.9658 76.8893L94.7124 75.1872L94.5674 74.9681L92.9658 76.8893ZM93.0993 77.1233L94.8428 75.4157L94.7124 75.1872L93.0993 77.1233ZM48.0706 0.79107L50.8828 0.893203L50.6511 0.799266L48.0706 0.79107ZM72.6811 129.013L72.6111 129.25L74.8926 126.097L72.6811 129.013ZM72.7335 128.775L72.6811 129.013L74.9447 125.863L72.7335 128.775ZM86.5834 92.1377L88.4829 90.0725L88.6404 89.8764L86.5834 92.1377Z" fill="#E7E7E7"/>
<path d="M61.0032 141.853L61.2627 142.008L61.5209 142.147L61.0032 141.853Z" fill="#010101"/>
<path d="M72.7683 128.535L72.7335 128.775L74.9792 125.628L72.7683 128.535ZM70.3304 124.348L70.5896 124.51L72.5986 121.539L70.3304 124.348ZM86.7437 91.9379L88.6404 89.8764L88.7874 89.6649L86.7437 91.9379ZM72.7855 128.294L72.7683 128.535L74.9967 125.391L72.7855 128.294ZM72.7851 128.051L72.7855 128.294L74.9969 125.153L72.7851 128.051ZM70.5896 124.51L70.8351 124.681L72.8527 121.697L70.5896 124.51Z" fill="#E7E7E7"/>
<path d="M61.5209 142.147L61.7767 142.269L62.0305 142.374L61.5209 142.147Z" fill="#010101"/>
<path d="M86.8935 91.7223L88.7874 89.6649L88.9241 89.4379L86.8935 91.7223ZM72.767 127.806L72.7851 128.051L74.9798 124.914L72.767 127.806ZM70.8351 124.681L71.0667 124.86L73.0931 121.863L70.8351 124.681ZM72.7312 127.56L72.767 127.806L74.9454 124.673L72.7312 127.56Z" fill="#E7E7E7"/>
<path d="M61.5209 142.147L62.0305 142.374L62.5322 142.534L61.5209 142.147Z" fill="#010101"/>
<path d="M71.0667 124.86L71.2843 125.046L73.3198 122.036L71.0667 124.86ZM72.6778 127.312L72.7312 127.56L74.8936 124.43L72.6778 127.312ZM87.0323 91.4908L88.9241 89.4379L89.05 89.1953L87.0323 91.4908ZM71.2843 125.046L71.4879 125.24L73.5328 122.218L71.2843 125.046ZM66.0215 141.14L68.3987 137.926L72.4186 129.718L66.0215 141.14ZM72.6067 127.063L72.6778 127.312L74.8246 124.187L72.6067 127.063ZM71.4879 125.24L71.6775 125.442L73.732 122.407L71.4879 125.24Z" fill="#E7E7E7"/>
<path d="M62.0305 142.374L62.2822 142.463L62.5322 142.534L62.0305 142.374Z" fill="#010101"/>
<path d="M72.518 126.813L72.6067 127.063L74.7382 123.942L72.518 126.813ZM71.6775 125.442L71.8529 125.651L73.9174 122.603L71.6775 125.442ZM72.4133 126.565L72.518 126.813L74.6361 123.7L72.4133 126.565ZM71.8529 125.651L72.0142 125.868L74.0889 122.807L71.8529 125.651ZM72.2944 126.325L72.4133 126.565L74.5202 123.465L72.2944 126.325ZM72.0142 125.868L72.1614 126.093L74.2465 123.019L72.0142 125.868ZM72.1614 126.093L72.2944 126.325L74.3903 123.238L72.1614 126.093Z" fill="#E7E7E7"/>
<path d="M61.5209 142.147L62.5322 142.534L63.5118 142.652L61.5209 142.147ZM62.5322 142.534L62.78 142.589L63.0259 142.627L62.5322 142.534Z" fill="#010101"/>
<path d="M89.2139 76.9582L91.0913 75.216L47.609 52.7147L89.2139 76.9582ZM65.9148 141.34L65.7967 141.525L68.2935 138.122L65.9148 141.34Z" fill="#E7E7E7"/>
<path d="M62.5322 142.534L63.0259 142.627L63.5118 142.652L62.5322 142.534Z" fill="#010101"/>
<path d="M41.9006 54.998L44.8216 53.8297L54.6377 27.0038L41.9006 54.998ZM66.0215 141.14L65.9148 141.34L68.3987 137.926L66.0215 141.14Z" fill="#E7E7E7"/>
<path d="M63.0259 142.627L63.2702 142.648L63.5118 142.652L63.0259 142.627Z" fill="#010101"/>
<path d="M93.3267 80.325L93.2111 80.5831L95.0595 78.5469L93.3267 80.325Z" fill="#E7E7E7"/>
<path d="M65.21 142.127L70.4075 130.59L21.0571 99.0186L65.21 142.127Z" fill="#010101"/>
<path d="M54.6377 27.0038L44.8216 53.8297L57.3288 26.4776L54.6377 27.0038ZM93.4231 80.0687L93.3267 80.325L95.1544 78.2959L93.4231 80.0687Z" fill="#E7E7E7"/>
<path d="M61.5209 142.147L63.5118 142.652L65.21 142.127L61.5209 142.147Z" fill="#010101"/>
<path d="M93.5001 79.8144L93.4231 80.0687L95.2303 78.0469L93.5001 79.8144Z" fill="#E7E7E7"/>
<path d="M63.5118 142.652L63.7518 142.639L63.9899 142.609L63.5118 142.652Z" fill="#010101"/>
<path d="M93.5578 79.5621L93.5001 79.8144L95.2873 77.7999L93.5578 79.5621Z" fill="#E7E7E7"/>
<path d="M63.5118 142.652L63.9899 142.609L64.4417 142.504L63.5118 142.652Z" fill="#010101"/>
<path d="M93.5962 79.3119L93.5578 79.5621L95.3254 77.555L93.5962 79.3119ZM91.0913 75.216L91.3588 75.3632L92.8792 73.5563L91.0913 75.216ZM46.8953 0.497068L47.1292 0.518512L49.7305 0.605976L46.8953 0.497068ZM93.6151 79.0637L93.5962 79.3119L95.3444 77.3121L93.6151 79.0637Z" fill="#E7E7E7"/>
<path d="M63.9899 142.609L64.2219 142.563L64.4417 142.504L63.9899 142.609Z" fill="#010101"/>
<path d="M91.3588 75.3632L91.6118 75.5202L93.1413 73.6995L91.3588 75.3632ZM93.6147 78.8176L93.6151 79.0637L95.3445 77.0714L93.6147 78.8176ZM91.6118 75.5202L91.8499 75.6868L93.3888 73.8522L91.6118 75.5202ZM47.1292 0.518512L47.3635 0.558619L49.9597 0.626958L47.1292 0.518512ZM93.5949 78.5737L93.6147 78.8176L95.3255 76.8329L93.5949 78.5737Z" fill="#E7E7E7"/>
<path d="M63.5118 142.652L64.4417 142.504L65.21 142.127L63.5118 142.652Z" fill="#010101"/>
<path d="M91.8499 75.6868L92.0732 75.8631L93.6218 74.0145L91.8499 75.6868ZM93.5556 78.3319L93.5949 78.5737L95.2874 76.5965L93.5556 78.3319ZM47.3635 0.558619L47.5985 0.617402L50.1896 0.666153L47.3635 0.558619ZM92.0732 75.8631L92.2817 76.0491L93.8402 74.1862L92.0732 75.8631ZM93.4969 78.0923L93.5556 78.3319L95.2304 76.3623L93.4969 78.0923ZM92.2817 76.0491L92.4752 76.2447L94.044 74.3675L92.2817 76.0491ZM93.4187 77.855L93.4969 78.0923L95.1543 76.1304L93.4187 77.855ZM93.3211 77.6198L93.4187 77.855L95.0591 75.9007L93.3211 77.6198ZM92.4752 76.2447L92.6537 76.45L94.2331 74.5583L92.4752 76.2447Z" fill="#E7E7E7"/>
<path d="M64.4417 142.504L64.6506 142.431L64.8483 142.344L64.4417 142.504Z" fill="#010101"/>
<path d="M47.5985 0.617402L47.8342 0.694881L50.42 0.723582L47.5985 0.617402ZM93.2177 77.3668L93.3211 77.6198L94.9583 75.6535L93.2177 77.3668ZM92.6537 76.45L92.8172 76.6648L94.4076 74.7585L92.6537 76.45ZM93.0993 77.1233L93.2177 77.3668L94.8428 75.4157L93.0993 77.1233ZM92.8172 76.6648L92.9658 76.8893L94.5674 74.9681L92.8172 76.6648ZM92.9658 76.8893L93.0993 77.1233L94.7124 75.1872L92.9658 76.8893ZM47.8342 0.694881L48.0706 0.79107L50.6511 0.799266L47.8342 0.694881Z" fill="#E7E7E7"/>
<path d="M64.4417 142.504L64.8483 142.344L65.21 142.127L64.4417 142.504Z" fill="#010101"/>
<path d="M87.1609 91.2435L89.05 89.1953L93.2111 80.5831L87.1609 91.2435Z" fill="#E7E7E7"/>
<path d="M64.8483 142.344L65.0345 142.242L65.21 142.127L64.8483 142.344Z" fill="#010101"/>
<path d="M86.7437 91.9379L86.5834 92.1377L88.6404 89.8764L86.7437 91.9379ZM86.8935 91.7223L86.7437 91.9379L88.7874 89.6649L86.8935 91.7223Z" fill="#E7E7E7"/>
<path d="M65.21 142.127L65.3738 141.998L65.5262 141.854L65.21 142.127Z" fill="#010101"/>
<path d="M87.0323 91.4908L86.8935 91.7223L88.9241 89.4379L87.0323 91.4908Z" fill="#E7E7E7"/>
<path d="M65.21 142.127L65.5262 141.854L65.7967 141.525L65.21 142.127Z" fill="#010101"/>
<path d="M87.1609 91.2435L87.0323 91.4908L89.05 89.1953L87.1609 91.2435Z" fill="#E7E7E7"/>
<path d="M65.5262 141.854L65.6672 141.697L65.7967 141.525L65.5262 141.854ZM65.7967 141.525L65.9148 141.34L66.0215 141.14L65.7967 141.525ZM68.2145 127.463L67.9494 127.295L21.0571 99.0186L68.2145 127.463ZM68.7021 127.823L68.2145 127.463L21.0571 99.0186L68.7021 127.823ZM69.5062 128.636L68.7021 127.823L21.0571 99.0186L69.5062 128.636ZM70.4075 130.59L69.5062 128.636L21.0571 99.0186L70.4075 130.59Z" fill="#010101"/>
<path d="M70.0946 132.791L72.4186 129.718L72.5236 129.484L70.0946 132.791ZM70.201 132.554L72.5236 129.484L72.6111 129.25L70.201 132.554ZM41.9006 54.998L87.2407 78.7891L44.8216 53.8297L41.9006 54.998ZM70.2895 132.314L72.6111 129.25L72.6811 129.013L70.2895 132.314ZM70.3602 132.073L72.6811 129.013L72.7335 128.775L70.3602 132.073ZM70.0946 132.791L66.0215 141.14L72.4186 129.718L70.0946 132.791ZM70.413 131.831L72.7335 128.775L72.7683 128.535L70.413 131.831Z" fill="#E7E7E7"/>
<path d="M29.8645 73.9129L45.7078 28.7505L0.616944 103.052L29.8645 73.9129Z" fill="#010101"/>
<path d="M70.4484 131.586L72.7683 128.535L72.7855 128.294L70.4484 131.586Z" fill="#E7E7E7"/>
<path d="M65.21 142.127L65.7967 141.525L70.201 132.554L65.21 142.127Z" fill="#010101"/>
<path d="M68.2145 127.463L70.5896 124.51L70.3304 124.348L68.2145 127.463ZM70.4653 131.34L72.7855 128.294L72.7851 128.051L70.4653 131.34ZM68.4657 127.639L70.8351 124.681L70.5896 124.51L68.4657 127.639ZM70.4641 131.092L72.7851 128.051L72.767 127.806L70.4641 131.092ZM68.7021 127.823L71.0667 124.86L70.8351 124.681L68.7021 127.823ZM70.445 130.842L72.767 127.806L72.7312 127.56L70.445 130.842ZM68.9249 128.014L71.2843 125.046L71.0667 124.86L68.9249 128.014ZM70.4075 130.59L72.7312 127.56L72.6778 127.312L70.4075 130.59Z" fill="#E7E7E7"/>
<path d="M65.7967 141.525L66.0215 141.14L70.201 132.554L65.7967 141.525Z" fill="#010101"/>
<path d="M69.1331 128.214L71.4879 125.24L71.2843 125.046L69.1331 128.214ZM70.3526 130.337L72.6778 127.312L72.6067 127.063L70.3526 130.337ZM69.3269 128.421L71.6775 125.442L71.4879 125.24L69.3269 128.421ZM70.2794 130.082L72.6067 127.063L72.518 126.813L70.2794 130.082ZM69.5062 128.636L71.8529 125.651L71.6775 125.442L69.5062 128.636ZM70.1881 129.826L72.518 126.813L72.4133 126.565L70.1881 129.826ZM69.6716 128.859L72.0142 125.868L71.8529 125.651L69.6716 128.859ZM70.0807 129.573L72.4133 126.565L72.2944 126.325L70.0807 129.573ZM69.8224 129.089L72.1614 126.093L72.0142 125.868L69.8224 129.089ZM69.9587 129.327L72.2944 126.325L72.1614 126.093L69.9587 129.327ZM91.3907 82.4549L93.2111 80.5831L93.3267 80.325L91.3907 82.4549ZM91.5082 82.1912L93.3267 80.325L93.4231 80.0687L91.5082 82.1912ZM91.6061 81.9295L93.4231 80.0687L93.5001 79.8144L91.6061 81.9295ZM91.6842 81.6697L93.5001 79.8144L93.5578 79.5621L91.6842 81.6697ZM91.7427 81.4119L93.5578 79.5621L93.5962 79.3119L91.7427 81.4119ZM91.3907 82.4549L87.1609 91.2435L93.2111 80.5831L91.3907 82.4549ZM89.4879 77.1097L91.3588 75.3632L91.0913 75.216L89.4879 77.1097ZM91.7813 81.1561L93.5962 79.3119L93.6151 79.0637L91.7813 81.1561ZM44.1582 0.404645L47.1292 0.518512L46.8953 0.497068L44.1582 0.404645ZM89.7467 77.2711L91.6118 75.5202L91.3588 75.3632L89.7467 77.2711ZM91.8002 80.9024L93.6151 79.0637L93.6147 78.8176L91.8002 80.9024ZM91.7993 80.6507L93.6147 78.8176L93.5949 78.5737L91.7993 80.6507ZM89.9903 77.4423L91.8499 75.6868L91.6118 75.5202L89.9903 77.4423ZM44.3972 0.445704L47.3635 0.558619L47.1292 0.518512L44.3972 0.445704ZM91.7785 80.4011L93.5949 78.5737L93.5556 78.3319L91.7785 80.4011ZM90.2187 77.6234L92.0732 75.8631L91.8499 75.6868L90.2187 77.6234ZM70.201 132.554L70.0946 132.791L72.5236 129.484L70.201 132.554ZM91.7379 80.1537L93.5556 78.3319L93.4969 78.0923L91.7379 80.1537ZM90.432 77.8143L92.2817 76.0491L92.0732 75.8631L90.432 77.8143ZM44.6369 0.505901L47.5985 0.617402L47.3635 0.558619L44.6369 0.505901ZM91.6774 79.9084L93.4969 78.0923L93.4187 77.855L91.6774 79.9084ZM90.63 78.0151L92.4752 76.2447L92.2817 76.0491L90.63 78.0151ZM91.5971 79.6654L93.4187 77.855L93.3211 77.6198L91.5971 79.6654ZM90.8128 78.2256L92.6537 76.45L92.4752 76.2447L90.8128 78.2256ZM91.4969 79.4245L93.3211 77.6198L93.2177 77.3668L91.4969 79.4245ZM70.2895 132.314L70.201 132.554L72.6111 129.25L70.2895 132.314ZM90.9802 78.446L92.8172 76.6648L92.6537 76.45L90.9802 78.446ZM91.3908 79.1653L93.2177 77.3668L93.0993 77.1233L91.3908 79.1653ZM44.8774 0.58527L47.8342 0.694881L47.5985 0.617402L44.8774 0.58527ZM91.1324 78.676L92.9658 76.8893L92.8172 76.6648L91.1324 78.676ZM91.2693 78.9158L93.0993 77.1233L92.9658 76.8893L91.2693 78.9158ZM45.1186 0.683818L48.0706 0.79107L47.8342 0.694881L45.1186 0.683818ZM70.3602 132.073L70.2895 132.314L72.6811 129.013L70.3602 132.073ZM70.413 131.831L70.3602 132.073L72.7335 128.775L70.413 131.831ZM84.5896 94.3058L86.5834 92.1377L86.7437 91.9379L84.5896 94.3058Z" fill="#E7E7E7"/>
<path d="M66.0215 141.14L70.0946 132.791L70.201 132.554L66.0215 141.14Z" fill="#010101"/>
<path d="M70.4484 131.586L70.413 131.831L72.7683 128.535L70.4484 131.586Z" fill="#E7E7E7"/>
<path d="M65.21 142.127L70.201 132.554L70.4075 130.59L65.21 142.127Z" fill="#010101"/>
<path d="M67.9494 127.295L68.2145 127.463L70.3304 124.348L67.9494 127.295ZM84.7524 94.1022L86.7437 91.9379L86.8935 91.7223L84.7524 94.1022ZM70.4653 131.34L70.4484 131.586L72.7855 128.294L70.4653 131.34ZM70.4641 131.092L70.4653 131.34L72.7851 128.051L70.4641 131.092ZM68.2145 127.463L68.4657 127.639L70.5896 124.51L68.2145 127.463ZM84.9047 93.8824L86.8935 91.7223L87.0323 91.4908L84.9047 93.8824ZM70.445 130.842L70.4641 131.092L72.767 127.806L70.445 130.842ZM68.4657 127.639L68.7021 127.823L70.8351 124.681L68.4657 127.639ZM70.4075 130.59L70.445 130.842L72.7312 127.56L70.4075 130.59ZM68.7021 127.823L68.9249 128.014L71.0667 124.86L68.7021 127.823ZM70.3526 130.337L70.4075 130.59L72.6778 127.312L70.3526 130.337ZM85.046 93.6463L87.0323 91.4908L87.1609 91.2435L85.046 93.6463ZM68.9249 128.014L69.1331 128.214L71.2843 125.046L68.9249 128.014ZM70.2794 130.082L70.3526 130.337L72.6067 127.063L70.2794 130.082ZM69.1331 128.214L69.3269 128.421L71.4879 125.24L69.1331 128.214ZM70.1881 129.826L70.2794 130.082L72.518 126.813L70.1881 129.826ZM69.3269 128.421L69.5062 128.636L71.6775 125.442L69.3269 128.421ZM70.0807 129.573L70.1881 129.826L72.4133 126.565L70.0807 129.573ZM69.5062 128.636L69.6716 128.859L71.8529 125.651L69.5062 128.636ZM69.9587 129.327L70.0807 129.573L72.2944 126.325L69.9587 129.327ZM69.6716 128.859L69.8224 129.089L72.0142 125.868L69.6716 128.859ZM69.8224 129.089L69.9587 129.327L72.1614 126.093L69.8224 129.089ZM87.2407 78.7891L89.2139 76.9582L44.8216 53.8297L87.2407 78.7891ZM38.8367 56.2238L41.9006 54.998L51.8115 27.5566L38.8367 56.2238ZM91.5082 82.1912L91.3907 82.4549L93.3267 80.325L91.5082 82.1912ZM51.8115 27.5566L41.9006 54.998L54.6377 27.0038L51.8115 27.5566ZM91.6061 81.9295L91.5082 82.1912L93.4231 80.0687L91.6061 81.9295ZM91.6842 81.6697L91.6061 81.9295L93.5001 79.8144L91.6842 81.6697ZM91.7427 81.4119L91.6842 81.6697L93.5578 79.5621L91.7427 81.4119ZM91.7813 81.1561L91.7427 81.4119L93.5962 79.3119L91.7813 81.1561ZM89.2139 76.9582L89.4879 77.1097L91.0913 75.216L89.2139 76.9582ZM43.9197 0.382665L44.1582 0.404645L46.8953 0.497068L43.9197 0.382665ZM91.8002 80.9024L91.7813 81.1561L93.6151 79.0637L91.8002 80.9024ZM89.4879 77.1097L89.7467 77.2711L91.3588 75.3632L89.4879 77.1097ZM91.7993 80.6507L91.8002 80.9024L93.6147 78.8176L91.7993 80.6507ZM89.7467 77.2711L89.9903 77.4423L91.6118 75.5202L89.7467 77.2711ZM44.1582 0.404645L44.3972 0.445704L47.1292 0.518512L44.1582 0.404645ZM91.7785 80.4011L91.7993 80.6507L93.5949 78.5737L91.7785 80.4011ZM89.9903 77.4423L90.2187 77.6234L91.8499 75.6868L89.9903 77.4423ZM91.7379 80.1537L91.7785 80.4011L93.5556 78.3319L91.7379 80.1537ZM44.3972 0.445704L44.6369 0.505901L47.3635 0.558619L44.3972 0.445704ZM90.2187 77.6234L90.432 77.8143L92.0732 75.8631L90.2187 77.6234ZM91.6774 79.9084L91.7379 80.1537L93.4969 78.0923L91.6774 79.9084ZM90.432 77.8143L90.63 78.0151L92.2817 76.0491L90.432 77.8143ZM91.5971 79.6654L91.6774 79.9084L93.4187 77.855L91.5971 79.6654ZM91.4969 79.4245L91.5971 79.6654L93.3211 77.6198L91.4969 79.4245ZM90.63 78.0151L90.8128 78.2256L92.4752 76.2447L90.63 78.0151ZM44.6369 0.505901L44.8774 0.58527L47.5985 0.617402L44.6369 0.505901ZM91.3908 79.1653L91.4969 79.4245L93.2177 77.3668L91.3908 79.1653ZM90.8128 78.2256L90.9802 78.446L92.6537 76.45L90.8128 78.2256Z" fill="#E7E7E7"/>
<path d="M70.201 132.554L70.2895 132.314L70.3602 132.073L70.201 132.554Z" fill="#010101"/>
<path d="M91.2693 78.9158L91.3908 79.1653L93.0993 77.1233L91.2693 78.9158ZM90.9802 78.446L91.1324 78.676L92.8172 76.6648L90.9802 78.446ZM91.1324 78.676L91.2693 78.9158L92.9658 76.8893L91.1324 78.676ZM44.8774 0.58527L45.1186 0.683818L47.8342 0.694881L44.8774 0.58527Z" fill="#E7E7E7"/>
<path d="M70.201 132.554L70.3602 132.073L70.4484 131.586L70.201 132.554Z" fill="#010101"/>
<path d="M85.176 93.394L87.1609 91.2435L91.3907 82.4549L85.176 93.394Z" fill="#E7E7E7"/>
<path d="M70.3602 132.073L70.413 131.831L70.4484 131.586L70.3602 132.073ZM70.201 132.554L70.4484 131.586L70.4075 130.59L70.201 132.554Z" fill="#010101"/>
<path d="M84.7524 94.1022L84.5896 94.3058L86.7437 91.9379L84.7524 94.1022Z" fill="#E7E7E7"/>
<path d="M70.4484 131.586L70.4653 131.34L70.4641 131.092L70.4484 131.586Z" fill="#010101"/>
<path d="M84.9047 93.8824L84.7524 94.1022L86.8935 91.7223L84.9047 93.8824Z" fill="#E7E7E7"/>
<path d="M70.4484 131.586L70.4641 131.092L70.4075 130.59L70.4484 131.586ZM68.7021 127.823L68.4657 127.639L68.2145 127.463L68.7021 127.823ZM70.4641 131.092L70.445 130.842L70.4075 130.59L70.4641 131.092Z" fill="#010101"/>
<path d="M85.046 93.6463L84.9047 93.8824L87.0323 91.4908L85.046 93.6463Z" fill="#E7E7E7"/>
<path d="M69.1331 128.214L68.9249 128.014L68.7021 127.823L69.1331 128.214ZM70.4075 130.59L70.3526 130.337L70.2794 130.082L70.4075 130.59ZM69.5062 128.636L69.1331 128.214L68.7021 127.823L69.5062 128.636ZM70.4075 130.59L70.2794 130.082L70.0807 129.573L70.4075 130.59ZM70.4075 130.59L70.0807 129.573L69.5062 128.636L70.4075 130.59ZM69.5062 128.636L69.3269 128.421L69.1331 128.214L69.5062 128.636Z" fill="#010101"/>
<path d="M85.176 93.394L85.046 93.6463L87.1609 91.2435L85.176 93.394Z" fill="#E7E7E7"/>
<path d="M70.2794 130.082L70.1881 129.826L70.0807 129.573L70.2794 130.082ZM70.0807 129.573L69.8224 129.089L69.5062 128.636L70.0807 129.573ZM69.8224 129.089L69.6716 128.859L69.5062 128.636L69.8224 129.089ZM70.0807 129.573L69.9587 129.327L69.8224 129.089L70.0807 129.573Z" fill="#010101"/>
<path d="M48.0706 0.79107L116.417 31.2687L50.8828 0.893203L48.0706 0.79107ZM38.8367 56.2238L85.1651 80.7159L41.9006 54.998L38.8367 56.2238ZM89.477 84.4218L91.3907 82.4549L91.5082 82.1912L89.477 84.4218ZM89.5965 84.1525L91.5082 82.1912L91.6061 81.9295L89.5965 84.1525ZM89.6959 83.885L91.6061 81.9295L91.6842 81.6697L89.6959 83.885ZM89.7752 83.6195L91.6842 81.6697L91.7427 81.4119L89.7752 83.6195ZM89.8344 83.3559L91.7427 81.4119L91.7813 81.1561L89.8344 83.3559ZM89.477 84.4218L85.176 93.394L91.3907 82.4549L89.477 84.4218ZM87.5211 78.9452L89.4879 77.1097L89.2139 76.9582L87.5211 78.9452ZM89.8733 83.0943L91.7813 81.1561L91.8002 80.9024L89.8733 83.0943ZM41.0351 0.284989L44.1582 0.404645L43.9197 0.382665L41.0351 0.284989Z" fill="#E7E7E7"/>
<path d="M30.4514 2.54989L30.2251 3.17484L0.265349 100.41L30.4514 2.54989Z" fill="#010101"/>
<path d="M87.7857 79.1112L89.7467 77.2711L89.4879 77.1097L87.7857 79.1112ZM89.892 82.8347L91.8002 80.9024L91.7993 80.6507L89.892 82.8347ZM89.8904 82.5772L91.7993 80.6507L91.7785 80.4011L89.8904 82.5772ZM88.035 79.2873L89.9903 77.4423L89.7467 77.2711L88.035 79.2873ZM41.2788 0.327019L44.3972 0.445704L44.1582 0.404645L41.2788 0.327019ZM89.8687 82.3217L91.7785 80.4011L91.7379 80.1537L89.8687 82.3217ZM88.2688 79.4735L90.2187 77.6234L89.9903 77.4423L88.2688 79.4735ZM89.8266 82.0684L91.7379 80.1537L91.6774 79.9084L89.8266 82.0684ZM88.4871 79.6696L90.432 77.8143L90.2187 77.6234L88.4871 79.6696ZM41.5234 0.38871L44.6369 0.505901L44.3972 0.445704L41.5234 0.38871ZM89.7643 81.8172L91.6774 79.9084L91.5971 79.6654L89.7643 81.8172ZM88.6899 79.8758L90.63 78.0151L90.432 77.8143L88.6899 79.8758ZM89.6817 81.5681L91.5971 79.6654L91.4969 79.4245L89.6817 81.5681ZM88.8771 80.0919L90.8128 78.2256L90.63 78.0151L88.8771 80.0919ZM89.5788 81.3213L91.4969 79.4245L91.3908 79.1653L89.5788 81.3213ZM89.0487 80.318L90.9802 78.446L90.8128 78.2256L89.0487 80.318ZM89.4698 81.0557L91.3908 79.1653L91.2693 78.9158L89.4698 81.0557ZM41.7688 0.470063L44.8774 0.58527L44.6369 0.505901L41.7688 0.470063ZM89.2047 80.554L91.1324 78.676L90.9802 78.446L89.2047 80.554ZM89.3451 80.7999L91.2693 78.9158L91.1324 78.676L89.3451 80.7999ZM42.0151 0.571083L45.1186 0.683818L44.8774 0.58527L42.0151 0.571083ZM82.4931 96.5846L84.5896 94.3058L84.7524 94.1022L82.4931 96.5846Z" fill="#E7E7E7"/>
<path d="M45.7078 28.7505L33.7817 0L0.616944 103.052L45.7078 28.7505Z" fill="#010101"/>
<path d="M82.6594 96.3772L84.7524 94.1022L84.9047 93.8824L82.6594 96.3772Z" fill="#E7E7E7"/>
<path d="M33.7817 0L30.4514 2.54989L0.616944 103.052L33.7817 0Z" fill="#010101"/>
<path d="M82.8146 96.153L84.9047 93.8824L85.046 93.6463L82.8146 96.153ZM82.9584 95.9122L85.046 93.6463L85.176 93.394L82.9584 95.9122ZM85.1651 80.7159L87.2407 78.7891L41.9006 54.998L85.1651 80.7159ZM35.6184 57.5113L38.8367 56.2238L48.8389 28.1381L35.6184 57.5113ZM89.5965 84.1525L89.477 84.4218L91.5082 82.1912L89.5965 84.1525ZM48.8389 28.1381L38.8367 56.2238L51.8115 27.5566L48.8389 28.1381ZM89.6959 83.885L89.5965 84.1525L91.6061 81.9295L89.6959 83.885ZM89.7752 83.6195L89.6959 83.885L91.6842 81.6697L89.7752 83.6195Z" fill="#E7E7E7"/>
<path d="M29.8645 73.9129L80.1068 99.1774L35.6184 57.5113L29.8645 73.9129Z" fill="#010101"/>
<path d="M89.8344 83.3559L89.7752 83.6195L91.7427 81.4119L89.8344 83.3559ZM89.8733 83.0943L89.8344 83.3559L91.7813 81.1561L89.8733 83.0943ZM87.2407 78.7891L87.5211 78.9452L89.2139 76.9582L87.2407 78.7891ZM40.7924 0.26258L41.0351 0.284989L43.9197 0.382665L40.7924 0.26258ZM89.892 82.8347L89.8733 83.0943L91.8002 80.9024L89.892 82.8347ZM87.5211 78.9452L87.7857 79.1112L89.4879 77.1097L87.5211 78.9452ZM89.8904 82.5772L89.892 82.8347L91.7993 80.6507L89.8904 82.5772ZM87.7857 79.1112L88.035 79.2873L89.7467 77.2711L87.7857 79.1112ZM41.0351 0.284989L41.2788 0.327019L44.1582 0.404645L41.0351 0.284989ZM89.8687 82.3217L89.8904 82.5772L91.7785 80.4011L89.8687 82.3217ZM88.035 79.2873L88.2688 79.4735L89.9903 77.4423L88.035 79.2873ZM89.8266 82.0684L89.8687 82.3217L91.7379 80.1537L89.8266 82.0684ZM41.2788 0.327019L41.5234 0.38871L44.3972 0.445704L41.2788 0.327019ZM88.2688 79.4735L88.4871 79.6696L90.2187 77.6234L88.2688 79.4735ZM89.7643 81.8172L89.8266 82.0684L91.6774 79.9084L89.7643 81.8172ZM88.4871 79.6696L88.6899 79.8758L90.432 77.8143L88.4871 79.6696ZM89.6817 81.5681L89.7643 81.8172L91.5971 79.6654L89.6817 81.5681ZM89.5788 81.3213L89.6817 81.5681L91.4969 79.4245L89.5788 81.3213ZM88.6899 79.8758L88.8771 80.0919L90.63 78.0151L88.6899 79.8758ZM41.5234 0.38871L41.7688 0.470063L44.6369 0.505901L41.5234 0.38871ZM89.4698 81.0557L89.5788 81.3213L91.3908 79.1653L89.4698 81.0557ZM88.8771 80.0919L89.0487 80.318L90.8128 78.2256L88.8771 80.0919ZM89.3451 80.7999L89.4698 81.0557L91.2693 78.9158L89.3451 80.7999ZM89.0487 80.318L89.2047 80.554L90.9802 78.446L89.0487 80.318ZM89.2047 80.554L89.3451 80.7999L91.1324 78.676L89.2047 80.554ZM41.7688 0.470063L42.0151 0.571083L44.8774 0.58527L41.7688 0.470063ZM83.0909 95.6547L85.176 93.394L89.477 84.4218L83.0909 95.6547ZM82.6594 96.3772L82.4931 96.5846L84.7524 94.1022L82.6594 96.3772ZM82.8146 96.153L82.6594 96.3772L84.9047 93.8824L82.8146 96.153ZM82.9584 95.9122L82.8146 96.153L85.046 93.6463L82.9584 95.9122Z" fill="#E7E7E7"/>
<path d="M29.8645 73.9129L35.6184 57.5113L45.7078 28.7505L29.8645 73.9129Z" fill="#010101"/>
<path d="M83.0909 95.6547L82.9584 95.9122L85.176 93.394L83.0909 95.6547ZM116.417 31.2687L117.717 30.5913L50.8828 0.893203L116.417 31.2687Z" fill="#E7E7E7"/>
<path d="M29.8645 73.9129L75.2657 99.3475L75.5527 99.5006L29.8645 73.9129ZM29.8645 73.9129L75.5527 99.5006L76.1181 99.756L29.8645 73.9129Z" fill="#010101"/>
<path d="M112.231 49.6537L113.604 48.5294L113.801 48.344L112.231 49.6537ZM112.432 49.4642L113.801 48.344L113.986 48.1445L112.432 49.4642ZM112.621 49.2602L113.986 48.1445L114.159 47.931L112.621 49.2602ZM45.1186 0.683818L115.046 31.9832L48.0706 0.79107L45.1186 0.683818ZM112.798 49.0417L114.159 47.931L114.319 47.7033L112.798 49.0417ZM112.962 48.8087L114.319 47.7033L114.467 47.4615L112.962 48.8087Z" fill="#E7E7E7"/>
<path d="M29.8645 73.9129L76.1181 99.756L80.1068 99.1774L29.8645 73.9129Z" fill="#010101"/>
<path d="M113.113 48.561L114.467 47.4615L114.604 47.2054L113.113 48.561ZM35.6184 57.5113L82.9779 82.746L38.8367 56.2238L35.6184 57.5113ZM87.4641 86.4913L89.477 84.4218L89.5965 84.1525L87.4641 86.4913ZM87.5856 86.2161L89.5965 84.1525L89.6959 83.885L87.5856 86.2161ZM87.6866 85.9427L89.6959 83.885L89.7752 83.6195L87.6866 85.9427ZM112.432 49.4642L112.231 49.6537L113.801 48.344L112.432 49.4642ZM87.767 85.6712L89.7752 83.6195L89.8344 83.3559L87.767 85.6712ZM112.621 49.2602L112.432 49.4642L113.986 48.1445L112.621 49.2602ZM87.8269 85.4016L89.8344 83.3559L89.8733 83.0943L87.8269 85.4016ZM113.252 48.299L114.604 47.2054L119.843 36.5795L113.252 48.299ZM87.4641 86.4913L83.0909 95.6547L89.477 84.4218L87.4641 86.4913ZM112.798 49.0417L112.621 49.2602L114.159 47.931L112.798 49.0417ZM85.4519 80.8766L87.5211 78.9452L87.2407 78.7891L85.4519 80.8766ZM87.8661 85.1339L89.8733 83.0943L89.892 82.8347L87.8661 85.1339ZM37.7491 0.159026L41.0351 0.284989L40.7924 0.26258L37.7491 0.159026ZM85.7229 81.0477L87.7857 79.1112L87.5211 78.9452L85.7229 81.0477ZM87.8846 84.8682L89.892 82.8347L89.8904 82.5772L87.8846 84.8682ZM112.962 48.8087L112.798 49.0417L114.319 47.7033L112.962 48.8087ZM87.8825 84.6045L89.8904 82.5772L89.8687 82.3217L87.8825 84.6045ZM85.9781 81.2289L88.035 79.2873L87.7857 79.1112L85.9781 81.2289ZM37.9978 0.202128L41.2788 0.327019L41.0351 0.284989L37.9978 0.202128ZM87.8596 84.3429L89.8687 82.3217L89.8266 82.0684L87.8596 84.3429ZM86.2176 81.4204L88.2688 79.4735L88.035 79.2873L86.2176 81.4204ZM113.113 48.561L112.962 48.8087L114.467 47.4615L113.113 48.561ZM87.8161 84.0833L89.8266 82.0684L89.7643 81.8172L87.8161 84.0833ZM86.4412 81.6221L88.4871 79.6696L88.2688 79.4735L86.4412 81.6221ZM38.2475 0.265381L41.5234 0.38871L41.2788 0.327019L38.2475 0.265381ZM87.7518 83.8259L89.7643 81.8172L89.6817 81.5681L87.7518 83.8259ZM86.649 81.8339L88.6899 79.8758L88.4871 79.6696L86.649 81.8339ZM87.6668 83.5706L89.6817 81.5681L89.5788 81.3213L87.6668 83.5706ZM86.8409 82.056L88.8771 80.0919L88.6899 79.8758L86.8409 82.056ZM87.561 83.3174L89.5788 81.3213L89.4698 81.0557L87.561 83.3174ZM87.0168 82.2881L89.0487 80.318L88.8771 80.0919L87.0168 82.2881ZM87.449 83.0451L89.4698 81.0557L89.3451 80.7999L87.449 83.0451ZM38.4982 0.348818L41.7688 0.470063L41.5234 0.38871L38.4982 0.348818ZM87.1768 82.5303L89.2047 80.554L89.0487 80.318L87.1768 82.5303ZM87.3209 82.7827L89.3451 80.7999L89.2047 80.554L87.3209 82.7827ZM113.252 48.299L113.113 48.561L114.604 47.2054L113.252 48.299ZM38.7498 0.452445L42.0151 0.571083L41.7688 0.470063L38.7498 0.452445ZM80.2875 98.9829L82.4931 96.5846L82.6594 96.3772L80.2875 98.9829ZM80.4568 98.7714L82.6594 96.3772L82.8146 96.153L80.4568 98.7714ZM80.6146 98.5427L82.8146 96.153L82.9584 95.9122L80.6146 98.5427ZM80.7609 98.297L82.9584 95.9122L83.0909 95.6547L80.7609 98.297ZM82.9779 82.746L85.1651 80.7159L38.8367 56.2238L82.9779 82.746ZM87.5856 86.2161L87.4641 86.4913L89.5965 84.1525L87.5856 86.2161ZM45.7078 28.7505L35.6184 57.5113L48.8389 28.1381L45.7078 28.7505ZM87.6866 85.9427L87.5856 86.2161L89.6959 83.885L87.6866 85.9427ZM87.767 85.6712L87.6866 85.9427L89.7752 83.6195L87.767 85.6712ZM87.8269 85.4016L87.767 85.6712L89.8344 83.3559L87.8269 85.4016ZM87.8661 85.1339L87.8269 85.4016L89.8733 83.0943L87.8661 85.1339ZM85.1651 80.7159L85.4519 80.8766L87.2407 78.7891L85.1651 80.7159ZM37.5014 0.136061L37.7491 0.159026L40.7924 0.26258L37.5014 0.136061ZM87.8846 84.8682L87.8661 85.1339L89.892 82.8347L87.8846 84.8682ZM85.4519 80.8766L85.7229 81.0477L87.5211 78.9452L85.4519 80.8766ZM87.8825 84.6045L87.8846 84.8682L89.8904 82.5772L87.8825 84.6045ZM85.7229 81.0477L85.9781 81.2289L87.7857 79.1112L85.7229 81.0477ZM37.7491 0.159026L37.9978 0.202128L41.0351 0.284989L37.7491 0.159026ZM87.8596 84.3429L87.8825 84.6045L89.8687 82.3217L87.8596 84.3429ZM85.9781 81.2289L86.2176 81.4204L88.035 79.2873L85.9781 81.2289ZM87.8161 84.0833L87.8596 84.3429L89.8266 82.0684L87.8161 84.0833ZM37.9978 0.202128L38.2475 0.265381L41.2788 0.327019L37.9978 0.202128ZM86.2176 81.4204L86.4412 81.6221L88.2688 79.4735L86.2176 81.4204ZM87.7518 83.8259L87.8161 84.0833L89.7643 81.8172L87.7518 83.8259ZM86.4412 81.6221L86.649 81.8339L88.4871 79.6696L86.4412 81.6221ZM87.6668 83.5706L87.7518 83.8259L89.6817 81.5681L87.6668 83.5706ZM87.561 83.3174L87.6668 83.5706L89.5788 81.3213L87.561 83.3174ZM86.649 81.8339L86.8409 82.056L88.6899 79.8758L86.649 81.8339ZM38.2475 0.265381L38.4982 0.348818L41.5234 0.38871L38.2475 0.265381Z" fill="#E7E7E7"/>
<path d="M75.5527 99.5006L75.837 99.6367L76.1181 99.756L75.5527 99.5006Z" fill="#010101"/>
<path d="M87.449 83.0451L87.561 83.3174L89.4698 81.0557L87.449 83.0451ZM86.8409 82.056L87.0168 82.2881L88.8771 80.0919L86.8409 82.056ZM87.3209 82.7827L87.449 83.0451L89.3451 80.7999L87.3209 82.7827ZM87.0168 82.2881L87.1768 82.5303L89.0487 80.318L87.0168 82.2881ZM87.1768 82.5303L87.3209 82.7827L89.2047 80.554L87.1768 82.5303ZM38.4982 0.348818L38.7498 0.452445L41.7688 0.470063L38.4982 0.348818Z" fill="#E7E7E7"/>
<path d="M76.1181 99.756L76.3966 99.8583L76.6722 99.9435L76.1181 99.756Z" fill="#010101"/>
<path d="M80.8958 98.034L83.0909 95.6547L87.4641 86.4913L80.8958 98.034Z" fill="#E7E7E7"/>
<path d="M76.1181 99.756L76.6722 99.9435L77.2149 100.063L76.1181 99.756Z" fill="#010101"/>
<path d="M80.4568 98.7714L80.2875 98.9829L82.6594 96.3772L80.4568 98.7714Z" fill="#E7E7E7"/>
<path d="M76.6722 99.9435L76.945 100.012L77.2149 100.063L76.6722 99.9435Z" fill="#010101"/>
<path d="M80.6146 98.5427L80.4568 98.7714L82.8146 96.153L80.6146 98.5427Z" fill="#E7E7E7"/>
<path d="M76.1181 99.756L77.2149 100.063L78.2665 100.097L76.1181 99.756Z" fill="#010101"/>
<path d="M80.7609 98.297L80.6146 98.5427L82.9584 95.9122L80.7609 98.297Z" fill="#E7E7E7"/>
<path d="M77.2149 100.063L77.4815 100.097L77.7458 100.114L77.2149 100.063Z" fill="#010101"/>
<path d="M80.8958 98.034L80.7609 98.297L83.0909 95.6547L80.8958 98.034Z" fill="#E7E7E7"/>
<path d="M77.2149 100.063L77.7458 100.114L78.2665 100.097L77.2149 100.063Z" fill="#010101"/>
<path d="M118.602 37.414L119.843 36.5795L119.981 36.2792L118.602 37.414ZM115.046 31.9832L116.417 31.2687L48.0706 0.79107L115.046 31.9832Z" fill="#E7E7E7"/>
<path d="M77.7458 100.114L78.0077 100.114L78.2665 100.097L77.7458 100.114Z" fill="#010101"/>
<path d="M118.743 37.1062L119.981 36.2792L120.098 35.9805L118.743 37.1062ZM118.864 36.7999L120.098 35.9805L120.196 35.6833L118.864 36.7999Z" fill="#E7E7E7"/>
<path d="M76.1181 99.756L78.2665 100.097L80.1068 99.1774L76.1181 99.756ZM80.1068 99.1774L85.6308 85.9426L35.6184 57.5113L80.1068 99.1774ZM78.2665 100.097L78.5224 100.063L78.7828 99.9871L78.2665 100.097Z" fill="#010101"/>
<path d="M118.963 36.4953L120.196 35.6833L120.273 35.3878L118.963 36.4953ZM118.602 37.414L113.252 48.299L119.843 36.5795L118.602 37.414ZM119.041 36.1923L120.273 35.3878L120.329 35.0939L119.041 36.1923Z" fill="#E7E7E7"/>
<path d="M78.2665 100.097L78.7828 99.9871L79.2691 99.7851L78.2665 100.097Z" fill="#010101"/>
<path d="M119.098 35.8908L120.329 35.0939L120.364 34.8017L119.098 35.8908ZM116.72 31.4138L118.013 30.7324L117.717 30.5913L116.72 31.4138ZM110.785 50.8378L112.231 49.6537L112.432 49.4642L110.785 50.8378Z" fill="#E7E7E7"/>
<path d="M78.7828 99.9871L79.0314 99.8946L79.2691 99.7851L78.7828 99.9871Z" fill="#010101"/>
<path d="M119.134 35.5913L120.364 34.8017L120.378 34.5113L119.134 35.5913ZM117.005 31.5715L118.291 30.8858L118.013 30.7324L117.005 31.5715ZM119.148 35.2934L120.378 34.5113L120.372 34.2227L119.148 35.2934ZM117.274 31.7416L118.553 31.0513L118.291 30.8858L117.274 31.7416ZM110.991 50.644L112.432 49.4642L112.621 49.2602L110.991 50.644ZM119.142 34.9973L120.372 34.2227L120.346 33.9358L119.142 34.9973Z" fill="#E7E7E7"/>
<path d="M78.2665 100.097L79.2691 99.7851L80.1068 99.1774L78.2665 100.097Z" fill="#010101"/>
<path d="M117.524 31.9241L118.797 31.2289L118.553 31.0513L117.524 31.9241ZM119.114 34.7029L120.346 33.9358L120.298 33.6507L119.114 34.7029ZM117.758 32.1192L119.025 31.4187L118.797 31.2289L117.758 32.1192ZM119.065 34.4104L120.298 33.6507L120.23 33.3675L119.065 34.4104ZM111.184 50.4351L112.621 49.2602L112.798 49.0417L111.184 50.4351ZM117.974 32.3266L119.236 31.6207L119.025 31.4187L117.974 32.3266ZM118.995 34.1199L120.23 33.3675L120.141 33.0863L118.995 34.1199Z" fill="#E7E7E7"/>
<path d="M79.2691 99.7851L79.4959 99.6586L79.711 99.5152L79.2691 99.7851Z" fill="#010101"/>
<path d="M118.174 32.5465L119.43 31.8348L119.236 31.6207L118.174 32.5465ZM118.904 33.8312L120.141 33.0863L120.033 32.812L118.904 33.8312ZM118.355 32.7788L119.607 32.061L119.43 31.8348L118.355 32.7788ZM118.793 33.5497L120.033 32.812L119.908 32.5496L118.793 33.5497ZM118.518 33.0234L119.766 32.2993L119.607 32.061L118.518 33.0234ZM118.664 33.2804L119.908 32.5496L119.766 32.2993L118.664 33.2804ZM111.365 50.2114L112.798 49.0417L112.962 48.8087L111.365 50.2114ZM42.0151 0.571083L113.599 32.7376L45.1186 0.683818L42.0151 0.571083Z" fill="#E7E7E7"/>
<path d="M79.2691 99.7851L79.711 99.5152L80.1068 99.1774L79.2691 99.7851Z" fill="#010101"/>
<path d="M111.532 49.9729L112.962 48.8087L113.113 48.561L111.532 49.9729Z" fill="#E7E7E7"/>
<path d="M79.711 99.5152L79.914 99.3549L80.1068 99.1774L79.711 99.5152Z" fill="#010101"/>
<path d="M111.687 49.7194L113.113 48.561L113.252 48.299L111.687 49.7194Z" fill="#E7E7E7"/>
<path d="M80.1068 99.1774L80.2875 98.9829L80.4568 98.7714L80.1068 99.1774ZM80.1068 99.1774L80.4568 98.7714L80.7609 98.297L80.1068 99.1774ZM80.4568 98.7714L80.6146 98.5427L80.7609 98.297L80.4568 98.7714Z" fill="#010101"/>
<path d="M118.743 37.1062L118.602 37.414L119.981 36.2792L118.743 37.1062Z" fill="#E7E7E7"/>
<path d="M83.2714 82.9119L82.9779 82.746L35.6184 57.5113L83.2714 82.9119Z" fill="#010101"/>
<path d="M118.864 36.7999L118.743 37.1062L120.098 35.9805L118.864 36.7999Z" fill="#E7E7E7"/>
<path d="M83.8104 83.2749L83.2714 82.9119L35.6184 57.5113L83.8104 83.2749Z" fill="#010101"/>
<path d="M118.963 36.4953L118.864 36.7999L120.196 35.6833L118.963 36.4953Z" fill="#E7E7E7"/>
<path d="M84.6948 84.1257L83.8104 83.2749L35.6184 57.5113L84.6948 84.1257ZM85.6308 85.9426L84.6948 84.1257L35.6184 57.5113L85.6308 85.9426Z" fill="#010101"/>
<path d="M119.041 36.1923L118.963 36.4953L120.273 35.3878L119.041 36.1923ZM85.343 88.6718L87.4641 86.4913L87.5856 86.2161L85.343 88.6718ZM119.098 35.8908L119.041 36.1923L120.329 35.0939L119.098 35.8908ZM85.4666 88.3904L87.5856 86.2161L87.6866 85.9427L85.4666 88.3904ZM116.417 31.2687L116.72 31.4138L117.717 30.5913L116.417 31.2687ZM119.134 35.5913L119.098 35.8908L120.364 34.8017L119.134 35.5913ZM85.5692 88.1108L87.6866 85.9427L87.767 85.6712L85.5692 88.1108ZM119.148 35.2934L119.134 35.5913L120.378 34.5113L119.148 35.2934ZM116.72 31.4138L117.005 31.5715L118.013 30.7324L116.72 31.4138ZM110.991 50.644L110.785 50.8378L112.432 49.4642L110.991 50.644ZM119.142 34.9973L119.148 35.2934L120.372 34.2227L119.142 34.9973ZM117.005 31.5715L117.274 31.7416L118.291 30.8858L117.005 31.5715ZM85.6509 87.833L87.767 85.6712L87.8269 85.4016L85.6509 87.833ZM119.114 34.7029L119.142 34.9973L120.346 33.9358L119.114 34.7029ZM117.274 31.7416L117.524 31.9241L118.553 31.0513L117.274 31.7416ZM111.184 50.4351L110.991 50.644L112.621 49.2602L111.184 50.4351ZM119.065 34.4104L119.114 34.7029L120.298 33.6507L119.065 34.4104ZM117.524 31.9241L117.758 32.1192L118.797 31.2289L117.524 31.9241ZM85.7114 87.5571L87.8269 85.4016L87.8661 85.1339L85.7114 87.5571ZM111.829 49.4509L113.252 48.299L118.602 37.414L111.829 49.4509ZM118.995 34.1199L119.065 34.4104L120.23 33.3675L118.995 34.1199ZM117.758 32.1192L117.974 32.3266L119.025 31.4187L117.758 32.1192ZM118.904 33.8312L118.995 34.1199L120.141 33.0863L118.904 33.8312ZM85.343 88.6718L80.8958 98.034L87.4641 86.4913L85.343 88.6718ZM117.974 32.3266L118.174 32.5465L119.236 31.6207L117.974 32.3266ZM111.365 50.2114L111.184 50.4351L112.798 49.0417L111.365 50.2114ZM83.2714 82.9119L85.4519 80.8766L85.1651 80.7159L83.2714 82.9119ZM85.7508 87.2831L87.8661 85.1339L87.8846 84.8682L85.7508 87.2831ZM118.793 33.5497L118.904 33.8312L120.033 32.812L118.793 33.5497ZM118.174 32.5465L118.355 32.7788L119.43 31.8348L118.174 32.5465ZM118.664 33.2804L118.793 33.5497L119.908 32.5496L118.664 33.2804ZM118.355 32.7788L118.518 33.0234L119.607 32.061L118.355 32.7788ZM118.518 33.0234L118.664 33.2804L119.766 32.2993L118.518 33.0234ZM34.2863 0.0263759L37.7491 0.159026L37.5014 0.136061L34.2863 0.0263759ZM83.5489 83.0882L85.7229 81.0477L85.4519 80.8766L83.5489 83.0882ZM85.7692 87.011L87.8846 84.8682L87.8825 84.6045L85.7692 87.011ZM111.532 49.9729L111.365 50.2114L112.962 48.8087L111.532 49.9729ZM85.7663 86.7408L87.8825 84.6045L87.8596 84.3429L85.7663 86.7408ZM83.8104 83.2749L85.9781 81.2289L85.7229 81.0477L83.8104 83.2749ZM34.5402 0.0705771L37.9978 0.202128L37.7491 0.159026L34.5402 0.0705771ZM85.7423 86.4727L87.8596 84.3429L87.8161 84.0833L85.7423 86.4727ZM84.0557 83.4721L86.2176 81.4204L85.9781 81.2289L84.0557 83.4721ZM111.687 49.7194L111.532 49.9729L113.113 48.561L111.687 49.7194ZM85.6971 86.2066L87.8161 84.0833L87.7518 83.8259L85.6971 86.2066ZM84.2849 83.6796L86.4412 81.6221L86.2176 81.4204L84.2849 83.6796ZM34.7952 0.135478L38.2475 0.265381L37.9978 0.202128L34.7952 0.135478ZM85.6308 85.9426L87.7518 83.8259L87.6668 83.5706L85.6308 85.9426ZM84.4979 83.8975L86.649 81.8339L86.4412 81.6221L84.4979 83.8975ZM85.5432 85.6807L87.6668 83.5706L87.561 83.3174L85.5432 85.6807ZM84.6948 84.1257L86.8409 82.056L86.649 81.8339L84.6948 84.1257ZM85.4344 85.421L87.561 83.3174L87.449 83.0451L85.4344 85.421ZM84.8753 84.3642L87.0168 82.2881L86.8409 82.056L84.8753 84.3642Z" fill="#E7E7E7"/>
<path d="M80.1068 99.1774L80.7609 98.297L85.5692 88.1108L80.1068 99.1774Z" fill="#010101"/>
<path d="M85.3193 85.1415L87.449 83.0451L87.3209 82.7827L85.3193 85.1415ZM35.0515 0.221086L38.4982 0.348818L38.2475 0.265381L35.0515 0.221086ZM85.0397 84.6131L87.1768 82.5303L87.0168 82.2881L85.0397 84.6131ZM85.1877 84.8722L87.3209 82.7827L87.1768 82.5303L85.1877 84.8722ZM111.829 49.4509L111.687 49.7194L113.252 48.299L111.829 49.4509ZM35.3085 0.327454L38.7498 0.452445L38.4982 0.348818L35.3085 0.327454Z" fill="#E7E7E7"/>
<path d="M80.7609 98.297L80.8958 98.034L85.343 88.6718L80.7609 98.297Z" fill="#010101"/>
<path d="M85.4666 88.3904L85.343 88.6718L87.5856 86.2161L85.4666 88.3904Z" fill="#E7E7E7"/>
<path d="M30.4514 2.54989L30.3321 2.85417L30.2251 3.17484L30.4514 2.54989Z" fill="#010101"/>
<path d="M85.5692 88.1108L85.4666 88.3904L87.6866 85.9427L85.5692 88.1108ZM85.6509 87.833L85.5692 88.1108L87.767 85.6712L85.6509 87.833ZM85.7114 87.5571L85.6509 87.833L87.8269 85.4016L85.7114 87.5571Z" fill="#E7E7E7"/>
<path d="M30.7249 1.99063L30.5822 2.26204L30.4514 2.54989L30.7249 1.99063Z" fill="#010101"/>
<path d="M85.7508 87.2831L85.7114 87.5571L87.8661 85.1339L85.7508 87.2831ZM82.9779 82.746L83.2714 82.9119L85.1651 80.7159L82.9779 82.746Z" fill="#E7E7E7"/>
<path d="M80.7609 98.297L85.343 88.6718L85.5692 88.1108L80.7609 98.297ZM31.0458 1.49721L30.7249 1.99063L30.4514 2.54989L31.0458 1.49721Z" fill="#010101"/>
<path d="M34.0333 0.00289492L34.2863 0.0263759L37.5014 0.136061L34.0333 0.00289492ZM85.7692 87.011L85.7508 87.2831L87.8846 84.8682L85.7692 87.011ZM83.2714 82.9119L83.5489 83.0882L85.4519 80.8766L83.2714 82.9119ZM85.7663 86.7408L85.7692 87.011L87.8825 84.6045L85.7663 86.7408Z" fill="#E7E7E7"/>
<path d="M80.1068 99.1774L85.5692 88.1108L85.6308 85.9426L80.1068 99.1774Z" fill="#010101"/>
<path d="M83.5489 83.0882L83.8104 83.2749L85.7229 81.0477L83.5489 83.0882ZM34.2863 0.0263759L34.5402 0.0705771L37.7491 0.159026L34.2863 0.0263759Z" fill="#E7E7E7"/>
<path d="M31.0458 1.49721L30.8795 1.73564L30.7249 1.99063L31.0458 1.49721Z" fill="#010101"/>
<path d="M85.7423 86.4727L85.7663 86.7408L87.8596 84.3429L85.7423 86.4727ZM83.8104 83.2749L84.0557 83.4721L85.9781 81.2289L83.8104 83.2749ZM85.6971 86.2066L85.7423 86.4727L87.8161 84.0833L85.6971 86.2066ZM34.5402 0.0705771L34.7952 0.135478L37.9978 0.202128L34.5402 0.0705771ZM84.0557 83.4721L84.2849 83.6796L86.2176 81.4204L84.0557 83.4721ZM85.6308 85.9426L85.6971 86.2066L87.7518 83.8259L85.6308 85.9426ZM84.2849 83.6796L84.4979 83.8975L86.4412 81.6221L84.2849 83.6796ZM85.5432 85.6807L85.6308 85.9426L87.6668 83.5706L85.5432 85.6807Z" fill="#E7E7E7"/>
<path d="M31.8308 0.708934L31.0458 1.49721L30.4514 2.54989L31.8308 0.708934Z" fill="#010101"/>
<path d="M85.4344 85.421L85.5432 85.6807L87.561 83.3174L85.4344 85.421ZM84.4979 83.8975L84.6948 84.1257L86.649 81.8339L84.4979 83.8975ZM34.7952 0.135478L35.0515 0.221086L38.2475 0.265381L34.7952 0.135478ZM85.3193 85.1415L85.4344 85.421L87.449 83.0451L85.3193 85.1415ZM84.6948 84.1257L84.8753 84.3642L86.8409 82.056L84.6948 84.1257ZM85.1877 84.8722L85.3193 85.1415L87.3209 82.7827L85.1877 84.8722ZM84.8753 84.3642L85.0397 84.6131L87.0168 82.2881L84.8753 84.3642ZM85.0397 84.6131L85.1877 84.8722L87.1768 82.5303L85.0397 84.6131ZM35.0515 0.221086L35.3085 0.327454L38.4982 0.348818L35.0515 0.221086Z" fill="#E7E7E7"/>
<path d="M31.4144 1.06993L31.2241 1.27529L31.0458 1.49721L31.4144 1.06993ZM31.8308 0.708934L31.4144 1.06993L31.0458 1.49721L31.8308 0.708934ZM31.8308 0.708934L31.6166 0.881155L31.4144 1.06993L31.8308 0.708934ZM33.7817 0L31.8308 0.708934L30.4514 2.54989L33.7817 0ZM32.2952 0.41459L32.057 0.553452L31.8308 0.708934L32.2952 0.41459Z" fill="#010101"/>
<path d="M117.295 38.2938L118.602 37.414L118.743 37.1062L117.295 38.2938Z" fill="#E7E7E7"/>
<path d="M32.7858 0.194388L32.2952 0.41459L31.8308 0.708934L32.7858 0.194388Z" fill="#010101"/>
<path d="M113.599 32.7376L115.046 31.9832L45.1186 0.683818L113.599 32.7376ZM117.439 37.9782L118.743 37.1062L118.864 36.7999L117.439 37.9782Z" fill="#E7E7E7"/>
<path d="M32.7858 0.194388L32.5403 0.294277L32.2952 0.41459L32.7858 0.194388Z" fill="#010101"/>
<path d="M117.561 37.6641L118.864 36.7999L118.963 36.4953L117.561 37.6641Z" fill="#E7E7E7"/>
<path d="M33.7817 0L32.7858 0.194388L31.8308 0.708934L33.7817 0Z" fill="#010101"/>
<path d="M117.663 37.3514L118.963 36.4953L119.041 36.1923L117.663 37.3514Z" fill="#E7E7E7"/>
<path d="M33.2816 0.0560757L33.0333 0.114966L32.7858 0.194388L33.2816 0.0560757Z" fill="#010101"/>
<path d="M117.295 38.2938L111.829 49.4509L118.602 37.414L117.295 38.2938Z" fill="#E7E7E7"/>
<path d="M85.343 88.6718L85.4666 88.3904L85.5692 88.1108L85.343 88.6718Z" fill="#010101"/>
<path d="M117.742 37.0406L119.041 36.1923L119.098 35.8908L117.742 37.0406Z" fill="#E7E7E7"/>
<path d="M33.7817 0L33.2816 0.0560757L32.7858 0.194388L33.7817 0Z" fill="#010101"/>
<path d="M117.8 36.7313L119.098 35.8908L119.134 35.5913L117.8 36.7313ZM115.357 32.1325L116.72 31.4138L116.417 31.2687L115.357 32.1325ZM109.26 52.0866L110.785 50.8378L110.991 50.644L109.26 52.0866ZM117.837 36.4238L119.134 35.5913L119.148 35.2934L117.837 36.4238Z" fill="#E7E7E7"/>
<path d="M33.7817 0L33.5314 0.0177448L33.2816 0.0560757L33.7817 0Z" fill="#010101"/>
<path d="M115.649 32.2947L117.005 31.5715L116.72 31.4138L115.649 32.2947Z" fill="#E7E7E7"/>
<path d="M85.5692 88.1108L85.6509 87.833L85.7114 87.5571L85.5692 88.1108Z" fill="#010101"/>
<path d="M117.852 36.1181L119.148 35.2934L119.142 34.9973L117.852 36.1181ZM115.925 32.4696L117.274 31.7416L117.005 31.5715L115.925 32.4696ZM109.471 51.8881L110.991 50.644L111.184 50.4351L109.471 51.8881ZM117.844 35.8141L119.142 34.9973L119.114 34.7029L117.844 35.8141Z" fill="#E7E7E7"/>
<path d="M85.5692 88.1108L85.7114 87.5571L85.7692 87.011L85.5692 88.1108Z" fill="#010101"/>
<path d="M116.182 32.6574L117.524 31.9241L117.274 31.7416L116.182 32.6574ZM117.815 35.512L119.114 34.7029L119.065 34.4104L117.815 35.512ZM116.422 32.8579L117.758 32.1192L117.524 31.9241L116.422 32.8579ZM117.764 35.2118L119.065 34.4104L118.995 34.1199L117.764 35.2118Z" fill="#E7E7E7"/>
<path d="M85.7114 87.5571L85.7508 87.2831L85.7692 87.011L85.7114 87.5571ZM34.2863 0.0263759L34.0333 0.00289492L33.7817 0L34.2863 0.0263759Z" fill="#010101"/>
<path d="M109.668 51.6744L111.184 50.4351L111.365 50.2114L109.668 51.6744ZM116.644 33.0712L117.974 32.3266L117.758 32.1192L116.644 33.0712Z" fill="#E7E7E7"/>
<path d="M85.5692 88.1108L85.7692 87.011L85.6308 85.9426L85.5692 88.1108Z" fill="#010101"/>
<path d="M117.692 34.9133L118.995 34.1199L118.904 33.8312L117.692 34.9133ZM116.848 33.2971L118.174 32.5465L117.974 32.3266L116.848 33.2971ZM117.598 34.6169L118.904 33.8312L118.793 33.5497L117.598 34.6169ZM117.034 33.5358L118.355 32.7788L118.174 32.5465L117.034 33.5358ZM117.484 34.3277L118.793 33.5497L118.664 33.2804L117.484 34.3277ZM117.202 33.7871L118.518 33.0234L118.355 32.7788L117.202 33.7871ZM117.352 34.0511L118.664 33.2804L118.518 33.0234L117.352 34.0511Z" fill="#E7E7E7"/>
<path d="M34.7952 0.135478L34.2863 0.0263759L33.7817 0L34.7952 0.135478ZM83.8104 83.2749L83.5489 83.0882L83.2714 82.9119L83.8104 83.2749Z" fill="#010101"/>
<path d="M109.853 51.4452L111.365 50.2114L111.532 49.9729L109.853 51.4452Z" fill="#E7E7E7"/>
<path d="M85.7692 87.011L85.7663 86.7408L85.7423 86.4727L85.7692 87.011Z" fill="#010101"/>
<path d="M38.7498 0.452445L112.066 33.5357L42.0151 0.571083L38.7498 0.452445Z" fill="#E7E7E7"/>
<path d="M85.7692 87.011L85.7423 86.4727L85.6308 85.9426L85.7692 87.011ZM34.7952 0.135478L34.5402 0.0705771L34.2863 0.0263759L34.7952 0.135478ZM84.2849 83.6796L84.0557 83.4721L83.8104 83.2749L84.2849 83.6796ZM85.7423 86.4727L85.6971 86.2066L85.6308 85.9426L85.7423 86.4727Z" fill="#010101"/>
<path d="M110.024 51.2009L111.532 49.9729L111.687 49.7194L110.024 51.2009Z" fill="#E7E7E7"/>
<path d="M84.6948 84.1257L84.2849 83.6796L83.8104 83.2749L84.6948 84.1257ZM85.6308 85.9426L85.5432 85.6807L85.4344 85.421L85.6308 85.9426ZM84.6948 84.1257L84.4979 83.8975L84.2849 83.6796L84.6948 84.1257ZM85.6308 85.9426L85.4344 85.421L85.3193 85.1415L85.6308 85.9426ZM85.6308 85.9426L85.3193 85.1415L84.6948 84.1257L85.6308 85.9426ZM85.3193 85.1415L85.0397 84.6131L84.6948 84.1257L85.3193 85.1415ZM85.0397 84.6131L84.8753 84.3642L84.6948 84.1257L85.0397 84.6131ZM85.3193 85.1415L85.1877 84.8722L85.0397 84.6131L85.3193 85.1415Z" fill="#010101"/>
<path d="M110.182 50.9411L111.687 49.7194L111.829 49.4509L110.182 50.9411Z" fill="#E7E7E7"/>
<path d="M35.3085 0.327454L35.0515 0.221086L34.7952 0.135478L35.3085 0.327454Z" fill="#010101"/>
<path d="M117.439 37.9782L117.295 38.2938L118.743 37.1062L117.439 37.9782ZM117.561 37.6641L117.439 37.9782L118.864 36.7999L117.561 37.6641ZM117.663 37.3514L117.561 37.6641L118.963 36.4953L117.663 37.3514ZM117.742 37.0406L117.663 37.3514L119.041 36.1923L117.742 37.0406ZM117.8 36.7313L117.742 37.0406L119.098 35.8908L117.8 36.7313ZM115.046 31.9832L115.357 32.1325L116.417 31.2687L115.046 31.9832ZM117.837 36.4238L117.8 36.7313L119.134 35.5913L117.837 36.4238ZM117.852 36.1181L117.837 36.4238L119.148 35.2934L117.852 36.1181ZM115.357 32.1325L115.649 32.2947L116.72 31.4138L115.357 32.1325ZM109.471 51.8881L109.26 52.0866L110.991 50.644L109.471 51.8881ZM117.844 35.8141L117.852 36.1181L119.142 34.9973L117.844 35.8141ZM115.649 32.2947L115.925 32.4696L117.005 31.5715L115.649 32.2947ZM117.815 35.512L117.844 35.8141L119.114 34.7029L117.815 35.512ZM115.925 32.4696L116.182 32.6574L117.274 31.7416L115.925 32.4696ZM109.668 51.6744L109.471 51.8881L111.184 50.4351L109.668 51.6744ZM117.764 35.2118L117.815 35.512L119.065 34.4104L117.764 35.2118ZM116.182 32.6574L116.422 32.8579L117.524 31.9241L116.182 32.6574ZM110.327 50.6659L111.829 49.4509L117.295 38.2938L110.327 50.6659ZM117.692 34.9133L117.764 35.2118L118.995 34.1199L117.692 34.9133ZM116.422 32.8579L116.644 33.0712L117.758 32.1192L116.422 32.8579ZM117.598 34.6169L117.692 34.9133L118.904 33.8312L117.598 34.6169ZM116.644 33.0712L116.848 33.2971L117.974 32.3266L116.644 33.0712ZM109.853 51.4452L109.668 51.6744L111.365 50.2114L109.853 51.4452ZM117.484 34.3277L117.598 34.6169L118.793 33.5497L117.484 34.3277ZM116.848 33.2971L117.034 33.5358L118.174 32.5465L116.848 33.2971ZM117.352 34.0511L117.484 34.3277L118.664 33.2804L117.352 34.0511ZM117.034 33.5358L117.202 33.7871L118.355 32.7788L117.034 33.5358ZM117.202 33.7871L117.352 34.0511L118.518 33.0234L117.202 33.7871ZM110.024 51.2009L109.853 51.4452L111.532 49.9729L110.024 51.2009ZM110.182 50.9411L110.024 51.2009L111.687 49.7194L110.182 50.9411ZM110.327 50.6659L110.182 50.9411L111.829 49.4509L110.327 50.6659Z" fill="#E7E7E7"/>
<path d="M45.7078 28.7505L107.063 53.3073L33.7817 0L45.7078 28.7505Z" fill="#010101"/>
<path d="M115.913 39.223L117.295 38.2938L117.439 37.9782L115.913 39.223ZM112.066 33.5357L113.599 32.7376L42.0151 0.571083L112.066 33.5357ZM116.061 38.899L117.439 37.9782L117.561 37.6641L116.061 38.899ZM116.186 38.5765L117.561 37.6641L117.663 37.3514L116.186 38.5765ZM116.29 38.2557L117.663 37.3514L117.742 37.0406L116.29 38.2557ZM115.913 39.223L110.327 50.6659L117.295 38.2938L115.913 39.223ZM116.371 37.9365L117.742 37.0406L117.8 36.7313L116.371 37.9365ZM116.43 37.619L117.8 36.7313L117.837 36.4238L116.43 37.619ZM113.917 32.8914L115.357 32.1325L115.046 31.9832L113.917 32.8914ZM107.649 53.4055L109.26 52.0866L109.471 51.8881L107.649 53.4055ZM116.467 37.3032L117.837 36.4238L117.852 36.1181L116.467 37.3032ZM114.217 33.0584L115.649 32.2947L115.357 32.1325L114.217 33.0584ZM116.481 36.9891L117.852 36.1181L117.844 35.8141L116.481 36.9891ZM114.5 33.2385L115.925 32.4696L115.649 32.2947L114.5 33.2385ZM107.865 53.2022L109.471 51.8881L109.668 51.6744L107.865 53.2022ZM116.473 36.6769L117.844 35.8141L117.815 35.512L116.473 36.6769ZM114.764 33.4318L116.182 32.6574L115.925 32.4696L114.764 33.4318ZM116.443 36.3665L117.815 35.512L117.764 35.2118L116.443 36.3665ZM115.01 33.6381L116.422 32.8579L116.182 32.6574L115.01 33.6381ZM116.391 36.058L117.764 35.2118L117.692 34.9133L116.391 36.058ZM108.067 52.9832L109.668 51.6744L109.853 51.4452L108.067 52.9832ZM115.238 33.8575L116.644 33.0712L116.422 32.8579L115.238 33.8575ZM116.316 35.7514L117.692 34.9133L117.598 34.6169L116.316 35.7514ZM115.448 34.0899L116.848 33.2971L116.644 33.0712L115.448 34.0899ZM116.219 35.4468L117.598 34.6169L117.484 34.3277L116.219 35.4468ZM115.639 34.3353L117.034 33.5358L116.848 33.2971L115.639 34.3353ZM116.102 35.1495L117.484 34.3277L117.352 34.0511L116.102 35.1495ZM115.812 34.5938L117.202 33.7871L117.034 33.5358L115.812 34.5938ZM115.966 34.8652L117.352 34.0511L117.202 33.7871L115.966 34.8652ZM108.256 52.7484L109.853 51.4452L110.024 51.2009L108.256 52.7484ZM35.3085 0.327454L110.444 34.3812L38.7498 0.452445L35.3085 0.327454ZM108.431 52.4979L110.024 51.2009L110.182 50.9411L108.431 52.4979ZM108.593 52.2315L110.182 50.9411L110.327 50.6659L108.593 52.2315ZM116.061 38.899L115.913 39.223L117.439 37.9782L116.061 38.899ZM116.186 38.5765L116.061 38.899L117.561 37.6641L116.186 38.5765ZM116.29 38.2557L116.186 38.5765L117.663 37.3514L116.29 38.2557ZM116.371 37.9365L116.29 38.2557L117.742 37.0406L116.371 37.9365ZM116.43 37.619L116.371 37.9365L117.8 36.7313L116.43 37.619ZM113.599 32.7376L113.917 32.8914L115.046 31.9832L113.599 32.7376ZM116.467 37.3032L116.43 37.619L117.837 36.4238L116.467 37.3032ZM116.481 36.9891L116.467 37.3032L117.852 36.1181L116.481 36.9891ZM113.917 32.8914L114.217 33.0584L115.357 32.1325L113.917 32.8914ZM107.865 53.2022L107.649 53.4055L109.471 51.8881L107.865 53.2022Z" fill="#E7E7E7"/>
<path d="M110.781 34.5449L34.7952 0.135478L33.7817 0L110.781 34.5449Z" fill="#010101"/>
<path d="M116.473 36.6769L116.481 36.9891L117.844 35.8141L116.473 36.6769ZM114.217 33.0584L114.5 33.2385L115.649 32.2947L114.217 33.0584ZM116.443 36.3665L116.473 36.6769L117.815 35.512L116.443 36.3665ZM114.5 33.2385L114.764 33.4318L115.925 32.4696L114.5 33.2385ZM108.067 52.9832L107.865 53.2022L109.668 51.6744L108.067 52.9832ZM116.391 36.058L116.443 36.3665L117.764 35.2118L116.391 36.058ZM114.764 33.4318L115.01 33.6381L116.182 32.6574L114.764 33.4318Z" fill="#E7E7E7"/>
<path d="M110.781 34.5449L35.3085 0.327454L34.7952 0.135478L110.781 34.5449Z" fill="#010101"/>
<path d="M108.741 51.9494L110.327 50.6659L115.913 39.223L108.741 51.9494ZM116.316 35.7514L116.391 36.058L117.692 34.9133L116.316 35.7514ZM115.01 33.6381L115.238 33.8575L116.422 32.8579L115.01 33.6381ZM116.219 35.4468L116.316 35.7514L117.598 34.6169L116.219 35.4468ZM115.238 33.8575L115.448 34.0899L116.644 33.0712L115.238 33.8575ZM108.256 52.7484L108.067 52.9832L109.853 51.4452L108.256 52.7484ZM116.102 35.1495L116.219 35.4468L117.484 34.3277L116.102 35.1495ZM115.448 34.0899L115.639 34.3353L116.848 33.2971L115.448 34.0899ZM115.966 34.8652L116.102 35.1495L117.352 34.0511L115.966 34.8652ZM115.639 34.3353L115.812 34.5938L117.034 33.5358L115.639 34.3353ZM115.812 34.5938L115.966 34.8652L117.202 33.7871L115.812 34.5938ZM108.431 52.4979L108.256 52.7484L110.024 51.2009L108.431 52.4979ZM108.593 52.2315L108.431 52.4979L110.182 50.9411L108.593 52.2315ZM108.741 51.9494L108.593 52.2315L110.327 50.6659L108.741 51.9494Z" fill="#E7E7E7"/>
<path d="M45.7078 28.7505L100.5 55.3715L103.078 55.9495L45.7078 28.7505ZM45.7078 28.7505L103.078 55.9495L107.063 53.3073L45.7078 28.7505Z" fill="#010101"/>
<path d="M114.452 40.2057L115.913 39.223L116.061 38.899L114.452 40.2057ZM110.444 34.3812L112.066 33.5357L38.7498 0.452445L110.444 34.3812ZM114.603 39.8729L116.061 38.899L116.186 38.5765L114.603 39.8729ZM114.732 39.5417L116.186 38.5765L116.29 38.2557L114.732 39.5417ZM114.837 39.2121L116.29 38.2557L116.371 37.9365L114.837 39.2121ZM114.452 40.2057L108.741 51.9494L115.913 39.223L114.452 40.2057ZM114.92 38.8842L116.371 37.9365L116.43 37.619L114.92 38.8842ZM114.98 38.5579L116.43 37.619L116.467 37.3032L114.98 38.5579ZM112.394 33.6943L113.917 32.8914L113.599 32.7376L112.394 33.6943ZM105.946 54.8006L107.649 53.4055L107.865 53.2022L105.946 54.8006ZM115.018 38.2334L116.467 37.3032L116.481 36.9891L115.018 38.2334ZM112.703 33.8664L114.217 33.0584L113.917 32.8914L112.703 33.8664ZM115.032 37.9106L116.481 36.9891L116.473 36.6769L115.032 37.9106ZM112.993 34.052L114.5 33.2385L114.217 33.0584L112.993 34.052ZM106.167 54.5923L107.865 53.2022L108.067 52.9832L106.167 54.5923ZM115.024 37.5896L116.473 36.6769L116.443 36.3665L115.024 37.5896ZM113.265 34.251L114.764 33.4318L114.5 33.2385L113.265 34.251ZM114.992 37.2705L116.443 36.3665L116.391 36.058L114.992 37.2705ZM113.517 34.4634L115.01 33.6381L114.764 33.4318L113.517 34.4634ZM114.938 36.9533L116.391 36.058L116.316 35.7514L114.938 36.9533ZM106.374 54.3678L108.067 52.9832L108.256 52.7484L106.374 54.3678ZM113.752 34.6893L115.238 33.8575L115.01 33.6381L113.752 34.6893ZM114.861 36.638L116.316 35.7514L116.219 35.4468L114.861 36.638ZM113.967 34.9286L115.448 34.0899L115.238 33.8575L113.967 34.9286ZM114.761 36.3247L116.219 35.4468L116.102 35.1495L114.761 36.3247ZM114.163 35.1812L115.639 34.3353L115.448 34.0899L114.163 35.1812ZM114.64 36.0189L116.102 35.1495L115.966 34.8652L114.64 36.0189ZM114.341 35.4472L115.812 34.5938L115.639 34.3353L114.341 35.4472ZM114.5 35.7264L115.966 34.8652L115.812 34.5938L114.5 35.7264ZM106.567 54.1271L108.256 52.7484L108.431 52.4979L106.567 54.1271ZM106.746 53.8701L108.431 52.4979L108.593 52.2315L106.746 53.8701ZM106.911 53.5968L108.593 52.2315L108.741 51.9494L106.911 53.5968ZM114.603 39.8729L114.452 40.2057L116.061 38.899L114.603 39.8729Z" fill="#E7E7E7"/>
<path d="M107.063 53.3073L112.784 36.3514L33.7817 0L107.063 53.3073Z" fill="#010101"/>
<path d="M114.732 39.5417L114.603 39.8729L116.186 38.5765L114.732 39.5417ZM114.837 39.2121L114.732 39.5417L116.29 38.2557L114.837 39.2121ZM114.92 38.8842L114.837 39.2121L116.371 37.9365L114.92 38.8842Z" fill="#E7E7E7"/>
<path d="M100.5 55.3715L100.827 55.5201L101.153 55.647L100.5 55.3715Z" fill="#010101"/>
<path d="M114.98 38.5579L114.92 38.8842L116.43 37.619L114.98 38.5579ZM112.066 33.5357L112.394 33.6943L113.599 32.7376L112.066 33.5357ZM115.018 38.2334L114.98 38.5579L116.467 37.3032L115.018 38.2334Z" fill="#E7E7E7"/>
<path d="M100.5 55.3715L101.153 55.647L101.801 55.8353L100.5 55.3715Z" fill="#010101"/>
<path d="M115.032 37.9106L115.018 38.2334L116.481 36.9891L115.032 37.9106ZM112.394 33.6943L112.703 33.8664L113.917 32.8914L112.394 33.6943ZM106.167 54.5923L105.946 54.8006L107.865 53.2022L106.167 54.5923Z" fill="#E7E7E7"/>
<path d="M101.153 55.647L101.478 55.7521L101.801 55.8353L101.153 55.647Z" fill="#010101"/>
<path d="M115.024 37.5896L115.032 37.9106L116.473 36.6769L115.024 37.5896ZM112.703 33.8664L112.993 34.052L114.217 33.0584L112.703 33.8664ZM114.992 37.2705L115.024 37.5896L116.443 36.3665L114.992 37.2705ZM112.993 34.052L113.265 34.251L114.5 33.2385L112.993 34.052ZM106.374 54.3678L106.167 54.5923L108.067 52.9832L106.374 54.3678Z" fill="#E7E7E7"/>
<path d="M100.5 55.3715L101.801 55.8353L103.078 55.9495L100.5 55.3715Z" fill="#010101"/>
<path d="M114.938 36.9533L114.992 37.2705L116.391 36.058L114.938 36.9533ZM113.265 34.251L113.517 34.4634L114.764 33.4318L113.265 34.251ZM107.063 53.3073L108.741 51.9494L114.452 40.2057L107.063 53.3073ZM114.861 36.638L114.938 36.9533L116.316 35.7514L114.861 36.638ZM113.517 34.4634L113.752 34.6893L115.01 33.6381L113.517 34.4634Z" fill="#E7E7E7"/>
<path d="M101.801 55.8353L102.122 55.8967L102.442 55.9362L101.801 55.8353Z" fill="#010101"/>
<path d="M114.761 36.3247L114.861 36.638L116.219 35.4468L114.761 36.3247ZM113.752 34.6893L113.967 34.9286L115.238 33.8575L113.752 34.6893ZM106.567 54.1271L106.374 54.3678L108.256 52.7484L106.567 54.1271ZM114.64 36.0189L114.761 36.3247L116.102 35.1495L114.64 36.0189ZM113.967 34.9286L114.163 35.1812L115.448 34.0899L113.967 34.9286ZM114.5 35.7264L114.64 36.0189L115.966 34.8652L114.5 35.7264ZM114.163 35.1812L114.341 35.4472L115.639 34.3353L114.163 35.1812ZM114.341 35.4472L114.5 35.7264L115.812 34.5938L114.341 35.4472Z" fill="#E7E7E7"/>
<path d="M101.801 55.8353L102.442 55.9362L103.078 55.9495L101.801 55.8353Z" fill="#010101"/>
<path d="M106.746 53.8701L106.567 54.1271L108.431 52.4979L106.746 53.8701Z" fill="#E7E7E7"/>
<path d="M102.442 55.9362L102.76 55.9538L103.078 55.9495L102.442 55.9362Z" fill="#010101"/>
<path d="M106.911 53.5968L106.746 53.8701L108.593 52.2315L106.911 53.5968ZM107.063 53.3073L106.911 53.5968L108.741 51.9494L107.063 53.3073Z" fill="#E7E7E7"/>
<path d="M103.078 55.9495L103.393 55.9231L103.707 55.8747L103.078 55.9495ZM103.078 55.9495L103.707 55.8747L104.331 55.7117L103.078 55.9495ZM103.707 55.8747L104.019 55.8043L104.331 55.7117L103.707 55.8747ZM103.078 55.9495L104.331 55.7117L105.463 55.1688L103.078 55.9495ZM104.331 55.7117L104.634 55.6001L104.924 55.4724L104.331 55.7117ZM112.784 36.3514L110.781 34.5449L33.7817 0L112.784 36.3514ZM110.781 34.5449L110.444 34.3812L35.3085 0.327454L110.781 34.5449ZM104.331 55.7117L104.924 55.4724L105.463 55.1688L104.331 55.7117ZM104.924 55.4724L105.2 55.3286L105.463 55.1688L104.924 55.4724ZM103.078 55.9495L105.463 55.1688L107.063 53.3073L103.078 55.9495ZM105.463 55.1688L105.712 54.9928L105.946 54.8006L105.463 55.1688ZM105.463 55.1688L105.946 54.8006L106.374 54.3678L105.463 55.1688ZM105.946 54.8006L106.167 54.5923L106.374 54.3678L105.946 54.8006ZM105.463 55.1688L106.374 54.3678L107.063 53.3073L105.463 55.1688ZM106.374 54.3678L106.567 54.1271L106.746 53.8701L106.374 54.3678ZM106.374 54.3678L106.746 53.8701L107.063 53.3073L106.374 54.3678ZM106.746 53.8701L106.911 53.5968L107.063 53.3073L106.746 53.8701Z" fill="#010101"/>
<path d="M112.906 41.2467L114.452 40.2057L114.603 39.8729L112.906 41.2467ZM113.06 40.9047L114.603 39.8729L114.732 39.5417L113.06 40.9047ZM113.191 40.5643L114.732 39.5417L114.837 39.2121L113.191 40.5643ZM113.299 40.2254L114.837 39.2121L114.92 38.8842L113.299 40.2254ZM112.906 41.2467L107.063 53.3073L114.452 40.2057L112.906 41.2467ZM113.384 39.8882L114.92 38.8842L114.98 38.5579L113.384 39.8882ZM113.445 39.5527L114.98 38.5579L115.018 38.2334L113.445 39.5527ZM110.781 34.5449L112.394 33.6943L112.066 33.5357L110.781 34.5449ZM113.483 39.2189L115.018 38.2334L115.032 37.9106L113.483 39.2189ZM111.098 34.7225L112.703 33.8664L112.394 33.6943L111.098 34.7225ZM113.497 38.8869L115.032 37.9106L115.024 37.5896L113.497 38.8869ZM111.397 34.9138L112.993 34.052L112.703 33.8664L111.397 34.9138ZM113.488 38.5567L115.024 37.5896L114.992 37.2705L113.488 38.5567ZM111.676 35.119L113.265 34.251L112.993 34.052L111.676 35.119ZM113.455 38.2283L114.992 37.2705L114.938 36.9533L113.455 38.2283ZM111.936 35.338L113.517 34.4634L113.265 34.251L111.936 35.338ZM113.399 37.9019L114.938 36.9533L114.861 36.638L113.399 37.9019ZM112.177 35.5708L113.752 34.6893L113.517 34.4634L112.177 35.5708ZM113.32 37.5774L114.861 36.638L114.761 36.3247L113.32 37.5774ZM112.399 35.8173L113.967 34.9286L113.752 34.6893L112.399 35.8173ZM113.216 37.2549L114.761 36.3247L114.64 36.0189L113.216 37.2549ZM112.601 36.0775L114.163 35.1812L113.967 34.9286L112.601 36.0775ZM113.092 36.9401L114.64 36.0189L114.5 35.7264L113.092 36.9401ZM112.784 36.3514L114.341 35.4472L114.163 35.1812L112.784 36.3514ZM112.947 36.639L114.5 35.7264L114.341 35.4472L112.947 36.639ZM113.06 40.9047L112.906 41.2467L114.603 39.8729L113.06 40.9047ZM113.191 40.5643L113.06 40.9047L114.732 39.5417L113.191 40.5643ZM113.299 40.2254L113.191 40.5643L114.837 39.2121L113.299 40.2254ZM113.384 39.8882L113.299 40.2254L114.92 38.8842L113.384 39.8882Z" fill="#E7E7E7"/>
<path d="M107.063 53.3073L112.906 41.2467L113.06 40.9047L107.063 53.3073Z" fill="#010101"/>
<path d="M113.445 39.5527L113.384 39.8882L114.98 38.5579L113.445 39.5527ZM110.444 34.3812L110.781 34.5449L112.066 33.5357L110.444 34.3812Z" fill="#E7E7E7"/>
<path d="M107.063 53.3073L113.06 40.9047L113.299 40.2254L107.063 53.3073Z" fill="#010101"/>
<path d="M113.483 39.2189L113.445 39.5527L115.018 38.2334L113.483 39.2189ZM113.497 38.8869L113.483 39.2189L115.032 37.9106L113.497 38.8869ZM110.781 34.5449L111.098 34.7225L112.394 33.6943L110.781 34.5449ZM113.488 38.5567L113.497 38.8869L115.024 37.5896L113.488 38.5567ZM111.098 34.7225L111.397 34.9138L112.703 33.8664L111.098 34.7225Z" fill="#E7E7E7"/>
<path d="M107.063 53.3073L113.299 40.2254L113.497 38.8869L107.063 53.3073Z" fill="#010101"/>
<path d="M113.455 38.2283L113.488 38.5567L114.992 37.2705L113.455 38.2283ZM111.397 34.9138L111.676 35.119L112.993 34.052L111.397 34.9138ZM113.399 37.9019L113.455 38.2283L114.938 36.9533L113.399 37.9019ZM111.676 35.119L111.936 35.338L113.265 34.251L111.676 35.119ZM113.32 37.5774L113.399 37.9019L114.861 36.638L113.32 37.5774ZM111.936 35.338L112.177 35.5708L113.517 34.4634L111.936 35.338ZM113.216 37.2549L113.32 37.5774L114.761 36.3247L113.216 37.2549ZM112.177 35.5708L112.399 35.8173L113.752 34.6893L112.177 35.5708ZM113.092 36.9401L113.216 37.2549L114.64 36.0189L113.092 36.9401ZM112.399 35.8173L112.601 36.0775L113.967 34.9286L112.399 35.8173ZM112.947 36.639L113.092 36.9401L114.5 35.7264L112.947 36.639ZM112.601 36.0775L112.784 36.3514L114.163 35.1812L112.601 36.0775ZM112.784 36.3514L112.947 36.639L114.341 35.4472L112.784 36.3514Z" fill="#E7E7E7"/>
<path d="M107.063 53.3073L113.497 38.8869L112.784 36.3514L107.063 53.3073ZM113.06 40.9047L113.191 40.5643L113.299 40.2254L113.06 40.9047ZM113.299 40.2254L113.384 39.8882L113.445 39.5527L113.299 40.2254ZM113.299 40.2254L113.445 39.5527L113.497 38.8869L113.299 40.2254ZM113.445 39.5527L113.483 39.2189L113.497 38.8869L113.445 39.5527ZM111.397 34.9138L111.098 34.7225L110.781 34.5449L111.397 34.9138ZM113.497 38.8869L113.488 38.5567L113.455 38.2283L113.497 38.8869ZM111.936 35.338L111.397 34.9138L110.781 34.5449L111.936 35.338ZM113.497 38.8869L113.455 38.2283L113.32 37.5774L113.497 38.8869ZM112.784 36.3514L111.936 35.338L110.781 34.5449L112.784 36.3514ZM111.936 35.338L111.676 35.119L111.397 34.9138L111.936 35.338ZM113.497 38.8869L113.32 37.5774L112.784 36.3514L113.497 38.8869ZM113.455 38.2283L113.399 37.9019L113.32 37.5774L113.455 38.2283ZM112.399 35.8173L112.177 35.5708L111.936 35.338L112.399 35.8173ZM113.32 37.5774L113.216 37.2549L113.092 36.9401L113.32 37.5774ZM112.784 36.3514L112.399 35.8173L111.936 35.338L112.784 36.3514ZM113.32 37.5774L113.092 36.9401L112.784 36.3514L113.32 37.5774ZM112.784 36.3514L112.601 36.0775L112.399 35.8173L112.784 36.3514ZM113.092 36.9401L112.947 36.639L112.784 36.3514L113.092 36.9401Z" fill="#010101"/>
</svg>
