<svg width="151" height="159" viewBox="0 0 151 159" fill="none" xmlns="http://www.w3.org/2000/svg">
<path d="M17.9875 87.2017L17.9636 87.1789L17.9199 87.1372L17.9875 87.2017Z" fill="#010101"/>
<path d="M22.1595 74.6863L25.159 73.2469L24.8258 73.3467L22.1595 74.6863ZM22.505 74.6437L25.4993 73.2042L25.159 73.2469L22.505 74.6437ZM22.8578 74.6593L25.8466 73.2186L25.4993 73.2042L22.8578 74.6593ZM23.2179 74.7333L26.2007 73.2902L25.8466 73.2186L23.2179 74.7333ZM23.5852 74.8657L26.5617 73.4192L26.2007 73.2902L23.5852 74.8657ZM23.9596 75.0566L26.9295 73.6056L26.5617 73.4192L23.9596 75.0566ZM24.3411 75.3061L27.304 73.8493L26.9295 73.6056L24.3411 75.3061ZM21.8215 74.7871L22.1595 74.6863L24.8258 73.3467L21.8215 74.7871ZM22.1595 74.6863L22.505 74.6437L25.159 73.2469L22.1595 74.6863ZM22.505 74.6437L22.8578 74.6593L25.4993 73.2042L22.505 74.6437ZM22.8578 74.6593L23.2179 74.7333L25.8466 73.2186L22.8578 74.6593ZM23.2179 74.7333L23.5852 74.8657L26.2007 73.2902L23.2179 74.7333ZM23.5852 74.8657L23.9596 75.0566L26.5617 73.4192L23.5852 74.8657ZM23.9596 75.0566L24.3411 75.3061L26.9295 73.6056L23.9596 75.0566ZM19.0291 76.1885L22.1595 74.6863L21.8215 74.7871L19.0291 76.1885ZM19.3799 76.146L22.505 74.6437L22.1595 74.6863L19.3799 76.146ZM19.7384 76.1629L22.8578 74.6593L22.505 74.6437L19.7384 76.1629ZM20.1046 76.2394L23.2179 74.7333L22.8578 74.6593L20.1046 76.2394ZM20.4784 76.3755L23.5852 74.8657L23.2179 74.7333L20.4784 76.3755ZM20.8597 76.5712L23.9596 75.0566L23.5852 74.8657L20.8597 76.5712ZM21.2484 76.8267L24.3411 75.3061L23.9596 75.0566L21.2484 76.8267ZM24.3411 75.3061L80.3278 113.415L27.304 73.8493L24.3411 75.3061ZM18.6861 76.2903L19.0291 76.1885L21.8215 74.7871L18.6861 76.2903ZM19.0291 76.1885L19.3799 76.146L22.1595 74.6863L19.0291 76.1885ZM19.3799 76.146L19.7384 76.1629L22.505 74.6437L19.3799 76.146ZM19.7384 76.1629L20.1046 76.2394L22.8578 74.6593L19.7384 76.1629ZM20.1046 76.2394L20.4784 76.3755L23.2179 74.7333L20.1046 76.2394ZM20.4784 76.3755L20.8597 76.5712L23.5852 74.8657L20.4784 76.3755ZM20.8597 76.5712L21.2484 76.8267L23.9596 75.0566L20.8597 76.5712ZM80.3278 113.415L82.2005 111.053L27.304 73.8493L80.3278 113.415ZM15.759 77.7578L19.0291 76.1885L18.6861 76.2903L15.759 77.7578ZM16.1152 77.7155L19.3799 76.146L19.0291 76.1885L16.1152 77.7155ZM16.4796 77.7338L19.7384 76.1629L19.3799 76.146L16.4796 77.7338ZM16.8521 77.8129L20.1046 76.2394L19.7384 76.1629L16.8521 77.8129ZM17.2326 77.9528L20.4784 76.3755L20.1046 76.2394L17.2326 77.9528ZM17.621 78.1536L20.8597 76.5712L20.4784 76.3755L17.621 78.1536ZM18.0173 78.4154L21.2484 76.8267L20.8597 76.5712L18.0173 78.4154ZM21.2484 76.8267L78.3691 115.886L24.3411 75.3061L21.2484 76.8267ZM15.411 77.8606L15.759 77.7578L18.6861 76.2903L15.411 77.8606ZM15.759 77.7578L16.1152 77.7155L19.0291 76.1885L15.759 77.7578ZM16.1152 77.7155L16.4796 77.7338L19.3799 76.146L16.1152 77.7155ZM16.4796 77.7338L16.8521 77.8129L19.7384 76.1629L16.4796 77.7338ZM16.8521 77.8129L17.2326 77.9528L20.1046 76.2394L16.8521 77.8129ZM17.2326 77.9528L17.621 78.1536L20.4784 76.3755L17.2326 77.9528ZM17.621 78.1536L18.0173 78.4154L20.8597 76.5712L17.621 78.1536ZM78.3691 115.886L80.3278 113.415L24.3411 75.3061L78.3691 115.886ZM12.3396 79.3987L15.759 77.7578L15.411 77.8606L12.3396 79.3987ZM12.7015 79.3566L16.1152 77.7155L15.759 77.7578L12.7015 79.3566Z" fill="#E7E7E7"/>
<path d="M0.8059 95.7315L0.942873 95.8987L1.09019 96.0619L0.8059 95.7315ZM0.562935 95.3851L0.679261 95.5603L0.8059 95.7315L0.562935 95.3851ZM0.562935 95.3851L0.8059 95.7315L1.09019 96.0619L0.562935 95.3851ZM1.09019 96.0619L1.24786 96.2212L1.26671 96.2394L1.09019 96.0619ZM1.09019 96.0619L1.26671 96.2394L1.30893 96.2802L1.09019 96.0619ZM1.09019 96.0619L1.30893 96.2802L1.38358 96.3523L1.09019 96.0619ZM0.361222 95.0226L0.456928 95.2058L0.562935 95.3851L0.361222 95.0226ZM1.09019 96.0619L1.38358 96.3523L1.41147 96.3792L1.09019 96.0619ZM1.09019 96.0619L1.41147 96.3792L1.44088 96.4076L1.09019 96.0619ZM1.09019 96.0619L1.44088 96.4076L1.4718 96.4375L1.09019 96.0619ZM0.200714 94.6439L0.562935 95.3851L1.09019 96.0619L0.200714 94.6439ZM0.200714 94.6439L0.361222 95.0226L0.562935 95.3851L0.200714 94.6439ZM1.53816 96.5016L1.5736 96.5358L1.62174 96.5555L1.53816 96.5016ZM1.50423 96.4688L1.53816 96.5016L1.71962 96.6035L1.50423 96.4688ZM1.4718 96.4375L1.50423 96.4688L1.76938 96.6317L1.4718 96.4375ZM1.53816 96.5016L1.62174 96.5555L1.67041 96.5781L1.53816 96.5016ZM0.200714 94.6439L0.275821 94.8353L0.361222 95.0226L0.200714 94.6439ZM1.53816 96.5016L1.67041 96.5781L1.71962 96.6035L1.53816 96.5016ZM1.50423 96.4688L1.71962 96.6035L1.76938 96.6317L1.50423 96.4688ZM1.4718 96.4375L1.76938 96.6317L1.81968 96.6628L1.4718 96.4375Z" fill="#010101"/>
<path d="M13.0713 79.3764L16.4796 77.7338L16.1152 77.7155L13.0713 79.3764ZM107.698 135.769L108.991 132.868L109.081 132.616L107.698 135.769Z" fill="#E7E7E7"/>
<path d="M0.0812655 94.2488L0.135773 94.4484L0.200714 94.6439L0.0812655 94.2488ZM0.0145818 93.8262L0.0812655 94.2488L0.200714 94.6439L0.0145818 93.8262ZM0.0248816 93.0224L0.200714 94.6439L1.09019 96.0619L0.0248816 93.0224ZM0.0145818 93.8262L0.0370509 94.0452L0.0812655 94.2488L0.0145818 93.8262Z" fill="#010101"/>
<path d="M107.789 135.513L109.081 132.616L109.147 132.363L107.789 135.513ZM13.4504 79.4583L16.8521 77.8129L16.4796 77.7338L13.4504 79.4583Z" fill="#E7E7E7"/>
<path d="M0.0248816 93.0224L0.0145818 93.8262L0.200714 94.6439L0.0248816 93.0224Z" fill="#010101"/>
<path d="M107.857 135.256L109.147 132.363L109.19 132.107L107.857 135.256Z" fill="#E7E7E7"/>
<path d="M0 93.4098L0.00244594 93.6144L0.0145818 93.8262L0 93.4098Z" fill="#010101"/>
<path d="M13.8381 79.6023L17.2326 77.9528L16.8521 77.8129L13.8381 79.6023ZM107.899 134.995L109.19 132.107L109.208 131.85L107.899 134.995Z" fill="#E7E7E7"/>
<path d="M0.0248816 93.0224L0 93.4098L0.0145818 93.8262L0.0248816 93.0224Z" fill="#010101"/>
<path d="M14.2336 79.8084L17.621 78.1536L17.2326 77.9528L14.2336 79.8084Z" fill="#E7E7E7"/>
<path d="M0.0248816 93.0224L0.00758576 93.2125L0 93.4098L0.0248816 93.0224Z" fill="#010101"/>
<path d="M107.917 134.733L109.208 131.85L109.203 131.59L107.917 134.733ZM14.6376 80.0768L18.0173 78.4154L17.621 78.1536L14.6376 80.0768ZM107.912 134.468L109.203 131.59L109.182 131.331L107.912 134.468Z" fill="#E7E7E7"/>
<path d="M0.0902719 92.6638L0.0525441 92.8395L0.0248816 93.0224L0.0902719 92.6638Z" fill="#010101"/>
<path d="M107.891 134.204L109.182 131.331L109.155 131.075L107.891 134.204ZM107.862 133.943L109.155 131.075L109.12 130.823L107.862 133.943Z" fill="#E7E7E7"/>
<path d="M0.195943 92.3341L0.0902719 92.6638L0.0248816 93.0224L0.195943 92.3341Z" fill="#010101"/>
<path d="M107.826 133.686L109.12 130.823L109.077 130.574L107.826 133.686Z" fill="#E7E7E7"/>
<path d="M0.195943 92.3341L0.138715 92.4953L0.0902719 92.6638L0.195943 92.3341Z" fill="#010101"/>
<path d="M107.782 133.432L109.077 130.574L109.028 130.328L107.782 133.432ZM107.731 133.182L109.028 130.328L108.971 130.086L107.731 133.182ZM107.673 132.934L108.971 130.086L108.908 129.847L107.673 132.934Z" fill="#E7E7E7"/>
<path d="M0.342472 92.0332L0.264396 92.18L0.195943 92.3341L0.342472 92.0332Z" fill="#010101"/>
<path d="M107.607 132.691L108.908 129.847L108.836 129.612L107.607 132.691ZM18.0173 78.4154L76.3181 118.473L21.2484 76.8267L18.0173 78.4154ZM107.534 132.451L108.836 129.612L108.758 129.38L107.534 132.451ZM107.454 132.214L108.758 129.38L108.672 129.151L107.454 132.214ZM107.366 131.981L108.672 129.151L108.579 128.926L107.366 131.981ZM107.271 131.751L108.579 128.926L108.479 128.705L107.271 131.751ZM11.9863 79.5025L12.3396 79.3987L15.411 77.8606L11.9863 79.5025ZM12.3396 79.3987L12.7015 79.3566L15.759 77.7578L12.3396 79.3987ZM12.7015 79.3566L13.0713 79.3764L16.1152 77.7155L12.7015 79.3566ZM107.789 135.513L107.698 135.769L109.081 132.616L107.789 135.513ZM13.0713 79.3764L13.4504 79.4583L16.4796 77.7338L13.0713 79.3764ZM107.857 135.256L107.789 135.513L109.147 132.363L107.857 135.256ZM13.4504 79.4583L13.8381 79.6023L16.8521 77.8129L13.4504 79.4583ZM107.899 134.995L107.857 135.256L109.19 132.107L107.899 134.995ZM13.8381 79.6023L14.2336 79.8084L17.2326 77.9528L13.8381 79.6023ZM107.917 134.733L107.899 134.995L109.208 131.85L107.917 134.733ZM107.912 134.468L107.917 134.733L109.203 131.59L107.912 134.468ZM14.2336 79.8084L14.6376 80.0768L17.621 78.1536L14.2336 79.8084ZM107.168 131.525L108.479 128.705L81.3184 82.3719L107.168 131.525ZM107.891 134.204L107.912 134.468L109.182 131.331L107.891 134.204ZM107.862 133.943L107.891 134.204L109.155 131.075L107.862 133.943ZM107.826 133.686L107.862 133.943L109.12 130.823L107.826 133.686ZM107.782 133.432L107.826 133.686L109.077 130.574L107.782 133.432ZM107.731 133.182L107.782 133.432L109.028 130.328L107.731 133.182ZM107.673 132.934L107.731 133.182L108.971 130.086L107.673 132.934ZM107.607 132.691L107.673 132.934L108.908 129.847L107.607 132.691ZM107.534 132.451L107.607 132.691L108.836 129.612L107.534 132.451ZM107.454 132.214L107.534 132.451L108.758 129.38L107.454 132.214ZM107.366 131.981L107.454 132.214L108.672 129.151L107.366 131.981ZM107.271 131.751L107.366 131.981L108.579 128.926L107.271 131.751ZM107.168 131.525L107.271 131.751L108.479 128.705L107.168 131.525Z" fill="#E7E7E7"/>
<path d="M6.74875 82.6836L0.195943 92.3341L0.0248816 93.0224L6.74875 82.6836Z" fill="#010101"/>
<path d="M76.3181 118.473L78.3691 115.886L21.2484 76.8267L76.3181 118.473Z" fill="#E7E7E7"/>
<path d="M6.74875 82.6836L0.342472 92.0332L0.195943 92.3341L6.74875 82.6836ZM6.74875 82.6836L0.43019 91.8937L0.342472 92.0332L6.74875 82.6836ZM9.50419 81.0959L0.0248816 93.0224L1.09019 96.0619L9.50419 81.0959Z" fill="#010101"/>
<path d="M8.76024 81.1162L12.3396 79.3987L11.9863 79.5025L8.76024 81.1162ZM9.12781 81.0744L12.7015 79.3566L12.3396 79.3987L9.12781 81.0744ZM79.3534 84.1558L107.168 131.525L81.3184 82.3719L79.3534 84.1558ZM62.0306 59.748L64.3968 58.5167L64.1383 58.6412L62.0306 59.748ZM9.50419 81.0959L13.0713 79.3764L12.7015 79.3566L9.50419 81.0959ZM106.344 138.806L107.698 135.769L107.789 135.513L106.344 138.806ZM62.2971 59.6491L64.6585 58.4193L64.3968 58.5167L62.2971 59.6491ZM106.437 138.546L107.789 135.513L107.857 135.256L106.437 138.546ZM9.89014 81.1807L13.4504 79.4583L13.0713 79.3764L9.89014 81.1807ZM62.567 59.5778L64.9235 58.349L64.6585 58.4193L62.567 59.5778ZM106.505 138.284L107.857 135.256L107.899 134.995L106.505 138.284Z" fill="#E7E7E7"/>
<path d="M9.50419 81.0959L6.74875 82.6836L0.0248816 93.0224L9.50419 81.0959Z" fill="#010101"/>
<path d="M10.2845 81.329L13.8381 79.6023L13.4504 79.4583L10.2845 81.329ZM106.548 138.019L107.899 134.995L107.917 134.733L106.548 138.019ZM62.8401 59.5343L65.1915 58.3059L64.9235 58.349L62.8401 59.5343ZM10.688 81.5407L14.2336 79.8084L13.8381 79.6023L10.688 81.5407ZM106.567 137.751L107.917 134.733L107.912 134.468L106.567 137.751ZM63.1168 59.5186L65.463 58.29L65.1915 58.3059L63.1168 59.5186Z" fill="#E7E7E7"/>
<path d="M2.13323 96.9093L2.18731 96.9604L86.9048 156.991L2.13323 96.9093Z" fill="#010101"/>
<path d="M11.1002 81.816L14.6376 80.0768L14.2336 79.8084L11.1002 81.816ZM106.56 137.482L107.912 134.468L107.891 134.204L106.56 137.482ZM63.3969 59.5307L65.7377 58.3013L65.463 58.29L63.3969 59.5307ZM106.538 137.212L107.891 134.204L107.862 133.943L106.538 137.212ZM106.508 136.946L107.862 133.943L107.826 133.686L106.508 136.946ZM63.6562 59.5429L65.992 58.3127L65.7377 58.3013L63.6562 59.5429ZM106.47 136.684L107.826 133.686L107.782 133.432L106.47 136.684Z" fill="#E7E7E7"/>
<path d="M1.87076 96.6968L1.92214 96.7336L89.4476 157.948L1.87076 96.6968ZM1.92214 96.7336L1.97406 96.7732L89.4476 157.948L1.92214 96.7336ZM1.97406 96.7732L2.02652 96.8157L89.4476 157.948L1.97406 96.7732ZM2.02652 96.8157L2.07952 96.8611L89.4476 157.948L2.02652 96.8157ZM2.07952 96.8611L2.13323 96.9093L89.4476 157.948L2.07952 96.8611Z" fill="#010101"/>
<path d="M63.9095 59.5631L66.2405 58.332L65.992 58.3127L63.9095 59.5631ZM106.425 136.425L107.782 133.432L107.731 133.182L106.425 136.425ZM106.373 136.169L107.731 133.182L107.673 132.934L106.373 136.169ZM64.1565 59.5914L66.4826 58.3592L66.2405 58.332L64.1565 59.5914ZM106.313 135.917L107.673 132.934L107.607 132.691L106.313 135.917ZM64.3972 59.6278L66.7186 58.3942L66.4826 58.3592L64.3972 59.6278ZM106.245 135.668L107.607 132.691L107.534 132.451L106.245 135.668ZM14.6376 80.0768L74.1683 121.184L18.0173 78.4154L14.6376 80.0768ZM106.17 135.423L107.534 132.451L107.454 132.214L106.17 135.423ZM64.6317 59.6722L66.9485 58.4372L66.7186 58.3942L64.6317 59.6722ZM106.088 135.181L107.454 132.214L107.366 131.981L106.088 135.181ZM105.998 134.943L107.366 131.981L107.271 131.751L105.998 134.943ZM64.8599 59.7246L67.1722 58.4881L66.9485 58.4372L64.8599 59.7246ZM105.9 134.708L107.271 131.751L107.168 131.525L105.9 134.708ZM65.0819 59.7852L67.3897 58.5469L67.1722 58.4881L65.0819 59.7852ZM65.2975 59.8538L67.601 58.6136L67.3897 58.5469L65.2975 59.8538ZM65.5069 59.9305L67.8061 58.6883L67.601 58.6136L65.5069 59.9305ZM65.7099 60.0153L68.005 58.7708L67.8061 58.6883L65.7099 60.0153ZM65.9066 60.1081L68.1976 58.8613L68.005 58.7708L65.9066 60.1081ZM8.4017 81.221L8.76024 81.1162L11.9863 79.5025L8.4017 81.221ZM66.0969 60.2091L68.3839 58.9597L68.1976 58.8613L66.0969 60.2091ZM8.76024 81.1162L9.12781 81.0744L12.3396 79.3987L8.76024 81.1162ZM61.7675 59.8746L62.0306 59.748L64.1383 58.6412L61.7675 59.8746ZM9.12781 81.0744L9.50419 81.0959L12.7015 79.3566L9.12781 81.0744ZM62.0306 59.748L62.2971 59.6491L64.3968 58.5167L62.0306 59.748ZM106.437 138.546L106.344 138.806L107.789 135.513L106.437 138.546ZM9.50419 81.0959L9.89014 81.1807L13.0713 79.3764L9.50419 81.0959ZM106.505 138.284L106.437 138.546L107.857 135.256L106.505 138.284ZM62.2971 59.6491L62.567 59.5778L64.6585 58.4193L62.2971 59.6491Z" fill="#E7E7E7"/>
<path d="M71.9126 124.029L1.09019 96.0619L1.4718 96.4375L71.9126 124.029ZM71.9126 124.029L1.4718 96.4375L1.81968 96.6628L71.9126 124.029Z" fill="#010101"/>
<path d="M9.89014 81.1807L10.2845 81.329L13.4504 79.4583L9.89014 81.1807Z" fill="#E7E7E7"/>
<path d="M71.9126 124.029L1.81968 96.6628L1.87076 96.6968L71.9126 124.029Z" fill="#010101"/>
<path d="M106.548 138.019L106.505 138.284L107.899 134.995L106.548 138.019ZM62.567 59.5778L62.8401 59.5343L64.9235 58.349L62.567 59.5778Z" fill="#E7E7E7"/>
<path d="M7.38188 81.9118L7.06064 82.2668L6.74875 82.6836L7.38188 81.9118Z" fill="#010101"/>
<path d="M10.2845 81.329L10.688 81.5407L13.8381 79.6023L10.2845 81.329ZM106.567 137.751L106.548 138.019L107.917 134.733L106.567 137.751ZM62.8401 59.5343L63.1168 59.5186L65.1915 58.3059L62.8401 59.5343ZM106.56 137.482L106.567 137.751L107.912 134.468L106.56 137.482ZM10.688 81.5407L11.1002 81.816L14.2336 79.8084L10.688 81.5407ZM105.795 134.477L107.168 131.525L79.3534 84.1558L105.795 134.477ZM106.538 137.212L106.56 137.482L107.891 134.204L106.538 137.212ZM63.1168 59.5186L63.3969 59.5307L65.463 58.29L63.1168 59.5186Z" fill="#E7E7E7"/>
<path d="M8.05242 81.3887L7.38188 81.9118L6.74875 82.6836L8.05242 81.3887Z" fill="#010101"/>
<path d="M106.508 136.946L106.538 137.212L107.862 133.943L106.508 136.946ZM63.3969 59.5307L63.6562 59.5429L65.7377 58.3013L63.3969 59.5307ZM106.47 136.684L106.508 136.946L107.826 133.686L106.47 136.684ZM63.6562 59.5429L63.9095 59.5631L65.992 58.3127L63.6562 59.5429ZM106.425 136.425L106.47 136.684L107.782 133.432L106.425 136.425ZM106.373 136.169L106.425 136.425L107.731 133.182L106.373 136.169ZM63.9095 59.5631L64.1565 59.5914L66.2405 58.332L63.9095 59.5631ZM106.313 135.917L106.373 136.169L107.673 132.934L106.313 135.917Z" fill="#E7E7E7"/>
<path d="M8.05242 81.3887L7.71243 81.619L7.38188 81.9118L8.05242 81.3887Z" fill="#010101"/>
<path d="M106.245 135.668L106.313 135.917L107.607 132.691L106.245 135.668ZM64.1565 59.5914L64.3972 59.6278L66.4826 58.3592L64.1565 59.5914ZM106.17 135.423L106.245 135.668L107.534 132.451L106.17 135.423ZM64.3972 59.6278L64.6317 59.6722L66.7186 58.3942L64.3972 59.6278ZM106.088 135.181L106.17 135.423L107.454 132.214L106.088 135.181Z" fill="#E7E7E7"/>
<path d="M9.50419 81.0959L8.05242 81.3887L6.74875 82.6836L9.50419 81.0959Z" fill="#010101"/>
<path d="M105.998 134.943L106.088 135.181L107.366 131.981L105.998 134.943ZM64.6317 59.6722L64.8599 59.7246L66.9485 58.4372L64.6317 59.6722ZM105.9 134.708L105.998 134.943L107.271 131.751L105.9 134.708ZM105.795 134.477L105.9 134.708L107.168 131.525L105.795 134.477ZM64.8599 59.7246L65.0819 59.7852L67.1722 58.4881L64.8599 59.7246ZM65.0819 59.7852L65.2975 59.8538L67.3897 58.5469L65.0819 59.7852ZM74.1683 121.184L76.3181 118.473L18.0173 78.4154L74.1683 121.184ZM65.2975 59.8538L65.5069 59.9305L67.601 58.6136L65.2975 59.8538Z" fill="#E7E7E7"/>
<path d="M8.76024 81.1162L8.4017 81.221L8.05242 81.3887L8.76024 81.1162Z" fill="#010101"/>
<path d="M65.5069 59.9305L65.7099 60.0153L67.8061 58.6883L65.5069 59.9305ZM65.7099 60.0153L65.9066 60.1081L68.005 58.7708L65.7099 60.0153ZM65.9066 60.1081L66.0969 60.2091L68.1976 58.8613L65.9066 60.1081Z" fill="#E7E7E7"/>
<path d="M9.50419 81.0959L8.76024 81.1162L8.05242 81.3887L9.50419 81.0959ZM9.50419 81.0959L9.12781 81.0744L8.76024 81.1162L9.50419 81.0959ZM10.2845 81.329L9.89014 81.1807L9.50419 81.0959L10.2845 81.329ZM11.1002 81.816L10.2845 81.329L9.50419 81.0959L11.1002 81.816ZM11.1002 81.816L10.688 81.5407L10.2845 81.329L11.1002 81.816ZM71.9126 124.029L9.50419 81.0959L1.09019 96.0619L71.9126 124.029Z" fill="#010101"/>
<path d="M77.2949 86.0248L105.795 134.477L79.3534 84.1558L77.2949 86.0248ZM59.5513 61.0383L62.0306 59.748L61.7675 59.8746L59.5513 61.0383ZM104.926 141.989L106.344 138.806L106.437 138.546L104.926 141.989ZM59.8227 60.9377L62.2971 59.6491L62.0306 59.748L59.8227 60.9377ZM105.02 141.724L106.437 138.546L106.505 138.284L105.02 141.724ZM60.0977 60.8655L62.567 59.5778L62.2971 59.6491L60.0977 60.8655ZM105.089 141.457L106.505 138.284L106.548 138.019L105.089 141.457ZM105.133 141.187L106.548 138.019L106.567 137.751L105.133 141.187ZM60.3763 60.8216L62.8401 59.5343L62.567 59.5778L60.3763 60.8216ZM105.151 140.915L106.567 137.751L106.56 137.482L105.151 140.915ZM60.6585 60.8062L63.1168 59.5186L62.8401 59.5343L60.6585 60.8062ZM105.144 140.639L106.56 137.482L106.538 137.212L105.144 140.639Z" fill="#E7E7E7"/>
<path d="M2.18731 96.9604L85.9606 156.426L86.2748 156.627L2.18731 96.9604Z" fill="#010101"/>
<path d="M60.9443 60.8192L63.3969 59.5307L63.1168 59.5186L60.9443 60.8192ZM105.121 140.365L106.538 137.212L106.508 136.946L105.121 140.365Z" fill="#E7E7E7"/>
<path d="M2.18731 96.9604L86.2748 156.627L86.9048 156.991L2.18731 96.9604Z" fill="#010101"/>
<path d="M105.089 140.093L106.508 136.946L106.47 136.684L105.089 140.093ZM61.2085 60.8322L63.6562 59.5429L63.3969 59.5307L61.2085 60.8322ZM105.051 139.825L106.47 136.684L106.425 136.425L105.051 139.825ZM61.4667 60.8534L63.9095 59.5631L63.6562 59.5429L61.4667 60.8534ZM105.004 139.561L106.425 136.425L106.373 136.169L105.004 139.561ZM104.95 139.3L106.373 136.169L106.313 135.917L104.95 139.3ZM61.7186 60.8829L64.1565 59.5914L63.9095 59.5631L61.7186 60.8829ZM104.888 139.043L106.313 135.917L106.245 135.668L104.888 139.043Z" fill="#E7E7E7"/>
<path d="M2.13323 96.9093L86.9048 156.991L89.4476 157.948L2.13323 96.9093Z" fill="#010101"/>
<path d="M61.964 60.9206L64.3972 59.6278L64.1565 59.5914L61.964 60.9206ZM104.819 138.788L106.245 135.668L106.17 135.423L104.819 138.788ZM11.1002 81.816L71.9126 124.029L14.6376 80.0768L11.1002 81.816ZM104.741 138.538L106.17 135.423L106.088 135.181L104.741 138.538ZM62.2033 60.9665L64.6317 59.6722L64.3972 59.6278L62.2033 60.9665ZM104.657 138.291L106.088 135.181L105.998 134.943L104.657 138.291ZM104.564 138.048L105.998 134.943L105.9 134.708L104.564 138.048ZM62.4362 61.0206L64.8599 59.7246L64.6317 59.6722L62.4362 61.0206ZM104.464 137.808L105.9 134.708L105.795 134.477L104.464 137.808ZM62.6628 61.083L65.0819 59.7852L64.8599 59.7246L62.6628 61.083ZM62.883 61.1537L65.2975 59.8538L65.0819 59.7852L62.883 61.1537ZM63.0967 61.2325L65.5069 59.9305L65.2975 59.8538L63.0967 61.2325ZM63.3041 61.3197L65.7099 60.0153L65.5069 59.9305L63.3041 61.3197ZM66.0969 60.2091L110.704 82.0747L68.3839 58.9597L66.0969 60.2091ZM63.505 61.415L65.9066 60.1081L65.7099 60.0153L63.505 61.415ZM63.6994 61.5186L66.0969 60.2091L65.9066 60.1081L63.6994 61.5186ZM59.2831 61.1671L59.5513 61.0383L61.7675 59.8746L59.2831 61.1671ZM59.5513 61.0383L59.8227 60.9377L62.0306 59.748L59.5513 61.0383ZM105.02 141.724L104.926 141.989L106.437 138.546L105.02 141.724ZM105.089 141.457L105.02 141.724L106.505 138.284L105.089 141.457ZM59.8227 60.9377L60.0977 60.8655L62.2971 59.6491L59.8227 60.9377ZM105.133 141.187L105.089 141.457L106.548 138.019L105.133 141.187ZM60.0977 60.8655L60.3763 60.8216L62.567 59.5778L60.0977 60.8655ZM105.151 140.915L105.133 141.187L106.567 137.751L105.151 140.915ZM60.3763 60.8216L60.6585 60.8062L62.8401 59.5343L60.3763 60.8216ZM105.144 140.639L105.151 140.915L106.56 137.482L105.144 140.639ZM104.356 137.571L105.795 134.477L77.2949 86.0248L104.356 137.571ZM105.121 140.365L105.144 140.639L106.538 137.212L105.121 140.365ZM60.6585 60.8062L60.9443 60.8192L63.1168 59.5186L60.6585 60.8062ZM105.089 140.093L105.121 140.365L106.508 136.946L105.089 140.093Z" fill="#E7E7E7"/>
<path d="M71.9126 124.029L1.87076 96.6968L89.4476 157.948L71.9126 124.029Z" fill="#010101"/>
<path d="M60.9443 60.8192L61.2085 60.8322L63.3969 59.5307L60.9443 60.8192ZM105.051 139.825L105.089 140.093L106.47 136.684L105.051 139.825ZM61.2085 60.8322L61.4667 60.8534L63.6562 59.5429L61.2085 60.8322ZM105.004 139.561L105.051 139.825L106.425 136.425L105.004 139.561Z" fill="#E7E7E7"/>
<path d="M71.9126 124.029L11.1002 81.816L9.50419 81.0959L71.9126 124.029Z" fill="#010101"/>
<path d="M104.95 139.3L105.004 139.561L106.373 136.169L104.95 139.3ZM61.4667 60.8534L61.7186 60.8829L63.9095 59.5631L61.4667 60.8534ZM104.888 139.043L104.95 139.3L106.313 135.917L104.888 139.043ZM104.819 138.788L104.888 139.043L106.245 135.668L104.819 138.788ZM61.7186 60.8829L61.964 60.9206L64.1565 59.5914L61.7186 60.8829ZM104.741 138.538L104.819 138.788L106.17 135.423L104.741 138.538ZM61.964 60.9206L62.2033 60.9665L64.3972 59.6278L61.964 60.9206ZM104.657 138.291L104.741 138.538L106.088 135.181L104.657 138.291ZM104.564 138.048L104.657 138.291L105.998 134.943L104.564 138.048ZM62.2033 60.9665L62.4362 61.0206L64.6317 59.6722L62.2033 60.9665ZM104.464 137.808L104.564 138.048L105.9 134.708L104.464 137.808ZM104.356 137.571L104.464 137.808L105.795 134.477L104.356 137.571ZM110.704 82.0747L112.023 80.2441L68.3839 58.9597L110.704 82.0747ZM62.4362 61.0206L62.6628 61.083L64.8599 59.7246L62.4362 61.0206ZM62.6628 61.083L62.883 61.1537L65.0819 59.7852L62.6628 61.083ZM71.9126 124.029L74.1683 121.184L14.6376 80.0768L71.9126 124.029ZM62.883 61.1537L63.0967 61.2325L65.2975 59.8538L62.883 61.1537ZM63.0967 61.2325L63.3041 61.3197L65.5069 59.9305L63.0967 61.2325ZM63.3041 61.3197L63.505 61.415L65.7099 60.0153L63.3041 61.3197ZM63.505 61.415L63.6994 61.5186L65.9066 60.1081L63.505 61.415ZM75.1352 87.9852L104.356 137.571L77.2949 86.0248L75.1352 87.9852ZM56.9498 62.3919L59.5513 61.0383L59.2831 61.1671L56.9498 62.3919ZM103.437 145.328L104.926 141.989L105.02 141.724L103.437 145.328ZM57.2263 62.2896L59.8227 60.9377L59.5513 61.0383L57.2263 62.2896ZM103.533 145.058L105.02 141.724L105.089 141.457L103.533 145.058ZM57.5065 62.2164L60.0977 60.8655L59.8227 60.9377L57.5065 62.2164ZM103.603 144.786L105.089 141.457L105.133 141.187L103.603 144.786ZM103.647 144.511L105.133 141.187L105.151 140.915L103.647 144.511ZM57.7906 62.1722L60.3763 60.8216L60.0977 60.8655L57.7906 62.1722ZM103.666 144.233L105.151 140.915L105.144 140.639L103.666 144.233ZM58.0784 62.157L60.6585 60.8062L60.3763 60.8216L58.0784 62.157Z" fill="#E7E7E7"/>
<path d="M86.2748 156.627L86.5893 156.815L86.9048 156.991L86.2748 156.627Z" fill="#010101"/>
<path d="M103.658 143.952L105.144 140.639L105.121 140.365L103.658 143.952ZM58.3702 62.171L60.9443 60.8192L60.6585 60.8062L58.3702 62.171ZM103.634 143.672L105.121 140.365L105.089 140.093L103.634 143.672Z" fill="#E7E7E7"/>
<path d="M86.9048 156.991L87.22 157.155L87.5363 157.306L86.9048 156.991Z" fill="#010101"/>
<path d="M103.601 143.395L105.089 140.093L105.051 139.825L103.601 143.395ZM58.6403 62.1849L61.2085 60.8322L60.9443 60.8192L58.6403 62.1849Z" fill="#E7E7E7"/>
<path d="M86.9048 156.991L87.5363 157.306L88.1708 157.57L86.9048 156.991Z" fill="#010101"/>
<path d="M103.561 143.122L105.051 139.825L105.004 139.561L103.561 143.122ZM58.9037 62.2073L61.4667 60.8534L61.2085 60.8322L58.9037 62.2073ZM103.513 142.852L105.004 139.561L104.95 139.3L103.513 142.852Z" fill="#E7E7E7"/>
<path d="M87.5363 157.306L87.8533 157.444L88.1708 157.57L87.5363 157.306Z" fill="#010101"/>
<path d="M103.457 142.585L104.95 139.3L104.888 139.043L103.457 142.585ZM59.161 62.238L61.7186 60.8829L61.4667 60.8534L59.161 62.238ZM103.394 142.322L104.888 139.043L104.819 138.788L103.394 142.322Z" fill="#E7E7E7"/>
<path d="M86.9048 156.991L88.1708 157.57L89.4476 157.948L86.9048 156.991Z" fill="#010101"/>
<path d="M59.4115 62.2771L61.964 60.9206L61.7186 60.8829L59.4115 62.2771ZM103.322 142.063L104.819 138.788L104.741 138.538L103.322 142.063Z" fill="#E7E7E7"/>
<path d="M88.1708 157.57L88.4892 157.683L88.808 157.784L88.1708 157.57Z" fill="#010101"/>
<path d="M103.243 141.807L104.741 138.538L104.657 138.291L103.243 141.807ZM59.6559 62.3246L62.2033 60.9665L61.964 60.9206L59.6559 62.3246ZM103.156 141.554L104.657 138.291L104.564 138.048L103.156 141.554ZM103.061 141.305L104.564 138.048L104.464 137.808L103.061 141.305Z" fill="#E7E7E7"/>
<path d="M88.1708 157.57L88.808 157.784L89.4476 157.948L88.1708 157.57Z" fill="#010101"/>
<path d="M59.8935 62.3806L62.4362 61.0206L62.2033 60.9665L59.8935 62.3806ZM102.958 141.06L104.464 137.808L104.356 137.571L102.958 141.06ZM60.1249 62.4449L62.6628 61.083L62.4362 61.0206L60.1249 62.4449Z" fill="#E7E7E7"/>
<path d="M88.808 157.784L89.1278 157.872L89.4476 157.948L88.808 157.784Z" fill="#010101"/>
<path d="M60.3498 62.5177L62.883 61.1537L62.6628 61.083L60.3498 62.5177ZM60.5682 62.5989L63.0967 61.2325L62.883 61.1537L60.5682 62.5989ZM60.7801 62.6885L63.3041 61.3197L63.0967 61.2325L60.7801 62.6885ZM63.6994 61.5186L109.32 83.9976L66.0969 60.2091L63.6994 61.5186ZM60.9854 62.7865L63.505 61.415L63.3041 61.3197L60.9854 62.7865Z" fill="#E7E7E7"/>
<path d="M89.4476 157.948L89.7682 158.011L90.0839 158.024L89.4476 157.948Z" fill="#010101"/>
<path d="M61.1844 62.8929L63.6994 61.5186L63.505 61.415L61.1844 62.8929Z" fill="#E7E7E7"/>
<path d="M89.4476 157.948L90.0839 158.024L90.7014 157.988L89.4476 157.948ZM90.0839 158.024L90.3949 158.016L90.7014 157.988L90.0839 158.024Z" fill="#010101"/>
<path d="M56.6778 62.523L56.9498 62.3919L59.2831 61.1671L56.6778 62.523Z" fill="#E7E7E7"/>
<path d="M89.4476 157.948L90.7014 157.988L91.8814 157.67L89.4476 157.948Z" fill="#010101"/>
<path d="M56.9498 62.3919L57.2263 62.2896L59.5513 61.0383L56.9498 62.3919ZM103.533 145.058L103.437 145.328L105.02 141.724L103.533 145.058Z" fill="#E7E7E7"/>
<path d="M90.7014 157.988L91.0033 157.939L91.3006 157.87L90.7014 157.988Z" fill="#010101"/>
<path d="M103.603 144.786L103.533 145.058L105.089 141.457L103.603 144.786ZM57.2263 62.2896L57.5065 62.2164L59.8227 60.9377L57.2263 62.2896Z" fill="#E7E7E7"/>
<path d="M90.7014 157.988L91.3006 157.87L91.8814 157.67L90.7014 157.988Z" fill="#010101"/>
<path d="M103.647 144.511L103.603 144.786L105.133 141.187L103.647 144.511ZM57.5065 62.2164L57.7906 62.1722L60.0977 60.8655L57.5065 62.2164ZM103.666 144.233L103.647 144.511L105.151 140.915L103.666 144.233Z" fill="#E7E7E7"/>
<path d="M91.3006 157.87L91.5937 157.78L91.8814 157.67L91.3006 157.87Z" fill="#010101"/>
<path d="M57.7906 62.1722L58.0784 62.157L60.3763 60.8216L57.7906 62.1722ZM103.658 143.952L103.666 144.233L105.144 140.639L103.658 143.952ZM102.847 140.818L104.356 137.571L75.1352 87.9852L102.847 140.818ZM103.634 143.672L103.658 143.952L105.121 140.365L103.634 143.672ZM58.0784 62.157L58.3702 62.171L60.6585 60.8062L58.0784 62.157ZM103.601 143.395L103.634 143.672L105.089 140.093L103.601 143.395ZM58.3702 62.171L58.6403 62.1849L60.9443 60.8192L58.3702 62.171ZM103.561 143.122L103.601 143.395L105.051 139.825L103.561 143.122Z" fill="#E7E7E7"/>
<path d="M91.8814 157.67L92.1653 157.539L92.4444 157.387L91.8814 157.67Z" fill="#010101"/>
<path d="M58.6403 62.1849L58.9037 62.2073L61.2085 60.8322L58.6403 62.1849ZM103.513 142.852L103.561 143.122L105.004 139.561L103.513 142.852ZM103.457 142.585L103.513 142.852L104.95 139.3L103.457 142.585ZM58.9037 62.2073L59.161 62.238L61.4667 60.8534L58.9037 62.2073ZM103.394 142.322L103.457 142.585L104.888 139.043L103.394 142.322Z" fill="#E7E7E7"/>
<path d="M91.8814 157.67L92.4444 157.387L92.9888 157.022L91.8814 157.67Z" fill="#010101"/>
<path d="M103.322 142.063L103.394 142.322L104.819 138.788L103.322 142.063ZM59.161 62.238L59.4115 62.2771L61.7186 60.8829L59.161 62.238ZM103.243 141.807L103.322 142.063L104.741 138.538L103.243 141.807ZM59.4115 62.2771L59.6559 62.3246L61.964 60.9206L59.4115 62.2771ZM103.156 141.554L103.243 141.807L104.657 138.291L103.156 141.554Z" fill="#E7E7E7"/>
<path d="M92.4444 157.387L92.7189 157.215L92.9888 157.022L92.4444 157.387Z" fill="#010101"/>
<path d="M103.061 141.305L103.156 141.554L104.564 138.048L103.061 141.305ZM59.6559 62.3246L59.8935 62.3806L62.2033 60.9665L59.6559 62.3246ZM102.958 141.06L103.061 141.305L104.464 137.808L102.958 141.06ZM102.847 140.818L102.958 141.06L104.356 137.571L102.847 140.818ZM109.32 83.9976L110.704 82.0747L66.0969 60.2091L109.32 83.9976ZM59.8935 62.3806L60.1249 62.4449L62.4362 61.0206L59.8935 62.3806ZM60.1249 62.4449L60.3498 62.5177L62.6628 61.083L60.1249 62.4449ZM60.3498 62.5177L60.5682 62.5989L62.883 61.1537L60.3498 62.5177ZM60.5682 62.5989L60.7801 62.6885L63.0967 61.2325L60.5682 62.5989ZM60.7801 62.6885L60.9854 62.7865L63.3041 61.3197L60.7801 62.6885ZM60.9854 62.7865L61.1844 62.8929L63.505 61.415L60.9854 62.7865Z" fill="#E7E7E7"/>
<path d="M89.4476 157.948L91.8814 157.67L100.74 150.412L89.4476 157.948ZM91.8814 157.67L92.9888 157.022L100.74 150.412L91.8814 157.67ZM92.9888 157.022L93.2538 156.808L100.46 150.663L92.9888 157.022Z" fill="#010101"/>
<path d="M72.8684 90.0439L102.847 140.818L75.1352 87.9852L72.8684 90.0439ZM54.2186 63.8135L56.9498 62.3919L56.6778 62.523L54.2186 63.8135ZM101.875 148.834L103.437 145.328L103.533 145.058L101.875 148.834ZM54.5004 63.7096L57.2263 62.2896L56.9498 62.3919L54.5004 63.7096ZM101.973 148.56L103.533 145.058L103.603 144.786L101.973 148.56ZM54.7861 63.6353L57.5065 62.2164L57.2263 62.2896L54.7861 63.6353ZM102.044 148.283L103.603 144.786L103.647 144.511L102.044 148.283ZM102.088 148.002L103.647 144.511L103.666 144.233L102.088 148.002ZM55.0758 63.5908L57.7906 62.1722L57.5065 62.2164L55.0758 63.5908ZM102.106 147.719L103.666 144.233L103.658 143.952L102.106 147.719ZM55.3694 63.576L58.0784 62.157L57.7906 62.1722L55.3694 63.576ZM102.098 147.433L103.658 143.952L103.634 143.672L102.098 147.433ZM55.6669 63.591L58.3702 62.171L58.0784 62.157L55.6669 63.591ZM102.072 147.146L103.634 143.672L103.601 143.395L102.072 147.146ZM102.038 146.864L103.601 143.395L103.561 143.122L102.038 146.864ZM55.9424 63.606L58.6403 62.1849L58.3702 62.171L55.9424 63.606ZM101.996 146.584L103.561 143.122L103.513 142.852L101.996 146.584ZM56.2114 63.6295L58.9037 62.2073L58.6403 62.1849L56.2114 63.6295ZM101.947 146.308L103.513 142.852L103.457 142.585L101.947 146.308Z" fill="#E7E7E7"/>
<path d="M89.4476 157.948L100.74 150.412L102.044 148.283L89.4476 157.948Z" fill="#010101"/>
<path d="M101.889 146.036L103.457 142.585L103.394 142.322L101.889 146.036ZM56.4737 63.6615L59.161 62.238L58.9037 62.2073L56.4737 63.6615ZM101.823 145.767L103.394 142.322L103.322 142.063L101.823 145.767ZM56.7297 63.7022L59.4115 62.2771L59.161 62.238L56.7297 63.7022Z" fill="#E7E7E7"/>
<path d="M92.9888 157.022L100.46 150.663L100.74 150.412L92.9888 157.022Z" fill="#010101"/>
<path d="M101.749 145.502L103.322 142.063L103.243 141.807L101.749 145.502ZM101.667 145.24L103.243 141.807L103.156 141.554L101.667 145.24ZM56.9789 63.7514L59.6559 62.3246L59.4115 62.2771L56.9789 63.7514ZM101.578 144.982L103.156 141.554L103.061 141.305L101.578 144.982ZM101.48 144.728L103.061 141.305L102.958 141.06L101.48 144.728ZM57.2218 63.8092L59.8935 62.3806L59.6559 62.3246L57.2218 63.8092ZM101.374 144.477L102.958 141.06L102.847 140.818L101.374 144.477ZM57.4582 63.8756L60.1249 62.4449L59.8935 62.3806L57.4582 63.8756Z" fill="#E7E7E7"/>
<path d="M44.3176 80.0431L44.4333 80.2585L71.9126 124.029L44.3176 80.0431Z" fill="#010101"/>
<path d="M57.6882 63.9507L60.3498 62.5177L60.1249 62.4449L57.6882 63.9507Z" fill="#E7E7E7"/>
<path d="M44.1014 79.5929L44.3176 80.0431L71.9126 124.029L44.1014 79.5929Z" fill="#010101"/>
<path d="M57.9113 64.0343L60.5682 62.5989L60.3498 62.5177L57.9113 64.0343Z" fill="#E7E7E7"/>
<path d="M43.7292 78.6137L44.1014 79.5929L71.9126 124.029L43.7292 78.6137Z" fill="#010101"/>
<path d="M58.1283 64.1265L60.7801 62.6885L60.5682 62.5989L58.1283 64.1265Z" fill="#E7E7E7"/>
<path d="M71.9126 124.029L89.4476 157.948L70.4842 92.2085L71.9126 124.029Z" fill="#010101"/>
<path d="M61.1844 62.8929L107.863 86.02L63.6994 61.5186L61.1844 62.8929ZM58.3376 64.2273L60.9854 62.7865L60.7801 62.6885L58.3376 64.2273ZM58.5408 64.3367L61.1844 62.8929L60.9854 62.7865L58.5408 64.3367Z" fill="#E7E7E7"/>
<path d="M43.2977 76.2629L43.7292 78.6137L71.9126 124.029L43.2977 76.2629Z" fill="#010101"/>
<path d="M53.9407 63.947L54.2186 63.8135L56.6778 62.523L53.9407 63.947ZM54.2186 63.8135L54.5004 63.7096L56.9498 62.3919L54.2186 63.8135ZM101.973 148.56L101.875 148.834L103.533 145.058L101.973 148.56ZM102.044 148.283L101.973 148.56L103.603 144.786L102.044 148.283ZM54.5004 63.7096L54.7861 63.6353L57.2263 62.2896L54.5004 63.7096ZM102.088 148.002L102.044 148.283L103.647 144.511L102.088 148.002Z" fill="#E7E7E7"/>
<path d="M44.1014 79.5929L44.207 79.8213L44.3176 80.0431L44.1014 79.5929Z" fill="#010101"/>
<path d="M54.7861 63.6353L55.0758 63.5908L57.5065 62.2164L54.7861 63.6353Z" fill="#E7E7E7"/>
<path d="M43.905 79.1164L44.0005 79.3579L44.1014 79.5929L43.905 79.1164Z" fill="#010101"/>
<path d="M102.106 147.719L102.088 148.002L103.666 144.233L102.106 147.719Z" fill="#E7E7E7"/>
<path d="M43.7292 78.6137L43.905 79.1164L44.1014 79.5929L43.7292 78.6137Z" fill="#010101"/>
<path d="M55.0758 63.5908L55.3694 63.576L57.7906 62.1722L55.0758 63.5908Z" fill="#E7E7E7"/>
<path d="M43.7292 78.6137L43.8146 78.8684L43.905 79.1164L43.7292 78.6137Z" fill="#010101"/>
<path d="M102.098 147.433L102.106 147.719L103.658 143.952L102.098 147.433ZM101.261 144.229L102.847 140.818L72.8684 90.0439L101.261 144.229Z" fill="#E7E7E7"/>
<path d="M43.5739 78.0845L43.6493 78.3524L43.7292 78.6137L43.5739 78.0845Z" fill="#010101"/>
<path d="M102.072 147.146L102.098 147.433L103.634 143.672L102.072 147.146ZM55.3694 63.576L55.6669 63.591L58.0784 62.157L55.3694 63.576Z" fill="#E7E7E7"/>
<path d="M43.4384 77.5287L43.5739 78.0845L43.7292 78.6137L43.4384 77.5287Z" fill="#010101"/>
<path d="M102.038 146.864L102.072 147.146L103.601 143.395L102.038 146.864ZM55.6669 63.591L55.9424 63.606L58.3702 62.171L55.6669 63.591Z" fill="#E7E7E7"/>
<path d="M43.4384 77.5287L43.5037 77.81L43.5739 78.0845L43.4384 77.5287Z" fill="#010101"/>
<path d="M101.996 146.584L102.038 146.864L103.561 143.122L101.996 146.584ZM55.9424 63.606L56.2114 63.6295L58.6403 62.1849L55.9424 63.606Z" fill="#E7E7E7"/>
<path d="M43.2977 76.2629L43.4384 77.5287L43.7292 78.6137L43.2977 76.2629Z" fill="#010101"/>
<path d="M101.947 146.308L101.996 146.584L103.513 142.852L101.947 146.308Z" fill="#E7E7E7"/>
<path d="M43.3269 76.9121L43.3778 77.2409L43.4384 77.5287L43.3269 76.9121Z" fill="#010101"/>
<path d="M101.889 146.036L101.947 146.308L103.457 142.585L101.889 146.036ZM56.2114 63.6295L56.4737 63.6615L58.9037 62.2073L56.2114 63.6295Z" fill="#E7E7E7"/>
<path d="M43.2977 76.2629L43.3269 76.9121L43.4384 77.5287L43.2977 76.2629Z" fill="#010101"/>
<path d="M101.823 145.767L101.889 146.036L103.394 142.322L101.823 145.767ZM101.749 145.502L101.823 145.767L103.322 142.063L101.749 145.502ZM56.4737 63.6615L56.7297 63.7022L59.161 62.238L56.4737 63.6615Z" fill="#E7E7E7"/>
<path d="M43.2977 76.2629L43.3 76.5861L43.3269 76.9121L43.2977 76.2629Z" fill="#010101"/>
<path d="M101.667 145.24L101.749 145.502L103.243 141.807L101.667 145.24Z" fill="#E7E7E7"/>
<path d="M89.4476 157.948L102.044 148.283L70.4842 92.2085L89.4476 157.948Z" fill="#010101"/>
<path d="M56.7297 63.7022L56.9789 63.7514L59.4115 62.2771L56.7297 63.7022ZM101.578 144.982L101.667 145.24L103.156 141.554L101.578 144.982Z" fill="#E7E7E7"/>
<path d="M100.74 150.412L100.995 150.157L101.223 149.899L100.74 150.412Z" fill="#010101"/>
<path d="M101.48 144.728L101.578 144.982L103.061 141.305L101.48 144.728ZM56.9789 63.7514L57.2218 63.8092L59.6559 62.3246L56.9789 63.7514ZM101.374 144.477L101.48 144.728L102.958 141.06L101.374 144.477ZM101.261 144.229L101.374 144.477L102.847 140.818L101.261 144.229ZM107.863 86.02L109.32 83.9976L63.6994 61.5186L107.863 86.02Z" fill="#E7E7E7"/>
<path d="M43.366 75.6243L43.3197 75.9422L43.2977 76.2629L43.366 75.6243Z" fill="#010101"/>
<path d="M57.2218 63.8092L57.4582 63.8756L59.8935 62.3806L57.2218 63.8092Z" fill="#E7E7E7"/>
<path d="M100.74 150.412L101.223 149.899L101.602 149.373L100.74 150.412Z" fill="#010101"/>
<path d="M57.4582 63.8756L57.6882 63.9507L60.1249 62.4449L57.4582 63.8756Z" fill="#E7E7E7"/>
<path d="M43.532 74.9962L43.366 75.6243L43.2977 76.2629L43.532 74.9962Z" fill="#010101"/>
<path d="M57.6882 63.9507L57.9113 64.0343L60.3498 62.5177L57.6882 63.9507ZM57.9113 64.0343L58.1283 64.1265L60.5682 62.5989L57.9113 64.0343Z" fill="#E7E7E7"/>
<path d="M101.223 149.899L101.425 149.638L101.602 149.373L101.223 149.899ZM79.4333 2.30496L79.4551 2.3243L79.4786 2.3452L79.4333 2.30496ZM79.4786 2.3452L79.531 2.39163L79.5598 2.41717L79.4786 2.3452ZM79.4786 2.3452L79.5598 2.41717L79.5904 2.44426L79.4786 2.3452ZM43.532 74.9962L43.4371 75.3089L43.366 75.6243L43.532 74.9962Z" fill="#010101"/>
<path d="M58.1283 64.1265L58.3376 64.2273L60.7801 62.6885L58.1283 64.1265ZM58.3376 64.2273L58.5408 64.3367L60.9854 62.7865L58.3376 64.2273Z" fill="#E7E7E7"/>
<path d="M100.74 150.412L101.602 149.373L102.044 148.283L100.74 150.412ZM44.1586 73.7702L43.532 74.9962L43.2977 76.2629L44.1586 73.7702ZM43.796 74.3782L43.6517 74.6859L43.532 74.9962L43.796 74.3782ZM101.602 149.373L101.751 149.105L101.875 148.834L101.602 149.373ZM101.602 149.373L101.875 148.834L102.044 148.283L101.602 149.373ZM44.1586 73.7702L43.796 74.3782L43.532 74.9962L44.1586 73.7702ZM101.875 148.834L101.973 148.56L102.044 148.283L101.875 148.834ZM44.1586 73.7702L43.965 74.073L43.796 74.3782L44.1586 73.7702ZM51.0623 65.4444L43.2977 76.2629L71.9126 124.029L51.0623 65.4444ZM102.044 148.283L102.088 148.002L102.106 147.719L102.044 148.283ZM102.044 148.283L102.106 147.719L102.072 147.146L102.044 148.283ZM102.106 147.719L102.098 147.433L102.072 147.146L102.106 147.719ZM102.044 148.283L102.072 147.146L101.889 146.036L102.044 148.283Z" fill="#010101"/>
<path d="M149.527 98.3791L149.929 96.0668L149.982 95.7498L149.527 98.3791Z" fill="#E7E7E7"/>
<path d="M102.072 147.146L102.038 146.864L101.996 146.584L102.072 147.146Z" fill="#010101"/>
<path d="M149.582 98.0551L149.982 95.7498L150.011 95.4289L149.582 98.0551Z" fill="#E7E7E7"/>
<path d="M102.072 147.146L101.996 146.584L101.889 146.036L102.072 147.146Z" fill="#010101"/>
<path d="M149.611 97.727L150.011 95.4289L149.996 95.0887L149.611 97.727Z" fill="#E7E7E7"/>
<path d="M101.996 146.584L101.947 146.308L101.889 146.036L101.996 146.584Z" fill="#010101"/>
<path d="M149.596 97.3789L149.996 95.0887L149.962 94.7527L149.596 97.3789Z" fill="#E7E7E7"/>
<path d="M101.889 146.036L101.823 145.767L101.749 145.502L101.889 146.036Z" fill="#010101"/>
<path d="M149.561 97.035L149.962 94.7527L149.908 94.4208L149.561 97.035Z" fill="#E7E7E7"/>
<path d="M101.889 146.036L101.749 145.502L101.578 144.982L101.889 146.036Z" fill="#010101"/>
<path d="M149.505 96.6953L149.908 94.4208L149.834 94.0931L149.505 96.6953Z" fill="#E7E7E7"/>
<path d="M101.749 145.502L101.667 145.24L101.578 144.982L101.749 145.502Z" fill="#010101"/>
<path d="M149.429 96.3599L149.834 94.0931L149.741 93.7697L149.429 96.3599Z" fill="#E7E7E7"/>
<path d="M101.578 144.982L101.48 144.728L101.374 144.477L101.578 144.982Z" fill="#010101"/>
<path d="M75.563 1.38523L77.8189 1.49715L77.6025 1.47059L75.563 1.38523ZM149.334 96.0288L149.741 93.7697L149.629 93.4506L149.334 96.0288ZM149.219 95.7019L149.629 93.4506L149.497 93.1358L149.219 95.7019ZM75.781 1.42939L78.032 1.54023L77.8189 1.49715L75.781 1.42939ZM149.083 95.3795L149.497 93.1358L149.346 92.8254L149.083 95.3795ZM148.928 95.0614L149.346 92.8254L149.175 92.5194L148.928 95.0614ZM75.9958 1.4905L78.242 1.59984L78.032 1.54023L75.9958 1.4905ZM148.753 94.7478L149.175 92.5194L148.985 92.2179L148.753 94.7478ZM148.557 94.4387L148.985 92.2179L148.775 91.9208L148.557 94.4387ZM148.342 94.134L148.775 91.9208L148.545 91.6282L148.342 94.134ZM76.2073 1.56859L78.4487 1.67599L78.242 1.59984L76.2073 1.56859ZM76.4155 1.66365L78.6522 1.76869L78.4487 1.67599L76.4155 1.66365ZM148.107 93.8339L148.545 91.6282L80.3354 3.33896L148.107 93.8339ZM76.6204 1.77569L78.8523 1.87794L78.6522 1.76869L76.6204 1.77569ZM76.822 1.90471L79.0492 2.00374L78.8523 1.87794L76.822 1.90471ZM77.0203 2.0507L79.2428 2.14608L79.0492 2.00374L77.0203 2.0507ZM77.2152 2.21367L79.4333 2.30496L79.2428 2.14608L77.2152 2.21367ZM77.2375 2.23351L79.4551 2.3243L79.4333 2.30496L77.2375 2.23351ZM77.2617 2.25494L79.4786 2.3452L79.4551 2.3243L77.2617 2.25494ZM77.2876 2.27796L79.5037 2.36765L79.4786 2.3452L77.2876 2.27796ZM77.3154 2.30256L79.531 2.39163L79.5037 2.36765L77.3154 2.30256ZM77.3449 2.32876L79.5598 2.41717L79.531 2.39163L77.3449 2.32876ZM77.3762 2.35655L79.5904 2.44426L79.5598 2.41717L77.3762 2.35655ZM77.4093 2.38592L79.6224 2.4729L79.5904 2.44426L77.4093 2.38592ZM77.4442 2.41688L79.6565 2.50309L79.6224 2.4729L77.4442 2.41688ZM77.4809 2.44943L79.6923 2.53482L79.6565 2.50309L77.4809 2.44943ZM77.5193 2.48357L79.7298 2.5681L79.6923 2.53482L77.5193 2.48357ZM77.5596 2.5193L79.7691 2.60294L79.7298 2.5681L77.5596 2.5193ZM78.1405 3.27426L80.3354 3.33896L80.2899 3.26129L78.1405 3.27426ZM77.6017 2.55662L79.8102 2.63933L79.7691 2.60294L77.6017 2.55662ZM78.0938 3.19459L80.2899 3.26129L80.2448 3.18714L78.0938 3.19459ZM77.6448 2.59654L79.8522 2.67825L79.8102 2.63933L77.6448 2.59654ZM78.0474 3.11853L80.2448 3.18714L80.1999 3.1165L78.0474 3.11853ZM77.6882 2.64008L79.8946 2.72069L79.8522 2.67825L77.6882 2.64008ZM78.0014 3.04608L80.1999 3.1165L80.1554 3.04939L78.0014 3.04608ZM77.732 2.68723L79.9373 2.76667L79.8946 2.72069L77.732 2.68723ZM77.9557 2.97723L80.1554 3.04939L80.1112 2.9858L77.9557 2.97723ZM77.7761 2.73801L79.9803 2.81616L79.9373 2.76667L77.7761 2.73801ZM77.9103 2.91201L80.1112 2.9858L80.0672 2.92573L77.9103 2.91201ZM77.8205 2.79239L80.0236 2.86918L79.9803 2.81616L77.8205 2.79239ZM77.8652 2.85039L80.0672 2.92573L80.0236 2.86918L77.8652 2.85039Z" fill="#E7E7E7"/>
<path d="M51.0623 65.4444L44.1586 73.7702L43.2977 76.2629L51.0623 65.4444ZM49.4537 66.8913L44.3771 73.4698L44.1586 73.7702L49.4537 66.8913Z" fill="#010101"/>
<path d="M70.4842 92.2085L101.261 144.229L72.8684 90.0439L70.4842 92.2085ZM51.3451 65.3084L54.2186 63.8135L53.9407 63.947L51.3451 65.3084ZM51.6324 65.2028L54.5004 63.7096L54.2186 63.8135L51.6324 65.2028Z" fill="#E7E7E7"/>
<path d="M102.044 148.283L101.889 146.036L70.4842 92.2085L102.044 148.283Z" fill="#010101"/>
<path d="M51.9241 65.1275L54.7861 63.6353L54.5004 63.7096L51.9241 65.1275ZM52.2197 65.0827L55.0758 63.5908L54.7861 63.6353L52.2197 65.0827Z" fill="#E7E7E7"/>
<path d="M101.889 146.036L101.578 144.982L70.4842 92.2085L101.889 146.036ZM101.578 144.982L101.374 144.477L70.4842 92.2085L101.578 144.982Z" fill="#010101"/>
<path d="M52.5194 65.0683L55.3694 63.576L55.0758 63.5908L52.5194 65.0683Z" fill="#E7E7E7"/>
<path d="M101.374 144.477L101.261 144.229L70.4842 92.2085L101.374 144.477Z" fill="#010101"/>
<path d="M149.582 98.0551L149.527 98.3791L149.982 95.7498L149.582 98.0551ZM52.8231 65.0845L55.6669 63.591L55.3694 63.576L52.8231 65.0845ZM149.611 97.727L149.582 98.0551L150.011 95.4289L149.611 97.727ZM53.1043 65.1005L55.9424 63.606L55.6669 63.591L53.1043 65.1005ZM149.596 97.3789L149.611 97.727L149.996 95.0887L149.596 97.3789Z" fill="#E7E7E7"/>
<path d="M70.4842 92.2085L55.7609 65.8556L71.9126 124.029L70.4842 92.2085Z" fill="#010101"/>
<path d="M53.3789 65.1252L56.2114 63.6295L55.9424 63.606L53.3789 65.1252ZM149.561 97.035L149.596 97.3789L149.962 94.7527L149.561 97.035ZM53.647 65.1588L56.4737 63.6615L56.2114 63.6295L53.647 65.1588ZM149.505 96.6953L149.561 97.035L149.908 94.4208L149.505 96.6953ZM53.9086 65.2011L56.7297 63.7022L56.4737 63.6615L53.9086 65.2011Z" fill="#E7E7E7"/>
<path d="M55.7609 65.8556L51.0623 65.4444L71.9126 124.029L55.7609 65.8556Z" fill="#010101"/>
<path d="M149.429 96.3599L149.505 96.6953L149.834 94.0931L149.429 96.3599ZM149.334 96.0288L149.429 96.3599L149.741 93.7697L149.334 96.0288ZM75.3419 1.358L75.563 1.38523L77.6025 1.47059L75.3419 1.358ZM54.1637 65.2521L56.9789 63.7514L56.7297 63.7022L54.1637 65.2521ZM149.219 95.7019L149.334 96.0288L149.629 93.4506L149.219 95.7019ZM75.563 1.38523L75.781 1.42939L77.8189 1.49715L75.563 1.38523ZM54.412 65.3119L57.2218 63.8092L56.9789 63.7514L54.412 65.3119ZM149.083 95.3795L149.219 95.7019L149.497 93.1358L149.083 95.3795ZM148.928 95.0614L149.083 95.3795L149.346 92.8254L148.928 95.0614ZM75.781 1.42939L75.9958 1.4905L78.032 1.54023L75.781 1.42939ZM148.753 94.7478L148.928 95.0614L149.175 92.5194L148.753 94.7478ZM54.6536 65.3806L57.4582 63.8756L57.2218 63.8092L54.6536 65.3806ZM148.557 94.4387L148.753 94.7478L148.985 92.2179L148.557 94.4387ZM148.342 94.134L148.557 94.4387L148.775 91.9208L148.342 94.134ZM148.107 93.8339L148.342 94.134L148.545 91.6282L148.107 93.8339ZM75.9958 1.4905L76.2073 1.56859L78.242 1.59984L75.9958 1.4905ZM54.8886 65.458L57.6882 63.9507L57.4582 63.8756L54.8886 65.458ZM76.2073 1.56859L76.4155 1.66365L78.4487 1.67599L76.2073 1.56859Z" fill="#E7E7E7"/>
<path d="M49.973 66.2893L49.4537 66.8913L44.1586 73.7702L49.973 66.2893Z" fill="#010101"/>
<path d="M76.4155 1.66365L76.6204 1.77569L78.6522 1.76869L76.4155 1.66365ZM55.1167 65.5442L57.9113 64.0343L57.6882 63.9507L55.1167 65.5442ZM76.6204 1.77569L76.822 1.90471L78.8523 1.87794L76.6204 1.77569ZM78.1405 3.27426L148.107 93.8339L80.3354 3.33896L78.1405 3.27426ZM55.3382 65.6392L58.1283 64.1265L57.9113 64.0343L55.3382 65.6392ZM76.822 1.90471L77.0203 2.0507L79.0492 2.00374L76.822 1.90471ZM77.0203 2.0507L77.2152 2.21367L79.2428 2.14608L77.0203 2.0507ZM58.5408 64.3367L106.329 88.1499L61.1844 62.8929L58.5408 64.3367ZM77.2152 2.21367L77.2375 2.23351L79.4333 2.30496L77.2152 2.21367ZM77.2375 2.23351L77.2617 2.25494L79.4551 2.3243L77.2375 2.23351ZM77.2617 2.25494L77.2876 2.27796L79.4786 2.3452L77.2617 2.25494ZM55.5529 65.743L58.3376 64.2273L58.1283 64.1265L55.5529 65.743ZM77.2876 2.27796L77.3154 2.30256L79.5037 2.36765L77.2876 2.27796ZM77.3154 2.30256L77.3449 2.32876L79.531 2.39163L77.3154 2.30256ZM77.3449 2.32876L77.3762 2.35655L79.5598 2.41717L77.3449 2.32876ZM77.3762 2.35655L77.4093 2.38592L79.5904 2.44426L77.3762 2.35655ZM77.4093 2.38592L77.4442 2.41688L79.6224 2.4729L77.4093 2.38592ZM77.4442 2.41688L77.4809 2.44943L79.6565 2.50309L77.4442 2.41688ZM77.4809 2.44943L77.5193 2.48357L79.6923 2.53482L77.4809 2.44943ZM77.5193 2.48357L77.5596 2.5193L79.7298 2.5681L77.5193 2.48357ZM78.0938 3.19459L78.1405 3.27426L80.2899 3.26129L78.0938 3.19459ZM77.5596 2.5193L77.6017 2.55662L79.7691 2.60294L77.5596 2.5193ZM78.0474 3.11853L78.0938 3.19459L80.2448 3.18714L78.0474 3.11853ZM77.6017 2.55662L77.6448 2.59654L79.8102 2.63933L77.6017 2.55662ZM78.0014 3.04608L78.0474 3.11853L80.1999 3.1165L78.0014 3.04608ZM77.6448 2.59654L77.6882 2.64008L79.8522 2.67825L77.6448 2.59654ZM77.9557 2.97723L78.0014 3.04608L80.1554 3.04939L77.9557 2.97723ZM77.6882 2.64008L77.732 2.68723L79.8946 2.72069L77.6882 2.64008ZM77.9103 2.91201L77.9557 2.97723L80.1112 2.9858L77.9103 2.91201ZM77.732 2.68723L77.7761 2.73801L79.9373 2.76667L77.732 2.68723ZM77.8652 2.85039L77.9103 2.91201L80.0672 2.92573L77.8652 2.85039ZM77.7761 2.73801L77.8205 2.79239L79.9803 2.81616L77.7761 2.73801ZM77.8205 2.79239L77.8652 2.85039L80.0236 2.86918L77.8205 2.79239ZM55.7609 65.8556L58.5408 64.3367L58.3376 64.2273L55.7609 65.8556Z" fill="#E7E7E7"/>
<path d="M51.0623 65.4444L49.973 66.2893L44.1586 73.7702L51.0623 65.4444Z" fill="#010101"/>
<path d="M51.0623 65.4444L51.3451 65.3084L53.9407 63.947L51.0623 65.4444ZM51.3451 65.3084L51.6324 65.2028L54.2186 63.8135L51.3451 65.3084ZM51.6324 65.2028L51.9241 65.1275L54.5004 63.7096L51.6324 65.2028ZM51.9241 65.1275L52.2197 65.0827L54.7861 63.6353L51.9241 65.1275ZM52.2197 65.0827L52.5194 65.0683L55.0758 63.5908L52.2197 65.0827ZM52.5194 65.0683L52.8231 65.0845L55.3694 63.576L52.5194 65.0683ZM52.8231 65.0845L53.1043 65.1005L55.6669 63.591L52.8231 65.0845ZM53.1043 65.1005L53.3789 65.1252L55.9424 63.606L53.1043 65.1005ZM53.3789 65.1252L53.647 65.1588L56.2114 63.6295L53.3789 65.1252Z" fill="#E7E7E7"/>
<path d="M49.973 66.2893L49.7112 66.5754L49.4537 66.8913L49.973 66.2893Z" fill="#010101"/>
<path d="M53.647 65.1588L53.9086 65.2011L56.4737 63.6615L53.647 65.1588ZM53.9086 65.2011L54.1637 65.2521L56.7297 63.7022L53.9086 65.2011ZM54.1637 65.2521L54.412 65.3119L56.9789 63.7514L54.1637 65.2521ZM106.329 88.1499L107.863 86.02L61.1844 62.8929L106.329 88.1499ZM54.412 65.3119L54.6536 65.3806L57.2218 63.8092L54.412 65.3119Z" fill="#E7E7E7"/>
<path d="M50.509 65.8068L50.2387 66.0331L49.973 66.2893L50.509 65.8068Z" fill="#010101"/>
<path d="M54.6536 65.3806L54.8886 65.458L57.4582 63.8756L54.6536 65.3806ZM54.8886 65.458L55.1167 65.5442L57.6882 63.9507L54.8886 65.458ZM55.1167 65.5442L55.3382 65.6392L57.9113 64.0343L55.1167 65.5442Z" fill="#E7E7E7"/>
<path d="M51.0623 65.4444L50.509 65.8068L49.973 66.2893L51.0623 65.4444Z" fill="#010101"/>
<path d="M55.3382 65.6392L55.5529 65.743L58.1283 64.1265L55.3382 65.6392ZM55.5529 65.743L55.7609 65.8556L58.3376 64.2273L55.5529 65.743Z" fill="#E7E7E7"/>
<path d="M51.0623 65.4444L50.7834 65.6105L50.509 65.8068L51.0623 65.4444ZM51.6324 65.2028L51.3451 65.3084L51.0623 65.4444L51.6324 65.2028ZM52.2197 65.0827L51.6324 65.2028L51.0623 65.4444L52.2197 65.0827ZM52.2197 65.0827L51.9241 65.1275L51.6324 65.2028L52.2197 65.0827ZM53.3789 65.1252L52.2197 65.0827L51.0623 65.4444L53.3789 65.1252ZM52.8231 65.0845L52.5194 65.0683L52.2197 65.0827L52.8231 65.0845Z" fill="#010101"/>
<path d="M149.104 100.813L149.527 98.3791L149.582 98.0551L149.104 100.813Z" fill="#E7E7E7"/>
<path d="M53.3789 65.1252L52.8231 65.0845L52.2197 65.0827L53.3789 65.1252Z" fill="#010101"/>
<path d="M149.16 100.482L149.582 98.0551L149.611 97.727L149.16 100.482Z" fill="#E7E7E7"/>
<path d="M55.3382 65.6392L53.3789 65.1252L51.0623 65.4444L55.3382 65.6392ZM53.3789 65.1252L53.1043 65.1005L52.8231 65.0845L53.3789 65.1252Z" fill="#010101"/>
<path d="M149.19 100.146L149.611 97.727L149.596 97.3789L149.19 100.146ZM149.174 99.7897L149.596 97.3789L149.561 97.035L149.174 99.7897Z" fill="#E7E7E7"/>
<path d="M53.9086 65.2011L53.647 65.1588L53.3789 65.1252L53.9086 65.2011ZM55.7609 65.8556L55.3382 65.6392L51.0623 65.4444L55.7609 65.8556Z" fill="#010101"/>
<path d="M149.138 99.4376L149.561 97.035L149.505 96.6953L149.138 99.4376Z" fill="#E7E7E7"/>
<path d="M54.412 65.3119L53.9086 65.2011L53.3789 65.1252L54.412 65.3119Z" fill="#010101"/>
<path d="M149.08 99.0899L149.505 96.6953L149.429 96.3599L149.08 99.0899ZM149.003 98.7463L149.429 96.3599L149.334 96.0288L149.003 98.7463Z" fill="#E7E7E7"/>
<path d="M54.412 65.3119L54.1637 65.2521L53.9086 65.2011L54.412 65.3119Z" fill="#010101"/>
<path d="M73.1887 1.26739L75.563 1.38523L75.3419 1.358L73.1887 1.26739ZM148.906 98.407L149.334 96.0288L149.219 95.7019L148.906 98.407Z" fill="#E7E7E7"/>
<path d="M55.3382 65.6392L54.412 65.3119L53.3789 65.1252L55.3382 65.6392Z" fill="#010101"/>
<path d="M148.787 98.0721L149.219 95.7019L149.083 95.3795L148.787 98.0721ZM73.4117 1.3127L75.781 1.42939L75.563 1.38523L73.4117 1.3127ZM148.648 97.7415L149.083 95.3795L148.928 95.0614L148.648 97.7415ZM148.489 97.4154L148.928 95.0614L148.753 94.7478L148.489 97.4154Z" fill="#E7E7E7"/>
<path d="M54.8886 65.458L54.6536 65.3806L54.412 65.3119L54.8886 65.458Z" fill="#010101"/>
<path d="M73.6313 1.37536L75.9958 1.4905L75.781 1.42939L73.6313 1.37536ZM148.308 97.0938L148.753 94.7478L148.557 94.4387L148.308 97.0938ZM148.108 96.7766L148.557 94.4387L148.342 94.134L148.108 96.7766ZM147.887 96.464L148.342 94.134L148.107 93.8339L147.887 96.464ZM73.8478 1.45548L76.2073 1.56859L75.9958 1.4905L73.8478 1.45548Z" fill="#E7E7E7"/>
<path d="M55.3382 65.6392L54.8886 65.458L54.412 65.3119L55.3382 65.6392Z" fill="#010101"/>
<path d="M74.061 1.55303L76.4155 1.66365L76.2073 1.56859L74.061 1.55303ZM147.646 96.156L148.107 93.8339L78.1405 3.27426L147.646 96.156Z" fill="#E7E7E7"/>
<path d="M55.3382 65.6392L55.1167 65.5442L54.8886 65.458L55.3382 65.6392Z" fill="#010101"/>
<path d="M74.2712 1.66801L76.6204 1.77569L76.4155 1.66365L74.2712 1.66801ZM74.4777 1.80042L76.822 1.90471L76.6204 1.77569L74.4777 1.80042ZM74.6809 1.95025L77.0203 2.0507L76.822 1.90471L74.6809 1.95025Z" fill="#E7E7E7"/>
<path d="M55.7609 65.8556L55.5529 65.743L55.3382 65.6392L55.7609 65.8556Z" fill="#010101"/>
<path d="M74.8804 2.11754L77.2152 2.21367L77.0203 2.0507L74.8804 2.11754ZM74.9033 2.13791L77.2375 2.23351L77.2152 2.21367L74.9033 2.13791ZM74.9281 2.15991L77.2617 2.25494L77.2375 2.23351L74.9281 2.15991ZM74.9547 2.18353L77.2876 2.27796L77.2617 2.25494L74.9547 2.18353ZM74.9831 2.20879L77.3154 2.30256L77.2876 2.27796L74.9831 2.20879ZM75.0134 2.23567L77.3449 2.32876L77.3154 2.30256L75.0134 2.23567ZM75.0455 2.26419L77.3762 2.35655L77.3449 2.32876L75.0455 2.26419ZM75.0794 2.29434L77.4093 2.38592L77.3762 2.35655L75.0794 2.29434ZM75.1152 2.32612L77.4442 2.41688L77.4093 2.38592L75.1152 2.32612ZM75.1528 2.35952L77.4809 2.44943L77.4442 2.41688L75.1528 2.35952ZM75.1922 2.39456L77.5193 2.48357L77.4809 2.44943L75.1922 2.39456ZM75.2335 2.43124L77.5596 2.5193L77.5193 2.48357L75.2335 2.43124ZM75.8298 3.20615L78.1405 3.27426L78.0938 3.19459L75.8298 3.20615ZM75.2766 2.46954L77.6017 2.55662L77.5596 2.5193L75.2766 2.46954ZM75.7818 3.12437L78.0938 3.19459L78.0474 3.11853L75.7818 3.12437ZM75.3208 2.51051L77.6448 2.59654L77.6017 2.55662L75.3208 2.51051ZM75.7342 3.0463L78.0474 3.11853L78.0014 3.04608L75.7342 3.0463ZM75.3654 2.55521L77.6882 2.64008L77.6448 2.59654L75.3654 2.55521ZM75.6869 2.97193L78.0014 3.04608L77.9557 2.97723L75.6869 2.97193ZM75.4103 2.6036L77.732 2.68723L77.6882 2.64008L75.4103 2.6036ZM75.6399 2.90127L77.9557 2.97723L77.9103 2.91201L75.6399 2.90127ZM75.4555 2.65572L77.7761 2.73801L77.732 2.68723L75.4555 2.65572ZM75.5933 2.83432L77.9103 2.91201L77.8652 2.85039L75.5933 2.83432ZM75.5011 2.71154L77.8205 2.79239L77.7761 2.73801L75.5011 2.71154ZM75.5471 2.77107L77.8652 2.85039L77.8205 2.79239L75.5471 2.77107ZM149.16 100.482L149.104 100.813L149.582 98.0551L149.16 100.482ZM149.19 100.146L149.16 100.482L149.611 97.727L149.19 100.146ZM149.174 99.7897L149.19 100.146L149.596 97.3789L149.174 99.7897ZM149.138 99.4376L149.174 99.7897L149.561 97.035L149.138 99.4376ZM149.08 99.0899L149.138 99.4376L149.505 96.6953L149.08 99.0899ZM149.003 98.7463L149.08 99.0899L149.429 96.3599L149.003 98.7463ZM148.906 98.407L149.003 98.7463L149.334 96.0288L148.906 98.407ZM72.9619 1.23952L73.1887 1.26739L75.3419 1.358L72.9619 1.23952ZM148.787 98.0721L148.906 98.407L149.219 95.7019L148.787 98.0721ZM73.1887 1.26739L73.4117 1.3127L75.563 1.38523L73.1887 1.26739ZM148.648 97.7415L148.787 98.0721L149.083 95.3795L148.648 97.7415ZM148.489 97.4154L148.648 97.7415L148.928 95.0614L148.489 97.4154ZM73.4117 1.3127L73.6313 1.37536L75.781 1.42939L73.4117 1.3127ZM148.308 97.0938L148.489 97.4154L148.753 94.7478L148.308 97.0938ZM148.108 96.7766L148.308 97.0938L148.557 94.4387L148.108 96.7766ZM147.887 96.464L148.108 96.7766L148.342 94.134L147.887 96.464ZM147.646 96.156L147.887 96.464L148.107 93.8339L147.646 96.156ZM73.6313 1.37536L73.8478 1.45548L75.9958 1.4905L73.6313 1.37536ZM73.8478 1.45548L74.061 1.55303L76.2073 1.56859L73.8478 1.45548ZM74.061 1.55303L74.2712 1.66801L76.4155 1.66365L74.061 1.55303ZM74.2712 1.66801L74.4777 1.80042L76.6204 1.77569L74.2712 1.66801ZM75.8298 3.20615L147.646 96.156L78.1405 3.27426L75.8298 3.20615ZM74.4777 1.80042L74.6809 1.95025L76.822 1.90471L74.4777 1.80042ZM74.6809 1.95025L74.8804 2.11754L77.0203 2.0507L74.6809 1.95025ZM55.7609 65.8556L104.712 90.3961L58.5408 64.3367L55.7609 65.8556ZM74.8804 2.11754L74.9033 2.13791L77.2152 2.21367L74.8804 2.11754ZM74.9033 2.13791L74.9281 2.15991L77.2375 2.23351L74.9033 2.13791ZM74.9281 2.15991L74.9547 2.18353L77.2617 2.25494L74.9281 2.15991ZM74.9547 2.18353L74.9831 2.20879L77.2876 2.27796L74.9547 2.18353ZM74.9831 2.20879L75.0134 2.23567L77.3154 2.30256L74.9831 2.20879ZM75.0134 2.23567L75.0455 2.26419L77.3449 2.32876L75.0134 2.23567ZM75.0455 2.26419L75.0794 2.29434L77.3762 2.35655L75.0455 2.26419ZM75.0794 2.29434L75.1152 2.32612L77.4093 2.38592L75.0794 2.29434ZM75.1152 2.32612L75.1528 2.35952L77.4442 2.41688L75.1152 2.32612ZM75.1528 2.35952L75.1922 2.39456L77.4809 2.44943L75.1528 2.35952ZM75.1922 2.39456L75.2335 2.43124L77.5193 2.48357L75.1922 2.39456ZM75.7818 3.12437L75.8298 3.20615L78.0938 3.19459L75.7818 3.12437ZM75.2335 2.43124L75.2766 2.46954L77.5596 2.5193L75.2335 2.43124ZM75.7342 3.0463L75.7818 3.12437L78.0474 3.11853L75.7342 3.0463ZM75.2766 2.46954L75.3208 2.51051L77.6017 2.55662L75.2766 2.46954ZM75.6869 2.97193L75.7342 3.0463L78.0014 3.04608L75.6869 2.97193ZM75.3208 2.51051L75.3654 2.55521L77.6448 2.59654L75.3208 2.51051ZM75.6399 2.90127L75.6869 2.97193L77.9557 2.97723L75.6399 2.90127ZM75.3654 2.55521L75.4103 2.6036L77.6882 2.64008L75.3654 2.55521ZM75.5933 2.83432L75.6399 2.90127L77.9103 2.91201L75.5933 2.83432ZM75.4103 2.6036L75.4555 2.65572L77.732 2.68723L75.4103 2.6036ZM75.5471 2.77107L75.5933 2.83432L77.8652 2.85039L75.5471 2.77107ZM75.4555 2.65572L75.5011 2.71154L77.7761 2.73801L75.4555 2.65572ZM75.5011 2.71154L75.5471 2.77107L77.8205 2.79239L75.5011 2.71154ZM104.712 90.3961L106.329 88.1499L58.5408 64.3367L104.712 90.3961Z" fill="#E7E7E7"/>
<path d="M70.4842 92.2085L134.587 121.217L55.7609 65.8556L70.4842 92.2085Z" fill="#010101"/>
<path d="M148.659 103.378L149.104 100.813L149.16 100.482L148.659 103.378ZM148.716 103.039L149.16 100.482L149.19 100.146L148.716 103.039ZM148.747 102.696L149.19 100.146L149.174 99.7897L148.747 102.696ZM148.73 102.331L149.174 99.7897L149.138 99.4376L148.73 102.331ZM148.692 101.97L149.138 99.4376L149.08 99.0899L148.692 101.97ZM148.634 101.614L149.08 99.0899L149.003 98.7463L148.634 101.614ZM148.554 101.262L149.003 98.7463L148.906 98.407L148.554 101.262ZM70.6849 1.14318L73.1887 1.26739L72.9619 1.23952L70.6849 1.14318ZM148.453 100.914L148.906 98.407L148.787 98.0721L148.453 100.914ZM148.331 100.571L148.787 98.0721L148.648 97.7415L148.331 100.571ZM70.9133 1.18966L73.4117 1.3127L73.1887 1.26739L70.9133 1.18966ZM148.189 100.232L148.648 97.7415L148.489 97.4154L148.189 100.232ZM148.025 99.897L148.489 97.4154L148.308 97.0938L148.025 99.897ZM71.1385 1.25403L73.6313 1.37536L73.4117 1.3127L71.1385 1.25403ZM147.84 99.5669L148.308 97.0938L148.108 96.7766L147.84 99.5669ZM147.634 99.2414L148.108 96.7766L147.887 96.464L147.634 99.2414ZM147.407 98.9204L147.887 96.464L147.646 96.156L147.407 98.9204ZM71.3603 1.33629L73.8478 1.45548L73.6313 1.37536L71.3603 1.33629ZM71.5787 1.43646L74.061 1.55303L73.8478 1.45548L71.5787 1.43646ZM147.159 98.604L147.646 96.156L75.8298 3.20615L147.159 98.604ZM71.7938 1.55453L74.2712 1.66801L74.061 1.55303L71.7938 1.55453ZM72.0056 1.69051L74.4777 1.80042L74.2712 1.66801L72.0056 1.69051ZM72.214 1.8444L74.6809 1.95025L74.4777 1.80042L72.214 1.8444ZM72.4189 2.01618L74.8804 2.11754L74.6809 1.95025L72.4189 2.01618ZM72.4424 2.0371L74.9033 2.13791L74.8804 2.11754L72.4424 2.0371ZM72.4678 2.05969L74.9281 2.15991L74.9033 2.13791L72.4678 2.05969ZM72.4951 2.08396L74.9547 2.18353L74.9281 2.15991L72.4951 2.08396ZM72.5243 2.1099L74.9831 2.20879L74.9547 2.18353L72.5243 2.1099ZM72.5553 2.13751L75.0134 2.23567L74.9831 2.20879L72.5553 2.13751ZM72.5883 2.1668L75.0455 2.26419L75.0134 2.23567L72.5883 2.1668ZM72.6231 2.19777L75.0794 2.29434L75.0455 2.26419L72.6231 2.19777ZM72.6598 2.2304L75.1152 2.32612L75.0794 2.29434L72.6598 2.2304ZM72.6984 2.26472L75.1528 2.35952L75.1152 2.32612L72.6984 2.26472ZM72.7388 2.30071L75.1922 2.39456L75.1528 2.35952L72.7388 2.30071ZM72.7812 2.33837L75.2335 2.43124L75.1922 2.39456L72.7812 2.33837ZM73.3937 3.13432L75.8298 3.20615L75.7818 3.12437L73.3937 3.13432ZM72.8254 2.37772L75.2766 2.46954L75.2335 2.43124L72.8254 2.37772ZM73.3443 3.05032L75.7818 3.12437L75.7342 3.0463L73.3443 3.05032ZM72.8708 2.4198L75.3208 2.51051L75.2766 2.46954L72.8708 2.4198ZM73.2954 2.97013L75.7342 3.0463L75.6869 2.97193L73.2954 2.97013ZM72.9165 2.4657L75.3654 2.55521L75.3208 2.51051L72.9165 2.4657ZM73.2467 2.89374L75.6869 2.97193L75.6399 2.90127L73.2467 2.89374ZM72.9626 2.51541L75.4103 2.6036L75.3654 2.55521L72.9626 2.51541ZM73.1985 2.82116L75.6399 2.90127L75.5933 2.83432L73.1985 2.82116ZM73.0091 2.56894L75.4555 2.65572L75.4103 2.6036L73.0091 2.56894ZM73.1506 2.75239L75.5933 2.83432L75.5471 2.77107L73.1506 2.75239ZM73.0559 2.62628L75.5011 2.71154L75.4555 2.65572L73.0559 2.62628ZM73.1031 2.68743L75.5471 2.77107L75.5011 2.71154L73.1031 2.68743Z" fill="#E7E7E7"/>
<path d="M70.4842 92.2085L128.171 120.829L128.449 120.961L70.4842 92.2085ZM70.4842 92.2085L128.449 120.961L129.027 121.196L70.4842 92.2085Z" fill="#010101"/>
<path d="M148.716 103.039L148.659 103.378L149.16 100.482L148.716 103.039ZM148.747 102.696L148.716 103.039L149.19 100.146L148.747 102.696ZM148.73 102.331L148.747 102.696L149.174 99.7897L148.73 102.331ZM148.692 101.97L148.73 102.331L149.138 99.4376L148.692 101.97ZM148.634 101.614L148.692 101.97L149.08 99.0899L148.634 101.614ZM148.554 101.262L148.634 101.614L149.003 98.7463L148.554 101.262ZM148.453 100.914L148.554 101.262L148.906 98.407L148.453 100.914ZM70.4533 1.11461L70.6849 1.14318L72.9619 1.23952L70.4533 1.11461ZM148.331 100.571L148.453 100.914L148.787 98.0721L148.331 100.571Z" fill="#E7E7E7"/>
<path d="M70.4842 92.2085L129.027 121.196L134.587 121.217L70.4842 92.2085Z" fill="#010101"/>
<path d="M70.6849 1.14318L70.9133 1.18966L73.1887 1.26739L70.6849 1.14318ZM148.189 100.232L148.331 100.571L148.648 97.7415L148.189 100.232ZM148.025 99.897L148.189 100.232L148.489 97.4154L148.025 99.897ZM70.9133 1.18966L71.1385 1.25403L73.4117 1.3127L70.9133 1.18966ZM147.84 99.5669L148.025 99.897L148.308 97.0938L147.84 99.5669ZM147.634 99.2414L147.84 99.5669L148.108 96.7766L147.634 99.2414ZM147.407 98.9204L147.634 99.2414L147.887 96.464L147.407 98.9204ZM147.159 98.604L147.407 98.9204L147.646 96.156L147.159 98.604ZM71.1385 1.25403L71.3603 1.33629L73.6313 1.37536L71.1385 1.25403ZM71.3603 1.33629L71.5787 1.43646L73.8478 1.45548L71.3603 1.33629ZM71.5787 1.43646L71.7938 1.55453L74.061 1.55303L71.5787 1.43646ZM71.7938 1.55453L72.0056 1.69051L74.2712 1.66801L71.7938 1.55453ZM73.3937 3.13432L147.159 98.604L75.8298 3.20615L73.3937 3.13432ZM72.0056 1.69051L72.214 1.8444L74.4777 1.80042L72.0056 1.69051ZM72.214 1.8444L72.4189 2.01618L74.6809 1.95025L72.214 1.8444ZM72.4189 2.01618L72.4424 2.0371L74.8804 2.11754L72.4189 2.01618ZM72.4424 2.0371L72.4678 2.05969L74.9033 2.13791L72.4424 2.0371ZM72.4678 2.05969L72.4951 2.08396L74.9281 2.15991L72.4678 2.05969ZM72.4951 2.08396L72.5243 2.1099L74.9547 2.18353L72.4951 2.08396ZM72.5243 2.1099L72.5553 2.13751L74.9831 2.20879L72.5243 2.1099ZM72.5553 2.13751L72.5883 2.1668L75.0134 2.23567L72.5553 2.13751ZM72.5883 2.1668L72.6231 2.19777L75.0455 2.26419L72.5883 2.1668ZM72.6231 2.19777L72.6598 2.2304L75.0794 2.29434L72.6231 2.19777ZM72.6598 2.2304L72.6984 2.26472L75.1152 2.32612L72.6598 2.2304ZM72.6984 2.26472L72.7388 2.30071L75.1528 2.35952L72.6984 2.26472ZM72.7388 2.30071L72.7812 2.33837L75.1922 2.39456L72.7388 2.30071ZM73.3443 3.05032L73.3937 3.13432L75.7818 3.12437L73.3443 3.05032ZM72.7812 2.33837L72.8254 2.37772L75.2335 2.43124L72.7812 2.33837ZM73.2954 2.97013L73.3443 3.05032L75.7342 3.0463L73.2954 2.97013ZM72.8254 2.37772L72.8708 2.4198L75.2766 2.46954L72.8254 2.37772ZM73.2467 2.89374L73.2954 2.97013L75.6869 2.97193L73.2467 2.89374ZM72.8708 2.4198L72.9165 2.4657L75.3208 2.51051L72.8708 2.4198ZM73.1985 2.82116L73.2467 2.89374L75.6399 2.90127L73.1985 2.82116ZM72.9165 2.4657L72.9626 2.51541L75.3654 2.55521L72.9165 2.4657ZM73.1506 2.75239L73.1985 2.82116L75.5933 2.83432L73.1506 2.75239ZM72.9626 2.51541L73.0091 2.56894L75.4103 2.6036L72.9626 2.51541ZM73.1031 2.68743L73.1506 2.75239L75.5471 2.77107L73.1031 2.68743ZM73.0091 2.56894L73.0559 2.62628L75.4555 2.65572L73.0091 2.56894ZM73.0559 2.62628L73.1031 2.68743L75.5011 2.71154L73.0559 2.62628Z" fill="#E7E7E7"/>
<path d="M134.587 121.217L104.712 90.3961L55.7609 65.8556L134.587 121.217Z" fill="#010101"/>
<path d="M148.188 106.086L148.659 103.378L148.716 103.039L148.188 106.086ZM148.247 105.739L148.716 103.039L148.747 102.696L148.247 105.739ZM148.278 105.387L148.747 102.696L148.73 102.331L148.278 105.387Z" fill="#E7E7E7"/>
<path d="M128.449 120.961L128.735 121.083L129.027 121.196L128.449 120.961ZM51.8673 22.2805L52.2315 22.7685L104.712 90.3961L51.8673 22.2805ZM51.3451 21.2707L51.8673 22.2805L104.712 90.3961L51.3451 21.2707Z" fill="#010101"/>
<path d="M148.26 105.014L148.73 102.331L148.692 101.97L148.26 105.014Z" fill="#E7E7E7"/>
<path d="M51.3451 21.2707L51.5718 21.7813L51.8673 22.2805L51.3451 21.2707ZM129.027 121.196L129.327 121.299L129.634 121.393L129.027 121.196Z" fill="#010101"/>
<path d="M148.222 104.644L148.692 101.97L148.634 101.614L148.222 104.644ZM148.162 104.279L148.634 101.614L148.554 101.262L148.162 104.279Z" fill="#E7E7E7"/>
<path d="M129.027 121.196L129.634 121.393L130.27 121.552L129.027 121.196ZM51.0973 20.2145L51.1864 20.7485L51.3451 21.2707L51.0973 20.2145ZM51.1255 19.11L51.3451 21.2707L104.712 90.3961L51.1255 19.11Z" fill="#010101"/>
<path d="M148.079 103.917L148.554 101.262L148.453 100.914L148.079 103.917Z" fill="#E7E7E7"/>
<path d="M129.634 121.393L129.949 121.477L130.27 121.552L129.634 121.393Z" fill="#010101"/>
<path d="M68.0413 1.01205L70.6849 1.14318L70.4533 1.11461L68.0413 1.01205ZM147.975 103.561L148.453 100.914L148.331 100.571L147.975 103.561ZM147.85 103.208L148.331 100.571L148.189 100.232L147.85 103.208ZM68.2753 1.05979L70.9133 1.18966L70.6849 1.14318L68.2753 1.05979Z" fill="#E7E7E7"/>
<path d="M51.1255 19.11L51.0973 20.2145L51.3451 21.2707L51.1255 19.11Z" fill="#010101"/>
<path d="M147.704 102.86L148.189 100.232L148.025 99.897L147.704 102.86Z" fill="#E7E7E7"/>
<path d="M129.027 121.196L130.27 121.552L131.633 121.755L129.027 121.196Z" fill="#010101"/>
<path d="M147.535 102.517L148.025 99.897L147.84 99.5669L147.535 102.517ZM68.5062 1.12592L71.1385 1.25403L70.9133 1.18966L68.5062 1.12592ZM147.345 102.178L147.84 99.5669L147.634 99.2414L147.345 102.178ZM147.133 101.843L147.634 99.2414L147.407 98.9204L147.133 101.843ZM146.9 101.514L147.407 98.9204L147.159 98.604L146.9 101.514Z" fill="#E7E7E7"/>
<path d="M130.27 121.552L130.6 121.617L130.937 121.672L130.27 121.552Z" fill="#010101"/>
<path d="M68.7335 1.21046L71.3603 1.33629L71.1385 1.25403L68.7335 1.21046Z" fill="#E7E7E7"/>
<path d="M51.1255 19.11L51.0775 19.6684L51.0973 20.2145L51.1255 19.11Z" fill="#010101"/>
<path d="M68.9574 1.31339L71.5787 1.43646L71.3603 1.33629L68.9574 1.31339ZM146.645 101.188L147.159 98.604L73.3937 3.13432L146.645 101.188Z" fill="#E7E7E7"/>
<path d="M130.27 121.552L130.937 121.672L131.633 121.755L130.27 121.552Z" fill="#010101"/>
<path d="M69.1779 1.43471L71.7938 1.55453L71.5787 1.43646L69.1779 1.43471ZM69.3951 1.57446L72.0056 1.69051L71.7938 1.55453L69.3951 1.57446ZM69.6089 1.73263L72.214 1.8444L72.0056 1.69051L69.6089 1.73263ZM69.8192 1.90919L72.4189 2.01618L72.214 1.8444L69.8192 1.90919Z" fill="#E7E7E7"/>
<path d="M130.937 121.672L131.281 121.718L131.633 121.755L130.937 121.672Z" fill="#010101"/>
<path d="M69.8435 1.93071L72.4424 2.0371L72.4189 2.01618L69.8435 1.93071ZM69.8696 1.95393L72.4678 2.05969L72.4424 2.0371L69.8696 1.95393ZM69.8976 1.97887L72.4951 2.08396L72.4678 2.05969L69.8976 1.97887ZM69.9275 2.00553L72.5243 2.1099L72.4951 2.08396L69.9275 2.00553ZM69.9594 2.03391L72.5553 2.13751L72.5243 2.1099L69.9594 2.03391ZM69.9932 2.06402L72.5883 2.1668L72.5553 2.13751L69.9932 2.06402ZM70.0289 2.09584L72.6231 2.19777L72.5883 2.1668L70.0289 2.09584ZM70.0666 2.12939L72.6598 2.2304L72.6231 2.19777L70.0666 2.12939ZM70.1062 2.16466L72.6984 2.26472L72.6598 2.2304L70.1062 2.16466ZM70.1478 2.20165L72.7388 2.30071L72.6984 2.26472L70.1478 2.20165ZM70.1913 2.24036L72.7812 2.33837L72.7388 2.30071L70.1913 2.24036ZM70.8208 3.05852L73.3937 3.13432L73.3443 3.05032L70.8208 3.05852ZM70.2367 2.2808L72.8254 2.37772L72.7812 2.33837L70.2367 2.2808ZM70.7701 2.97217L73.3443 3.05032L73.2954 2.97013L70.7701 2.97217ZM70.2833 2.32406L72.8708 2.4198L72.8254 2.37772L70.2833 2.32406ZM70.7197 2.88974L73.2954 2.97013L73.2467 2.89374L70.7197 2.88974ZM70.3302 2.37124L72.9165 2.4657L72.8708 2.4198L70.3302 2.37124ZM70.6697 2.81122L73.2467 2.89374L73.1985 2.82116L70.6697 2.81122ZM70.3776 2.42233L72.9626 2.51541L72.9165 2.4657L70.3776 2.42233ZM70.62 2.73661L73.1985 2.82116L73.1506 2.75239L70.62 2.73661ZM70.4253 2.47736L73.0091 2.56894L72.9626 2.51541L70.4253 2.47736ZM70.5708 2.66592L73.1506 2.75239L73.1031 2.68743L70.5708 2.66592ZM70.4734 2.53629L73.0559 2.62628L73.0091 2.56894L70.4734 2.53629ZM70.5219 2.59915L73.1031 2.68743L73.0559 2.62628L70.5219 2.59915Z" fill="#E7E7E7"/>
<path d="M51.4305 17.9553L51.2433 18.539L51.1255 19.11L51.4305 17.9553ZM131.633 121.755L131.992 121.781L132.375 121.773L131.633 121.755ZM129.027 121.196L131.633 121.755L134.587 121.217L129.027 121.196ZM131.633 121.755L132.375 121.773L133.129 121.684L131.633 121.755ZM52.0141 16.7486L51.4305 17.9553L51.1255 19.11L52.0141 16.7486ZM132.375 121.773L132.754 121.74L133.129 121.684L132.375 121.773ZM52.0141 16.7486L51.6873 17.3586L51.4305 17.9553L52.0141 16.7486ZM131.633 121.755L133.129 121.684L134.587 121.217L131.633 121.755ZM133.129 121.684L133.499 121.603L133.866 121.499L133.129 121.684ZM133.129 121.684L133.866 121.499L134.587 121.217L133.129 121.684Z" fill="#010101"/>
<path d="M148.247 105.739L148.188 106.086L148.716 103.039L148.247 105.739Z" fill="#E7E7E7"/>
<path d="M133.866 121.499L134.229 121.37L134.587 121.217L133.866 121.499Z" fill="#010101"/>
<path d="M148.278 105.387L148.247 105.739L148.747 102.696L148.278 105.387ZM148.26 105.014L148.278 105.387L148.73 102.331L148.26 105.014ZM148.222 104.644L148.26 105.014L148.692 101.97L148.222 104.644ZM148.162 104.279L148.222 104.644L148.634 101.614L148.162 104.279Z" fill="#E7E7E7"/>
<path d="M134.587 121.217L134.941 121.041L135.291 120.84L134.587 121.217Z" fill="#010101"/>
<path d="M148.079 103.917L148.162 104.279L148.554 101.262L148.079 103.917ZM147.975 103.561L148.079 103.917L148.453 100.914L147.975 103.561ZM67.8046 0.982728L68.0413 1.01205L70.4533 1.11461L67.8046 0.982728ZM147.85 103.208L147.975 103.561L148.331 100.571L147.85 103.208Z" fill="#E7E7E7"/>
<path d="M134.587 121.217L135.291 120.84L135.979 120.364L134.587 121.217Z" fill="#010101"/>
<path d="M68.0413 1.01205L68.2753 1.05979L70.6849 1.14318L68.0413 1.01205ZM147.704 102.86L147.85 103.208L148.189 100.232L147.704 102.86ZM147.535 102.517L147.704 102.86L148.025 99.897L147.535 102.517ZM68.2753 1.05979L68.5062 1.12592L70.9133 1.18966L68.2753 1.05979ZM147.345 102.178L147.535 102.517L147.84 99.5669L147.345 102.178ZM147.133 101.843L147.345 102.178L147.634 99.2414L147.133 101.843ZM146.9 101.514L147.133 101.843L147.407 98.9204L146.9 101.514ZM146.645 101.188L146.9 101.514L147.159 98.604L146.645 101.188ZM68.5062 1.12592L68.7335 1.21046L71.1385 1.25403L68.5062 1.12592ZM68.7335 1.21046L68.9574 1.31339L71.3603 1.33629L68.7335 1.21046Z" fill="#E7E7E7"/>
<path d="M135.291 120.84L135.638 120.614L135.979 120.364L135.291 120.84Z" fill="#010101"/>
<path d="M68.9574 1.31339L69.1779 1.43471L71.5787 1.43646L68.9574 1.31339ZM69.1779 1.43471L69.3951 1.57446L71.7938 1.55453L69.1779 1.43471ZM70.8208 3.05852L146.645 101.188L73.3937 3.13432L70.8208 3.05852ZM69.3951 1.57446L69.6089 1.73263L72.0056 1.69051L69.3951 1.57446ZM69.6089 1.73263L69.8192 1.90919L72.214 1.8444L69.6089 1.73263ZM69.8192 1.90919L69.8435 1.93071L72.4189 2.01618L69.8192 1.90919ZM69.8435 1.93071L69.8696 1.95393L72.4424 2.0371L69.8435 1.93071ZM69.8696 1.95393L69.8976 1.97887L72.4678 2.05969L69.8696 1.95393ZM69.8976 1.97887L69.9275 2.00553L72.4951 2.08396L69.8976 1.97887ZM69.9275 2.00553L69.9594 2.03391L72.5243 2.1099L69.9275 2.00553ZM69.9594 2.03391L69.9932 2.06402L72.5553 2.13751L69.9594 2.03391ZM69.9932 2.06402L70.0289 2.09584L72.5883 2.1668L69.9932 2.06402ZM70.0289 2.09584L70.0666 2.12939L72.6231 2.19777L70.0289 2.09584ZM70.0666 2.12939L70.1062 2.16466L72.6598 2.2304L70.0666 2.12939ZM70.1062 2.16466L70.1478 2.20165L72.6984 2.26472L70.1062 2.16466ZM70.1478 2.20165L70.1913 2.24036L72.7388 2.30071L70.1478 2.20165ZM70.7701 2.97217L70.8208 3.05852L73.3443 3.05032L70.7701 2.97217ZM70.1913 2.24036L70.2367 2.2808L72.7812 2.33837L70.1913 2.24036ZM70.7197 2.88974L70.7701 2.97217L73.2954 2.97013L70.7197 2.88974ZM70.2367 2.2808L70.2833 2.32406L72.8254 2.37772L70.2367 2.2808ZM70.6697 2.81122L70.7197 2.88974L73.2467 2.89374L70.6697 2.81122ZM70.2833 2.32406L70.3302 2.37124L72.8708 2.4198L70.2833 2.32406ZM70.62 2.73661L70.6697 2.81122L73.1985 2.82116L70.62 2.73661ZM70.3302 2.37124L70.3776 2.42233L72.9165 2.4657L70.3302 2.37124ZM70.5708 2.66592L70.62 2.73661L73.1506 2.75239L70.5708 2.66592ZM70.3776 2.42233L70.4253 2.47736L72.9626 2.51541L70.3776 2.42233ZM70.5219 2.59915L70.5708 2.66592L73.1031 2.68743L70.5219 2.59915ZM70.4253 2.47736L70.4734 2.53629L73.0091 2.56894L70.4253 2.47736ZM70.4734 2.53629L70.5219 2.59915L73.0559 2.62628L70.4734 2.53629Z" fill="#E7E7E7"/>
<path d="M62.1571 1.97467L51.1255 19.11L104.712 90.3961L62.1571 1.97467ZM62.1571 1.97467L52.0141 16.7486L51.1255 19.11L62.1571 1.97467ZM61.8443 2.37524L52.4113 16.125L52.0141 16.7486L61.8443 2.37524ZM134.587 121.217L68.1009 2.97835L104.712 90.3961L134.587 121.217ZM134.587 121.217L135.979 120.364L146.198 111.608L134.587 121.217ZM135.979 120.364L136.318 120.09L145.547 112.22L135.979 120.364Z" fill="#010101"/>
<path d="M147.691 108.949L148.188 106.086L148.247 105.739L147.691 108.949ZM147.751 108.593L148.247 105.739L148.278 105.387L147.751 108.593ZM147.783 108.233L148.278 105.387L148.26 105.014L147.783 108.233ZM147.765 107.85L148.26 105.014L148.222 104.644L147.765 107.85ZM147.725 107.471L148.222 104.644L148.162 104.279L147.725 107.471ZM147.662 107.096L148.162 104.279L148.079 103.917L147.662 107.096ZM147.578 106.725L148.079 103.917L147.975 103.561L147.578 106.725ZM65.2476 0.873418L68.0413 1.01205L67.8046 0.982728L65.2476 0.873418ZM147.471 106.359L147.975 103.561L147.85 103.208L147.471 106.359ZM147.342 105.997L147.85 103.208L147.704 102.86L147.342 105.997ZM65.4874 0.922477L68.2753 1.05979L68.0413 1.01205L65.4874 0.922477ZM147.191 105.64L147.704 102.86L147.535 102.517L147.191 105.64ZM147.018 105.287L147.535 102.517L147.345 102.178L147.018 105.287ZM65.7239 0.990454L68.5062 1.12592L68.2753 1.05979L65.7239 0.990454ZM146.822 104.939L147.345 102.178L147.133 101.843L146.822 104.939ZM146.604 104.595L147.133 101.843L146.9 101.514L146.604 104.595ZM146.364 104.256L146.9 101.514L146.645 101.188L146.364 104.256Z" fill="#E7E7E7"/>
<path d="M135.979 120.364L145.547 112.22L146.198 111.608L135.979 120.364Z" fill="#010101"/>
<path d="M65.957 1.0774L68.7335 1.21046L68.5062 1.12592L65.957 1.0774Z" fill="#E7E7E7"/>
<path d="M62.1571 1.97467L61.8443 2.37524L52.0141 16.7486L62.1571 1.97467Z" fill="#010101"/>
<path d="M66.1869 1.18323L68.9574 1.31339L68.7335 1.21046L66.1869 1.18323Z" fill="#E7E7E7"/>
<path d="M65.7239 0.990454L62.1571 1.97467L104.712 90.3961L65.7239 0.990454Z" fill="#010101"/>
<path d="M146.101 103.921L146.645 101.188L70.8208 3.05852L146.101 103.921ZM66.4125 1.30803L69.1779 1.43471L68.9574 1.31339L66.4125 1.30803ZM66.6354 1.45177L69.3951 1.57446L69.1779 1.43471L66.6354 1.45177ZM66.855 1.61446L69.6089 1.73263L69.3951 1.57446L66.855 1.61446ZM67.0711 1.79607L69.8192 1.90919L69.6089 1.73263L67.0711 1.79607ZM67.0959 1.81819L69.8435 1.93071L69.8192 1.90919L67.0959 1.81819ZM67.1227 1.84208L69.8696 1.95393L69.8435 1.93071L67.1227 1.84208ZM67.1514 1.86773L69.8976 1.97887L69.8696 1.95393L67.1514 1.86773ZM67.1822 1.89516L69.9275 2.00553L69.8976 1.97887L67.1822 1.89516ZM67.215 1.92435L69.9594 2.03391L69.9275 2.00553L67.215 1.92435ZM67.2497 1.95532L69.9932 2.06402L69.9594 2.03391L67.2497 1.95532ZM67.2864 1.98806L70.0289 2.09584L69.9932 2.06402L67.2864 1.98806ZM67.3251 2.02257L70.0666 2.12939L70.0289 2.09584L67.3251 2.02257ZM67.3658 2.05885L70.1062 2.16466L70.0666 2.12939L67.3658 2.05885ZM67.4085 2.0969L70.1478 2.20165L70.1062 2.16466L67.4085 2.0969ZM67.4532 2.13672L70.1913 2.24036L70.1478 2.20165L67.4532 2.13672ZM68.1009 2.97835L70.8208 3.05852L70.7701 2.97217L68.1009 2.97835ZM67.4998 2.17831L70.2367 2.2808L70.1913 2.24036L67.4998 2.17831ZM68.0486 2.88953L70.7701 2.97217L70.7197 2.88974L68.0486 2.88953ZM67.5477 2.22281L70.2833 2.32406L70.2367 2.2808L67.5477 2.22281ZM67.9967 2.80472L70.7197 2.88974L70.6697 2.81122L67.9967 2.80472ZM67.596 2.27134L70.3302 2.37124L70.2833 2.32406L67.596 2.27134ZM67.9452 2.72395L70.6697 2.81122L70.62 2.73661L67.9452 2.72395ZM67.6446 2.32391L70.3776 2.42233L70.3302 2.37124L67.6446 2.32391ZM67.8941 2.6472L70.62 2.73661L70.5708 2.66592L67.8941 2.6472ZM67.6937 2.3805L70.4253 2.47736L70.3776 2.42233L67.6937 2.3805ZM67.8434 2.57448L70.5708 2.66592L70.5219 2.59915L67.8434 2.57448ZM67.7432 2.44113L70.4734 2.53629L70.4253 2.47736L67.7432 2.44113ZM67.7931 2.50579L70.5219 2.59915L70.4734 2.53629L67.7931 2.50579Z" fill="#E7E7E7"/>
<path d="M134.587 121.217L146.198 111.608L147.691 108.949L134.587 121.217ZM67.2864 1.98806L65.7239 0.990454L104.712 90.3961L67.2864 1.98806ZM68.1009 2.97835L67.2864 1.98806L104.712 90.3961L68.1009 2.97835ZM134.587 121.217L147.691 108.949L68.1009 2.97835L134.587 121.217Z" fill="#010101"/>
<path d="M147.751 108.593L147.691 108.949L148.247 105.739L147.751 108.593ZM147.783 108.233L147.751 108.593L148.278 105.387L147.783 108.233ZM147.765 107.85L147.783 108.233L148.26 105.014L147.765 107.85ZM147.725 107.471L147.765 107.85L148.222 104.644L147.725 107.471ZM147.662 107.096L147.725 107.471L148.162 104.279L147.662 107.096ZM147.578 106.725L147.662 107.096L148.079 103.917L147.578 106.725ZM147.471 106.359L147.578 106.725L147.975 103.561L147.471 106.359ZM65.004 0.843289L65.2476 0.873418L67.8046 0.982728L65.004 0.843289Z" fill="#E7E7E7"/>
<path d="M145.547 112.22L145.887 111.917L146.198 111.608L145.547 112.22Z" fill="#010101"/>
<path d="M147.342 105.997L147.471 106.359L147.85 103.208L147.342 105.997ZM65.2476 0.873418L65.4874 0.922477L68.0413 1.01205L65.2476 0.873418ZM147.191 105.64L147.342 105.997L147.704 102.86L147.191 105.64ZM147.018 105.287L147.191 105.64L147.535 102.517L147.018 105.287ZM65.4874 0.922477L65.7239 0.990454L68.2753 1.05979L65.4874 0.922477ZM146.822 104.939L147.018 105.287L147.345 102.178L146.822 104.939ZM146.604 104.595L146.822 104.939L147.133 101.843L146.604 104.595ZM146.364 104.256L146.604 104.595L146.9 101.514L146.364 104.256ZM146.101 103.921L146.364 104.256L146.645 101.188L146.101 103.921ZM65.7239 0.990454L65.957 1.0774L68.5062 1.12592L65.7239 0.990454ZM65.957 1.0774L66.1869 1.18323L68.7335 1.21046L65.957 1.0774ZM66.1869 1.18323L66.4125 1.30803L68.9574 1.31339L66.1869 1.18323ZM66.4125 1.30803L66.6354 1.45177L69.1779 1.43471L66.4125 1.30803ZM68.1009 2.97835L146.101 103.921L70.8208 3.05852L68.1009 2.97835ZM66.6354 1.45177L66.855 1.61446L69.3951 1.57446L66.6354 1.45177Z" fill="#E7E7E7"/>
<path d="M146.198 111.608L146.483 111.294L146.739 110.974L146.198 111.608Z" fill="#010101"/>
<path d="M66.855 1.61446L67.0711 1.79607L69.6089 1.73263L66.855 1.61446ZM67.0711 1.79607L67.0959 1.81819L69.8192 1.90919L67.0711 1.79607ZM67.0959 1.81819L67.1227 1.84208L69.8435 1.93071L67.0959 1.81819ZM67.1227 1.84208L67.1514 1.86773L69.8696 1.95393L67.1227 1.84208ZM67.1514 1.86773L67.1822 1.89516L69.8976 1.97887L67.1514 1.86773ZM67.1822 1.89516L67.215 1.92435L69.9275 2.00553L67.1822 1.89516ZM67.215 1.92435L67.2497 1.95532L69.9594 2.03391L67.215 1.92435ZM67.2497 1.95532L67.2864 1.98806L69.9932 2.06402L67.2497 1.95532ZM67.2864 1.98806L67.3251 2.02257L70.0289 2.09584L67.2864 1.98806ZM67.3251 2.02257L67.3658 2.05885L70.0666 2.12939L67.3251 2.02257ZM67.3658 2.05885L67.4085 2.0969L70.1062 2.16466L67.3658 2.05885ZM67.4085 2.0969L67.4532 2.13672L70.1478 2.20165L67.4085 2.0969ZM68.0486 2.88953L68.1009 2.97835L70.7701 2.97217L68.0486 2.88953ZM67.4532 2.13672L67.4998 2.17831L70.1913 2.24036L67.4532 2.13672ZM67.9967 2.80472L68.0486 2.88953L70.7197 2.88974L67.9967 2.80472ZM67.4998 2.17831L67.5477 2.22281L70.2367 2.2808L67.4998 2.17831ZM67.9452 2.72395L67.9967 2.80472L70.6697 2.81122L67.9452 2.72395ZM67.5477 2.22281L67.596 2.27134L70.2833 2.32406L67.5477 2.22281ZM67.8941 2.6472L67.9452 2.72395L70.62 2.73661L67.8941 2.6472ZM67.596 2.27134L67.6446 2.32391L70.3302 2.37124L67.596 2.27134ZM67.8434 2.57448L67.8941 2.6472L70.5708 2.66592L67.8434 2.57448ZM67.6446 2.32391L67.6937 2.3805L70.3776 2.42233L67.6446 2.32391ZM67.7931 2.50579L67.8434 2.57448L70.5219 2.59915L67.7931 2.50579ZM67.6937 2.3805L67.7432 2.44113L70.4253 2.47736L67.6937 2.3805ZM67.7432 2.44113L67.7931 2.50579L70.4734 2.53629L67.7432 2.44113Z" fill="#E7E7E7"/>
<path d="M146.198 111.608L146.739 110.974L147.169 110.32L146.198 111.608ZM62.1571 1.97467L61.9969 2.16755L61.8443 2.37524L62.1571 1.97467ZM146.739 110.974L146.968 110.65L147.169 110.32L146.739 110.974ZM62.5061 1.63345L62.3275 1.79663L62.1571 1.97467L62.5061 1.63345ZM146.198 111.608L147.169 110.32L147.691 108.949L146.198 111.608ZM62.89 1.35182L62.5061 1.63345L62.1571 1.97467L62.89 1.35182ZM147.169 110.32L147.341 109.985L147.486 109.645L147.169 110.32ZM62.89 1.35182L62.6936 1.48518L62.5061 1.63345L62.89 1.35182ZM63.7647 0.967965L62.89 1.35182L62.1571 1.97467L63.7647 0.967965ZM147.169 110.32L147.486 109.645L147.691 108.949L147.169 110.32ZM63.3095 1.12993L63.0952 1.23339L62.89 1.35182L63.3095 1.12993ZM147.486 109.645L147.603 109.299L147.691 108.949L147.486 109.645ZM63.7647 0.967965L63.3095 1.12993L62.89 1.35182L63.7647 0.967965ZM63.7647 0.967965L63.5326 1.04144L63.3095 1.12993L63.7647 0.967965ZM65.7239 0.990454L63.7647 0.967965L62.1571 1.97467L65.7239 0.990454ZM147.691 108.949L147.751 108.593L147.783 108.233L147.691 108.949ZM147.691 108.949L147.783 108.233L147.725 107.471L147.691 108.949ZM64.2557 0.866107L64.0057 0.909511L63.7647 0.967965L64.2557 0.866107ZM64.7581 0.832031L64.2557 0.866107L63.7647 0.967965L64.7581 0.832031ZM147.783 108.233L147.765 107.85L147.725 107.471L147.783 108.233ZM147.691 108.949L147.725 107.471L147.342 105.997L147.691 108.949ZM64.7581 0.832031L64.5085 0.839644L64.2557 0.866107L64.7581 0.832031ZM65.7239 0.990454L64.7581 0.832031L63.7647 0.967965L65.7239 0.990454ZM147.725 107.471L147.662 107.096L147.578 106.725L147.725 107.471ZM147.725 107.471L147.578 106.725L147.342 105.997L147.725 107.471ZM65.2476 0.873418L65.004 0.843289L64.7581 0.832031L65.2476 0.873418ZM147.691 108.949L147.342 105.997L68.1009 2.97835L147.691 108.949ZM147.578 106.725L147.471 106.359L147.342 105.997L147.578 106.725ZM65.7239 0.990454L65.2476 0.873418L64.7581 0.832031L65.7239 0.990454ZM147.342 105.997L147.191 105.64L147.018 105.287L147.342 105.997ZM65.7239 0.990454L65.4874 0.922477L65.2476 0.873418L65.7239 0.990454ZM147.342 105.997L147.018 105.287L146.604 104.595L147.342 105.997ZM147.018 105.287L146.822 104.939L146.604 104.595L147.018 105.287ZM146.604 104.595L146.364 104.256L146.101 103.921L146.604 104.595ZM66.1869 1.18323L65.957 1.0774L65.7239 0.990454L66.1869 1.18323ZM147.342 105.997L146.604 104.595L68.1009 2.97835L147.342 105.997ZM66.6354 1.45177L66.1869 1.18323L65.7239 0.990454L66.6354 1.45177ZM146.604 104.595L146.101 103.921L68.1009 2.97835L146.604 104.595ZM67.1227 1.84208L66.6354 1.45177L65.7239 0.990454L67.1227 1.84208ZM66.6354 1.45177L66.4125 1.30803L66.1869 1.18323L66.6354 1.45177ZM67.2497 1.95532L67.1227 1.84208L65.7239 0.990454L67.2497 1.95532ZM67.2864 1.98806L67.2497 1.95532L65.7239 0.990454L67.2864 1.98806ZM67.0711 1.79607L66.855 1.61446L66.6354 1.45177L67.0711 1.79607ZM67.1227 1.84208L67.0711 1.79607L66.6354 1.45177L67.1227 1.84208ZM67.1822 1.89516L67.1514 1.86773L67.1227 1.84208L67.1822 1.89516ZM67.5477 2.22281L67.3251 2.02257L67.2864 1.98806L67.5477 2.22281ZM67.5477 2.22281L67.3658 2.05885L67.3251 2.02257L67.5477 2.22281ZM68.1009 2.97835L67.5477 2.22281L67.2864 1.98806L68.1009 2.97835ZM67.5477 2.22281L67.4085 2.0969L67.3658 2.05885L67.5477 2.22281ZM67.5477 2.22281L67.4532 2.13672L67.4085 2.0969L67.5477 2.22281ZM68.1009 2.97835L68.0486 2.88953L67.9452 2.72395L68.1009 2.97835ZM67.5477 2.22281L67.4998 2.17831L67.4532 2.13672L67.5477 2.22281ZM68.1009 2.97835L67.9452 2.72395L67.5477 2.22281L68.1009 2.97835ZM68.0486 2.88953L67.9967 2.80472L67.9452 2.72395L68.0486 2.88953ZM67.6446 2.32391L67.596 2.27134L67.5477 2.22281L67.6446 2.32391ZM67.9452 2.72395L67.7432 2.44113L67.5477 2.22281L67.9452 2.72395ZM67.9452 2.72395L67.8941 2.6472L67.8434 2.57448L67.9452 2.72395ZM67.7432 2.44113L67.6446 2.32391L67.5477 2.22281L67.7432 2.44113ZM67.9452 2.72395L67.8434 2.57448L67.7432 2.44113L67.9452 2.72395ZM67.7432 2.44113L67.6937 2.3805L67.6446 2.32391L67.7432 2.44113ZM67.8434 2.57448L67.7931 2.50579L67.7432 2.44113L67.8434 2.57448Z" fill="#010101"/>
</svg>
